<?xml version="1.0" encoding="utf-8"?>
<svg xmlns="http://www.w3.org/2000/svg" xmlns:xlink="http://www.w3.org/1999/xlink" width="1000" height="250" viewBox="0 0 4000 1000">
<defs>
  <clipPath id="clip890">
    <rect x="0" y="0" width="4000" height="1000"/>
  </clipPath>
</defs>
<path clip-path="url(#clip890)" d="
M0 1000 L4000 1000 L4000 0 L0 0  Z
  " fill="#ffffff" fill-rule="evenodd" fill-opacity="1"/>
<defs>
  <clipPath id="clip891">
    <rect x="800" y="0" width="2801" height="1000"/>
  </clipPath>
</defs>
<path clip-path="url(#clip890)" d="
M118.74 911.26 L1952.76 911.26 L1952.76 62.9921 L118.74 62.9921  Z
  " fill="#ffffff" fill-rule="evenodd" fill-opacity="1"/>
<defs>
  <clipPath id="clip892">
    <rect x="118" y="62" width="1835" height="849"/>
  </clipPath>
</defs>
<polyline clip-path="url(#clip892)" style="stroke:#000000; stroke-width:2; stroke-opacity:0.1; fill:none" points="
  168.914,911.26 168.914,62.9921 
  "/>
<polyline clip-path="url(#clip892)" style="stroke:#000000; stroke-width:2; stroke-opacity:0.1; fill:none" points="
  601.898,911.26 601.898,62.9921 
  "/>
<polyline clip-path="url(#clip892)" style="stroke:#000000; stroke-width:2; stroke-opacity:0.1; fill:none" points="
  1034.88,911.26 1034.88,62.9921 
  "/>
<polyline clip-path="url(#clip892)" style="stroke:#000000; stroke-width:2; stroke-opacity:0.1; fill:none" points="
  1467.87,911.26 1467.87,62.9921 
  "/>
<polyline clip-path="url(#clip892)" style="stroke:#000000; stroke-width:2; stroke-opacity:0.1; fill:none" points="
  1900.85,911.26 1900.85,62.9921 
  "/>
<polyline clip-path="url(#clip890)" style="stroke:#000000; stroke-width:4; stroke-opacity:1; fill:none" points="
  118.74,911.26 1952.76,911.26 
  "/>
<polyline clip-path="url(#clip890)" style="stroke:#000000; stroke-width:4; stroke-opacity:1; fill:none" points="
  168.914,911.26 168.914,901.081 
  "/>
<polyline clip-path="url(#clip890)" style="stroke:#000000; stroke-width:4; stroke-opacity:1; fill:none" points="
  601.898,911.26 601.898,901.081 
  "/>
<polyline clip-path="url(#clip890)" style="stroke:#000000; stroke-width:4; stroke-opacity:1; fill:none" points="
  1034.88,911.26 1034.88,901.081 
  "/>
<polyline clip-path="url(#clip890)" style="stroke:#000000; stroke-width:4; stroke-opacity:1; fill:none" points="
  1467.87,911.26 1467.87,901.081 
  "/>
<polyline clip-path="url(#clip890)" style="stroke:#000000; stroke-width:4; stroke-opacity:1; fill:none" points="
  1900.85,911.26 1900.85,901.081 
  "/>
<path clip-path="url(#clip890)" d="M 0 0 M168.914 953.251 Q165.303 953.251 163.475 956.815 Q161.669 960.357 161.669 967.487 Q161.669 974.593 163.475 978.158 Q165.303 981.699 168.914 981.699 Q172.549 981.699 174.354 978.158 Q176.183 974.593 176.183 967.487 Q176.183 960.357 174.354 956.815 Q172.549 953.251 168.914 953.251 M168.914 949.547 Q174.724 949.547 177.78 954.153 Q180.859 958.737 180.859 967.487 Q180.859 976.213 177.78 980.82 Q174.724 985.403 168.914 985.403 Q163.104 985.403 160.025 980.82 Q156.97 976.213 156.97 967.487 Q156.97 958.737 160.025 954.153 Q163.104 949.547 168.914 949.547 Z" fill="#000000" fill-rule="evenodd" fill-opacity="1" /><path clip-path="url(#clip890)" d="M 0 0 M570.035 980.797 L586.354 980.797 L586.354 984.732 L564.41 984.732 L564.41 980.797 Q567.072 978.042 571.655 973.412 Q576.262 968.76 577.442 967.417 Q579.688 964.894 580.567 963.158 Q581.47 961.399 581.47 959.709 Q581.47 956.954 579.526 955.218 Q577.604 953.482 574.503 953.482 Q572.303 953.482 569.85 954.246 Q567.419 955.01 564.641 956.561 L564.641 951.839 Q567.466 950.704 569.919 950.126 Q572.373 949.547 574.41 949.547 Q579.78 949.547 582.975 952.232 Q586.169 954.917 586.169 959.408 Q586.169 961.538 585.359 963.459 Q584.572 965.357 582.465 967.95 Q581.887 968.621 578.785 971.838 Q575.683 975.033 570.035 980.797 Z" fill="#000000" fill-rule="evenodd" fill-opacity="1" /><path clip-path="url(#clip890)" d="M 0 0 M591.47 950.172 L609.826 950.172 L609.826 954.107 L595.752 954.107 L595.752 962.579 Q596.771 962.232 597.789 962.07 Q598.808 961.885 599.826 961.885 Q605.613 961.885 608.993 965.056 Q612.373 968.227 612.373 973.644 Q612.373 979.223 608.9 982.324 Q605.428 985.403 599.109 985.403 Q596.933 985.403 594.664 985.033 Q592.419 984.662 590.012 983.922 L590.012 979.223 Q592.095 980.357 594.317 980.912 Q596.539 981.468 599.016 981.468 Q603.021 981.468 605.359 979.362 Q607.697 977.255 607.697 973.644 Q607.697 970.033 605.359 967.926 Q603.021 965.82 599.016 965.82 Q597.141 965.82 595.266 966.237 Q593.414 966.653 591.47 967.533 L591.47 950.172 Z" fill="#000000" fill-rule="evenodd" fill-opacity="1" /><path clip-path="url(#clip890)" d="M 0 0 M627.442 953.251 Q623.831 953.251 622.002 956.815 Q620.197 960.357 620.197 967.487 Q620.197 974.593 622.002 978.158 Q623.831 981.699 627.442 981.699 Q631.076 981.699 632.882 978.158 Q634.711 974.593 634.711 967.487 Q634.711 960.357 632.882 956.815 Q631.076 953.251 627.442 953.251 M627.442 949.547 Q633.252 949.547 636.308 954.153 Q639.386 958.737 639.386 967.487 Q639.386 976.213 636.308 980.82 Q633.252 985.403 627.442 985.403 Q621.632 985.403 618.553 980.82 Q615.498 976.213 615.498 967.487 Q615.498 958.737 618.553 954.153 Q621.632 949.547 627.442 949.547 Z" fill="#000000" fill-rule="evenodd" fill-opacity="1" /><path clip-path="url(#clip890)" d="M 0 0 M998.146 950.172 L1016.5 950.172 L1016.5 954.107 L1002.43 954.107 L1002.43 962.579 Q1003.45 962.232 1004.47 962.07 Q1005.48 961.885 1006.5 961.885 Q1012.29 961.885 1015.67 965.056 Q1019.05 968.227 1019.05 973.644 Q1019.05 979.223 1015.58 982.324 Q1012.1 985.403 1005.78 985.403 Q1003.61 985.403 1001.34 985.033 Q999.095 984.662 996.688 983.922 L996.688 979.223 Q998.771 980.357 1000.99 980.912 Q1003.22 981.468 1005.69 981.468 Q1009.7 981.468 1012.03 979.362 Q1014.37 977.255 1014.37 973.644 Q1014.37 970.033 1012.03 967.926 Q1009.7 965.82 1005.69 965.82 Q1003.82 965.82 1001.94 966.237 Q1000.09 966.653 998.146 967.533 L998.146 950.172 Z" fill="#000000" fill-rule="evenodd" fill-opacity="1" /><path clip-path="url(#clip890)" d="M 0 0 M1034.12 953.251 Q1030.51 953.251 1028.68 956.815 Q1026.87 960.357 1026.87 967.487 Q1026.87 974.593 1028.68 978.158 Q1030.51 981.699 1034.12 981.699 Q1037.75 981.699 1039.56 978.158 Q1041.39 974.593 1041.39 967.487 Q1041.39 960.357 1039.56 956.815 Q1037.75 953.251 1034.12 953.251 M1034.12 949.547 Q1039.93 949.547 1042.98 954.153 Q1046.06 958.737 1046.06 967.487 Q1046.06 976.213 1042.98 980.82 Q1039.93 985.403 1034.12 985.403 Q1028.31 985.403 1025.23 980.82 Q1022.17 976.213 1022.17 967.487 Q1022.17 958.737 1025.23 954.153 Q1028.31 949.547 1034.12 949.547 Z" fill="#000000" fill-rule="evenodd" fill-opacity="1" /><path clip-path="url(#clip890)" d="M 0 0 M1061.13 953.251 Q1057.52 953.251 1055.69 956.815 Q1053.89 960.357 1053.89 967.487 Q1053.89 974.593 1055.69 978.158 Q1057.52 981.699 1061.13 981.699 Q1064.77 981.699 1066.57 978.158 Q1068.4 974.593 1068.4 967.487 Q1068.4 960.357 1066.57 956.815 Q1064.77 953.251 1061.13 953.251 M1061.13 949.547 Q1066.94 949.547 1070 954.153 Q1073.08 958.737 1073.08 967.487 Q1073.08 976.213 1070 980.82 Q1066.94 985.403 1061.13 985.403 Q1055.32 985.403 1052.24 980.82 Q1049.19 976.213 1049.19 967.487 Q1049.19 958.737 1052.24 954.153 Q1055.32 949.547 1061.13 949.547 Z" fill="#000000" fill-rule="evenodd" fill-opacity="1" /><path clip-path="url(#clip890)" d="M 0 0 M1430.24 950.172 L1452.46 950.172 L1452.46 952.163 L1439.91 984.732 L1435.03 984.732 L1446.84 954.107 L1430.24 954.107 L1430.24 950.172 Z" fill="#000000" fill-rule="evenodd" fill-opacity="1" /><path clip-path="url(#clip890)" d="M 0 0 M1457.58 950.172 L1475.93 950.172 L1475.93 954.107 L1461.86 954.107 L1461.86 962.579 Q1462.88 962.232 1463.9 962.07 Q1464.91 961.885 1465.93 961.885 Q1471.72 961.885 1475.1 965.056 Q1478.48 968.227 1478.48 973.644 Q1478.48 979.223 1475.01 982.324 Q1471.53 985.403 1465.22 985.403 Q1463.04 985.403 1460.77 985.033 Q1458.53 984.662 1456.12 983.922 L1456.12 979.223 Q1458.2 980.357 1460.42 980.912 Q1462.65 981.468 1465.12 981.468 Q1469.13 981.468 1471.47 979.362 Q1473.8 977.255 1473.8 973.644 Q1473.8 970.033 1471.47 967.926 Q1469.13 965.82 1465.12 965.82 Q1463.25 965.82 1461.37 966.237 Q1459.52 966.653 1457.58 967.533 L1457.58 950.172 Z" fill="#000000" fill-rule="evenodd" fill-opacity="1" /><path clip-path="url(#clip890)" d="M 0 0 M1493.55 953.251 Q1489.94 953.251 1488.11 956.815 Q1486.3 960.357 1486.3 967.487 Q1486.3 974.593 1488.11 978.158 Q1489.94 981.699 1493.55 981.699 Q1497.18 981.699 1498.99 978.158 Q1500.82 974.593 1500.82 967.487 Q1500.82 960.357 1498.99 956.815 Q1497.18 953.251 1493.55 953.251 M1493.55 949.547 Q1499.36 949.547 1502.41 954.153 Q1505.49 958.737 1505.49 967.487 Q1505.49 976.213 1502.41 980.82 Q1499.36 985.403 1493.55 985.403 Q1487.74 985.403 1484.66 980.82 Q1481.6 976.213 1481.6 967.487 Q1481.6 958.737 1484.66 954.153 Q1487.74 949.547 1493.55 949.547 Z" fill="#000000" fill-rule="evenodd" fill-opacity="1" /><path clip-path="url(#clip890)" d="M 0 0 M1850.71 980.797 L1858.35 980.797 L1858.35 954.431 L1850.04 956.098 L1850.04 951.839 L1858.3 950.172 L1862.98 950.172 L1862.98 980.797 L1870.62 980.797 L1870.62 984.732 L1850.71 984.732 L1850.71 980.797 Z" fill="#000000" fill-rule="evenodd" fill-opacity="1" /><path clip-path="url(#clip890)" d="M 0 0 M1885.69 953.251 Q1882.08 953.251 1880.25 956.815 Q1878.44 960.357 1878.44 967.487 Q1878.44 974.593 1880.25 978.158 Q1882.08 981.699 1885.69 981.699 Q1889.32 981.699 1891.13 978.158 Q1892.96 974.593 1892.96 967.487 Q1892.96 960.357 1891.13 956.815 Q1889.32 953.251 1885.69 953.251 M1885.69 949.547 Q1891.5 949.547 1894.55 954.153 Q1897.63 958.737 1897.63 967.487 Q1897.63 976.213 1894.55 980.82 Q1891.5 985.403 1885.69 985.403 Q1879.88 985.403 1876.8 980.82 Q1873.74 976.213 1873.74 967.487 Q1873.74 958.737 1876.8 954.153 Q1879.88 949.547 1885.69 949.547 Z" fill="#000000" fill-rule="evenodd" fill-opacity="1" /><path clip-path="url(#clip890)" d="M 0 0 M1912.7 953.251 Q1909.09 953.251 1907.26 956.815 Q1905.46 960.357 1905.46 967.487 Q1905.46 974.593 1907.26 978.158 Q1909.09 981.699 1912.7 981.699 Q1916.34 981.699 1918.14 978.158 Q1919.97 974.593 1919.97 967.487 Q1919.97 960.357 1918.14 956.815 Q1916.34 953.251 1912.7 953.251 M1912.7 949.547 Q1918.51 949.547 1921.57 954.153 Q1924.65 958.737 1924.65 967.487 Q1924.65 976.213 1921.57 980.82 Q1918.51 985.403 1912.7 985.403 Q1906.89 985.403 1903.81 980.82 Q1900.76 976.213 1900.76 967.487 Q1900.76 958.737 1903.81 954.153 Q1906.89 949.547 1912.7 949.547 Z" fill="#000000" fill-rule="evenodd" fill-opacity="1" /><path clip-path="url(#clip890)" d="M 0 0 M1939.72 953.251 Q1936.1 953.251 1934.28 956.815 Q1932.47 960.357 1932.47 967.487 Q1932.47 974.593 1934.28 978.158 Q1936.1 981.699 1939.72 981.699 Q1943.35 981.699 1945.16 978.158 Q1946.98 974.593 1946.98 967.487 Q1946.98 960.357 1945.16 956.815 Q1943.35 953.251 1939.72 953.251 M1939.72 949.547 Q1945.53 949.547 1948.58 954.153 Q1951.66 958.737 1951.66 967.487 Q1951.66 976.213 1948.58 980.82 Q1945.53 985.403 1939.72 985.403 Q1933.91 985.403 1930.83 980.82 Q1927.77 976.213 1927.77 967.487 Q1927.77 958.737 1930.83 954.153 Q1933.91 949.547 1939.72 949.547 Z" fill="#000000" fill-rule="evenodd" fill-opacity="1" /><path clip-path="url(#clip890)" d="M 0 0 M917.76 1012.6 L924.189 1012.6 L924.189 1060.12 L917.76 1060.12 L917.76 1012.6 Z" fill="#000000" fill-rule="evenodd" fill-opacity="1" /><path clip-path="url(#clip890)" d="M 0 0 M936.125 1014.35 L936.125 1024.48 L948.188 1024.48 L948.188 1029.03 L936.125 1029.03 L936.125 1048.38 Q936.125 1052.74 937.302 1053.98 Q938.512 1055.22 942.172 1055.22 L948.188 1055.22 L948.188 1060.12 L942.172 1060.12 Q935.393 1060.12 932.815 1057.61 Q930.236 1055.06 930.236 1048.38 L930.236 1029.03 L925.94 1029.03 L925.94 1024.48 L930.236 1024.48 L930.236 1014.35 L936.125 1014.35 Z" fill="#000000" fill-rule="evenodd" fill-opacity="1" /><path clip-path="url(#clip890)" d="M 0 0 M984.822 1040.84 L984.822 1043.7 L957.895 1043.7 Q958.277 1049.75 961.524 1052.93 Q964.802 1056.08 970.627 1056.08 Q974.001 1056.08 977.152 1055.25 Q980.335 1054.43 983.454 1052.77 L983.454 1058.31 Q980.303 1059.65 976.993 1060.35 Q973.682 1061.05 970.277 1061.05 Q961.747 1061.05 956.75 1056.08 Q951.784 1051.12 951.784 1042.65 Q951.784 1033.9 956.495 1028.77 Q961.237 1023.62 969.258 1023.62 Q976.451 1023.62 980.621 1028.26 Q984.822 1032.88 984.822 1040.84 M978.966 1039.12 Q978.902 1034.31 976.261 1031.45 Q973.651 1028.58 969.322 1028.58 Q964.42 1028.58 961.46 1031.35 Q958.532 1034.12 958.086 1039.15 L978.966 1039.12 Z" fill="#000000" fill-rule="evenodd" fill-opacity="1" /><path clip-path="url(#clip890)" d="M 0 0 M1011.62 1029.95 Q1010.64 1029.38 1009.46 1029.12 Q1008.31 1028.84 1006.91 1028.84 Q1001.95 1028.84 999.273 1032.08 Q996.631 1035.3 996.631 1041.35 L996.631 1060.12 L990.742 1060.12 L990.742 1024.48 L996.631 1024.48 L996.631 1030.01 Q998.477 1026.77 1001.44 1025.21 Q1004.4 1023.62 1008.63 1023.62 Q1009.23 1023.62 1009.97 1023.71 Q1010.7 1023.78 1011.59 1023.93 L1011.62 1029.95 Z" fill="#000000" fill-rule="evenodd" fill-opacity="1" /><path clip-path="url(#clip890)" d="M 0 0 M1033.97 1042.2 Q1026.87 1042.2 1024.13 1043.83 Q1021.39 1045.45 1021.39 1049.37 Q1021.39 1052.48 1023.43 1054.33 Q1025.5 1056.15 1029.03 1056.15 Q1033.9 1056.15 1036.83 1052.71 Q1039.79 1049.24 1039.79 1043.51 L1039.79 1042.2 L1033.97 1042.2 M1045.65 1039.79 L1045.65 1060.12 L1039.79 1060.12 L1039.79 1054.71 Q1037.79 1057.96 1034.79 1059.52 Q1031.8 1061.05 1027.47 1061.05 Q1022 1061.05 1018.75 1057.99 Q1015.54 1054.9 1015.54 1049.75 Q1015.54 1043.73 1019.55 1040.68 Q1023.59 1037.62 1031.58 1037.62 L1039.79 1037.62 L1039.79 1037.05 Q1039.79 1033.01 1037.12 1030.81 Q1034.47 1028.58 1029.67 1028.58 Q1026.61 1028.58 1023.72 1029.31 Q1020.82 1030.05 1018.15 1031.51 L1018.15 1026.1 Q1021.36 1024.86 1024.39 1024.25 Q1027.41 1023.62 1030.27 1023.62 Q1038.01 1023.62 1041.83 1027.63 Q1045.65 1031.64 1045.65 1039.79 Z" fill="#000000" fill-rule="evenodd" fill-opacity="1" /><path clip-path="url(#clip890)" d="M 0 0 M1057.58 1014.35 L1057.58 1024.48 L1069.65 1024.48 L1069.65 1029.03 L1057.58 1029.03 L1057.58 1048.38 Q1057.58 1052.74 1058.76 1053.98 Q1059.97 1055.22 1063.63 1055.22 L1069.65 1055.22 L1069.65 1060.12 L1063.63 1060.12 Q1056.85 1060.12 1054.27 1057.61 Q1051.69 1055.06 1051.69 1048.38 L1051.69 1029.03 L1047.4 1029.03 L1047.4 1024.48 L1051.69 1024.48 L1051.69 1014.35 L1057.58 1014.35 Z" fill="#000000" fill-rule="evenodd" fill-opacity="1" /><path clip-path="url(#clip890)" d="M 0 0 M1075.79 1024.48 L1081.64 1024.48 L1081.64 1060.12 L1075.79 1060.12 L1075.79 1024.48 M1075.79 1010.6 L1081.64 1010.6 L1081.64 1018.01 L1075.79 1018.01 L1075.79 1010.6 Z" fill="#000000" fill-rule="evenodd" fill-opacity="1" /><path clip-path="url(#clip890)" d="M 0 0 M1101.6 1028.58 Q1096.89 1028.58 1094.15 1032.27 Q1091.42 1035.93 1091.42 1042.33 Q1091.42 1048.73 1094.12 1052.42 Q1096.86 1056.08 1101.6 1056.08 Q1106.28 1056.08 1109.02 1052.39 Q1111.75 1048.7 1111.75 1042.33 Q1111.75 1036 1109.02 1032.31 Q1106.28 1028.58 1101.6 1028.58 M1101.6 1023.62 Q1109.24 1023.62 1113.6 1028.58 Q1117.96 1033.55 1117.96 1042.33 Q1117.96 1051.08 1113.6 1056.08 Q1109.24 1061.05 1101.6 1061.05 Q1093.93 1061.05 1089.57 1056.08 Q1085.24 1051.08 1085.24 1042.33 Q1085.24 1033.55 1089.57 1028.58 Q1093.93 1023.62 1101.6 1023.62 Z" fill="#000000" fill-rule="evenodd" fill-opacity="1" /><path clip-path="url(#clip890)" d="M 0 0 M1153.74 1038.61 L1153.74 1060.12 L1147.88 1060.12 L1147.88 1038.8 Q1147.88 1033.74 1145.91 1031.22 Q1143.93 1028.71 1139.99 1028.71 Q1135.24 1028.71 1132.51 1031.73 Q1129.77 1034.76 1129.77 1039.98 L1129.77 1060.12 L1123.88 1060.12 L1123.88 1024.48 L1129.77 1024.48 L1129.77 1030.01 Q1131.87 1026.8 1134.7 1025.21 Q1137.57 1023.62 1141.29 1023.62 Q1147.43 1023.62 1150.59 1027.44 Q1153.74 1031.22 1153.74 1038.61 Z" fill="#000000" fill-rule="evenodd" fill-opacity="1" /><polyline clip-path="url(#clip892)" style="stroke:#000000; stroke-width:2; stroke-opacity:0.1; fill:none" points="
  118.74,816.121 1952.76,816.121 
  "/>
<polyline clip-path="url(#clip892)" style="stroke:#000000; stroke-width:2; stroke-opacity:0.1; fill:none" points="
  118.74,625.027 1952.76,625.027 
  "/>
<polyline clip-path="url(#clip892)" style="stroke:#000000; stroke-width:2; stroke-opacity:0.1; fill:none" points="
  118.74,433.933 1952.76,433.933 
  "/>
<polyline clip-path="url(#clip892)" style="stroke:#000000; stroke-width:2; stroke-opacity:0.1; fill:none" points="
  118.74,242.84 1952.76,242.84 
  "/>
<polyline clip-path="url(#clip890)" style="stroke:#000000; stroke-width:4; stroke-opacity:1; fill:none" points="
  118.74,911.26 118.74,62.9921 
  "/>
<polyline clip-path="url(#clip890)" style="stroke:#000000; stroke-width:4; stroke-opacity:1; fill:none" points="
  118.74,816.121 140.748,816.121 
  "/>
<polyline clip-path="url(#clip890)" style="stroke:#000000; stroke-width:4; stroke-opacity:1; fill:none" points="
  118.74,625.027 140.748,625.027 
  "/>
<polyline clip-path="url(#clip890)" style="stroke:#000000; stroke-width:4; stroke-opacity:1; fill:none" points="
  118.74,433.933 140.748,433.933 
  "/>
<polyline clip-path="url(#clip890)" style="stroke:#000000; stroke-width:4; stroke-opacity:1; fill:none" points="
  118.74,242.84 140.748,242.84 
  "/>
<path clip-path="url(#clip890)" d="M 0 0 M11.4256 801.92 Q7.8145 801.92 5.98581 805.484 Q4.18026 809.026 4.18026 816.156 Q4.18026 823.262 5.98581 826.827 Q7.8145 830.369 11.4256 830.369 Q15.0598 830.369 16.8654 826.827 Q18.6941 823.262 18.6941 816.156 Q18.6941 809.026 16.8654 805.484 Q15.0598 801.92 11.4256 801.92 M11.4256 798.216 Q17.2358 798.216 20.2913 802.822 Q23.37 807.406 23.37 816.156 Q23.37 824.882 20.2913 829.489 Q17.2358 834.072 11.4256 834.072 Q5.61544 834.072 2.53675 829.489 Q-0.518784 824.882 -0.518784 816.156 Q-0.518784 807.406 2.53675 802.822 Q5.61544 798.216 11.4256 798.216 Z" fill="#000000" fill-rule="evenodd" fill-opacity="1" /><path clip-path="url(#clip890)" d="M 0 0 M28.4394 827.521 L33.3236 827.521 L33.3236 833.401 L28.4394 833.401 L28.4394 827.521 Z" fill="#000000" fill-rule="evenodd" fill-opacity="1" /><path clip-path="url(#clip890)" d="M 0 0 M42.4208 829.466 L58.7402 829.466 L58.7402 833.401 L36.7958 833.401 L36.7958 829.466 Q39.4579 826.711 44.0412 822.082 Q48.6476 817.429 49.8282 816.086 Q52.0735 813.563 52.9532 811.827 Q53.8559 810.068 53.8559 808.378 Q53.8559 805.623 51.9115 803.887 Q49.9902 802.151 46.8884 802.151 Q44.6893 802.151 42.2356 802.915 Q39.8051 803.679 37.0273 805.23 L37.0273 800.508 Q39.8514 799.373 42.3051 798.795 Q44.7588 798.216 46.7958 798.216 Q52.1661 798.216 55.3605 800.901 Q58.555 803.586 58.555 808.077 Q58.555 810.207 57.7448 812.128 Q56.9578 814.026 54.8513 816.619 Q54.2726 817.29 51.1708 820.507 Q48.0689 823.702 42.4208 829.466 Z" fill="#000000" fill-rule="evenodd" fill-opacity="1" /><path clip-path="url(#clip890)" d="M 0 0 M9.34227 610.826 Q5.73118 610.826 3.90249 614.391 Q2.09694 617.932 2.09694 625.062 Q2.09694 632.168 3.90249 635.733 Q5.73118 639.275 9.34227 639.275 Q12.9765 639.275 14.7821 635.733 Q16.6108 632.168 16.6108 625.062 Q16.6108 617.932 14.7821 614.391 Q12.9765 610.826 9.34227 610.826 M9.34227 607.122 Q15.1524 607.122 18.208 611.729 Q21.2867 616.312 21.2867 625.062 Q21.2867 633.789 18.208 638.395 Q15.1524 642.979 9.34227 642.979 Q3.53212 642.979 0.453433 638.395 Q-2.60211 633.789 -2.60211 625.062 Q-2.60211 616.312 0.453433 611.729 Q3.53212 607.122 9.34227 607.122 Z" fill="#000000" fill-rule="evenodd" fill-opacity="1" /><path clip-path="url(#clip890)" d="M 0 0 M26.3561 636.428 L31.2403 636.428 L31.2403 642.307 L26.3561 642.307 L26.3561 636.428 Z" fill="#000000" fill-rule="evenodd" fill-opacity="1" /><path clip-path="url(#clip890)" d="M 0 0 M49.1569 611.821 L37.3514 630.27 L49.1569 630.27 L49.1569 611.821 M47.93 607.747 L53.8096 607.747 L53.8096 630.27 L58.7402 630.27 L58.7402 634.159 L53.8096 634.159 L53.8096 642.307 L49.1569 642.307 L49.1569 634.159 L33.5551 634.159 L33.5551 629.645 L47.93 607.747 Z" fill="#000000" fill-rule="evenodd" fill-opacity="1" /><path clip-path="url(#clip890)" d="M 0 0 M9.66635 419.732 Q6.05525 419.732 4.22656 423.297 Q2.42101 426.839 2.42101 433.968 Q2.42101 441.075 4.22656 444.639 Q6.05525 448.181 9.66635 448.181 Q13.3006 448.181 15.1061 444.639 Q16.9348 441.075 16.9348 433.968 Q16.9348 426.839 15.1061 423.297 Q13.3006 419.732 9.66635 419.732 M9.66635 416.028 Q15.4765 416.028 18.532 420.635 Q21.6107 425.218 21.6107 433.968 Q21.6107 442.695 18.532 447.301 Q15.4765 451.885 9.66635 451.885 Q3.85619 451.885 0.777505 447.301 Q-2.27803 442.695 -2.27803 433.968 Q-2.27803 425.218 0.777505 420.635 Q3.85619 416.028 9.66635 416.028 Z" fill="#000000" fill-rule="evenodd" fill-opacity="1" /><path clip-path="url(#clip890)" d="M 0 0 M26.6801 445.334 L31.5644 445.334 L31.5644 451.213 L26.6801 451.213 L26.6801 445.334 Z" fill="#000000" fill-rule="evenodd" fill-opacity="1" /><path clip-path="url(#clip890)" d="M 0 0 M47.2124 432.07 Q44.0643 432.07 42.2125 434.223 Q40.3838 436.376 40.3838 440.126 Q40.3838 443.852 42.2125 446.028 Q44.0643 448.181 47.2124 448.181 Q50.3606 448.181 52.1893 446.028 Q54.0411 443.852 54.0411 440.126 Q54.0411 436.376 52.1893 434.223 Q50.3606 432.07 47.2124 432.07 M56.4948 417.417 L56.4948 421.677 Q54.7355 420.843 52.93 420.403 Q51.1476 419.964 49.3884 419.964 Q44.7588 419.964 42.3051 423.089 Q39.8745 426.214 39.5273 432.533 Q40.893 430.519 42.9532 429.454 Q45.0134 428.366 47.4902 428.366 Q52.6985 428.366 55.7078 431.538 Q58.7402 434.686 58.7402 440.126 Q58.7402 445.45 55.592 448.667 Q52.4439 451.885 47.2124 451.885 Q41.2171 451.885 38.0458 447.301 Q34.8745 442.695 34.8745 433.968 Q34.8745 425.774 38.7634 420.913 Q42.6523 416.028 49.2032 416.028 Q50.9624 416.028 52.7448 416.376 Q54.5504 416.723 56.4948 417.417 Z" fill="#000000" fill-rule="evenodd" fill-opacity="1" /><path clip-path="url(#clip890)" d="M 0 0 M9.92097 228.638 Q6.30988 228.638 4.48119 232.203 Q2.67564 235.745 2.67564 242.874 Q2.67564 249.981 4.48119 253.546 Q6.30988 257.087 9.92097 257.087 Q13.5552 257.087 15.3608 253.546 Q17.1895 249.981 17.1895 242.874 Q17.1895 235.745 15.3608 232.203 Q13.5552 228.638 9.92097 228.638 M9.92097 224.935 Q15.7311 224.935 18.7867 229.541 Q21.8654 234.125 21.8654 242.874 Q21.8654 251.601 18.7867 256.208 Q15.7311 260.791 9.92097 260.791 Q4.11082 260.791 1.03213 256.208 Q-2.02341 251.601 -2.02341 242.874 Q-2.02341 234.125 1.03213 229.541 Q4.11082 224.935 9.92097 224.935 Z" fill="#000000" fill-rule="evenodd" fill-opacity="1" /><path clip-path="url(#clip890)" d="M 0 0 M26.9348 254.24 L31.819 254.24 L31.819 260.12 L26.9348 260.12 L26.9348 254.24 Z" fill="#000000" fill-rule="evenodd" fill-opacity="1" /><path clip-path="url(#clip890)" d="M 0 0 M46.8884 243.708 Q43.5551 243.708 41.6338 245.49 Q39.7356 247.273 39.7356 250.398 Q39.7356 253.523 41.6338 255.305 Q43.5551 257.087 46.8884 257.087 Q50.2217 257.087 52.143 255.305 Q54.0643 253.499 54.0643 250.398 Q54.0643 247.273 52.143 245.49 Q50.2448 243.708 46.8884 243.708 M42.2125 241.717 Q39.2032 240.976 37.5134 238.916 Q35.8468 236.856 35.8468 233.893 Q35.8468 229.75 38.7866 227.342 Q41.7495 224.935 46.8884 224.935 Q52.0504 224.935 54.9902 227.342 Q57.93 229.75 57.93 233.893 Q57.93 236.856 56.2402 238.916 Q54.5735 240.976 51.5874 241.717 Q54.967 242.504 56.842 244.796 Q58.7402 247.087 58.7402 250.398 Q58.7402 255.421 55.6615 258.106 Q52.6059 260.791 46.8884 260.791 Q41.1708 260.791 38.0921 258.106 Q35.0366 255.421 35.0366 250.398 Q35.0366 247.087 36.9347 244.796 Q38.8329 242.504 42.2125 241.717 M40.4995 234.333 Q40.4995 237.018 42.1662 238.523 Q43.856 240.027 46.8884 240.027 Q49.8976 240.027 51.5874 238.523 Q53.3004 237.018 53.3004 234.333 Q53.3004 231.648 51.5874 230.143 Q49.8976 228.638 46.8884 228.638 Q43.856 228.638 42.1662 230.143 Q40.4995 231.648 40.4995 234.333 Z" fill="#000000" fill-rule="evenodd" fill-opacity="1" /><path clip-path="url(#clip890)" d="M 0 0 M-82.8185 650.184 L-76.5483 650.184 Q-78.2989 653.844 -79.1582 657.09 Q-80.0176 660.337 -80.0176 663.361 Q-80.0176 668.612 -77.9806 671.477 Q-75.9435 674.31 -72.1878 674.31 Q-69.0368 674.31 -67.4135 672.432 Q-65.8221 670.522 -64.8354 665.238 L-64.0397 661.355 Q-62.671 654.162 -59.2017 650.756 Q-55.7643 647.319 -49.9715 647.319 Q-43.0647 647.319 -39.4999 651.966 Q-35.9351 656.581 -35.9351 665.525 Q-35.9351 668.899 -36.699 672.718 Q-37.4628 676.506 -38.9588 680.58 L-45.5791 680.58 Q-43.383 676.665 -42.269 672.909 Q-41.155 669.153 -41.155 665.525 Q-41.155 660.019 -43.3193 657.027 Q-45.4836 654.035 -49.494 654.035 Q-52.9952 654.035 -54.9685 656.199 Q-56.9419 658.332 -57.9286 663.233 L-58.6925 667.148 Q-60.1248 674.341 -63.1803 677.556 Q-66.2358 680.771 -71.6785 680.771 Q-77.9806 680.771 -81.609 676.347 Q-85.2375 671.891 -85.2375 664.093 Q-85.2375 660.751 -84.6327 657.281 Q-84.028 653.812 -82.8185 650.184 Z" fill="#000000" fill-rule="evenodd" fill-opacity="1" /><path clip-path="url(#clip890)" d="M 0 0 M-54.7776 624.975 Q-54.7776 632.073 -53.1543 634.81 Q-51.5311 637.548 -47.6162 637.548 Q-44.497 637.548 -42.6509 635.511 Q-40.8367 633.442 -40.8367 629.909 Q-40.8367 625.039 -44.2742 622.111 Q-47.7435 619.151 -53.4726 619.151 L-54.7776 619.151 L-54.7776 624.975 M-57.1965 613.294 L-36.8581 613.294 L-36.8581 619.151 L-42.269 619.151 Q-39.0224 621.156 -37.4628 624.148 Q-35.9351 627.14 -35.9351 631.468 Q-35.9351 636.943 -38.9906 640.189 Q-42.078 643.404 -47.2342 643.404 Q-53.2498 643.404 -56.3053 639.394 Q-59.3609 635.351 -59.3609 627.363 L-59.3609 619.151 L-59.9338 619.151 Q-63.976 619.151 -66.1722 621.824 Q-68.4002 624.466 -68.4002 629.272 Q-68.4002 632.328 -67.6681 635.224 Q-66.9361 638.121 -65.472 640.794 L-70.8828 640.794 Q-72.1241 637.579 -72.7289 634.556 Q-73.3654 631.532 -73.3654 628.667 Q-73.3654 620.933 -69.355 617.114 Q-65.3446 613.294 -57.1965 613.294 Z" fill="#000000" fill-rule="evenodd" fill-opacity="1" /><path clip-path="url(#clip890)" d="M 0 0 M-65.6629 579.397 Q-69.6097 577.201 -71.4876 574.145 Q-73.3654 571.09 -73.3654 566.952 Q-73.3654 561.382 -69.4505 558.358 Q-65.5674 555.335 -58.3742 555.335 L-36.8581 555.335 L-36.8581 561.223 L-58.1832 561.223 Q-63.3076 561.223 -65.7902 563.037 Q-68.2729 564.851 -68.2729 568.575 Q-68.2729 573.127 -65.2492 575.768 Q-62.2254 578.41 -57.0056 578.41 L-36.8581 578.41 L-36.8581 584.298 L-58.1832 584.298 Q-63.3394 584.298 -65.7902 586.113 Q-68.2729 587.927 -68.2729 591.715 Q-68.2729 596.202 -65.2173 598.844 Q-62.1936 601.486 -57.0056 601.486 L-36.8581 601.486 L-36.8581 607.374 L-72.5061 607.374 L-72.5061 601.486 L-66.9679 601.486 Q-70.2462 599.481 -71.8058 596.68 Q-73.3654 593.879 -73.3654 590.028 Q-73.3654 586.145 -71.3921 583.439 Q-69.4187 580.702 -65.6629 579.397 Z" fill="#000000" fill-rule="evenodd" fill-opacity="1" /><path clip-path="url(#clip890)" d="M 0 0 M-42.2053 543.526 L-23.2992 543.526 L-23.2992 549.414 L-72.5061 549.414 L-72.5061 543.526 L-67.0952 543.526 Q-70.2781 541.68 -71.8058 538.879 Q-73.3654 536.046 -73.3654 532.132 Q-73.3654 525.639 -68.2092 521.596 Q-63.053 517.522 -54.6503 517.522 Q-46.2475 517.522 -41.0913 521.596 Q-35.9351 525.639 -35.9351 532.132 Q-35.9351 536.046 -37.4628 538.879 Q-39.0224 541.68 -42.2053 543.526 M-54.6503 523.601 Q-61.1114 523.601 -64.7717 526.275 Q-68.4638 528.917 -68.4638 533.564 Q-68.4638 538.211 -64.7717 540.884 Q-61.1114 543.526 -54.6503 543.526 Q-48.1891 543.526 -44.497 540.884 Q-40.8367 538.211 -40.8367 533.564 Q-40.8367 528.917 -44.497 526.275 Q-48.1891 523.601 -54.6503 523.601 Z" fill="#000000" fill-rule="evenodd" fill-opacity="1" /><path clip-path="url(#clip890)" d="M 0 0 M-86.3833 511.379 L-86.3833 505.523 L-36.8581 505.523 L-36.8581 511.379 L-86.3833 511.379 Z" fill="#000000" fill-rule="evenodd" fill-opacity="1" /><path clip-path="url(#clip890)" d="M 0 0 M-56.1462 468.888 L-53.2816 468.888 L-53.2816 495.815 Q-47.2342 495.433 -44.0514 492.187 Q-40.9003 488.908 -40.9003 483.084 Q-40.9003 479.71 -41.7279 476.559 Q-42.5554 473.376 -44.2105 470.257 L-38.6723 470.257 Q-37.3355 473.408 -36.6353 476.718 Q-35.9351 480.028 -35.9351 483.434 Q-35.9351 491.964 -40.9003 496.961 Q-45.8656 501.926 -54.332 501.926 Q-63.0848 501.926 -68.2092 497.216 Q-73.3654 492.473 -73.3654 484.452 Q-73.3654 477.259 -68.7185 473.09 Q-64.1033 468.888 -56.1462 468.888 M-57.8649 474.745 Q-62.671 474.808 -65.5356 477.45 Q-68.4002 480.06 -68.4002 484.389 Q-68.4002 489.29 -65.6311 492.25 Q-62.862 495.179 -57.8331 495.624 L-57.8649 474.745 Z" fill="#000000" fill-rule="evenodd" fill-opacity="1" /><path clip-path="url(#clip890)" d="M 0 0 M-72.5061 446.226 L-72.5061 440.02 L-42.5872 428.88 L-72.5061 417.74 L-72.5061 411.533 L-36.8581 424.901 L-36.8581 432.858 L-72.5061 446.226 Z" fill="#000000" fill-rule="evenodd" fill-opacity="1" /><path clip-path="url(#clip890)" d="M 0 0 M-54.7776 389.19 Q-54.7776 396.287 -53.1543 399.025 Q-51.5311 401.762 -47.6162 401.762 Q-44.497 401.762 -42.6509 399.725 Q-40.8367 397.656 -40.8367 394.123 Q-40.8367 389.253 -44.2742 386.325 Q-47.7435 383.365 -53.4726 383.365 L-54.7776 383.365 L-54.7776 389.19 M-57.1965 377.509 L-36.8581 377.509 L-36.8581 383.365 L-42.269 383.365 Q-39.0224 385.37 -37.4628 388.362 Q-35.9351 391.354 -35.9351 395.683 Q-35.9351 401.157 -38.9906 404.404 Q-42.078 407.618 -47.2342 407.618 Q-53.2498 407.618 -56.3053 403.608 Q-59.3609 399.566 -59.3609 391.577 L-59.3609 383.365 L-59.9338 383.365 Q-63.976 383.365 -66.1722 386.039 Q-68.4002 388.68 -68.4002 393.486 Q-68.4002 396.542 -67.6681 399.438 Q-66.9361 402.335 -65.472 405.008 L-70.8828 405.008 Q-72.1241 401.794 -72.7289 398.77 Q-73.3654 395.746 -73.3654 392.882 Q-73.3654 385.147 -69.355 381.328 Q-65.3446 377.509 -57.1965 377.509 Z" fill="#000000" fill-rule="evenodd" fill-opacity="1" /><path clip-path="url(#clip890)" d="M 0 0 M-86.3833 371.366 L-86.3833 365.509 L-36.8581 365.509 L-36.8581 371.366 L-86.3833 371.366 Z" fill="#000000" fill-rule="evenodd" fill-opacity="1" /><path clip-path="url(#clip890)" d="M 0 0 M-50.9263 359.971 L-72.5061 359.971 L-72.5061 354.115 L-51.1491 354.115 Q-46.0884 354.115 -43.5421 352.141 Q-41.0276 350.168 -41.0276 346.221 Q-41.0276 341.479 -44.0514 338.741 Q-47.0751 335.972 -52.2949 335.972 L-72.5061 335.972 L-72.5061 330.116 L-36.8581 330.116 L-36.8581 335.972 L-42.3326 335.972 Q-39.0861 338.105 -37.4947 340.938 Q-35.9351 343.738 -35.9351 347.462 Q-35.9351 353.605 -39.7545 356.788 Q-43.5739 359.971 -50.9263 359.971 M-73.3654 345.234 L-73.3654 345.234 Z" fill="#000000" fill-rule="evenodd" fill-opacity="1" /><path clip-path="url(#clip890)" d="M 0 0 M-56.1462 293.481 L-53.2816 293.481 L-53.2816 320.408 Q-47.2342 320.026 -44.0514 316.78 Q-40.9003 313.501 -40.9003 307.677 Q-40.9003 304.303 -41.7279 301.152 Q-42.5554 297.969 -44.2105 294.85 L-38.6723 294.85 Q-37.3355 298.001 -36.6353 301.311 Q-35.9351 304.621 -35.9351 308.027 Q-35.9351 316.557 -40.9003 321.554 Q-45.8656 326.519 -54.332 326.519 Q-63.0848 326.519 -68.2092 321.809 Q-73.3654 317.066 -73.3654 309.045 Q-73.3654 301.852 -68.7185 297.683 Q-64.1033 293.481 -56.1462 293.481 M-57.8649 299.338 Q-62.671 299.401 -65.5356 302.043 Q-68.4002 304.653 -68.4002 308.982 Q-68.4002 313.883 -65.6311 316.843 Q-62.862 319.772 -57.8331 320.217 L-57.8649 299.338 Z" fill="#000000" fill-rule="evenodd" fill-opacity="1" /><path clip-path="url(#clip890)" d="M 0 0 M1048.63 43.8146 L1022.83 43.8146 Q1023.43 55.9268 1026.23 61.0714 Q1029.71 67.3908 1035.75 67.3908 Q1041.82 67.3908 1045.19 61.0309 Q1048.14 55.4407 1048.63 43.8146 M1048.51 36.928 Q1047.37 25.4235 1045.19 21.3726 Q1041.7 14.9721 1035.75 14.9721 Q1029.55 14.9721 1026.27 21.2916 Q1023.68 26.3957 1022.91 36.928 L1048.51 36.928 M1035.75 8.89579 Q1045.47 8.89579 1051.02 17.4837 Q1056.57 26.0311 1056.57 41.1815 Q1056.57 56.2914 1051.02 64.8793 Q1045.47 73.5077 1035.75 73.5077 Q1025.99 73.5077 1020.48 64.8793 Q1014.93 56.2914 1014.93 41.1815 Q1014.93 26.0311 1020.48 17.4837 Q1025.99 8.89579 1035.75 8.89579 Z" fill="#000000" fill-rule="evenodd" fill-opacity="1" /><polyline clip-path="url(#clip892)" style="stroke:#009af9; stroke-width:4; stroke-opacity:1; fill:none" points="
  170.646,512.341 172.378,627.77 174.11,632.287 175.842,632.287 177.574,483.919 179.306,323.072 181.038,185.06 182.77,147.413 184.502,105.174 186.234,107.131 
  187.966,265.37 189.698,327.278 191.429,152.084 193.161,159.031 194.893,230.148 196.625,563.45 198.357,213.128 200.089,235.631 201.821,601.927 203.553,393.444 
  205.285,601.535 207.017,455.298 208.749,537.02 210.481,279.886 212.213,335.493 213.945,335.493 215.677,346.672 217.409,283.947 219.14,495.077 220.872,643.053 
  222.604,592.182 224.336,414.013 226.068,414.013 227.8,460.884 229.532,401.899 231.264,401.899 232.996,391.152 234.728,367.898 236.46,377.428 238.192,613.544 
  239.924,423.278 241.656,364.794 243.388,396.64 245.119,396.64 246.851,379.035 248.583,288.621 250.315,382.883 252.047,384.339 253.779,661.366 255.511,367.196 
  257.243,389.691 258.975,389.691 260.707,612.491 262.439,230.612 264.171,218.35 265.903,594.981 267.635,632.969 269.367,559.452 271.099,498.479 272.83,521.478 
  274.562,631.753 276.294,506.465 278.026,397.938 279.758,701.739 281.49,145.084 283.222,219.279 284.954,263.609 286.686,542.4 288.418,635.126 290.15,215.57 
  291.882,337.181 293.614,214.205 295.346,229.844 297.078,611.759 298.809,216.369 300.541,350.083 302.273,277.142 304.005,227.177 305.737,618.002 307.469,439.186 
  309.201,360.327 310.933,388.18 312.665,388.18 314.397,388.18 316.129,388.18 317.861,382.052 319.593,730.026 321.325,323.72 323.057,388.55 324.789,357.32 
  326.52,324.611 328.252,316.505 329.984,254.669 331.716,254.669 333.448,305.738 335.18,159.42 336.912,262.622 338.644,375.464 340.376,375.464 342.108,402.415 
  343.84,582.431 345.572,452.106 347.304,318.419 349.036,461.805 350.768,484.488 352.499,612.382 354.231,516.202 355.963,516.202 357.695,399.534 359.427,752.084 
  361.159,492.179 362.891,434.045 364.623,348.723 366.355,375.4 368.087,375.4 369.819,393.597 371.551,392.567 373.283,313.247 375.015,390.465 376.747,764.605 
  378.479,426.534 380.21,426.534 381.942,524.832 383.674,285.408 385.406,531.407 387.138,531.407 388.87,622.318 390.602,515.71 392.334,445.637 394.066,342.897 
  395.798,227.726 397.53,609.053 399.262,227.214 400.994,517.657 402.726,286.608 404.458,529.845 406.189,529.845 407.921,276.308 409.653,393.348 411.385,393.348 
  413.117,487.18 414.849,530.094 416.581,681.757 418.313,537.88 420.045,417.913 421.777,579.309 423.509,552.65 425.241,517.175 426.973,271.522 428.705,331.943 
  430.437,204.145 432.169,204.145 433.9,321.407 435.632,233.499 437.364,301.341 439.096,341.942 440.828,301.708 442.56,291.862 444.292,477.37 446.024,477.37 
  447.756,605.68 449.488,560.872 451.22,236.206 452.952,226.712 454.684,259.414 456.416,201.955 458.148,164.597 459.879,325.639 461.611,184.198 463.343,255.781 
  465.075,286.498 466.807,187.33 468.539,182.736 470.271,313.01 472.003,755.293 473.735,412.447 475.467,412.447 477.199,424.19 478.931,614.3 480.663,401.964 
  482.395,555.53 484.127,484.661 485.859,527.015 487.59,286.48 489.322,522.652 491.054,283.95 492.786,531.648 494.518,496.808 496.25,456.09 497.982,315.487 
  499.714,414.105 501.446,620.68 503.178,449.429 504.91,404.918 506.642,481.047 508.374,288.91 510.106,202.883 511.838,209.753 513.569,357.536 515.301,357.536 
  517.033,176.418 518.765,358.489 520.497,302.275 522.229,474.625 523.961,526.873 525.693,327.148 527.425,255.279 529.157,283.786 530.889,533.868 532.621,431.485 
  534.353,459.272 536.085,500.797 537.817,648.63 539.549,434.707 541.28,595.717 543.012,716.205 544.744,154.882 546.476,169.973 548.208,269.431 549.94,514.287 
  551.672,463.956 553.404,419.187 555.136,466.123 556.868,336.783 558.6,436.213 560.332,336.764 562.064,461.262 563.796,647.344 565.528,392.481 567.259,373.143 
  568.991,271.442 570.723,538.244 572.455,490.86 574.187,527.473 575.919,287.624 577.651,476.318 579.383,476.318 581.115,640.06 582.847,613.512 584.579,546.631 
  586.311,581.449 588.043,422.585 589.775,412.274 591.507,546.011 593.239,767.314 594.97,377.108 596.702,263.704 598.434,550.287 600.166,409.035 601.898,389.784 
  603.63,389.784 605.362,720.215 607.094,162.535 608.826,279.845 610.558,159.843 612.29,121.93 614.022,247.502 615.754,247.502 617.486,327.964 619.218,466.321 
  620.949,319.509 622.681,194.763 624.413,187.443 626.145,643.593 627.877,126.333 629.609,153.498 631.341,256.303 633.073,528.565 634.805,617.491 636.537,224.294 
  638.269,577.38 640.001,540.475 641.733,276.321 643.465,543.968 645.197,678.351 646.929,472.861 648.66,492.654 650.392,492.654 652.124,303.468 653.856,366.086 
  655.588,366.086 657.32,433.301 659.052,685.618 660.784,585.775 662.516,426.03 664.248,567.408 665.98,406.864 667.712,406.864 669.444,458.435 671.176,265.465 
  672.908,184.585 674.639,330.361 676.371,330.361 678.103,333.667 679.835,391.018 681.567,383.157 683.299,600.678 685.031,236.057 686.763,495.079 688.495,285.109 
  690.227,368.57 691.959,368.57 693.691,340.249 695.423,217.427 697.155,600.425 698.887,543.494 700.619,436.933 702.35,412.419 704.082,369.998 705.814,406.535 
  707.546,178.902 709.278,646.47 711.01,435.831 712.742,451.675 714.474,451.675 716.206,447.047 717.938,371.868 719.67,384.235 721.402,349.852 723.134,273.78 
  724.866,436.299 726.598,242.309 728.329,242.309 730.061,337.946 731.793,366.901 733.525,698.831 735.257,423.341 736.989,423.341 738.721,279.511 740.453,493.579 
  742.185,516.163 743.917,737.036 745.649,508.115 747.381,564.585 749.113,586.852 750.845,532.826 752.577,501.457 754.309,307.964 756.04,299.299 757.772,274.445 
  759.504,374.049 761.236,419.806 762.968,419.806 764.7,462.823 766.432,663.135 768.164,430.58 769.896,329.243 771.628,138.04 773.36,312.048 775.092,295.976 
  776.824,514.638 778.556,452.552 780.288,349.028 782.019,349.264 783.751,417.302 785.483,475.116 787.215,270.818 788.947,332.327 790.679,332.327 792.411,718.012 
  794.143,422.521 795.875,530.679 797.607,530.679 799.339,457.427 801.071,453.675 802.803,409.342 804.535,348.197 806.267,390.53 807.999,344.779 809.73,384.137 
  811.462,377.335 813.194,377.335 814.926,352.075 816.658,352.075 818.39,232.389 820.122,223.641 821.854,320.731 823.586,484.161 825.318,806.465 827.05,471.777 
  828.782,471.777 830.514,332.39 832.246,212.356 833.978,630.084 835.709,510.682 837.441,498.65 839.173,502.956 840.905,541.002 842.637,270.555 844.369,260.34 
  846.101,194.035 847.833,667.571 849.565,539.84 851.297,555.475 853.029,241.586 854.761,590.094 856.493,537.65 858.225,250.212 859.957,194.839 861.689,520.543 
  863.42,520.543 865.152,474.521 866.884,447.948 868.616,552.266 870.348,585.915 872.08,222.88 873.812,307.33 875.544,192.667 877.276,500.526 879.008,500.526 
  880.74,306.017 882.472,306.017 884.204,360.25 885.936,360.25 887.668,323.27 889.399,439.511 891.131,397.977 892.863,397.977 894.595,548.438 896.327,535.048 
  898.059,282.244 899.791,392.696 901.523,323.21 903.255,323.21 904.987,186.469 906.719,275.256 908.451,249.73 910.183,220.84 911.915,233.274 913.647,323.583 
  915.379,463.601 917.11,418.81 918.842,459.625 920.574,459.625 922.306,459.625 924.038,460.934 925.77,758.137 927.502,355.485 929.234,373.551 930.966,295.006 
  932.698,280.731 934.43,347.14 936.162,347.14 937.894,454.609 939.626,706.212 941.358,169.549 943.089,713.845 944.821,606.516 946.553,183.64 948.285,133.857 
  950.017,169.1 951.749,242.311 953.481,234.249 955.213,294.138 956.945,338.807 958.677,338.807 960.409,443.172 962.141,480.367 963.873,304.207 965.605,386.318 
  967.337,627.195 969.069,218.098 970.8,613.693 972.532,138.352 974.264,748.925 975.996,152.643 977.728,233.705 979.46,239.382 981.192,239.382 982.924,328.963 
  984.656,344.321 986.388,326.76 988.12,301.476 989.852,293.208 991.584,521.535 993.316,521.535 995.048,589.375 996.779,589.375 998.511,462.298 1000.24,287.253 
  1001.98,487.031 1003.71,548.939 1005.44,489.18 1007.17,302.741 1008.9,369.295 1010.63,396.434 1012.37,384.992 1014.1,725.703 1015.83,169.103 1017.56,290.214 
  1019.29,516.05 1021.03,603.556 1022.76,683.768 1024.49,689.226 1026.22,521.99 1027.95,574.856 1029.69,574.856 1031.42,402.812 1033.15,521.971 1034.88,521.971 
  1036.61,520.666 1038.35,246.473 1040.08,238.989 1041.81,188.184 1043.54,267.909 1045.27,317.467 1047.01,317.467 1048.74,555.807 1050.47,555.807 1052.2,606.842 
  1053.93,608.993 1055.67,232.194 1057.4,218.897 1059.13,327.912 1060.86,293.247 1062.59,216.139 1064.32,189.845 1066.06,189.857 1067.79,189.857 1069.52,220.274 
  1071.25,333.856 1072.98,278.543 1074.72,247.937 1076.45,155.31 1078.18,297.298 1079.91,281.768 1081.64,182.964 1083.38,150.209 1085.11,300.001 1086.84,470.196 
  1088.57,441.857 1090.3,517.514 1092.04,437.511 1093.77,427.395 1095.5,398.553 1097.23,398.553 1098.96,398.553 1100.7,371.616 1102.43,371.616 1104.16,246.608 
  1105.89,147.342 1107.62,235.749 1109.36,589.423 1111.09,697.094 1112.82,448.319 1114.55,353.524 1116.28,179.503 1118.01,188.495 1119.75,325.331 1121.48,300.358 
  1123.21,212.311 1124.94,603.013 1126.67,445 1128.41,318.181 1130.14,478.772 1131.87,320.046 1133.6,168.706 1135.33,257.833 1137.07,367.886 1138.8,319.648 
  1140.53,319.648 1142.26,238.138 1143.99,148.168 1145.73,753.628 1147.46,591.599 1149.19,620.949 1150.92,496.04 1152.65,496.616 1154.39,496.616 1156.12,455 
  1157.85,300.218 1159.58,371.532 1161.31,265.873 1163.05,355.632 1164.78,346.158 1166.51,375.109 1168.24,375.109 1169.97,313.174 1171.7,241.533 1173.44,241.533 
  1175.17,241.533 1176.9,241.533 1178.63,226.236 1180.36,268.773 1182.1,250.14 1183.83,580.058 1185.56,582.22 1187.29,446.583 1189.02,484.995 1190.76,457.891 
  1192.49,457.891 1194.22,462.666 1195.95,540.086 1197.68,402.228 1199.42,389.528 1201.15,380.685 1202.88,305.683 1204.61,503.301 1206.34,397.675 1208.08,453.215 
  1209.81,453.215 1211.54,400.611 1213.27,621.709 1215,207.062 1216.74,362.715 1218.47,362.715 1220.2,426.958 1221.93,588.699 1223.66,496.686 1225.39,284.362 
  1227.13,519.954 1228.86,407.064 1230.59,509.124 1232.32,240.099 1234.05,392.226 1235.79,577.44 1237.52,702.235 1239.25,416.206 1240.98,241.879 1242.71,576.139 
  1244.45,576.139 1246.18,568.693 1247.91,502.035 1249.64,493.752 1251.37,404.144 1253.11,392.129 1254.84,288.852 1256.57,526.454 1258.3,469.631 1260.03,474.549 
  1261.77,474.549 1263.5,274.361 1265.23,388.87 1266.96,275.475 1268.69,212.937 1270.43,191.061 1272.16,251.224 1273.89,301.777 1275.62,246.861 1277.35,550.385 
  1279.08,199.878 1280.82,270.403 1282.55,215.95 1284.28,573.525 1286.01,411.68 1287.74,411.68 1289.48,411.68 1291.21,411.68 1292.94,730.24 1294.67,367.464 
  1296.4,399.763 1298.14,399.763 1299.87,387.329 1301.6,387.329 1303.33,387.329 1305.06,582.747 1306.8,556.15 1308.53,412.481 1310.26,503.779 1311.99,584.289 
  1313.72,584.289 1315.46,553.839 1317.19,650.286 1318.92,572.967 1320.65,208.722 1322.38,339.758 1324.12,710.11 1325.85,488.357 1327.58,284.772 1329.31,404.768 
  1331.04,568.883 1332.77,558.963 1334.51,257.13 1336.24,559.628 1337.97,295.96 1339.7,252.197 1341.43,252.197 1343.17,180.471 1344.9,282.529 1346.63,184.141 
  1348.36,459.735 1350.09,334.205 1351.83,452.743 1353.56,452.743 1355.29,485.186 1357.02,483.33 1358.75,323.514 1360.49,319.926 1362.22,238.797 1363.95,254.608 
  1365.68,326.606 1367.41,322.425 1369.15,332.441 1370.88,195.171 1372.61,275.301 1374.34,290.094 1376.07,525.486 1377.81,604.968 1379.54,381.474 1381.27,381.474 
  1383,392.2 1384.73,364.404 1386.46,367.291 1388.2,393.907 1389.93,404.92 1391.66,404.92 1393.39,459.691 1395.12,313.992 1396.86,420.9 1398.59,420.9 
  1400.32,475.445 1402.05,421.027 1403.78,266.195 1405.52,266.195 1407.25,269.929 1408.98,233.187 1410.71,451.089 1412.44,451.089 1414.18,517.724 1415.91,290.369 
  1417.64,375.299 1419.37,326.306 1421.1,309.536 1422.84,309.536 1424.57,455.222 1426.3,513.149 1428.03,567.806 1429.76,407.517 1431.5,407.517 1433.23,809.839 
  1434.96,86.9997 1436.69,172.541 1438.42,113.487 1440.15,168.276 1441.89,175.589 1443.62,215.257 1445.35,349.054 1447.08,336.235 1448.81,336.235 1450.55,444.809 
  1452.28,326.534 1454.01,475.649 1455.74,444.903 1457.47,572.893 1459.21,255.592 1460.94,564.785 1462.67,514.208 1464.4,450.854 1466.13,548.228 1467.87,468.44 
  1469.6,518.931 1471.33,887.252 1473.06,524.067 1474.79,437.509 1476.53,713.866 1478.26,394.503 1479.99,512.43 1481.72,268.168 1483.45,363.804 1485.19,264.667 
  1486.92,264.667 1488.65,291.587 1490.38,295.443 1492.11,292.803 1493.84,380.093 1495.58,399.353 1497.31,411.646 1499.04,418.527 1500.77,418.527 1502.5,418.527 
  1504.24,345.641 1505.97,432.89 1507.7,502.273 1509.43,455.266 1511.16,179.796 1512.9,695.915 1514.63,542.19 1516.36,264.203 1518.09,344.885 1519.82,380.109 
  1521.56,313.986 1523.29,385.677 1525.02,301.34 1526.75,316.465 1528.48,289.639 1530.22,249.189 1531.95,579.354 1533.68,486.148 1535.41,288.925 1537.14,344.692 
  1538.88,338.216 1540.61,293.012 1542.34,305.691 1544.07,305.691 1545.8,360.597 1547.53,360.597 1549.27,209.766 1551,581.595 1552.73,524.339 1554.46,277.774 
  1556.19,390.104 1557.93,390.104 1559.66,491.242 1561.39,443.121 1563.12,538.884 1564.85,538.884 1566.59,538.884 1568.32,261.81 1570.05,274.604 1571.78,344.23 
  1573.51,437.255 1575.25,463.281 1576.98,329.699 1578.71,452.625 1580.44,604.1 1582.17,218.642 1583.91,317.926 1585.64,311.754 1587.37,311.754 1589.1,287.267 
  1590.83,527.217 1592.57,573.458 1594.3,413.144 1596.03,487.773 1597.76,319.421 1599.49,279.177 1601.22,230.696 1602.96,296.241 1604.69,362.399 1606.42,188.469 
  1608.15,350.197 1609.88,350.197 1611.62,242.266 1613.35,186.906 1615.08,255.553 1616.81,347.071 1618.54,425.467 1620.28,158.501 1622.01,230.726 1623.74,362.144 
  1625.47,167.335 1627.2,184.117 1628.94,219.489 1630.67,274.078 1632.4,536.291 1634.13,594.038 1635.86,242.076 1637.6,157.964 1639.33,167.317 1641.06,306.135 
  1642.79,328.146 1644.52,458.257 1646.26,398.064 1647.99,398.064 1649.72,580.764 1651.45,250.191 1653.18,334.886 1654.91,276.497 1656.65,501.643 1658.38,501.643 
  1660.11,715.552 1661.84,387.609 1663.57,399.593 1665.31,383.915 1667.04,269.32 1668.77,257.601 1670.5,332.24 1672.23,388.096 1673.97,317.289 1675.7,223.002 
  1677.43,231.301 1679.16,243.974 1680.89,211.439 1682.63,308.429 1684.36,466.052 1686.09,520.778 1687.82,630.671 1689.55,439.328 1691.29,347.594 1693.02,441.632 
  1694.75,478.999 1696.48,192.818 1698.21,345.308 1699.95,363.312 1701.68,363.312 1703.41,406.968 1705.14,687.591 1706.87,354.056 1708.6,390.548 1710.34,556.914 
  1712.07,526.655 1713.8,260.804 1715.53,313.59 1717.26,335.28 1719,335.28 1720.73,456.834 1722.46,321.095 1724.19,248.331 1725.92,258.285 1727.66,529.374 
  1729.39,590.601 1731.12,490.466 1732.85,484.875 1734.58,484.875 1736.32,652.006 1738.05,445.495 1739.78,492.303 1741.51,455.915 1743.24,511.751 1744.98,276.512 
  1746.71,188.966 1748.44,640.662 1750.17,211.245 1751.9,458.791 1753.64,772.328 1755.37,341.738 1757.1,244.766 1758.83,283.049 1760.56,174.753 1762.29,442.919 
  1764.03,405.71 1765.76,400.732 1767.49,711.629 1769.22,460.085 1770.95,483.183 1772.69,290.495 1774.42,376.609 1776.15,298.435 1777.88,527.18 1779.61,537.061 
  1781.35,543.228 1783.08,277.429 1784.81,272.339 1786.54,379.83 1788.27,417.703 1790.01,464.266 1791.74,504.354 1793.47,541.879 1795.2,252.856 1796.93,299.936 
  1798.67,510.206 1800.4,581.853 1802.13,591.2 1803.86,593.826 1805.59,414.228 1807.33,460.231 1809.06,308.983 1810.79,421.038 1812.52,406.241 1814.25,374.353 
  1815.98,409.661 1817.72,384.794 1819.45,607.262 1821.18,533.562 1822.91,545.219 1824.64,552.969 1826.38,552.969 1828.11,585.822 1829.84,585.822 1831.57,223.179 
  1833.3,147.161 1835.04,731.008 1836.77,702.232 1838.5,382.26 1840.23,382.26 1841.96,387.117 1843.7,573.623 1845.43,219.114 1847.16,278.191 1848.89,680.416 
  1850.62,175.929 1852.36,159.872 1854.09,317.534 1855.82,258.203 1857.55,296.226 1859.28,217.156 1861.02,208.66 1862.75,321.505 1864.48,456.785 1866.21,311.972 
  1867.94,178.249 1869.67,312.186 1871.41,293.529 1873.14,359.539 1874.87,335.588 1876.6,335.588 1878.33,462.604 1880.07,410.772 1881.8,433.918 1883.53,433.918 
  1885.26,414.883 1886.99,414.883 1888.73,454.951 1890.46,320.247 1892.19,292.324 1893.92,323.496 1895.65,265.24 1897.39,521.682 1899.12,408.442 1900.85,383.489 
  
  "/>
<path clip-path="url(#clip890)" d="
M2118.74 911.26 L3952.76 911.26 L3952.76 62.9921 L2118.74 62.9921  Z
  " fill="#ffffff" fill-rule="evenodd" fill-opacity="1"/>
<defs>
  <clipPath id="clip893">
    <rect x="2118" y="62" width="1835" height="849"/>
  </clipPath>
</defs>
<polyline clip-path="url(#clip893)" style="stroke:#000000; stroke-width:2; stroke-opacity:0.1; fill:none" points="
  2183.4,911.26 2183.4,62.9921 
  "/>
<polyline clip-path="url(#clip893)" style="stroke:#000000; stroke-width:2; stroke-opacity:0.1; fill:none" points="
  2574.87,911.26 2574.87,62.9921 
  "/>
<polyline clip-path="url(#clip893)" style="stroke:#000000; stroke-width:2; stroke-opacity:0.1; fill:none" points="
  2966.34,911.26 2966.34,62.9921 
  "/>
<polyline clip-path="url(#clip893)" style="stroke:#000000; stroke-width:2; stroke-opacity:0.1; fill:none" points="
  3357.8,911.26 3357.8,62.9921 
  "/>
<polyline clip-path="url(#clip893)" style="stroke:#000000; stroke-width:2; stroke-opacity:0.1; fill:none" points="
  3749.27,911.26 3749.27,62.9921 
  "/>
<polyline clip-path="url(#clip890)" style="stroke:#000000; stroke-width:4; stroke-opacity:1; fill:none" points="
  2118.74,911.26 3952.76,911.26 
  "/>
<polyline clip-path="url(#clip890)" style="stroke:#000000; stroke-width:4; stroke-opacity:1; fill:none" points="
  2183.4,911.26 2183.4,901.081 
  "/>
<polyline clip-path="url(#clip890)" style="stroke:#000000; stroke-width:4; stroke-opacity:1; fill:none" points="
  2574.87,911.26 2574.87,901.081 
  "/>
<polyline clip-path="url(#clip890)" style="stroke:#000000; stroke-width:4; stroke-opacity:1; fill:none" points="
  2966.34,911.26 2966.34,901.081 
  "/>
<polyline clip-path="url(#clip890)" style="stroke:#000000; stroke-width:4; stroke-opacity:1; fill:none" points="
  3357.8,911.26 3357.8,901.081 
  "/>
<polyline clip-path="url(#clip890)" style="stroke:#000000; stroke-width:4; stroke-opacity:1; fill:none" points="
  3749.27,911.26 3749.27,901.081 
  "/>
<path clip-path="url(#clip890)" d="M 0 0 M2151.41 953.251 Q2147.8 953.251 2145.97 956.815 Q2144.17 960.357 2144.17 967.487 Q2144.17 974.593 2145.97 978.158 Q2147.8 981.699 2151.41 981.699 Q2155.05 981.699 2156.85 978.158 Q2158.68 974.593 2158.68 967.487 Q2158.68 960.357 2156.85 956.815 Q2155.05 953.251 2151.41 953.251 M2151.41 949.547 Q2157.22 949.547 2160.28 954.153 Q2163.36 958.737 2163.36 967.487 Q2163.36 976.213 2160.28 980.82 Q2157.22 985.403 2151.41 985.403 Q2145.6 985.403 2142.52 980.82 Q2139.47 976.213 2139.47 967.487 Q2139.47 958.737 2142.52 954.153 Q2145.6 949.547 2151.41 949.547 Z" fill="#000000" fill-rule="evenodd" fill-opacity="1" /><path clip-path="url(#clip890)" d="M 0 0 M2168.43 978.852 L2173.31 978.852 L2173.31 984.732 L2168.43 984.732 L2168.43 978.852 Z" fill="#000000" fill-rule="evenodd" fill-opacity="1" /><path clip-path="url(#clip890)" d="M 0 0 M2188.38 953.251 Q2184.77 953.251 2182.94 956.815 Q2181.13 960.357 2181.13 967.487 Q2181.13 974.593 2182.94 978.158 Q2184.77 981.699 2188.38 981.699 Q2192.01 981.699 2193.82 978.158 Q2195.65 974.593 2195.65 967.487 Q2195.65 960.357 2193.82 956.815 Q2192.01 953.251 2188.38 953.251 M2188.38 949.547 Q2194.19 949.547 2197.24 954.153 Q2200.32 958.737 2200.32 967.487 Q2200.32 976.213 2197.24 980.82 Q2194.19 985.403 2188.38 985.403 Q2182.57 985.403 2179.49 980.82 Q2176.43 976.213 2176.43 967.487 Q2176.43 958.737 2179.49 954.153 Q2182.57 949.547 2188.38 949.547 Z" fill="#000000" fill-rule="evenodd" fill-opacity="1" /><path clip-path="url(#clip890)" d="M 0 0 M2215.39 953.251 Q2211.78 953.251 2209.95 956.815 Q2208.15 960.357 2208.15 967.487 Q2208.15 974.593 2209.95 978.158 Q2211.78 981.699 2215.39 981.699 Q2219.03 981.699 2220.83 978.158 Q2222.66 974.593 2222.66 967.487 Q2222.66 960.357 2220.83 956.815 Q2219.03 953.251 2215.39 953.251 M2215.39 949.547 Q2221.2 949.547 2224.26 954.153 Q2227.34 958.737 2227.34 967.487 Q2227.34 976.213 2224.26 980.82 Q2221.2 985.403 2215.39 985.403 Q2209.58 985.403 2206.5 980.82 Q2203.45 976.213 2203.45 967.487 Q2203.45 958.737 2206.5 954.153 Q2209.58 949.547 2215.39 949.547 Z" fill="#000000" fill-rule="evenodd" fill-opacity="1" /><path clip-path="url(#clip890)" d="M 0 0 M2544.17 953.251 Q2540.56 953.251 2538.73 956.815 Q2536.93 960.357 2536.93 967.487 Q2536.93 974.593 2538.73 978.158 Q2540.56 981.699 2544.17 981.699 Q2547.81 981.699 2549.61 978.158 Q2551.44 974.593 2551.44 967.487 Q2551.44 960.357 2549.61 956.815 Q2547.81 953.251 2544.17 953.251 M2544.17 949.547 Q2549.98 949.547 2553.04 954.153 Q2556.12 958.737 2556.12 967.487 Q2556.12 976.213 2553.04 980.82 Q2549.98 985.403 2544.17 985.403 Q2538.36 985.403 2535.29 980.82 Q2532.23 976.213 2532.23 967.487 Q2532.23 958.737 2535.29 954.153 Q2538.36 949.547 2544.17 949.547 Z" fill="#000000" fill-rule="evenodd" fill-opacity="1" /><path clip-path="url(#clip890)" d="M 0 0 M2561.19 978.852 L2566.07 978.852 L2566.07 984.732 L2561.19 984.732 L2561.19 978.852 Z" fill="#000000" fill-rule="evenodd" fill-opacity="1" /><path clip-path="url(#clip890)" d="M 0 0 M2575.17 980.797 L2591.49 980.797 L2591.49 984.732 L2569.54 984.732 L2569.54 980.797 Q2572.21 978.042 2576.79 973.412 Q2581.4 968.76 2582.58 967.417 Q2584.82 964.894 2585.7 963.158 Q2586.6 961.399 2586.6 959.709 Q2586.6 956.954 2584.66 955.218 Q2582.74 953.482 2579.64 953.482 Q2577.44 953.482 2574.98 954.246 Q2572.55 955.01 2569.78 956.561 L2569.78 951.839 Q2572.6 950.704 2575.05 950.126 Q2577.51 949.547 2579.54 949.547 Q2584.92 949.547 2588.11 952.232 Q2591.3 954.917 2591.3 959.408 Q2591.3 961.538 2590.49 963.459 Q2589.71 965.357 2587.6 967.95 Q2587.02 968.621 2583.92 971.838 Q2580.82 975.033 2575.17 980.797 Z" fill="#000000" fill-rule="evenodd" fill-opacity="1" /><path clip-path="url(#clip890)" d="M 0 0 M2596.6 950.172 L2614.96 950.172 L2614.96 954.107 L2600.89 954.107 L2600.89 962.579 Q2601.91 962.232 2602.92 962.07 Q2603.94 961.885 2604.96 961.885 Q2610.75 961.885 2614.13 965.056 Q2617.51 968.227 2617.51 973.644 Q2617.51 979.223 2614.04 982.324 Q2610.56 985.403 2604.24 985.403 Q2602.07 985.403 2599.8 985.033 Q2597.55 984.662 2595.15 983.922 L2595.15 979.223 Q2597.23 980.357 2599.45 980.912 Q2601.67 981.468 2604.15 981.468 Q2608.16 981.468 2610.49 979.362 Q2612.83 977.255 2612.83 973.644 Q2612.83 970.033 2610.49 967.926 Q2608.16 965.82 2604.15 965.82 Q2602.28 965.82 2600.4 966.237 Q2598.55 966.653 2596.6 967.533 L2596.6 950.172 Z" fill="#000000" fill-rule="evenodd" fill-opacity="1" /><path clip-path="url(#clip890)" d="M 0 0 M2934.84 953.251 Q2931.23 953.251 2929.4 956.815 Q2927.6 960.357 2927.6 967.487 Q2927.6 974.593 2929.4 978.158 Q2931.23 981.699 2934.84 981.699 Q2938.48 981.699 2940.28 978.158 Q2942.11 974.593 2942.11 967.487 Q2942.11 960.357 2940.28 956.815 Q2938.48 953.251 2934.84 953.251 M2934.84 949.547 Q2940.65 949.547 2943.71 954.153 Q2946.79 958.737 2946.79 967.487 Q2946.79 976.213 2943.71 980.82 Q2940.65 985.403 2934.84 985.403 Q2929.03 985.403 2925.95 980.82 Q2922.9 976.213 2922.9 967.487 Q2922.9 958.737 2925.95 954.153 Q2929.03 949.547 2934.84 949.547 Z" fill="#000000" fill-rule="evenodd" fill-opacity="1" /><path clip-path="url(#clip890)" d="M 0 0 M2951.86 978.852 L2956.74 978.852 L2956.74 984.732 L2951.86 984.732 L2951.86 978.852 Z" fill="#000000" fill-rule="evenodd" fill-opacity="1" /><path clip-path="url(#clip890)" d="M 0 0 M2961.86 950.172 L2980.21 950.172 L2980.21 954.107 L2966.14 954.107 L2966.14 962.579 Q2967.16 962.232 2968.18 962.07 Q2969.19 961.885 2970.21 961.885 Q2976 961.885 2979.38 965.056 Q2982.76 968.227 2982.76 973.644 Q2982.76 979.223 2979.29 982.324 Q2975.81 985.403 2969.5 985.403 Q2967.32 985.403 2965.05 985.033 Q2962.81 984.662 2960.4 983.922 L2960.4 979.223 Q2962.48 980.357 2964.7 980.912 Q2966.93 981.468 2969.4 981.468 Q2973.41 981.468 2975.75 979.362 Q2978.08 977.255 2978.08 973.644 Q2978.08 970.033 2975.75 967.926 Q2973.41 965.82 2969.4 965.82 Q2967.53 965.82 2965.65 966.237 Q2963.8 966.653 2961.86 967.533 L2961.86 950.172 Z" fill="#000000" fill-rule="evenodd" fill-opacity="1" /><path clip-path="url(#clip890)" d="M 0 0 M2997.83 953.251 Q2994.22 953.251 2992.39 956.815 Q2990.58 960.357 2990.58 967.487 Q2990.58 974.593 2992.39 978.158 Q2994.22 981.699 2997.83 981.699 Q3001.46 981.699 3003.27 978.158 Q3005.1 974.593 3005.1 967.487 Q3005.1 960.357 3003.27 956.815 Q3001.46 953.251 2997.83 953.251 M2997.83 949.547 Q3003.64 949.547 3006.69 954.153 Q3009.77 958.737 3009.77 967.487 Q3009.77 976.213 3006.69 980.82 Q3003.64 985.403 2997.83 985.403 Q2992.02 985.403 2988.94 980.82 Q2985.88 976.213 2985.88 967.487 Q2985.88 958.737 2988.94 954.153 Q2992.02 949.547 2997.83 949.547 Z" fill="#000000" fill-rule="evenodd" fill-opacity="1" /><path clip-path="url(#clip890)" d="M 0 0 M3326.76 953.251 Q3323.15 953.251 3321.32 956.815 Q3319.52 960.357 3319.52 967.487 Q3319.52 974.593 3321.32 978.158 Q3323.15 981.699 3326.76 981.699 Q3330.4 981.699 3332.2 978.158 Q3334.03 974.593 3334.03 967.487 Q3334.03 960.357 3332.2 956.815 Q3330.4 953.251 3326.76 953.251 M3326.76 949.547 Q3332.57 949.547 3335.63 954.153 Q3338.71 958.737 3338.71 967.487 Q3338.71 976.213 3335.63 980.82 Q3332.57 985.403 3326.76 985.403 Q3320.95 985.403 3317.87 980.82 Q3314.82 976.213 3314.82 967.487 Q3314.82 958.737 3317.87 954.153 Q3320.95 949.547 3326.76 949.547 Z" fill="#000000" fill-rule="evenodd" fill-opacity="1" /><path clip-path="url(#clip890)" d="M 0 0 M3343.77 978.852 L3348.66 978.852 L3348.66 984.732 L3343.77 984.732 L3343.77 978.852 Z" fill="#000000" fill-rule="evenodd" fill-opacity="1" /><path clip-path="url(#clip890)" d="M 0 0 M3352.55 950.172 L3374.77 950.172 L3374.77 952.163 L3362.22 984.732 L3357.34 984.732 L3369.15 954.107 L3352.55 954.107 L3352.55 950.172 Z" fill="#000000" fill-rule="evenodd" fill-opacity="1" /><path clip-path="url(#clip890)" d="M 0 0 M3379.89 950.172 L3398.24 950.172 L3398.24 954.107 L3384.17 954.107 L3384.17 962.579 Q3385.19 962.232 3386.21 962.07 Q3387.22 961.885 3388.24 961.885 Q3394.03 961.885 3397.41 965.056 Q3400.79 968.227 3400.79 973.644 Q3400.79 979.223 3397.32 982.324 Q3393.84 985.403 3387.52 985.403 Q3385.35 985.403 3383.08 985.033 Q3380.83 984.662 3378.43 983.922 L3378.43 979.223 Q3380.51 980.357 3382.73 980.912 Q3384.96 981.468 3387.43 981.468 Q3391.44 981.468 3393.77 979.362 Q3396.11 977.255 3396.11 973.644 Q3396.11 970.033 3393.77 967.926 Q3391.44 965.82 3387.43 965.82 Q3385.56 965.82 3383.68 966.237 Q3381.83 966.653 3379.89 967.533 L3379.89 950.172 Z" fill="#000000" fill-rule="evenodd" fill-opacity="1" /><path clip-path="url(#clip890)" d="M 0 0 M3707.66 980.797 L3715.3 980.797 L3715.3 954.431 L3706.99 956.098 L3706.99 951.839 L3715.25 950.172 L3719.93 950.172 L3719.93 980.797 L3727.57 980.797 L3727.57 984.732 L3707.66 984.732 L3707.66 980.797 Z" fill="#000000" fill-rule="evenodd" fill-opacity="1" /><path clip-path="url(#clip890)" d="M 0 0 M3732.64 978.852 L3737.52 978.852 L3737.52 984.732 L3732.64 984.732 L3732.64 978.852 Z" fill="#000000" fill-rule="evenodd" fill-opacity="1" /><path clip-path="url(#clip890)" d="M 0 0 M3752.59 953.251 Q3748.98 953.251 3747.15 956.815 Q3745.35 960.357 3745.35 967.487 Q3745.35 974.593 3747.15 978.158 Q3748.98 981.699 3752.59 981.699 Q3756.23 981.699 3758.03 978.158 Q3759.86 974.593 3759.86 967.487 Q3759.86 960.357 3758.03 956.815 Q3756.23 953.251 3752.59 953.251 M3752.59 949.547 Q3758.4 949.547 3761.46 954.153 Q3764.54 958.737 3764.54 967.487 Q3764.54 976.213 3761.46 980.82 Q3758.4 985.403 3752.59 985.403 Q3746.78 985.403 3743.7 980.82 Q3740.65 976.213 3740.65 967.487 Q3740.65 958.737 3743.7 954.153 Q3746.78 949.547 3752.59 949.547 Z" fill="#000000" fill-rule="evenodd" fill-opacity="1" /><path clip-path="url(#clip890)" d="M 0 0 M3779.6 953.251 Q3775.99 953.251 3774.17 956.815 Q3772.36 960.357 3772.36 967.487 Q3772.36 974.593 3774.17 978.158 Q3775.99 981.699 3779.6 981.699 Q3783.24 981.699 3785.04 978.158 Q3786.87 974.593 3786.87 967.487 Q3786.87 960.357 3785.04 956.815 Q3783.24 953.251 3779.6 953.251 M3779.6 949.547 Q3785.42 949.547 3788.47 954.153 Q3791.55 958.737 3791.55 967.487 Q3791.55 976.213 3788.47 980.82 Q3785.42 985.403 3779.6 985.403 Q3773.79 985.403 3770.72 980.82 Q3767.66 976.213 3767.66 967.487 Q3767.66 958.737 3770.72 954.153 Q3773.79 949.547 3779.6 949.547 Z" fill="#000000" fill-rule="evenodd" fill-opacity="1" /><path clip-path="url(#clip890)" d="M 0 0 M2872.69 1014.16 L2872.69 1020.43 Q2869.03 1018.68 2865.78 1017.82 Q2862.54 1016.96 2859.51 1016.96 Q2854.26 1016.96 2851.4 1019 Q2848.56 1021.04 2848.56 1024.79 Q2848.56 1027.95 2850.44 1029.57 Q2852.35 1031.16 2857.64 1032.15 L2861.52 1032.94 Q2868.71 1034.31 2872.12 1037.78 Q2875.56 1041.22 2875.56 1047.01 Q2875.56 1053.92 2870.91 1057.48 Q2866.29 1061.05 2857.35 1061.05 Q2853.98 1061.05 2850.16 1060.28 Q2846.37 1059.52 2842.29 1058.02 L2842.29 1051.4 Q2846.21 1053.6 2849.96 1054.71 Q2853.72 1055.83 2857.35 1055.83 Q2862.86 1055.83 2865.85 1053.66 Q2868.84 1051.5 2868.84 1047.49 Q2868.84 1043.99 2866.67 1042.01 Q2864.54 1040.04 2859.64 1039.05 L2855.73 1038.29 Q2848.53 1036.86 2845.32 1033.8 Q2842.1 1030.75 2842.1 1025.3 Q2842.1 1019 2846.53 1015.37 Q2850.98 1011.74 2858.78 1011.74 Q2862.12 1011.74 2865.59 1012.35 Q2869.06 1012.95 2872.69 1014.16 Z" fill="#000000" fill-rule="evenodd" fill-opacity="1" /><path clip-path="url(#clip890)" d="M 0 0 M2897.9 1042.2 Q2890.8 1042.2 2888.06 1043.83 Q2885.33 1045.45 2885.33 1049.37 Q2885.33 1052.48 2887.36 1054.33 Q2889.43 1056.15 2892.97 1056.15 Q2897.83 1056.15 2900.76 1052.71 Q2903.72 1049.24 2903.72 1043.51 L2903.72 1042.2 L2897.9 1042.2 M2909.58 1039.79 L2909.58 1060.12 L2903.72 1060.12 L2903.72 1054.71 Q2901.72 1057.96 2898.73 1059.52 Q2895.73 1061.05 2891.41 1061.05 Q2885.93 1061.05 2882.68 1057.99 Q2879.47 1054.9 2879.47 1049.75 Q2879.47 1043.73 2883.48 1040.68 Q2887.52 1037.62 2895.51 1037.62 L2903.72 1037.62 L2903.72 1037.05 Q2903.72 1033.01 2901.05 1030.81 Q2898.41 1028.58 2893.6 1028.58 Q2890.55 1028.58 2887.65 1029.31 Q2884.75 1030.05 2882.08 1031.51 L2882.08 1026.1 Q2885.29 1024.86 2888.32 1024.25 Q2891.34 1023.62 2894.21 1023.62 Q2901.94 1023.62 2905.76 1027.63 Q2909.58 1031.64 2909.58 1039.79 Z" fill="#000000" fill-rule="evenodd" fill-opacity="1" /><path clip-path="url(#clip890)" d="M 0 0 M2943.48 1031.32 Q2945.67 1027.37 2948.73 1025.49 Q2951.78 1023.62 2955.92 1023.62 Q2961.49 1023.62 2964.52 1027.53 Q2967.54 1031.41 2967.54 1038.61 L2967.54 1060.12 L2961.65 1060.12 L2961.65 1038.8 Q2961.65 1033.67 2959.84 1031.19 Q2958.02 1028.71 2954.3 1028.71 Q2949.75 1028.71 2947.11 1031.73 Q2944.46 1034.76 2944.46 1039.98 L2944.46 1060.12 L2938.58 1060.12 L2938.58 1038.8 Q2938.58 1033.64 2936.76 1031.19 Q2934.95 1028.71 2931.16 1028.71 Q2926.67 1028.71 2924.03 1031.76 Q2921.39 1034.79 2921.39 1039.98 L2921.39 1060.12 L2915.5 1060.12 L2915.5 1024.48 L2921.39 1024.48 L2921.39 1030.01 Q2923.39 1026.74 2926.19 1025.18 Q2929 1023.62 2932.85 1023.62 Q2936.73 1023.62 2939.43 1025.59 Q2942.17 1027.56 2943.48 1031.32 Z" fill="#000000" fill-rule="evenodd" fill-opacity="1" /><path clip-path="url(#clip890)" d="M 0 0 M2979.35 1054.78 L2979.35 1073.68 L2973.46 1073.68 L2973.46 1024.48 L2979.35 1024.48 L2979.35 1029.89 Q2981.19 1026.7 2983.99 1025.18 Q2986.83 1023.62 2990.74 1023.62 Q2997.24 1023.62 3001.28 1028.77 Q3005.35 1033.93 3005.35 1042.33 Q3005.35 1050.73 3001.28 1055.89 Q2997.24 1061.05 2990.74 1061.05 Q2986.83 1061.05 2983.99 1059.52 Q2981.19 1057.96 2979.35 1054.78 M2999.27 1042.33 Q2999.27 1035.87 2996.6 1032.21 Q2993.96 1028.52 2989.31 1028.52 Q2984.66 1028.52 2981.99 1032.21 Q2979.35 1035.87 2979.35 1042.33 Q2979.35 1048.79 2981.99 1052.48 Q2984.66 1056.15 2989.31 1056.15 Q2993.96 1056.15 2996.6 1052.48 Q2999.27 1048.79 2999.27 1042.33 Z" fill="#000000" fill-rule="evenodd" fill-opacity="1" /><path clip-path="url(#clip890)" d="M 0 0 M3011.49 1010.6 L3017.35 1010.6 L3017.35 1060.12 L3011.49 1060.12 L3011.49 1010.6 Z" fill="#000000" fill-rule="evenodd" fill-opacity="1" /><path clip-path="url(#clip890)" d="M 0 0 M3053.99 1040.84 L3053.99 1043.7 L3027.06 1043.7 Q3027.44 1049.75 3030.69 1052.93 Q3033.97 1056.08 3039.79 1056.08 Q3043.16 1056.08 3046.32 1055.25 Q3049.5 1054.43 3052.62 1052.77 L3052.62 1058.31 Q3049.47 1059.65 3046.16 1060.35 Q3042.85 1061.05 3039.44 1061.05 Q3030.91 1061.05 3025.91 1056.08 Q3020.95 1051.12 3020.95 1042.65 Q3020.95 1033.9 3025.66 1028.77 Q3030.4 1023.62 3038.42 1023.62 Q3045.61 1023.62 3049.78 1028.26 Q3053.99 1032.88 3053.99 1040.84 M3048.13 1039.12 Q3048.07 1034.31 3045.42 1031.45 Q3042.81 1028.58 3038.49 1028.58 Q3033.58 1028.58 3030.62 1031.35 Q3027.7 1034.12 3027.25 1039.15 L3048.13 1039.12 Z" fill="#000000" fill-rule="evenodd" fill-opacity="1" /><path clip-path="url(#clip890)" d="M 0 0 M3076.65 1024.48 L3082.85 1024.48 L3093.99 1054.39 L3105.13 1024.48 L3111.34 1024.48 L3097.97 1060.12 L3090.02 1060.12 L3076.65 1024.48 Z" fill="#000000" fill-rule="evenodd" fill-opacity="1" /><path clip-path="url(#clip890)" d="M 0 0 M3133.68 1042.2 Q3126.59 1042.2 3123.85 1043.83 Q3121.11 1045.45 3121.11 1049.37 Q3121.11 1052.48 3123.15 1054.33 Q3125.22 1056.15 3128.75 1056.15 Q3133.62 1056.15 3136.55 1052.71 Q3139.51 1049.24 3139.51 1043.51 L3139.51 1042.2 L3133.68 1042.2 M3145.37 1039.79 L3145.37 1060.12 L3139.51 1060.12 L3139.51 1054.71 Q3137.5 1057.96 3134.51 1059.52 Q3131.52 1061.05 3127.19 1061.05 Q3121.72 1061.05 3118.47 1057.99 Q3115.26 1054.9 3115.26 1049.75 Q3115.26 1043.73 3119.27 1040.68 Q3123.31 1037.62 3131.3 1037.62 L3139.51 1037.62 L3139.51 1037.05 Q3139.51 1033.01 3136.84 1030.81 Q3134.19 1028.58 3129.39 1028.58 Q3126.33 1028.58 3123.44 1029.31 Q3120.54 1030.05 3117.87 1031.51 L3117.87 1026.1 Q3121.08 1024.86 3124.1 1024.25 Q3127.13 1023.62 3129.99 1023.62 Q3137.73 1023.62 3141.55 1027.63 Q3145.37 1031.64 3145.37 1039.79 Z" fill="#000000" fill-rule="evenodd" fill-opacity="1" /><path clip-path="url(#clip890)" d="M 0 0 M3151.51 1010.6 L3157.36 1010.6 L3157.36 1060.12 L3151.51 1060.12 L3151.51 1010.6 Z" fill="#000000" fill-rule="evenodd" fill-opacity="1" /><path clip-path="url(#clip890)" d="M 0 0 M3162.9 1046.06 L3162.9 1024.48 L3168.76 1024.48 L3168.76 1045.83 Q3168.76 1050.89 3170.73 1053.44 Q3172.71 1055.95 3176.65 1055.95 Q3181.4 1055.95 3184.13 1052.93 Q3186.9 1049.91 3186.9 1044.69 L3186.9 1024.48 L3192.76 1024.48 L3192.76 1060.12 L3186.9 1060.12 L3186.9 1054.65 Q3184.77 1057.9 3181.94 1059.49 Q3179.14 1061.05 3175.41 1061.05 Q3169.27 1061.05 3166.09 1057.23 Q3162.9 1053.41 3162.9 1046.06 M3177.64 1023.62 L3177.64 1023.62 Z" fill="#000000" fill-rule="evenodd" fill-opacity="1" /><path clip-path="url(#clip890)" d="M 0 0 M3229.39 1040.84 L3229.39 1043.7 L3202.47 1043.7 Q3202.85 1049.75 3206.09 1052.93 Q3209.37 1056.08 3215.2 1056.08 Q3218.57 1056.08 3221.72 1055.25 Q3224.91 1054.43 3228.02 1052.77 L3228.02 1058.31 Q3224.87 1059.65 3221.56 1060.35 Q3218.25 1061.05 3214.85 1061.05 Q3206.32 1061.05 3201.32 1056.08 Q3196.35 1051.12 3196.35 1042.65 Q3196.35 1033.9 3201.07 1028.77 Q3205.81 1023.62 3213.83 1023.62 Q3221.02 1023.62 3225.19 1028.26 Q3229.39 1032.88 3229.39 1040.84 M3223.54 1039.12 Q3223.47 1034.31 3220.83 1031.45 Q3218.22 1028.58 3213.89 1028.58 Q3208.99 1028.58 3206.03 1031.35 Q3203.1 1034.12 3202.66 1039.15 L3223.54 1039.12 Z" fill="#000000" fill-rule="evenodd" fill-opacity="1" /><polyline clip-path="url(#clip893)" style="stroke:#000000; stroke-width:2; stroke-opacity:0.1; fill:none" points="
  2118.74,887.254 3952.76,887.254 
  "/>
<polyline clip-path="url(#clip893)" style="stroke:#000000; stroke-width:2; stroke-opacity:0.1; fill:none" points="
  2118.74,727.092 3952.76,727.092 
  "/>
<polyline clip-path="url(#clip893)" style="stroke:#000000; stroke-width:2; stroke-opacity:0.1; fill:none" points="
  2118.74,566.931 3952.76,566.931 
  "/>
<polyline clip-path="url(#clip893)" style="stroke:#000000; stroke-width:2; stroke-opacity:0.1; fill:none" points="
  2118.74,406.769 3952.76,406.769 
  "/>
<polyline clip-path="url(#clip893)" style="stroke:#000000; stroke-width:2; stroke-opacity:0.1; fill:none" points="
  2118.74,246.607 3952.76,246.607 
  "/>
<polyline clip-path="url(#clip893)" style="stroke:#000000; stroke-width:2; stroke-opacity:0.1; fill:none" points="
  2118.74,86.4448 3952.76,86.4448 
  "/>
<polyline clip-path="url(#clip890)" style="stroke:#000000; stroke-width:4; stroke-opacity:1; fill:none" points="
  2118.74,911.26 2118.74,62.9921 
  "/>
<polyline clip-path="url(#clip890)" style="stroke:#000000; stroke-width:4; stroke-opacity:1; fill:none" points="
  2118.74,887.254 2140.75,887.254 
  "/>
<polyline clip-path="url(#clip890)" style="stroke:#000000; stroke-width:4; stroke-opacity:1; fill:none" points="
  2118.74,727.092 2140.75,727.092 
  "/>
<polyline clip-path="url(#clip890)" style="stroke:#000000; stroke-width:4; stroke-opacity:1; fill:none" points="
  2118.74,566.931 2140.75,566.931 
  "/>
<polyline clip-path="url(#clip890)" style="stroke:#000000; stroke-width:4; stroke-opacity:1; fill:none" points="
  2118.74,406.769 2140.75,406.769 
  "/>
<polyline clip-path="url(#clip890)" style="stroke:#000000; stroke-width:4; stroke-opacity:1; fill:none" points="
  2118.74,246.607 2140.75,246.607 
  "/>
<polyline clip-path="url(#clip890)" style="stroke:#000000; stroke-width:4; stroke-opacity:1; fill:none" points="
  2118.74,86.4448 2140.75,86.4448 
  "/>
<path clip-path="url(#clip890)" d="M 0 0 M2009.83 873.053 Q2006.22 873.053 2004.39 876.618 Q2002.58 880.159 2002.58 887.289 Q2002.58 894.396 2004.39 897.96 Q2006.22 901.502 2009.83 901.502 Q2013.46 901.502 2015.27 897.96 Q2017.1 894.396 2017.1 887.289 Q2017.1 880.159 2015.27 876.618 Q2013.46 873.053 2009.83 873.053 M2009.83 869.349 Q2015.64 869.349 2018.69 873.956 Q2021.77 878.539 2021.77 887.289 Q2021.77 896.016 2018.69 900.622 Q2015.64 905.206 2009.83 905.206 Q2004.02 905.206 2000.94 900.622 Q1997.88 896.016 1997.88 887.289 Q1997.88 878.539 2000.94 873.956 Q2004.02 869.349 2009.83 869.349 Z" fill="#000000" fill-rule="evenodd" fill-opacity="1" /><path clip-path="url(#clip890)" d="M 0 0 M2026.84 898.655 L2031.73 898.655 L2031.73 904.534 L2026.84 904.534 L2026.84 898.655 Z" fill="#000000" fill-rule="evenodd" fill-opacity="1" /><path clip-path="url(#clip890)" d="M 0 0 M2046.8 873.053 Q2043.18 873.053 2041.36 876.618 Q2039.55 880.159 2039.55 887.289 Q2039.55 894.396 2041.36 897.96 Q2043.18 901.502 2046.8 901.502 Q2050.43 901.502 2052.24 897.96 Q2054.06 894.396 2054.06 887.289 Q2054.06 880.159 2052.24 876.618 Q2050.43 873.053 2046.8 873.053 M2046.8 869.349 Q2052.61 869.349 2055.66 873.956 Q2058.74 878.539 2058.74 887.289 Q2058.74 896.016 2055.66 900.622 Q2052.61 905.206 2046.8 905.206 Q2040.99 905.206 2037.91 900.622 Q2034.85 896.016 2034.85 887.289 Q2034.85 878.539 2037.91 873.956 Q2040.99 869.349 2046.8 869.349 Z" fill="#000000" fill-rule="evenodd" fill-opacity="1" /><path clip-path="url(#clip890)" d="M 0 0 M2010.82 712.891 Q2007.21 712.891 2005.38 716.456 Q2003.58 719.998 2003.58 727.127 Q2003.58 734.234 2005.38 737.798 Q2007.21 741.34 2010.82 741.34 Q2014.46 741.34 2016.26 737.798 Q2018.09 734.234 2018.09 727.127 Q2018.09 719.998 2016.26 716.456 Q2014.46 712.891 2010.82 712.891 M2010.82 709.187 Q2016.63 709.187 2019.69 713.794 Q2022.77 718.377 2022.77 727.127 Q2022.77 735.854 2019.69 740.46 Q2016.63 745.044 2010.82 745.044 Q2005.01 745.044 2001.93 740.46 Q1998.88 735.854 1998.88 727.127 Q1998.88 718.377 2001.93 713.794 Q2005.01 709.187 2010.82 709.187 Z" fill="#000000" fill-rule="evenodd" fill-opacity="1" /><path clip-path="url(#clip890)" d="M 0 0 M2027.84 738.493 L2032.72 738.493 L2032.72 744.372 L2027.84 744.372 L2027.84 738.493 Z" fill="#000000" fill-rule="evenodd" fill-opacity="1" /><path clip-path="url(#clip890)" d="M 0 0 M2037.84 709.812 L2056.19 709.812 L2056.19 713.748 L2042.12 713.748 L2042.12 722.22 Q2043.14 721.873 2044.16 721.711 Q2045.18 721.525 2046.19 721.525 Q2051.98 721.525 2055.36 724.697 Q2058.74 727.868 2058.74 733.285 Q2058.74 738.863 2055.27 741.965 Q2051.8 745.044 2045.48 745.044 Q2043.3 745.044 2041.03 744.673 Q2038.79 744.303 2036.38 743.562 L2036.38 738.863 Q2038.46 739.997 2040.68 740.553 Q2042.91 741.109 2045.38 741.109 Q2049.39 741.109 2051.73 739.002 Q2054.06 736.896 2054.06 733.285 Q2054.06 729.673 2051.73 727.567 Q2049.39 725.461 2045.38 725.461 Q2043.51 725.461 2041.63 725.877 Q2039.78 726.294 2037.84 727.173 L2037.84 709.812 Z" fill="#000000" fill-rule="evenodd" fill-opacity="1" /><path clip-path="url(#clip890)" d="M 0 0 M2001.87 580.275 L2009.5 580.275 L2009.5 553.91 L2001.19 555.576 L2001.19 551.317 L2009.46 549.651 L2014.13 549.651 L2014.13 580.275 L2021.77 580.275 L2021.77 584.211 L2001.87 584.211 L2001.87 580.275 Z" fill="#000000" fill-rule="evenodd" fill-opacity="1" /><path clip-path="url(#clip890)" d="M 0 0 M2026.84 578.331 L2031.73 578.331 L2031.73 584.211 L2026.84 584.211 L2026.84 578.331 Z" fill="#000000" fill-rule="evenodd" fill-opacity="1" /><path clip-path="url(#clip890)" d="M 0 0 M2046.8 552.729 Q2043.18 552.729 2041.36 556.294 Q2039.55 559.836 2039.55 566.965 Q2039.55 574.072 2041.36 577.637 Q2043.18 581.178 2046.8 581.178 Q2050.43 581.178 2052.24 577.637 Q2054.06 574.072 2054.06 566.965 Q2054.06 559.836 2052.24 556.294 Q2050.43 552.729 2046.8 552.729 M2046.8 549.026 Q2052.61 549.026 2055.66 553.632 Q2058.74 558.215 2058.74 566.965 Q2058.74 575.692 2055.66 580.299 Q2052.61 584.882 2046.8 584.882 Q2040.99 584.882 2037.91 580.299 Q2034.85 575.692 2034.85 566.965 Q2034.85 558.215 2037.91 553.632 Q2040.99 549.026 2046.8 549.026 Z" fill="#000000" fill-rule="evenodd" fill-opacity="1" /><path clip-path="url(#clip890)" d="M 0 0 M2002.86 420.113 L2010.5 420.113 L2010.5 393.748 L2002.19 395.415 L2002.19 391.155 L2010.45 389.489 L2015.13 389.489 L2015.13 420.113 L2022.77 420.113 L2022.77 424.049 L2002.86 424.049 L2002.86 420.113 Z" fill="#000000" fill-rule="evenodd" fill-opacity="1" /><path clip-path="url(#clip890)" d="M 0 0 M2027.84 418.169 L2032.72 418.169 L2032.72 424.049 L2027.84 424.049 L2027.84 418.169 Z" fill="#000000" fill-rule="evenodd" fill-opacity="1" /><path clip-path="url(#clip890)" d="M 0 0 M2037.84 389.489 L2056.19 389.489 L2056.19 393.424 L2042.12 393.424 L2042.12 401.896 Q2043.14 401.549 2044.16 401.387 Q2045.18 401.202 2046.19 401.202 Q2051.98 401.202 2055.36 404.373 Q2058.74 407.544 2058.74 412.961 Q2058.74 418.539 2055.27 421.641 Q2051.8 424.72 2045.48 424.72 Q2043.3 424.72 2041.03 424.35 Q2038.79 423.979 2036.38 423.238 L2036.38 418.539 Q2038.46 419.674 2040.68 420.229 Q2042.91 420.785 2045.38 420.785 Q2049.39 420.785 2051.73 418.678 Q2054.06 416.572 2054.06 412.961 Q2054.06 409.35 2051.73 407.243 Q2049.39 405.137 2045.38 405.137 Q2043.51 405.137 2041.63 405.553 Q2039.78 405.97 2037.84 406.85 L2037.84 389.489 Z" fill="#000000" fill-rule="evenodd" fill-opacity="1" /><path clip-path="url(#clip890)" d="M 0 0 M2005.45 259.952 L2021.77 259.952 L2021.77 263.887 L1999.83 263.887 L1999.83 259.952 Q2002.49 257.197 2007.07 252.567 Q2011.68 247.915 2012.86 246.572 Q2015.11 244.049 2015.99 242.313 Q2016.89 240.554 2016.89 238.864 Q2016.89 236.109 2014.94 234.373 Q2013.02 232.637 2009.92 232.637 Q2007.72 232.637 2005.27 233.401 Q2002.84 234.165 2000.06 235.716 L2000.06 230.993 Q2002.88 229.859 2005.34 229.28 Q2007.79 228.702 2009.83 228.702 Q2015.2 228.702 2018.39 231.387 Q2021.59 234.072 2021.59 238.563 Q2021.59 240.692 2020.78 242.614 Q2019.99 244.512 2017.88 247.104 Q2017.31 247.776 2014.2 250.993 Q2011.1 254.188 2005.45 259.952 Z" fill="#000000" fill-rule="evenodd" fill-opacity="1" /><path clip-path="url(#clip890)" d="M 0 0 M2026.84 258.007 L2031.73 258.007 L2031.73 263.887 L2026.84 263.887 L2026.84 258.007 Z" fill="#000000" fill-rule="evenodd" fill-opacity="1" /><path clip-path="url(#clip890)" d="M 0 0 M2046.8 232.405 Q2043.18 232.405 2041.36 235.97 Q2039.55 239.512 2039.55 246.641 Q2039.55 253.748 2041.36 257.313 Q2043.18 260.854 2046.8 260.854 Q2050.43 260.854 2052.24 257.313 Q2054.06 253.748 2054.06 246.641 Q2054.06 239.512 2052.24 235.97 Q2050.43 232.405 2046.8 232.405 M2046.8 228.702 Q2052.61 228.702 2055.66 233.308 Q2058.74 237.892 2058.74 246.641 Q2058.74 255.368 2055.66 259.975 Q2052.61 264.558 2046.8 264.558 Q2040.99 264.558 2037.91 259.975 Q2034.85 255.368 2034.85 246.641 Q2034.85 237.892 2037.91 233.308 Q2040.99 228.702 2046.8 228.702 Z" fill="#000000" fill-rule="evenodd" fill-opacity="1" /><path clip-path="url(#clip890)" d="M 0 0 M2006.45 99.7897 L2022.77 99.7897 L2022.77 103.725 L2000.82 103.725 L2000.82 99.7897 Q2003.49 97.0351 2008.07 92.4055 Q2012.68 87.7527 2013.86 86.4101 Q2016.1 83.887 2016.98 82.1509 Q2017.88 80.3916 2017.88 78.7018 Q2017.88 75.9472 2015.94 74.2111 Q2014.02 72.475 2010.92 72.475 Q2008.72 72.475 2006.26 73.2389 Q2003.83 74.0028 2001.06 75.5537 L2001.06 70.8315 Q2003.88 69.6972 2006.33 69.1185 Q2008.79 68.5398 2010.82 68.5398 Q2016.19 68.5398 2019.39 71.225 Q2022.58 73.9102 2022.58 78.4009 Q2022.58 80.5305 2021.77 82.4518 Q2020.99 84.3499 2018.88 86.9425 Q2018.3 87.6138 2015.2 90.8314 Q2012.1 94.0258 2006.45 99.7897 Z" fill="#000000" fill-rule="evenodd" fill-opacity="1" /><path clip-path="url(#clip890)" d="M 0 0 M2027.84 97.8452 L2032.72 97.8452 L2032.72 103.725 L2027.84 103.725 L2027.84 97.8452 Z" fill="#000000" fill-rule="evenodd" fill-opacity="1" /><path clip-path="url(#clip890)" d="M 0 0 M2037.84 69.1648 L2056.19 69.1648 L2056.19 73.1 L2042.12 73.1 L2042.12 81.5722 Q2043.14 81.225 2044.16 81.0629 Q2045.18 80.8777 2046.19 80.8777 Q2051.98 80.8777 2055.36 84.049 Q2058.74 87.2203 2058.74 92.6369 Q2058.74 98.2156 2055.27 101.317 Q2051.8 104.396 2045.48 104.396 Q2043.3 104.396 2041.03 104.026 Q2038.79 103.655 2036.38 102.915 L2036.38 98.2156 Q2038.46 99.3499 2040.68 99.9054 Q2042.91 100.461 2045.38 100.461 Q2049.39 100.461 2051.73 98.3545 Q2054.06 96.248 2054.06 92.6369 Q2054.06 89.0258 2051.73 86.9194 Q2049.39 84.8129 2045.38 84.8129 Q2043.51 84.8129 2041.63 85.2296 Q2039.78 85.6462 2037.84 86.5259 L2037.84 69.1648 Z" fill="#000000" fill-rule="evenodd" fill-opacity="1" /><path clip-path="url(#clip890)" d="M 0 0 M1921.39 588.579 L1958.34 588.579 L1958.34 580.813 Q1958.34 570.978 1953.89 566.427 Q1949.43 561.843 1939.82 561.843 Q1930.27 561.843 1925.85 566.427 Q1921.39 570.978 1921.39 580.813 L1921.39 588.579 M1916.11 595.009 L1916.11 581.8 Q1916.11 567.986 1921.87 561.525 Q1927.6 555.064 1939.82 555.064 Q1952.11 555.064 1957.87 561.557 Q1963.63 568.05 1963.63 581.8 L1963.63 595.009 L1916.11 595.009 Z" fill="#000000" fill-rule="evenodd" fill-opacity="1" /><path clip-path="url(#clip890)" d="M 0 0 M1944.34 518.429 L1947.2 518.429 L1947.2 545.356 Q1953.25 544.974 1956.43 541.728 Q1959.59 538.449 1959.59 532.625 Q1959.59 529.251 1958.76 526.1 Q1957.93 522.917 1956.28 519.798 L1961.81 519.798 Q1963.15 522.949 1963.85 526.259 Q1964.55 529.569 1964.55 532.975 Q1964.55 541.505 1959.59 546.502 Q1954.62 551.467 1946.15 551.467 Q1937.4 551.467 1932.28 546.757 Q1927.12 542.014 1927.12 533.993 Q1927.12 526.8 1931.77 522.631 Q1936.38 518.429 1944.34 518.429 M1942.62 524.286 Q1937.82 524.349 1934.95 526.991 Q1932.09 529.601 1932.09 533.93 Q1932.09 538.831 1934.86 541.791 Q1937.62 544.72 1942.65 545.165 L1942.62 524.286 Z" fill="#000000" fill-rule="evenodd" fill-opacity="1" /><path clip-path="url(#clip890)" d="M 0 0 M1942.11 482.654 L1963.63 482.654 L1963.63 488.511 L1942.3 488.511 Q1937.24 488.511 1934.73 490.484 Q1932.21 492.457 1932.21 496.404 Q1932.21 501.146 1935.24 503.884 Q1938.26 506.621 1943.48 506.621 L1963.63 506.621 L1963.63 512.509 L1927.98 512.509 L1927.98 506.621 L1933.52 506.621 Q1930.3 504.52 1928.71 501.688 Q1927.12 498.823 1927.12 495.099 Q1927.12 488.956 1930.94 485.805 Q1934.73 482.654 1942.11 482.654 Z" fill="#000000" fill-rule="evenodd" fill-opacity="1" /><path clip-path="url(#clip890)" d="M 0 0 M1929.03 453.786 L1934.57 453.786 Q1933.3 456.268 1932.66 458.942 Q1932.02 461.615 1932.02 464.48 Q1932.02 468.84 1933.36 471.037 Q1934.7 473.201 1937.37 473.201 Q1939.41 473.201 1940.58 471.641 Q1941.73 470.082 1942.78 465.371 L1943.23 463.366 Q1944.56 457.128 1947.01 454.518 Q1949.43 451.876 1953.79 451.876 Q1958.76 451.876 1961.65 455.823 Q1964.55 459.738 1964.55 466.612 Q1964.55 469.477 1963.98 472.596 Q1963.44 475.684 1962.32 479.121 L1956.28 479.121 Q1957.96 475.875 1958.82 472.724 Q1959.65 469.573 1959.65 466.485 Q1959.65 462.347 1958.25 460.119 Q1956.82 457.891 1954.24 457.891 Q1951.85 457.891 1950.58 459.515 Q1949.31 461.106 1948.13 466.549 L1947.65 468.586 Q1946.5 474.029 1944.15 476.448 Q1941.76 478.866 1937.62 478.866 Q1932.6 478.866 1929.86 475.302 Q1927.12 471.737 1927.12 465.18 Q1927.12 461.934 1927.6 459.069 Q1928.08 456.205 1929.03 453.786 Z" fill="#000000" fill-rule="evenodd" fill-opacity="1" /><path clip-path="url(#clip890)" d="M 0 0 M1927.98 445.733 L1927.98 439.877 L1963.63 439.877 L1963.63 445.733 L1927.98 445.733 M1914.1 445.733 L1914.1 439.877 L1921.52 439.877 L1921.52 445.733 L1914.1 445.733 Z" fill="#000000" fill-rule="evenodd" fill-opacity="1" /><path clip-path="url(#clip890)" d="M 0 0 M1917.86 427.941 L1927.98 427.941 L1927.98 415.878 L1932.53 415.878 L1932.53 427.941 L1951.88 427.941 Q1956.24 427.941 1957.49 426.763 Q1958.73 425.554 1958.73 421.893 L1958.73 415.878 L1963.63 415.878 L1963.63 421.893 Q1963.63 428.673 1961.11 431.251 Q1958.57 433.829 1951.88 433.829 L1932.53 433.829 L1932.53 438.126 L1927.98 438.126 L1927.98 433.829 L1917.86 433.829 L1917.86 427.941 Z" fill="#000000" fill-rule="evenodd" fill-opacity="1" /><path clip-path="url(#clip890)" d="M 0 0 M1966.94 394.903 Q1973.3 397.385 1975.25 399.741 Q1977.19 402.096 1977.19 406.043 L1977.19 410.722 L1972.29 410.722 L1972.29 407.284 Q1972.29 404.865 1971.14 403.528 Q1969.99 402.192 1965.73 400.568 L1963.06 399.518 L1927.98 413.936 L1927.98 407.73 L1955.86 396.59 L1927.98 385.45 L1927.98 379.243 L1966.94 394.903 Z" fill="#000000" fill-rule="evenodd" fill-opacity="1" /><path clip-path="url(#clip890)" d="M 0 0 M3048.63 43.8146 L3022.83 43.8146 Q3023.43 55.9268 3026.23 61.0714 Q3029.71 67.3908 3035.75 67.3908 Q3041.82 67.3908 3045.19 61.0309 Q3048.14 55.4407 3048.63 43.8146 M3048.51 36.928 Q3047.37 25.4235 3045.19 21.3726 Q3041.7 14.9721 3035.75 14.9721 Q3029.55 14.9721 3026.27 21.2916 Q3023.68 26.3957 3022.91 36.928 L3048.51 36.928 M3035.75 8.89579 Q3045.47 8.89579 3051.02 17.4837 Q3056.57 26.0311 3056.57 41.1815 Q3056.57 56.2914 3051.02 64.8793 Q3045.47 73.5077 3035.75 73.5077 Q3025.99 73.5077 3020.48 64.8793 Q3014.93 56.2914 3014.93 41.1815 Q3014.93 26.0311 3020.48 17.4837 Q3025.99 8.89579 3035.75 8.89579 Z" fill="#000000" fill-rule="evenodd" fill-opacity="1" /><polyline clip-path="url(#clip893)" style="stroke:#009af9; stroke-width:4; stroke-opacity:1; fill:none" points="
  2170.65,887.252 2179.34,887.251 2188.04,887.25 2196.73,887.246 2205.42,887.24 2214.12,887.229 2222.81,887.212 2231.51,887.186 2240.2,887.146 2248.9,887.088 
  2257.59,887.005 2266.29,886.892 2274.98,886.742 2283.67,886.549 2292.37,886.31 2301.06,886.024 2309.76,885.694 2318.45,885.328 2327.15,884.939 2335.84,884.544 
  2344.54,884.161 2353.23,883.809 2361.93,883.505 2370.62,883.257 2379.31,883.068 2388.01,882.928 2396.7,882.817 2405.4,882.705 2414.09,882.554 2422.79,882.322 
  2431.48,881.966 2440.18,881.446 2448.87,880.726 2457.56,879.776 2466.26,878.574 2474.95,877.097 2483.65,875.327 2492.34,873.244 2501.04,870.825 2509.73,868.043 
  2518.43,864.874 2527.12,861.293 2535.81,857.283 2544.51,852.838 2553.2,847.965 2561.9,842.69 2570.59,837.054 2579.29,831.116 2587.98,824.952 2596.68,818.656 
  2605.37,812.332 2614.07,806.099 2622.76,800.086 2631.45,794.423 2640.15,789.233 2648.84,784.617 2657.54,780.644 2666.23,777.327 2674.93,774.614 2683.62,772.376 
  2692.32,770.407 2701.01,768.432 2709.7,766.121 2718.4,763.114 2727.09,759.052 2735.79,753.606 2744.48,746.505 2753.18,737.562 2761.87,726.686 2770.57,713.891 
  2779.26,699.29 2787.96,683.09 2796.65,665.569 2805.34,647.06 2814.04,627.92 2822.73,608.504 2831.43,589.14 2840.12,570.101 2848.82,551.581 2857.51,533.69 
  2866.21,516.442 2874.9,499.773 2883.59,483.562 2892.29,467.662 2900.98,451.943 2909.68,436.327 2918.37,420.816 2927.07,405.505 2935.76,390.577 2944.46,376.273 
  2953.15,362.852 2961.84,350.545 2970.54,339.505 2979.23,329.78 2987.93,321.295 2996.62,313.862 3005.32,307.21 3014.01,301.021 3022.71,294.979 3031.4,288.804 
  3040.1,282.277 3048.79,275.245 3057.48,267.604 3066.18,259.281 3074.87,250.208 3083.57,240.301 3092.26,229.46 3100.96,217.594 3109.65,204.652 3118.35,190.671 
  3127.04,175.824 3135.73,160.448 3144.43,145.042 3153.12,130.238 3161.82,116.737 3170.51,105.219 3179.21,96.2508 3187.9,90.1993 3196.6,87.1726 3205.29,86.9997 
  3213.99,89.2544 3222.68,93.3174 3231.37,98.468 3240.07,103.986 3248.76,109.25 3257.46,113.808 3266.15,117.426 3274.85,120.088 3283.54,121.968 3292.24,123.385 
  3300.93,124.732 3309.62,126.418 3318.32,128.817 3327.01,132.229 3335.71,136.866 3344.4,142.854 3353.1,150.246 3361.79,159.041 3370.49,169.203 3379.18,180.682 
  3387.87,193.426 3396.57,207.385 3405.26,222.514 3413.96,238.769 3422.65,256.093 3431.35,274.414 3440.04,293.635 3448.74,313.63 3457.43,334.246 3466.13,355.314 
  3474.82,376.667 3483.51,398.154 3492.21,419.668 3500.9,441.154 3509.6,462.624 3518.29,484.144 3526.99,505.824 3535.68,527.793 3544.38,550.16 3553.07,572.99 
  3561.76,596.276 3570.46,619.924 3579.15,643.751 3587.85,667.498 3596.54,690.852 3605.24,713.476 3613.93,735.044 3622.63,755.265 3631.32,773.913 3640.02,790.836 
  3648.71,805.961 3657.4,819.291 3666.1,830.892 3674.79,840.877 3683.49,849.388 3692.18,856.582 3700.88,862.619 3709.57,867.649 3718.27,871.809 3726.96,875.223 
  3735.65,877.999 3744.35,880.232 3753.04,882.006 3761.74,883.396 3770.43,884.467 3779.13,885.277 3787.82,885.879 3796.52,886.317 3805.21,886.629 3813.9,886.846 
  3822.6,886.994 3831.29,887.092 3839.99,887.155 3848.68,887.195 3857.38,887.22 3866.07,887.235 3874.77,887.244 3883.46,887.248 3892.16,887.251 3900.85,887.252 
  
  "/>
</svg>
