<?xml version="1.0" encoding="utf-8"?>
<svg xmlns="http://www.w3.org/2000/svg" xmlns:xlink="http://www.w3.org/1999/xlink" width="1000" height="250" viewBox="0 0 4000 1000">
<defs>
  <clipPath id="clip300">
    <rect x="0" y="0" width="4000" height="1000"/>
  </clipPath>
</defs>
<path clip-path="url(#clip300)" d="
M0 1000 L4000 1000 L4000 0 L0 0  Z
  " fill="#ffffff" fill-rule="evenodd" fill-opacity="1"/>
<defs>
  <clipPath id="clip301">
    <rect x="800" y="0" width="2801" height="1000"/>
  </clipPath>
</defs>
<path clip-path="url(#clip300)" d="
M118.74 911.26 L1952.76 911.26 L1952.76 62.9921 L118.74 62.9921  Z
  " fill="#ffffff" fill-rule="evenodd" fill-opacity="1"/>
<defs>
  <clipPath id="clip302">
    <rect x="118" y="62" width="1835" height="849"/>
  </clipPath>
</defs>
<polyline clip-path="url(#clip302)" style="stroke:#000000; stroke-width:2; stroke-opacity:0.1; fill:none" points="
  168.914,911.26 168.914,62.9921 
  "/>
<polyline clip-path="url(#clip302)" style="stroke:#000000; stroke-width:2; stroke-opacity:0.1; fill:none" points="
  601.898,911.26 601.898,62.9921 
  "/>
<polyline clip-path="url(#clip302)" style="stroke:#000000; stroke-width:2; stroke-opacity:0.1; fill:none" points="
  1034.88,911.26 1034.88,62.9921 
  "/>
<polyline clip-path="url(#clip302)" style="stroke:#000000; stroke-width:2; stroke-opacity:0.1; fill:none" points="
  1467.87,911.26 1467.87,62.9921 
  "/>
<polyline clip-path="url(#clip302)" style="stroke:#000000; stroke-width:2; stroke-opacity:0.1; fill:none" points="
  1900.85,911.26 1900.85,62.9921 
  "/>
<polyline clip-path="url(#clip300)" style="stroke:#000000; stroke-width:4; stroke-opacity:1; fill:none" points="
  118.74,911.26 1952.76,911.26 
  "/>
<polyline clip-path="url(#clip300)" style="stroke:#000000; stroke-width:4; stroke-opacity:1; fill:none" points="
  168.914,911.26 168.914,901.081 
  "/>
<polyline clip-path="url(#clip300)" style="stroke:#000000; stroke-width:4; stroke-opacity:1; fill:none" points="
  601.898,911.26 601.898,901.081 
  "/>
<polyline clip-path="url(#clip300)" style="stroke:#000000; stroke-width:4; stroke-opacity:1; fill:none" points="
  1034.88,911.26 1034.88,901.081 
  "/>
<polyline clip-path="url(#clip300)" style="stroke:#000000; stroke-width:4; stroke-opacity:1; fill:none" points="
  1467.87,911.26 1467.87,901.081 
  "/>
<polyline clip-path="url(#clip300)" style="stroke:#000000; stroke-width:4; stroke-opacity:1; fill:none" points="
  1900.85,911.26 1900.85,901.081 
  "/>
<path clip-path="url(#clip300)" d="M 0 0 M168.914 953.251 Q165.303 953.251 163.475 956.815 Q161.669 960.357 161.669 967.487 Q161.669 974.593 163.475 978.158 Q165.303 981.699 168.914 981.699 Q172.549 981.699 174.354 978.158 Q176.183 974.593 176.183 967.487 Q176.183 960.357 174.354 956.815 Q172.549 953.251 168.914 953.251 M168.914 949.547 Q174.724 949.547 177.78 954.153 Q180.859 958.737 180.859 967.487 Q180.859 976.213 177.78 980.82 Q174.724 985.403 168.914 985.403 Q163.104 985.403 160.025 980.82 Q156.97 976.213 156.97 967.487 Q156.97 958.737 160.025 954.153 Q163.104 949.547 168.914 949.547 Z" fill="#000000" fill-rule="evenodd" fill-opacity="1" /><path clip-path="url(#clip300)" d="M 0 0 M570.035 980.797 L586.354 980.797 L586.354 984.732 L564.41 984.732 L564.41 980.797 Q567.072 978.042 571.655 973.412 Q576.262 968.76 577.442 967.417 Q579.688 964.894 580.567 963.158 Q581.47 961.399 581.47 959.709 Q581.47 956.954 579.526 955.218 Q577.604 953.482 574.503 953.482 Q572.303 953.482 569.85 954.246 Q567.419 955.01 564.641 956.561 L564.641 951.839 Q567.466 950.704 569.919 950.126 Q572.373 949.547 574.41 949.547 Q579.78 949.547 582.975 952.232 Q586.169 954.917 586.169 959.408 Q586.169 961.538 585.359 963.459 Q584.572 965.357 582.465 967.95 Q581.887 968.621 578.785 971.838 Q575.683 975.033 570.035 980.797 Z" fill="#000000" fill-rule="evenodd" fill-opacity="1" /><path clip-path="url(#clip300)" d="M 0 0 M591.47 950.172 L609.826 950.172 L609.826 954.107 L595.752 954.107 L595.752 962.579 Q596.771 962.232 597.789 962.07 Q598.808 961.885 599.826 961.885 Q605.613 961.885 608.993 965.056 Q612.373 968.227 612.373 973.644 Q612.373 979.223 608.9 982.324 Q605.428 985.403 599.109 985.403 Q596.933 985.403 594.664 985.033 Q592.419 984.662 590.012 983.922 L590.012 979.223 Q592.095 980.357 594.317 980.912 Q596.539 981.468 599.016 981.468 Q603.021 981.468 605.359 979.362 Q607.697 977.255 607.697 973.644 Q607.697 970.033 605.359 967.926 Q603.021 965.82 599.016 965.82 Q597.141 965.82 595.266 966.237 Q593.414 966.653 591.47 967.533 L591.47 950.172 Z" fill="#000000" fill-rule="evenodd" fill-opacity="1" /><path clip-path="url(#clip300)" d="M 0 0 M627.442 953.251 Q623.831 953.251 622.002 956.815 Q620.197 960.357 620.197 967.487 Q620.197 974.593 622.002 978.158 Q623.831 981.699 627.442 981.699 Q631.076 981.699 632.882 978.158 Q634.711 974.593 634.711 967.487 Q634.711 960.357 632.882 956.815 Q631.076 953.251 627.442 953.251 M627.442 949.547 Q633.252 949.547 636.308 954.153 Q639.386 958.737 639.386 967.487 Q639.386 976.213 636.308 980.82 Q633.252 985.403 627.442 985.403 Q621.632 985.403 618.553 980.82 Q615.498 976.213 615.498 967.487 Q615.498 958.737 618.553 954.153 Q621.632 949.547 627.442 949.547 Z" fill="#000000" fill-rule="evenodd" fill-opacity="1" /><path clip-path="url(#clip300)" d="M 0 0 M998.146 950.172 L1016.5 950.172 L1016.5 954.107 L1002.43 954.107 L1002.43 962.579 Q1003.45 962.232 1004.47 962.07 Q1005.48 961.885 1006.5 961.885 Q1012.29 961.885 1015.67 965.056 Q1019.05 968.227 1019.05 973.644 Q1019.05 979.223 1015.58 982.324 Q1012.1 985.403 1005.78 985.403 Q1003.61 985.403 1001.34 985.033 Q999.095 984.662 996.688 983.922 L996.688 979.223 Q998.771 980.357 1000.99 980.912 Q1003.22 981.468 1005.69 981.468 Q1009.7 981.468 1012.03 979.362 Q1014.37 977.255 1014.37 973.644 Q1014.37 970.033 1012.03 967.926 Q1009.7 965.82 1005.69 965.82 Q1003.82 965.82 1001.94 966.237 Q1000.09 966.653 998.146 967.533 L998.146 950.172 Z" fill="#000000" fill-rule="evenodd" fill-opacity="1" /><path clip-path="url(#clip300)" d="M 0 0 M1034.12 953.251 Q1030.51 953.251 1028.68 956.815 Q1026.87 960.357 1026.87 967.487 Q1026.87 974.593 1028.68 978.158 Q1030.51 981.699 1034.12 981.699 Q1037.75 981.699 1039.56 978.158 Q1041.39 974.593 1041.39 967.487 Q1041.39 960.357 1039.56 956.815 Q1037.75 953.251 1034.12 953.251 M1034.12 949.547 Q1039.93 949.547 1042.98 954.153 Q1046.06 958.737 1046.06 967.487 Q1046.06 976.213 1042.98 980.82 Q1039.93 985.403 1034.12 985.403 Q1028.31 985.403 1025.23 980.82 Q1022.17 976.213 1022.17 967.487 Q1022.17 958.737 1025.23 954.153 Q1028.31 949.547 1034.12 949.547 Z" fill="#000000" fill-rule="evenodd" fill-opacity="1" /><path clip-path="url(#clip300)" d="M 0 0 M1061.13 953.251 Q1057.52 953.251 1055.69 956.815 Q1053.89 960.357 1053.89 967.487 Q1053.89 974.593 1055.69 978.158 Q1057.52 981.699 1061.13 981.699 Q1064.77 981.699 1066.57 978.158 Q1068.4 974.593 1068.4 967.487 Q1068.4 960.357 1066.57 956.815 Q1064.77 953.251 1061.13 953.251 M1061.13 949.547 Q1066.94 949.547 1070 954.153 Q1073.08 958.737 1073.08 967.487 Q1073.08 976.213 1070 980.82 Q1066.94 985.403 1061.13 985.403 Q1055.32 985.403 1052.24 980.82 Q1049.19 976.213 1049.19 967.487 Q1049.19 958.737 1052.24 954.153 Q1055.32 949.547 1061.13 949.547 Z" fill="#000000" fill-rule="evenodd" fill-opacity="1" /><path clip-path="url(#clip300)" d="M 0 0 M1430.24 950.172 L1452.46 950.172 L1452.46 952.163 L1439.91 984.732 L1435.03 984.732 L1446.84 954.107 L1430.24 954.107 L1430.24 950.172 Z" fill="#000000" fill-rule="evenodd" fill-opacity="1" /><path clip-path="url(#clip300)" d="M 0 0 M1457.58 950.172 L1475.93 950.172 L1475.93 954.107 L1461.86 954.107 L1461.86 962.579 Q1462.88 962.232 1463.9 962.07 Q1464.91 961.885 1465.93 961.885 Q1471.72 961.885 1475.1 965.056 Q1478.48 968.227 1478.48 973.644 Q1478.48 979.223 1475.01 982.324 Q1471.53 985.403 1465.22 985.403 Q1463.04 985.403 1460.77 985.033 Q1458.53 984.662 1456.12 983.922 L1456.12 979.223 Q1458.2 980.357 1460.42 980.912 Q1462.65 981.468 1465.12 981.468 Q1469.13 981.468 1471.47 979.362 Q1473.8 977.255 1473.8 973.644 Q1473.8 970.033 1471.47 967.926 Q1469.13 965.82 1465.12 965.82 Q1463.25 965.82 1461.37 966.237 Q1459.52 966.653 1457.58 967.533 L1457.58 950.172 Z" fill="#000000" fill-rule="evenodd" fill-opacity="1" /><path clip-path="url(#clip300)" d="M 0 0 M1493.55 953.251 Q1489.94 953.251 1488.11 956.815 Q1486.3 960.357 1486.3 967.487 Q1486.3 974.593 1488.11 978.158 Q1489.94 981.699 1493.55 981.699 Q1497.18 981.699 1498.99 978.158 Q1500.82 974.593 1500.82 967.487 Q1500.82 960.357 1498.99 956.815 Q1497.18 953.251 1493.55 953.251 M1493.55 949.547 Q1499.36 949.547 1502.41 954.153 Q1505.49 958.737 1505.49 967.487 Q1505.49 976.213 1502.41 980.82 Q1499.36 985.403 1493.55 985.403 Q1487.74 985.403 1484.66 980.82 Q1481.6 976.213 1481.6 967.487 Q1481.6 958.737 1484.66 954.153 Q1487.74 949.547 1493.55 949.547 Z" fill="#000000" fill-rule="evenodd" fill-opacity="1" /><path clip-path="url(#clip300)" d="M 0 0 M1850.71 980.797 L1858.35 980.797 L1858.35 954.431 L1850.04 956.098 L1850.04 951.839 L1858.3 950.172 L1862.98 950.172 L1862.98 980.797 L1870.62 980.797 L1870.62 984.732 L1850.71 984.732 L1850.71 980.797 Z" fill="#000000" fill-rule="evenodd" fill-opacity="1" /><path clip-path="url(#clip300)" d="M 0 0 M1885.69 953.251 Q1882.08 953.251 1880.25 956.815 Q1878.44 960.357 1878.44 967.487 Q1878.44 974.593 1880.25 978.158 Q1882.08 981.699 1885.69 981.699 Q1889.32 981.699 1891.13 978.158 Q1892.96 974.593 1892.96 967.487 Q1892.96 960.357 1891.13 956.815 Q1889.32 953.251 1885.69 953.251 M1885.69 949.547 Q1891.5 949.547 1894.55 954.153 Q1897.63 958.737 1897.63 967.487 Q1897.63 976.213 1894.55 980.82 Q1891.5 985.403 1885.69 985.403 Q1879.88 985.403 1876.8 980.82 Q1873.74 976.213 1873.74 967.487 Q1873.74 958.737 1876.8 954.153 Q1879.88 949.547 1885.69 949.547 Z" fill="#000000" fill-rule="evenodd" fill-opacity="1" /><path clip-path="url(#clip300)" d="M 0 0 M1912.7 953.251 Q1909.09 953.251 1907.26 956.815 Q1905.46 960.357 1905.46 967.487 Q1905.46 974.593 1907.26 978.158 Q1909.09 981.699 1912.7 981.699 Q1916.34 981.699 1918.14 978.158 Q1919.97 974.593 1919.97 967.487 Q1919.97 960.357 1918.14 956.815 Q1916.34 953.251 1912.7 953.251 M1912.7 949.547 Q1918.51 949.547 1921.57 954.153 Q1924.65 958.737 1924.65 967.487 Q1924.65 976.213 1921.57 980.82 Q1918.51 985.403 1912.7 985.403 Q1906.89 985.403 1903.81 980.82 Q1900.76 976.213 1900.76 967.487 Q1900.76 958.737 1903.81 954.153 Q1906.89 949.547 1912.7 949.547 Z" fill="#000000" fill-rule="evenodd" fill-opacity="1" /><path clip-path="url(#clip300)" d="M 0 0 M1939.72 953.251 Q1936.1 953.251 1934.28 956.815 Q1932.47 960.357 1932.47 967.487 Q1932.47 974.593 1934.28 978.158 Q1936.1 981.699 1939.72 981.699 Q1943.35 981.699 1945.16 978.158 Q1946.98 974.593 1946.98 967.487 Q1946.98 960.357 1945.16 956.815 Q1943.35 953.251 1939.72 953.251 M1939.72 949.547 Q1945.53 949.547 1948.58 954.153 Q1951.66 958.737 1951.66 967.487 Q1951.66 976.213 1948.58 980.82 Q1945.53 985.403 1939.72 985.403 Q1933.91 985.403 1930.83 980.82 Q1927.77 976.213 1927.77 967.487 Q1927.77 958.737 1930.83 954.153 Q1933.91 949.547 1939.72 949.547 Z" fill="#000000" fill-rule="evenodd" fill-opacity="1" /><path clip-path="url(#clip300)" d="M 0 0 M917.76 1012.6 L924.189 1012.6 L924.189 1060.12 L917.76 1060.12 L917.76 1012.6 Z" fill="#000000" fill-rule="evenodd" fill-opacity="1" /><path clip-path="url(#clip300)" d="M 0 0 M936.125 1014.35 L936.125 1024.48 L948.188 1024.48 L948.188 1029.03 L936.125 1029.03 L936.125 1048.38 Q936.125 1052.74 937.302 1053.98 Q938.512 1055.22 942.172 1055.22 L948.188 1055.22 L948.188 1060.12 L942.172 1060.12 Q935.393 1060.12 932.815 1057.61 Q930.236 1055.06 930.236 1048.38 L930.236 1029.03 L925.94 1029.03 L925.94 1024.48 L930.236 1024.48 L930.236 1014.35 L936.125 1014.35 Z" fill="#000000" fill-rule="evenodd" fill-opacity="1" /><path clip-path="url(#clip300)" d="M 0 0 M984.822 1040.84 L984.822 1043.7 L957.895 1043.7 Q958.277 1049.75 961.524 1052.93 Q964.802 1056.08 970.627 1056.08 Q974.001 1056.08 977.152 1055.25 Q980.335 1054.43 983.454 1052.77 L983.454 1058.31 Q980.303 1059.65 976.993 1060.35 Q973.682 1061.05 970.277 1061.05 Q961.747 1061.05 956.75 1056.08 Q951.784 1051.12 951.784 1042.65 Q951.784 1033.9 956.495 1028.77 Q961.237 1023.62 969.258 1023.62 Q976.451 1023.62 980.621 1028.26 Q984.822 1032.88 984.822 1040.84 M978.966 1039.12 Q978.902 1034.31 976.261 1031.45 Q973.651 1028.58 969.322 1028.58 Q964.42 1028.58 961.46 1031.35 Q958.532 1034.12 958.086 1039.15 L978.966 1039.12 Z" fill="#000000" fill-rule="evenodd" fill-opacity="1" /><path clip-path="url(#clip300)" d="M 0 0 M1011.62 1029.95 Q1010.64 1029.38 1009.46 1029.12 Q1008.31 1028.84 1006.91 1028.84 Q1001.95 1028.84 999.273 1032.08 Q996.631 1035.3 996.631 1041.35 L996.631 1060.12 L990.742 1060.12 L990.742 1024.48 L996.631 1024.48 L996.631 1030.01 Q998.477 1026.77 1001.44 1025.21 Q1004.4 1023.62 1008.63 1023.62 Q1009.23 1023.62 1009.97 1023.71 Q1010.7 1023.78 1011.59 1023.93 L1011.62 1029.95 Z" fill="#000000" fill-rule="evenodd" fill-opacity="1" /><path clip-path="url(#clip300)" d="M 0 0 M1033.97 1042.2 Q1026.87 1042.2 1024.13 1043.83 Q1021.39 1045.45 1021.39 1049.37 Q1021.39 1052.48 1023.43 1054.33 Q1025.5 1056.15 1029.03 1056.15 Q1033.9 1056.15 1036.83 1052.71 Q1039.79 1049.24 1039.79 1043.51 L1039.79 1042.2 L1033.97 1042.2 M1045.65 1039.79 L1045.65 1060.12 L1039.79 1060.12 L1039.79 1054.71 Q1037.79 1057.96 1034.79 1059.52 Q1031.8 1061.05 1027.47 1061.05 Q1022 1061.05 1018.75 1057.99 Q1015.54 1054.9 1015.54 1049.75 Q1015.54 1043.73 1019.55 1040.68 Q1023.59 1037.62 1031.58 1037.62 L1039.79 1037.62 L1039.79 1037.05 Q1039.79 1033.01 1037.12 1030.81 Q1034.47 1028.58 1029.67 1028.58 Q1026.61 1028.58 1023.72 1029.31 Q1020.82 1030.05 1018.15 1031.51 L1018.15 1026.1 Q1021.36 1024.86 1024.39 1024.25 Q1027.41 1023.62 1030.27 1023.62 Q1038.01 1023.62 1041.83 1027.63 Q1045.65 1031.64 1045.65 1039.79 Z" fill="#000000" fill-rule="evenodd" fill-opacity="1" /><path clip-path="url(#clip300)" d="M 0 0 M1057.58 1014.35 L1057.58 1024.48 L1069.65 1024.48 L1069.65 1029.03 L1057.58 1029.03 L1057.58 1048.38 Q1057.58 1052.74 1058.76 1053.98 Q1059.97 1055.22 1063.63 1055.22 L1069.65 1055.22 L1069.65 1060.12 L1063.63 1060.12 Q1056.85 1060.12 1054.27 1057.61 Q1051.69 1055.06 1051.69 1048.38 L1051.69 1029.03 L1047.4 1029.03 L1047.4 1024.48 L1051.69 1024.48 L1051.69 1014.35 L1057.58 1014.35 Z" fill="#000000" fill-rule="evenodd" fill-opacity="1" /><path clip-path="url(#clip300)" d="M 0 0 M1075.79 1024.48 L1081.64 1024.48 L1081.64 1060.12 L1075.79 1060.12 L1075.79 1024.48 M1075.79 1010.6 L1081.64 1010.6 L1081.64 1018.01 L1075.79 1018.01 L1075.79 1010.6 Z" fill="#000000" fill-rule="evenodd" fill-opacity="1" /><path clip-path="url(#clip300)" d="M 0 0 M1101.6 1028.58 Q1096.89 1028.58 1094.15 1032.27 Q1091.42 1035.93 1091.42 1042.33 Q1091.42 1048.73 1094.12 1052.42 Q1096.86 1056.08 1101.6 1056.08 Q1106.28 1056.08 1109.02 1052.39 Q1111.75 1048.7 1111.75 1042.33 Q1111.75 1036 1109.02 1032.31 Q1106.28 1028.58 1101.6 1028.58 M1101.6 1023.62 Q1109.24 1023.62 1113.6 1028.58 Q1117.96 1033.55 1117.96 1042.33 Q1117.96 1051.08 1113.6 1056.08 Q1109.24 1061.05 1101.6 1061.05 Q1093.93 1061.05 1089.57 1056.08 Q1085.24 1051.08 1085.24 1042.33 Q1085.24 1033.55 1089.57 1028.58 Q1093.93 1023.62 1101.6 1023.62 Z" fill="#000000" fill-rule="evenodd" fill-opacity="1" /><path clip-path="url(#clip300)" d="M 0 0 M1153.74 1038.61 L1153.74 1060.12 L1147.88 1060.12 L1147.88 1038.8 Q1147.88 1033.74 1145.91 1031.22 Q1143.93 1028.71 1139.99 1028.71 Q1135.24 1028.71 1132.51 1031.73 Q1129.77 1034.76 1129.77 1039.98 L1129.77 1060.12 L1123.88 1060.12 L1123.88 1024.48 L1129.77 1024.48 L1129.77 1030.01 Q1131.87 1026.8 1134.7 1025.21 Q1137.57 1023.62 1141.29 1023.62 Q1147.43 1023.62 1150.59 1027.44 Q1153.74 1031.22 1153.74 1038.61 Z" fill="#000000" fill-rule="evenodd" fill-opacity="1" /><polyline clip-path="url(#clip302)" style="stroke:#000000; stroke-width:2; stroke-opacity:0.1; fill:none" points="
  118.74,854.068 1952.76,854.068 
  "/>
<polyline clip-path="url(#clip302)" style="stroke:#000000; stroke-width:2; stroke-opacity:0.1; fill:none" points="
  118.74,649.412 1952.76,649.412 
  "/>
<polyline clip-path="url(#clip302)" style="stroke:#000000; stroke-width:2; stroke-opacity:0.1; fill:none" points="
  118.74,444.756 1952.76,444.756 
  "/>
<polyline clip-path="url(#clip302)" style="stroke:#000000; stroke-width:2; stroke-opacity:0.1; fill:none" points="
  118.74,240.099 1952.76,240.099 
  "/>
<polyline clip-path="url(#clip300)" style="stroke:#000000; stroke-width:4; stroke-opacity:1; fill:none" points="
  118.74,911.26 118.74,62.9921 
  "/>
<polyline clip-path="url(#clip300)" style="stroke:#000000; stroke-width:4; stroke-opacity:1; fill:none" points="
  118.74,854.068 140.748,854.068 
  "/>
<polyline clip-path="url(#clip300)" style="stroke:#000000; stroke-width:4; stroke-opacity:1; fill:none" points="
  118.74,649.412 140.748,649.412 
  "/>
<polyline clip-path="url(#clip300)" style="stroke:#000000; stroke-width:4; stroke-opacity:1; fill:none" points="
  118.74,444.756 140.748,444.756 
  "/>
<polyline clip-path="url(#clip300)" style="stroke:#000000; stroke-width:4; stroke-opacity:1; fill:none" points="
  118.74,240.099 140.748,240.099 
  "/>
<path clip-path="url(#clip300)" d="M 0 0 M11.4256 839.867 Q7.8145 839.867 5.98581 843.432 Q4.18026 846.973 4.18026 854.103 Q4.18026 861.209 5.98581 864.774 Q7.8145 868.316 11.4256 868.316 Q15.0598 868.316 16.8654 864.774 Q18.6941 861.209 18.6941 854.103 Q18.6941 846.973 16.8654 843.432 Q15.0598 839.867 11.4256 839.867 M11.4256 836.163 Q17.2358 836.163 20.2913 840.77 Q23.37 845.353 23.37 854.103 Q23.37 862.83 20.2913 867.436 Q17.2358 872.02 11.4256 872.02 Q5.61544 872.02 2.53675 867.436 Q-0.518784 862.83 -0.518784 854.103 Q-0.518784 845.353 2.53675 840.77 Q5.61544 836.163 11.4256 836.163 Z" fill="#000000" fill-rule="evenodd" fill-opacity="1" /><path clip-path="url(#clip300)" d="M 0 0 M28.4394 865.469 L33.3236 865.469 L33.3236 871.348 L28.4394 871.348 L28.4394 865.469 Z" fill="#000000" fill-rule="evenodd" fill-opacity="1" /><path clip-path="url(#clip300)" d="M 0 0 M42.4208 867.413 L58.7402 867.413 L58.7402 871.348 L36.7958 871.348 L36.7958 867.413 Q39.4579 864.658 44.0412 860.029 Q48.6476 855.376 49.8282 854.034 Q52.0735 851.51 52.9532 849.774 Q53.8559 848.015 53.8559 846.325 Q53.8559 843.571 51.9115 841.834 Q49.9902 840.098 46.8884 840.098 Q44.6893 840.098 42.2356 840.862 Q39.8051 841.626 37.0273 843.177 L37.0273 838.455 Q39.8514 837.321 42.3051 836.742 Q44.7588 836.163 46.7958 836.163 Q52.1661 836.163 55.3605 838.848 Q58.555 841.534 58.555 846.024 Q58.555 848.154 57.7448 850.075 Q56.9578 851.973 54.8513 854.566 Q54.2726 855.237 51.1708 858.455 Q48.0689 861.649 42.4208 867.413 Z" fill="#000000" fill-rule="evenodd" fill-opacity="1" /><path clip-path="url(#clip300)" d="M 0 0 M9.34227 635.211 Q5.73118 635.211 3.90249 638.775 Q2.09694 642.317 2.09694 649.447 Q2.09694 656.553 3.90249 660.118 Q5.73118 663.66 9.34227 663.66 Q12.9765 663.66 14.7821 660.118 Q16.6108 656.553 16.6108 649.447 Q16.6108 642.317 14.7821 638.775 Q12.9765 635.211 9.34227 635.211 M9.34227 631.507 Q15.1524 631.507 18.208 636.113 Q21.2867 640.697 21.2867 649.447 Q21.2867 658.173 18.208 662.78 Q15.1524 667.363 9.34227 667.363 Q3.53212 667.363 0.453433 662.78 Q-2.60211 658.173 -2.60211 649.447 Q-2.60211 640.697 0.453433 636.113 Q3.53212 631.507 9.34227 631.507 Z" fill="#000000" fill-rule="evenodd" fill-opacity="1" /><path clip-path="url(#clip300)" d="M 0 0 M26.3561 660.812 L31.2403 660.812 L31.2403 666.692 L26.3561 666.692 L26.3561 660.812 Z" fill="#000000" fill-rule="evenodd" fill-opacity="1" /><path clip-path="url(#clip300)" d="M 0 0 M49.1569 636.206 L37.3514 654.655 L49.1569 654.655 L49.1569 636.206 M47.93 632.132 L53.8096 632.132 L53.8096 654.655 L58.7402 654.655 L58.7402 658.544 L53.8096 658.544 L53.8096 666.692 L49.1569 666.692 L49.1569 658.544 L33.5551 658.544 L33.5551 654.03 L47.93 632.132 Z" fill="#000000" fill-rule="evenodd" fill-opacity="1" /><path clip-path="url(#clip300)" d="M 0 0 M9.66635 430.554 Q6.05525 430.554 4.22656 434.119 Q2.42101 437.661 2.42101 444.79 Q2.42101 451.897 4.22656 455.462 Q6.05525 459.003 9.66635 459.003 Q13.3006 459.003 15.1061 455.462 Q16.9348 451.897 16.9348 444.79 Q16.9348 437.661 15.1061 434.119 Q13.3006 430.554 9.66635 430.554 M9.66635 426.851 Q15.4765 426.851 18.532 431.457 Q21.6107 436.04 21.6107 444.79 Q21.6107 453.517 18.532 458.124 Q15.4765 462.707 9.66635 462.707 Q3.85619 462.707 0.777505 458.124 Q-2.27803 453.517 -2.27803 444.79 Q-2.27803 436.04 0.777505 431.457 Q3.85619 426.851 9.66635 426.851 Z" fill="#000000" fill-rule="evenodd" fill-opacity="1" /><path clip-path="url(#clip300)" d="M 0 0 M26.6801 456.156 L31.5644 456.156 L31.5644 462.036 L26.6801 462.036 L26.6801 456.156 Z" fill="#000000" fill-rule="evenodd" fill-opacity="1" /><path clip-path="url(#clip300)" d="M 0 0 M47.2124 442.892 Q44.0643 442.892 42.2125 445.045 Q40.3838 447.198 40.3838 450.948 Q40.3838 454.675 42.2125 456.851 Q44.0643 459.003 47.2124 459.003 Q50.3606 459.003 52.1893 456.851 Q54.0411 454.675 54.0411 450.948 Q54.0411 447.198 52.1893 445.045 Q50.3606 442.892 47.2124 442.892 M56.4948 428.24 L56.4948 432.499 Q54.7355 431.665 52.93 431.226 Q51.1476 430.786 49.3884 430.786 Q44.7588 430.786 42.3051 433.911 Q39.8745 437.036 39.5273 443.355 Q40.893 441.341 42.9532 440.277 Q45.0134 439.189 47.4902 439.189 Q52.6985 439.189 55.7078 442.36 Q58.7402 445.508 58.7402 450.948 Q58.7402 456.272 55.592 459.489 Q52.4439 462.707 47.2124 462.707 Q41.2171 462.707 38.0458 458.124 Q34.8745 453.517 34.8745 444.79 Q34.8745 436.596 38.7634 431.735 Q42.6523 426.851 49.2032 426.851 Q50.9624 426.851 52.7448 427.198 Q54.5504 427.545 56.4948 428.24 Z" fill="#000000" fill-rule="evenodd" fill-opacity="1" /><path clip-path="url(#clip300)" d="M 0 0 M9.92097 225.898 Q6.30988 225.898 4.48119 229.463 Q2.67564 233.005 2.67564 240.134 Q2.67564 247.241 4.48119 250.805 Q6.30988 254.347 9.92097 254.347 Q13.5552 254.347 15.3608 250.805 Q17.1895 247.241 17.1895 240.134 Q17.1895 233.005 15.3608 229.463 Q13.5552 225.898 9.92097 225.898 M9.92097 222.194 Q15.7311 222.194 18.7867 226.801 Q21.8654 231.384 21.8654 240.134 Q21.8654 248.861 18.7867 253.467 Q15.7311 258.051 9.92097 258.051 Q4.11082 258.051 1.03213 253.467 Q-2.02341 248.861 -2.02341 240.134 Q-2.02341 231.384 1.03213 226.801 Q4.11082 222.194 9.92097 222.194 Z" fill="#000000" fill-rule="evenodd" fill-opacity="1" /><path clip-path="url(#clip300)" d="M 0 0 M26.9348 251.5 L31.819 251.5 L31.819 257.379 L26.9348 257.379 L26.9348 251.5 Z" fill="#000000" fill-rule="evenodd" fill-opacity="1" /><path clip-path="url(#clip300)" d="M 0 0 M46.8884 240.967 Q43.5551 240.967 41.6338 242.75 Q39.7356 244.532 39.7356 247.657 Q39.7356 250.782 41.6338 252.565 Q43.5551 254.347 46.8884 254.347 Q50.2217 254.347 52.143 252.565 Q54.0643 250.759 54.0643 247.657 Q54.0643 244.532 52.143 242.75 Q50.2448 240.967 46.8884 240.967 M42.2125 238.977 Q39.2032 238.236 37.5134 236.176 Q35.8468 234.116 35.8468 231.153 Q35.8468 227.009 38.7866 224.602 Q41.7495 222.194 46.8884 222.194 Q52.0504 222.194 54.9902 224.602 Q57.93 227.009 57.93 231.153 Q57.93 234.116 56.2402 236.176 Q54.5735 238.236 51.5874 238.977 Q54.967 239.764 56.842 242.055 Q58.7402 244.347 58.7402 247.657 Q58.7402 252.68 55.6615 255.366 Q52.6059 258.051 46.8884 258.051 Q41.1708 258.051 38.0921 255.366 Q35.0366 252.68 35.0366 247.657 Q35.0366 244.347 36.9347 242.055 Q38.8329 239.764 42.2125 238.977 M40.4995 231.593 Q40.4995 234.278 42.1662 235.782 Q43.856 237.287 46.8884 237.287 Q49.8976 237.287 51.5874 235.782 Q53.3004 234.278 53.3004 231.593 Q53.3004 228.907 51.5874 227.403 Q49.8976 225.898 46.8884 225.898 Q43.856 225.898 42.1662 227.403 Q40.4995 228.907 40.4995 231.593 Z" fill="#000000" fill-rule="evenodd" fill-opacity="1" /><path clip-path="url(#clip300)" d="M 0 0 M-82.8185 650.184 L-76.5483 650.184 Q-78.2989 653.844 -79.1582 657.09 Q-80.0176 660.337 -80.0176 663.361 Q-80.0176 668.612 -77.9806 671.477 Q-75.9435 674.31 -72.1878 674.31 Q-69.0368 674.31 -67.4135 672.432 Q-65.8221 670.522 -64.8354 665.238 L-64.0397 661.355 Q-62.671 654.162 -59.2017 650.756 Q-55.7643 647.319 -49.9715 647.319 Q-43.0647 647.319 -39.4999 651.966 Q-35.9351 656.581 -35.9351 665.525 Q-35.9351 668.899 -36.699 672.718 Q-37.4628 676.506 -38.9588 680.58 L-45.5791 680.58 Q-43.383 676.665 -42.269 672.909 Q-41.155 669.153 -41.155 665.525 Q-41.155 660.019 -43.3193 657.027 Q-45.4836 654.035 -49.494 654.035 Q-52.9952 654.035 -54.9685 656.199 Q-56.9419 658.332 -57.9286 663.233 L-58.6925 667.148 Q-60.1248 674.341 -63.1803 677.556 Q-66.2358 680.771 -71.6785 680.771 Q-77.9806 680.771 -81.609 676.347 Q-85.2375 671.891 -85.2375 664.093 Q-85.2375 660.751 -84.6327 657.281 Q-84.028 653.812 -82.8185 650.184 Z" fill="#000000" fill-rule="evenodd" fill-opacity="1" /><path clip-path="url(#clip300)" d="M 0 0 M-54.7776 624.975 Q-54.7776 632.073 -53.1543 634.81 Q-51.5311 637.548 -47.6162 637.548 Q-44.497 637.548 -42.6509 635.511 Q-40.8367 633.442 -40.8367 629.909 Q-40.8367 625.039 -44.2742 622.111 Q-47.7435 619.151 -53.4726 619.151 L-54.7776 619.151 L-54.7776 624.975 M-57.1965 613.294 L-36.8581 613.294 L-36.8581 619.151 L-42.269 619.151 Q-39.0224 621.156 -37.4628 624.148 Q-35.9351 627.14 -35.9351 631.468 Q-35.9351 636.943 -38.9906 640.189 Q-42.078 643.404 -47.2342 643.404 Q-53.2498 643.404 -56.3053 639.394 Q-59.3609 635.351 -59.3609 627.363 L-59.3609 619.151 L-59.9338 619.151 Q-63.976 619.151 -66.1722 621.824 Q-68.4002 624.466 -68.4002 629.272 Q-68.4002 632.328 -67.6681 635.224 Q-66.9361 638.121 -65.472 640.794 L-70.8828 640.794 Q-72.1241 637.579 -72.7289 634.556 Q-73.3654 631.532 -73.3654 628.667 Q-73.3654 620.933 -69.355 617.114 Q-65.3446 613.294 -57.1965 613.294 Z" fill="#000000" fill-rule="evenodd" fill-opacity="1" /><path clip-path="url(#clip300)" d="M 0 0 M-65.6629 579.397 Q-69.6097 577.201 -71.4876 574.145 Q-73.3654 571.09 -73.3654 566.952 Q-73.3654 561.382 -69.4505 558.358 Q-65.5674 555.335 -58.3742 555.335 L-36.8581 555.335 L-36.8581 561.223 L-58.1832 561.223 Q-63.3076 561.223 -65.7902 563.037 Q-68.2729 564.851 -68.2729 568.575 Q-68.2729 573.127 -65.2492 575.768 Q-62.2254 578.41 -57.0056 578.41 L-36.8581 578.41 L-36.8581 584.298 L-58.1832 584.298 Q-63.3394 584.298 -65.7902 586.113 Q-68.2729 587.927 -68.2729 591.715 Q-68.2729 596.202 -65.2173 598.844 Q-62.1936 601.486 -57.0056 601.486 L-36.8581 601.486 L-36.8581 607.374 L-72.5061 607.374 L-72.5061 601.486 L-66.9679 601.486 Q-70.2462 599.481 -71.8058 596.68 Q-73.3654 593.879 -73.3654 590.028 Q-73.3654 586.145 -71.3921 583.439 Q-69.4187 580.702 -65.6629 579.397 Z" fill="#000000" fill-rule="evenodd" fill-opacity="1" /><path clip-path="url(#clip300)" d="M 0 0 M-42.2053 543.526 L-23.2992 543.526 L-23.2992 549.414 L-72.5061 549.414 L-72.5061 543.526 L-67.0952 543.526 Q-70.2781 541.68 -71.8058 538.879 Q-73.3654 536.046 -73.3654 532.132 Q-73.3654 525.639 -68.2092 521.596 Q-63.053 517.522 -54.6503 517.522 Q-46.2475 517.522 -41.0913 521.596 Q-35.9351 525.639 -35.9351 532.132 Q-35.9351 536.046 -37.4628 538.879 Q-39.0224 541.68 -42.2053 543.526 M-54.6503 523.601 Q-61.1114 523.601 -64.7717 526.275 Q-68.4638 528.917 -68.4638 533.564 Q-68.4638 538.211 -64.7717 540.884 Q-61.1114 543.526 -54.6503 543.526 Q-48.1891 543.526 -44.497 540.884 Q-40.8367 538.211 -40.8367 533.564 Q-40.8367 528.917 -44.497 526.275 Q-48.1891 523.601 -54.6503 523.601 Z" fill="#000000" fill-rule="evenodd" fill-opacity="1" /><path clip-path="url(#clip300)" d="M 0 0 M-86.3833 511.379 L-86.3833 505.523 L-36.8581 505.523 L-36.8581 511.379 L-86.3833 511.379 Z" fill="#000000" fill-rule="evenodd" fill-opacity="1" /><path clip-path="url(#clip300)" d="M 0 0 M-56.1462 468.888 L-53.2816 468.888 L-53.2816 495.815 Q-47.2342 495.433 -44.0514 492.187 Q-40.9003 488.908 -40.9003 483.084 Q-40.9003 479.71 -41.7279 476.559 Q-42.5554 473.376 -44.2105 470.257 L-38.6723 470.257 Q-37.3355 473.408 -36.6353 476.718 Q-35.9351 480.028 -35.9351 483.434 Q-35.9351 491.964 -40.9003 496.961 Q-45.8656 501.926 -54.332 501.926 Q-63.0848 501.926 -68.2092 497.216 Q-73.3654 492.473 -73.3654 484.452 Q-73.3654 477.259 -68.7185 473.09 Q-64.1033 468.888 -56.1462 468.888 M-57.8649 474.745 Q-62.671 474.808 -65.5356 477.45 Q-68.4002 480.06 -68.4002 484.389 Q-68.4002 489.29 -65.6311 492.25 Q-62.862 495.179 -57.8331 495.624 L-57.8649 474.745 Z" fill="#000000" fill-rule="evenodd" fill-opacity="1" /><path clip-path="url(#clip300)" d="M 0 0 M-72.5061 446.226 L-72.5061 440.02 L-42.5872 428.88 L-72.5061 417.74 L-72.5061 411.533 L-36.8581 424.901 L-36.8581 432.858 L-72.5061 446.226 Z" fill="#000000" fill-rule="evenodd" fill-opacity="1" /><path clip-path="url(#clip300)" d="M 0 0 M-54.7776 389.19 Q-54.7776 396.287 -53.1543 399.025 Q-51.5311 401.762 -47.6162 401.762 Q-44.497 401.762 -42.6509 399.725 Q-40.8367 397.656 -40.8367 394.123 Q-40.8367 389.253 -44.2742 386.325 Q-47.7435 383.365 -53.4726 383.365 L-54.7776 383.365 L-54.7776 389.19 M-57.1965 377.509 L-36.8581 377.509 L-36.8581 383.365 L-42.269 383.365 Q-39.0224 385.37 -37.4628 388.362 Q-35.9351 391.354 -35.9351 395.683 Q-35.9351 401.157 -38.9906 404.404 Q-42.078 407.618 -47.2342 407.618 Q-53.2498 407.618 -56.3053 403.608 Q-59.3609 399.566 -59.3609 391.577 L-59.3609 383.365 L-59.9338 383.365 Q-63.976 383.365 -66.1722 386.039 Q-68.4002 388.68 -68.4002 393.486 Q-68.4002 396.542 -67.6681 399.438 Q-66.9361 402.335 -65.472 405.008 L-70.8828 405.008 Q-72.1241 401.794 -72.7289 398.77 Q-73.3654 395.746 -73.3654 392.882 Q-73.3654 385.147 -69.355 381.328 Q-65.3446 377.509 -57.1965 377.509 Z" fill="#000000" fill-rule="evenodd" fill-opacity="1" /><path clip-path="url(#clip300)" d="M 0 0 M-86.3833 371.366 L-86.3833 365.509 L-36.8581 365.509 L-36.8581 371.366 L-86.3833 371.366 Z" fill="#000000" fill-rule="evenodd" fill-opacity="1" /><path clip-path="url(#clip300)" d="M 0 0 M-50.9263 359.971 L-72.5061 359.971 L-72.5061 354.115 L-51.1491 354.115 Q-46.0884 354.115 -43.5421 352.141 Q-41.0276 350.168 -41.0276 346.221 Q-41.0276 341.479 -44.0514 338.741 Q-47.0751 335.972 -52.2949 335.972 L-72.5061 335.972 L-72.5061 330.116 L-36.8581 330.116 L-36.8581 335.972 L-42.3326 335.972 Q-39.0861 338.105 -37.4947 340.938 Q-35.9351 343.738 -35.9351 347.462 Q-35.9351 353.605 -39.7545 356.788 Q-43.5739 359.971 -50.9263 359.971 M-73.3654 345.234 L-73.3654 345.234 Z" fill="#000000" fill-rule="evenodd" fill-opacity="1" /><path clip-path="url(#clip300)" d="M 0 0 M-56.1462 293.481 L-53.2816 293.481 L-53.2816 320.408 Q-47.2342 320.026 -44.0514 316.78 Q-40.9003 313.501 -40.9003 307.677 Q-40.9003 304.303 -41.7279 301.152 Q-42.5554 297.969 -44.2105 294.85 L-38.6723 294.85 Q-37.3355 298.001 -36.6353 301.311 Q-35.9351 304.621 -35.9351 308.027 Q-35.9351 316.557 -40.9003 321.554 Q-45.8656 326.519 -54.332 326.519 Q-63.0848 326.519 -68.2092 321.809 Q-73.3654 317.066 -73.3654 309.045 Q-73.3654 301.852 -68.7185 297.683 Q-64.1033 293.481 -56.1462 293.481 M-57.8649 299.338 Q-62.671 299.401 -65.5356 302.043 Q-68.4002 304.653 -68.4002 308.982 Q-68.4002 313.883 -65.6311 316.843 Q-62.862 319.772 -57.8331 320.217 L-57.8649 299.338 Z" fill="#000000" fill-rule="evenodd" fill-opacity="1" /><path clip-path="url(#clip300)" d="M 0 0 M1048.63 43.8146 L1022.83 43.8146 Q1023.43 55.9268 1026.23 61.0714 Q1029.71 67.3908 1035.75 67.3908 Q1041.82 67.3908 1045.19 61.0309 Q1048.14 55.4407 1048.63 43.8146 M1048.51 36.928 Q1047.37 25.4235 1045.19 21.3726 Q1041.7 14.9721 1035.75 14.9721 Q1029.55 14.9721 1026.27 21.2916 Q1023.68 26.3957 1022.91 36.928 L1048.51 36.928 M1035.75 8.89579 Q1045.47 8.89579 1051.02 17.4837 Q1056.57 26.0311 1056.57 41.1815 Q1056.57 56.2914 1051.02 64.8793 Q1045.47 73.5077 1035.75 73.5077 Q1025.99 73.5077 1020.48 64.8793 Q1014.93 56.2914 1014.93 41.1815 Q1014.93 26.0311 1020.48 17.4837 Q1025.99 8.89579 1035.75 8.89579 Z" fill="#000000" fill-rule="evenodd" fill-opacity="1" /><polyline clip-path="url(#clip302)" style="stroke:#009af9; stroke-width:4; stroke-opacity:1; fill:none" points="
  170.646,267.517 172.378,206.907 174.11,172.216 175.842,180.45 177.574,278.916 179.306,397.061 181.038,385.938 182.77,385.938 184.502,353.751 186.234,353.751 
  187.966,374.83 189.698,172.451 191.429,624.166 193.161,434.384 194.893,424.105 196.625,372.182 198.357,428.178 200.089,387.743 201.821,194.196 203.553,194.196 
  205.285,340.848 207.017,477.062 208.749,407.888 210.481,392.38 212.213,616.946 213.945,236.253 215.677,260.69 217.409,217.766 219.14,284.827 220.872,353.251 
  222.604,259.462 224.336,289.639 226.068,403.703 227.8,409.072 229.532,631.687 231.264,815.247 232.996,595.908 234.728,524.642 236.46,460.476 238.192,356.98 
  239.924,368.692 241.656,288.423 243.388,263.688 245.119,361.593 246.851,375.856 248.583,275.723 250.315,356.155 252.047,345.155 253.779,246.215 255.511,367.386 
  257.243,392.08 258.975,408.743 260.707,556.387 262.439,604.665 264.171,513.696 265.903,480.33 267.635,272.95 269.367,429.039 271.099,580.937 272.83,458.819 
  274.562,652.892 276.294,466.47 278.026,489.203 279.758,332.397 281.49,489.77 283.222,574.828 284.954,607.068 286.686,411.281 288.418,488.691 290.15,501.259 
  291.882,515.868 293.614,515.868 295.346,166.233 297.078,400.607 298.809,414.901 300.541,519.463 302.273,230.455 304.005,167.15 305.737,276.725 307.469,283.675 
  309.201,534.973 310.933,601.728 312.665,245.721 314.397,172.039 316.129,149.765 317.861,253.63 319.593,326.69 321.325,483.229 323.057,612.113 324.789,437.132 
  326.52,655.133 328.252,211.138 329.984,377.75 331.716,377.75 333.448,406.059 335.18,403.364 336.912,721.092 338.644,176.939 340.376,312.558 342.108,266.508 
  343.84,570.303 345.572,465.555 347.304,574.327 349.036,527.687 350.768,508.325 352.499,508.325 354.231,474.742 355.963,474.742 357.695,314.742 359.427,214.47 
  361.159,238.725 362.891,317.117 364.623,472.513 366.355,339.731 368.087,339.731 369.819,193.413 371.551,154.603 373.283,155.695 375.015,242.549 376.747,565.517 
  378.479,541.435 380.21,474.504 381.942,457.244 383.674,416.317 385.406,373.161 387.138,399.657 388.87,542.615 390.602,400.583 392.334,400.583 394.066,540.594 
  395.798,437.213 397.53,603.414 399.262,603.414 400.994,245.054 402.726,286.74 404.458,359.331 406.189,359.331 407.921,400.391 409.653,666.939 411.385,613.933 
  413.117,229.642 414.849,246.305 416.581,152.368 418.313,164.685 420.045,101.394 421.777,179.725 423.509,216.591 425.241,342.225 426.973,343.639 428.705,298.015 
  430.437,296.911 432.169,161.311 433.9,149.616 435.632,271.486 437.364,313.941 439.096,323.942 440.828,387.941 442.56,387.941 444.292,387.941 446.024,417.81 
  447.756,417.81 449.488,385.725 451.22,340.403 452.952,291.149 454.684,355.96 456.416,193.825 458.148,316.477 459.879,178.896 461.611,178.896 463.343,210.528 
  465.075,282.934 466.807,350.916 468.539,403.772 470.271,411.511 472.003,550.561 473.735,254.044 475.467,254.044 477.199,572.916 478.931,669.937 480.663,522.534 
  482.395,302.859 484.127,377.388 485.859,246.29 487.59,246.29 489.322,427.97 491.054,412.502 492.786,679.946 494.518,726.702 496.25,383.883 497.982,287.599 
  499.714,225.583 501.446,253.733 503.178,320.671 504.91,320.671 506.642,499.664 508.374,623.391 510.106,756.853 511.838,497.745 513.569,313.321 515.301,259.706 
  517.033,567.364 518.765,433.484 520.497,456.069 522.229,354.91 523.961,284.355 525.693,154.419 527.425,753.345 529.157,197.457 530.889,494.734 532.621,320.377 
  534.353,395.761 536.085,415.704 537.817,415.704 539.549,585.397 541.28,513.077 543.012,580.739 544.744,774.863 546.476,317.174 548.208,371.958 549.94,184.355 
  551.672,201.15 553.404,346.431 555.136,317.966 556.868,382.098 558.6,208.095 560.332,309.486 562.064,384.748 563.796,384.748 565.528,223.052 567.259,238.697 
  568.991,377.146 570.723,377.146 572.455,377.146 574.187,268.626 575.919,300.328 577.651,342.667 579.383,342.667 581.115,460.279 582.847,409.348 584.579,601.549 
  586.311,419.588 588.043,384.525 589.775,428.114 591.507,517.327 593.239,307.574 594.97,307.574 596.702,459.195 598.434,656.947 600.166,466.018 601.898,351.193 
  603.63,250.994 605.362,598.342 607.094,598.342 608.826,455.631 610.558,447.941 612.29,365.373 614.022,353.583 615.754,407.03 617.486,407.03 619.218,143.241 
  620.949,170.152 622.681,452.661 624.413,452.661 626.145,693.378 627.877,378.344 629.609,423.784 631.341,447.089 633.073,327.849 634.805,370.696 636.537,370.696 
  638.269,355.56 640.001,544.537 641.733,484.112 643.465,422.5 645.197,521.64 646.929,603.14 648.66,477.913 650.392,518.088 652.124,305.98 653.856,250.434 
  655.588,143.516 657.32,132.661 659.052,302.877 660.784,510.183 662.516,510.183 664.248,510.183 665.98,331.55 667.712,359.348 669.444,217.029 671.176,215.108 
  672.908,654.573 674.639,209.93 676.371,233.015 678.103,269.619 679.835,455.662 681.567,455.662 683.299,360.778 685.031,358.01 686.763,350.939 688.495,352.828 
  690.227,352.828 691.959,432.67 693.691,500.827 695.423,598.28 697.155,476.265 698.887,254.731 700.619,466.879 702.35,493.932 704.082,549.547 705.814,493.239 
  707.546,665.4 709.278,415.063 711.01,631.794 712.742,642.495 714.474,575.554 716.206,465.364 717.938,150.77 719.67,357.9 721.402,283.353 723.134,280.493 
  724.866,373.113 726.598,443.485 728.329,508.215 730.061,616.092 731.793,503.186 733.525,321.07 735.257,104.874 736.989,126.403 738.721,116.432 740.453,117.045 
  742.185,546.043 743.917,232.649 745.649,215.469 747.381,647.114 749.113,591.848 750.845,388.993 752.577,384.64 754.309,343.776 756.04,476.014 757.772,458.517 
  759.504,352.693 761.236,249.064 762.968,277.656 764.7,587.557 766.432,585.172 768.164,421.202 769.896,418.234 771.628,407.764 773.36,444.891 775.092,370.261 
  776.824,292.185 778.556,292.185 780.288,327.851 782.019,259.253 783.751,213.612 785.483,341.701 787.215,273.95 788.947,331.626 790.679,480.594 792.411,530.387 
  794.143,530.387 795.875,545.34 797.607,451.014 799.339,364.832 801.071,400.14 802.803,396.627 804.535,377.974 806.267,321.455 807.999,206.368 809.73,389.856 
  811.462,395.629 813.194,411.92 814.926,389.866 816.658,641.532 818.39,482.251 820.122,561.956 821.854,436.75 823.586,545.117 825.318,484.083 827.05,484.083 
  828.782,524.659 830.514,325.806 832.246,496.247 833.978,315.095 835.709,523.168 837.441,591.202 839.173,668.759 840.905,428.903 842.637,428.903 844.369,441.25 
  846.101,561.756 847.833,521.569 849.565,521.569 851.297,463.933 853.029,341.726 854.761,370.882 856.493,339.028 858.225,339.028 859.957,318.045 861.689,199.943 
  863.42,317.298 865.152,194.9 866.884,456.177 868.616,456.177 870.348,323.963 872.08,204.892 873.812,325.267 875.544,243.007 877.276,606.231 879.008,408.8 
  880.74,393.014 882.472,290.025 884.204,305.728 885.936,385.172 887.668,302.997 889.399,302.997 891.131,270.791 892.863,258.556 894.595,584.521 896.327,521.544 
  898.059,290.609 899.791,349.182 901.523,447.26 903.255,557.104 904.987,279.83 906.719,110.362 908.451,305.962 910.183,363.943 911.915,386.829 913.647,402.428 
  915.379,412.872 917.11,380.199 918.842,684.585 920.574,201.704 922.306,285.845 924.038,377.527 925.77,377.527 927.502,295.623 929.234,284.336 930.966,300.566 
  932.698,190.862 934.43,401.57 936.162,586.657 937.894,251.201 939.626,582.075 941.358,262.087 943.089,324.61 944.821,293.6 946.553,201.698 948.285,288.637 
  950.017,288.637 951.749,201.062 953.481,662.391 955.213,668.305 956.945,205.833 958.677,266.667 960.409,566.564 962.141,611.134 963.873,501.235 965.605,432.237 
  967.337,383.876 969.069,290.685 970.8,365.241 972.532,229.383 974.264,367.327 975.996,455.327 977.728,669.17 979.46,559.55 981.192,559.55 982.924,274.096 
  984.656,315.731 986.388,346.022 988.12,388.885 989.852,291.927 991.584,376.202 993.316,307.39 995.048,307.39 996.779,518.941 998.511,408.614 1000.24,473.339 
  1001.98,464.519 1003.71,633.715 1005.44,487.679 1007.17,325.662 1008.9,498.248 1010.63,406.117 1012.37,552.052 1014.1,527.024 1015.83,407.296 1017.56,399.224 
  1019.29,661.527 1021.03,558.215 1022.76,264.207 1024.49,204.553 1026.22,655.078 1027.95,489.781 1029.69,317.41 1031.42,283.071 1033.15,510.672 1034.88,416.245 
  1036.61,416.245 1038.35,706.204 1040.08,368.01 1041.81,354.697 1043.54,275.457 1045.27,577.636 1047.01,452.477 1048.74,452.477 1050.47,412.479 1052.2,367.998 
  1053.93,441.954 1055.67,357.999 1057.4,314.958 1059.13,373.296 1060.86,373.296 1062.59,292.374 1064.32,309.385 1066.06,164.658 1067.79,173.878 1069.52,162.429 
  1071.25,748.813 1072.98,455.68 1074.72,361.47 1076.45,361.47 1078.18,94.7602 1079.91,364.66 1081.64,231.578 1083.38,383.389 1085.11,662.176 1086.84,468.485 
  1088.57,326.402 1090.3,264.986 1092.04,305.899 1093.77,348.802 1095.5,364.999 1097.23,364.999 1098.96,267.13 1100.7,259.977 1102.43,360.449 1104.16,441.64 
  1105.89,441.64 1107.62,523.198 1109.36,523.198 1111.09,302.696 1112.82,226.62 1114.55,631.95 1116.28,613.979 1118.01,471.631 1119.75,509.538 1121.48,549.229 
  1123.21,660.756 1124.94,379.59 1126.67,317.188 1128.41,365.281 1130.14,434.152 1131.87,468.06 1133.6,468.06 1135.33,580.986 1137.07,408.955 1138.8,607.983 
  1140.53,766.226 1142.26,394.08 1143.99,408.38 1145.73,619.113 1147.46,726.436 1149.19,371.129 1150.92,273.672 1152.65,273.672 1154.39,332.8 1156.12,283.982 
  1157.85,374.821 1159.58,253.272 1161.31,231.272 1163.05,296.083 1164.78,524.851 1166.51,413.076 1168.24,525.958 1169.97,525.958 1171.7,208.555 1173.44,571.019 
  1175.17,566.611 1176.9,591.841 1178.63,426.614 1180.36,384.412 1182.1,373.191 1183.83,315.566 1185.56,500.56 1187.29,451.323 1189.02,454.63 1190.76,360.602 
  1192.49,450.484 1194.22,465.206 1195.95,352.969 1197.68,398.961 1199.42,404.112 1201.15,363.485 1202.88,337.459 1204.61,327.317 1206.34,495.363 1208.08,436.773 
  1209.81,422.538 1211.54,444.037 1213.27,576.787 1215,255.036 1216.74,270.21 1218.47,328.915 1220.2,303.859 1221.93,395.02 1223.66,346.964 1225.39,324.728 
  1227.13,328.65 1228.86,480.086 1230.59,327.647 1232.32,288.502 1234.05,161.77 1235.79,347.067 1237.52,347.067 1239.25,168.047 1240.98,335.273 1242.71,388.691 
  1244.45,321.538 1246.18,321.538 1247.91,434.24 1249.64,496.703 1251.37,637.112 1253.11,226.136 1254.84,226.136 1256.57,242.386 1258.3,232.198 1260.03,623.326 
  1261.77,500.116 1263.5,580.969 1265.23,441.608 1266.96,422.291 1268.69,377.303 1270.43,431.761 1272.16,469.868 1273.89,469.868 1275.62,343.515 1277.35,476.178 
  1279.08,611.752 1280.82,412.349 1282.55,561.405 1284.28,699.064 1286.01,454.669 1287.74,362.653 1289.48,443.418 1291.21,594.834 1292.94,594.834 1294.67,206.399 
  1296.4,669.392 1298.14,363.019 1299.87,238.075 1301.6,464.468 1303.33,464.468 1305.06,458.955 1306.8,545.068 1308.53,588.715 1310.26,199.788 1311.99,351.226 
  1313.72,267.681 1315.46,405.493 1317.19,767.936 1318.92,827.456 1320.65,124.03 1322.38,349.737 1324.12,239.763 1325.85,322.999 1327.58,322.999 1329.31,498.747 
  1331.04,433.18 1332.77,433.114 1334.51,550.622 1336.24,540.69 1337.97,439.097 1339.7,417.44 1341.43,417.44 1343.17,417.44 1344.9,625.11 1346.63,456.011 
  1348.36,456.011 1350.09,408.815 1351.83,381.974 1353.56,371.289 1355.29,344.354 1357.02,339.834 1358.75,468.154 1360.49,617.589 1362.22,576.855 1363.95,257.14 
  1365.68,236.817 1367.41,216.453 1369.15,359.009 1370.88,208.817 1372.61,321.898 1374.34,238.565 1376.07,171.195 1377.81,442.13 1379.54,186.594 1381.27,327.54 
  1383,247.835 1384.73,376.384 1386.46,439.842 1388.2,615.54 1389.93,603.869 1391.66,641.944 1393.39,887.252 1395.12,577.095 1396.86,543.013 1398.59,584.65 
  1400.32,735.773 1402.05,583.73 1403.78,256.643 1405.52,588.23 1407.25,612.627 1408.98,398.533 1410.71,403.31 1412.44,382.797 1414.18,394.664 1415.91,331.268 
  1417.64,362.792 1419.37,335.169 1421.1,178.141 1422.84,174.525 1424.57,174.525 1426.3,159.354 1428.03,265.07 1429.76,318.9 1431.5,545.468 1433.23,568.549 
  1434.96,402.697 1436.69,339.399 1438.42,264.864 1440.15,384.224 1441.89,339.498 1443.62,447.619 1445.35,515.028 1447.08,405.51 1448.81,682.757 1450.55,409.271 
  1452.28,482.421 1454.01,419.122 1455.74,417.312 1457.47,433.786 1459.21,715.722 1460.94,431.961 1462.67,474.197 1464.4,630.053 1466.13,430.967 1467.87,472.795 
  1469.6,497.388 1471.33,635.912 1473.06,624.527 1474.79,423.052 1476.53,388.172 1478.26,394.385 1479.99,342.514 1481.72,228.73 1483.45,557.706 1485.19,429.799 
  1486.92,474.383 1488.65,474.383 1490.38,451.011 1492.11,354.554 1493.84,252.788 1495.58,264.797 1497.31,264.797 1499.04,256.636 1500.77,400.586 1502.5,603.828 
  1504.24,557.49 1505.97,557.49 1507.7,203.364 1509.43,267.444 1511.16,367.368 1512.9,377.359 1514.63,187.547 1516.36,318.279 1518.09,240.552 1519.82,292.082 
  1521.56,269.565 1523.29,583.002 1525.02,585.384 1526.75,393.547 1528.48,393.547 1530.22,385.729 1531.95,385.729 1533.68,265.704 1535.41,381.138 1537.14,319.377 
  1538.88,258.475 1540.61,322.575 1542.34,172.77 1544.07,131.288 1545.8,178.514 1547.53,265.811 1549.27,550.487 1551,511.596 1552.73,403.772 1554.46,707.074 
  1556.19,664.595 1557.93,412.894 1559.66,399.128 1561.39,399.128 1563.12,240.494 1564.85,287.106 1566.59,542.015 1568.32,480.445 1570.05,324.564 1571.78,324.564 
  1573.51,743.662 1575.25,361.992 1576.98,271.976 1578.71,246.085 1580.44,246.085 1582.17,353.06 1583.91,373.463 1585.64,386.807 1587.37,429.14 1589.1,566.696 
  1590.83,665.98 1592.57,176.606 1594.3,696.79 1596.03,696.79 1597.76,683.559 1599.49,541.056 1601.22,552.738 1602.96,740.252 1604.69,341.96 1606.42,380.592 
  1608.15,384.36 1609.88,283.91 1611.62,193.452 1613.35,292.984 1615.08,301.94 1616.81,156.276 1618.54,314.488 1620.28,420.476 1622.01,384.493 1623.74,423.045 
  1625.47,728.977 1627.2,753.649 1628.94,587.387 1630.67,435.186 1632.4,460.085 1634.13,492.76 1635.86,642.574 1637.6,701.285 1639.33,378.779 1641.06,344.764 
  1642.79,279.429 1644.52,218.127 1646.26,350.414 1647.99,403.708 1649.72,239.949 1651.45,597.043 1653.18,536.996 1654.91,562.459 1656.65,637.446 1658.38,211.405 
  1660.11,211.405 1661.84,247.131 1663.57,237.063 1665.31,313.996 1667.04,512.621 1668.77,512.621 1670.5,512.621 1672.23,594.039 1673.97,487.181 1675.7,328.897 
  1677.43,493.428 1679.16,316.625 1680.89,323.837 1682.63,735.733 1684.36,119.772 1686.09,173.065 1687.82,187.14 1689.55,308.355 1691.29,384.574 1693.02,431.311 
  1694.75,413.32 1696.48,413.32 1698.21,621.707 1699.95,388.638 1701.68,636.055 1703.41,420.094 1705.14,515.795 1706.87,414.33 1708.6,429.762 1710.34,501.329 
  1712.07,492.03 1713.8,482.937 1715.53,482.937 1717.26,626.661 1719,661.822 1720.73,472.28 1722.46,502.886 1724.19,492.372 1725.92,330.408 1727.66,388.499 
  1729.39,708.061 1731.12,381.083 1732.85,279.641 1734.58,293.813 1736.32,369.265 1738.05,359.159 1739.78,170.68 1741.51,149.395 1743.24,388.76 1744.98,256.533 
  1746.71,577.955 1748.44,256.176 1750.17,334.637 1751.9,324.868 1753.64,174.724 1755.37,723.902 1757.1,167.332 1758.83,124.78 1760.56,124.78 1762.29,384.515 
  1764.03,430.565 1765.76,413.178 1767.49,558.118 1769.22,595.215 1770.95,455.053 1772.69,380.79 1774.42,193.861 1776.15,154.844 1777.88,361.881 1779.61,455.054 
  1781.35,541.457 1783.08,411.994 1784.81,496.21 1786.54,456.367 1788.27,456.367 1790.01,437.846 1791.74,473.311 1793.47,338.013 1795.2,349.747 1796.93,334.079 
  1798.67,334.079 1800.4,340.829 1802.13,466.65 1803.86,341.292 1805.59,464.064 1807.33,345.683 1809.06,305.554 1810.79,304.893 1812.52,355.705 1814.25,261.366 
  1815.98,323.164 1817.72,465.034 1819.45,461.652 1821.18,767.659 1822.91,148.992 1824.64,86.9997 1826.38,392.722 1828.11,285.792 1829.84,390.334 1831.57,284.567 
  1833.3,315.146 1835.04,386.64 1836.77,405.201 1838.5,505.779 1840.23,307.829 1841.96,334.996 1843.7,298.845 1845.43,403.704 1847.16,402.923 1848.89,402.923 
  1850.62,402.923 1852.36,625.271 1854.09,232.933 1855.82,214.992 1857.55,466.129 1859.28,550.304 1861.02,460.011 1862.75,355.29 1864.48,463.355 1866.21,585.742 
  1867.94,455.909 1869.67,527.186 1871.41,527.186 1873.14,702.747 1874.87,514.494 1876.6,190.327 1878.33,122.058 1880.07,161.246 1881.8,161.246 1883.53,381.891 
  1885.26,375.441 1886.99,733.064 1888.73,551.618 1890.46,551.618 1892.19,672.005 1893.92,442.206 1895.65,413.308 1897.39,432.103 1899.12,539.218 1900.85,539.23 
  
  "/>
<path clip-path="url(#clip300)" d="
M2118.74 911.26 L3952.76 911.26 L3952.76 62.9921 L2118.74 62.9921  Z
  " fill="#ffffff" fill-rule="evenodd" fill-opacity="1"/>
<defs>
  <clipPath id="clip303">
    <rect x="2118" y="62" width="1835" height="849"/>
  </clipPath>
</defs>
<polyline clip-path="url(#clip303)" style="stroke:#000000; stroke-width:2; stroke-opacity:0.1; fill:none" points="
  2435.15,911.26 2435.15,62.9921 
  "/>
<polyline clip-path="url(#clip303)" style="stroke:#000000; stroke-width:2; stroke-opacity:0.1; fill:none" points="
  2770.12,911.26 2770.12,62.9921 
  "/>
<polyline clip-path="url(#clip303)" style="stroke:#000000; stroke-width:2; stroke-opacity:0.1; fill:none" points="
  3105.1,911.26 3105.1,62.9921 
  "/>
<polyline clip-path="url(#clip303)" style="stroke:#000000; stroke-width:2; stroke-opacity:0.1; fill:none" points="
  3440.07,911.26 3440.07,62.9921 
  "/>
<polyline clip-path="url(#clip303)" style="stroke:#000000; stroke-width:2; stroke-opacity:0.1; fill:none" points="
  3775.05,911.26 3775.05,62.9921 
  "/>
<polyline clip-path="url(#clip300)" style="stroke:#000000; stroke-width:4; stroke-opacity:1; fill:none" points="
  2118.74,911.26 3952.76,911.26 
  "/>
<polyline clip-path="url(#clip300)" style="stroke:#000000; stroke-width:4; stroke-opacity:1; fill:none" points="
  2435.15,911.26 2435.15,901.081 
  "/>
<polyline clip-path="url(#clip300)" style="stroke:#000000; stroke-width:4; stroke-opacity:1; fill:none" points="
  2770.12,911.26 2770.12,901.081 
  "/>
<polyline clip-path="url(#clip300)" style="stroke:#000000; stroke-width:4; stroke-opacity:1; fill:none" points="
  3105.1,911.26 3105.1,901.081 
  "/>
<polyline clip-path="url(#clip300)" style="stroke:#000000; stroke-width:4; stroke-opacity:1; fill:none" points="
  3440.07,911.26 3440.07,901.081 
  "/>
<polyline clip-path="url(#clip300)" style="stroke:#000000; stroke-width:4; stroke-opacity:1; fill:none" points="
  3775.05,911.26 3775.05,901.081 
  "/>
<path clip-path="url(#clip300)" d="M 0 0 M2417.46 953.251 Q2413.85 953.251 2412.02 956.815 Q2410.22 960.357 2410.22 967.487 Q2410.22 974.593 2412.02 978.158 Q2413.85 981.699 2417.46 981.699 Q2421.1 981.699 2422.9 978.158 Q2424.73 974.593 2424.73 967.487 Q2424.73 960.357 2422.9 956.815 Q2421.1 953.251 2417.46 953.251 M2417.46 949.547 Q2423.27 949.547 2426.33 954.153 Q2429.41 958.737 2429.41 967.487 Q2429.41 976.213 2426.33 980.82 Q2423.27 985.403 2417.46 985.403 Q2411.65 985.403 2408.57 980.82 Q2405.52 976.213 2405.52 967.487 Q2405.52 958.737 2408.57 954.153 Q2411.65 949.547 2417.46 949.547 Z" fill="#000000" fill-rule="evenodd" fill-opacity="1" /><path clip-path="url(#clip300)" d="M 0 0 M2434.48 978.852 L2439.36 978.852 L2439.36 984.732 L2434.48 984.732 L2434.48 978.852 Z" fill="#000000" fill-rule="evenodd" fill-opacity="1" /><path clip-path="url(#clip300)" d="M 0 0 M2448.46 980.797 L2464.78 980.797 L2464.78 984.732 L2442.83 984.732 L2442.83 980.797 Q2445.49 978.042 2450.08 973.412 Q2454.68 968.76 2455.86 967.417 Q2458.11 964.894 2458.99 963.158 Q2459.89 961.399 2459.89 959.709 Q2459.89 956.954 2457.95 955.218 Q2456.03 953.482 2452.92 953.482 Q2450.72 953.482 2448.27 954.246 Q2445.84 955.01 2443.06 956.561 L2443.06 951.839 Q2445.89 950.704 2448.34 950.126 Q2450.79 949.547 2452.83 949.547 Q2458.2 949.547 2461.4 952.232 Q2464.59 954.917 2464.59 959.408 Q2464.59 961.538 2463.78 963.459 Q2462.99 965.357 2460.89 967.95 Q2460.31 968.621 2457.21 971.838 Q2454.1 975.033 2448.46 980.797 Z" fill="#000000" fill-rule="evenodd" fill-opacity="1" /><path clip-path="url(#clip300)" d="M 0 0 M2751.4 953.251 Q2747.78 953.251 2745.96 956.815 Q2744.15 960.357 2744.15 967.487 Q2744.15 974.593 2745.96 978.158 Q2747.78 981.699 2751.4 981.699 Q2755.03 981.699 2756.84 978.158 Q2758.66 974.593 2758.66 967.487 Q2758.66 960.357 2756.84 956.815 Q2755.03 953.251 2751.4 953.251 M2751.4 949.547 Q2757.21 949.547 2760.26 954.153 Q2763.34 958.737 2763.34 967.487 Q2763.34 976.213 2760.26 980.82 Q2757.21 985.403 2751.4 985.403 Q2745.59 985.403 2742.51 980.82 Q2739.45 976.213 2739.45 967.487 Q2739.45 958.737 2742.51 954.153 Q2745.59 949.547 2751.4 949.547 Z" fill="#000000" fill-rule="evenodd" fill-opacity="1" /><path clip-path="url(#clip300)" d="M 0 0 M2768.41 978.852 L2773.29 978.852 L2773.29 984.732 L2768.41 984.732 L2768.41 978.852 Z" fill="#000000" fill-rule="evenodd" fill-opacity="1" /><path clip-path="url(#clip300)" d="M 0 0 M2791.21 954.246 L2779.4 972.695 L2791.21 972.695 L2791.21 954.246 M2789.98 950.172 L2795.86 950.172 L2795.86 972.695 L2800.79 972.695 L2800.79 976.584 L2795.86 976.584 L2795.86 984.732 L2791.21 984.732 L2791.21 976.584 L2775.61 976.584 L2775.61 972.07 L2789.98 950.172 Z" fill="#000000" fill-rule="evenodd" fill-opacity="1" /><path clip-path="url(#clip300)" d="M 0 0 M3086.53 953.251 Q3082.92 953.251 3081.09 956.815 Q3079.29 960.357 3079.29 967.487 Q3079.29 974.593 3081.09 978.158 Q3082.92 981.699 3086.53 981.699 Q3090.17 981.699 3091.97 978.158 Q3093.8 974.593 3093.8 967.487 Q3093.8 960.357 3091.97 956.815 Q3090.17 953.251 3086.53 953.251 M3086.53 949.547 Q3092.34 949.547 3095.4 954.153 Q3098.48 958.737 3098.48 967.487 Q3098.48 976.213 3095.4 980.82 Q3092.34 985.403 3086.53 985.403 Q3080.72 985.403 3077.65 980.82 Q3074.59 976.213 3074.59 967.487 Q3074.59 958.737 3077.65 954.153 Q3080.72 949.547 3086.53 949.547 Z" fill="#000000" fill-rule="evenodd" fill-opacity="1" /><path clip-path="url(#clip300)" d="M 0 0 M3103.55 978.852 L3108.43 978.852 L3108.43 984.732 L3103.55 984.732 L3103.55 978.852 Z" fill="#000000" fill-rule="evenodd" fill-opacity="1" /><path clip-path="url(#clip300)" d="M 0 0 M3124.08 965.588 Q3120.93 965.588 3119.08 967.741 Q3117.25 969.894 3117.25 973.644 Q3117.25 977.371 3119.08 979.547 Q3120.93 981.699 3124.08 981.699 Q3127.23 981.699 3129.06 979.547 Q3130.91 977.371 3130.91 973.644 Q3130.91 969.894 3129.06 967.741 Q3127.23 965.588 3124.08 965.588 M3133.36 950.936 L3133.36 955.195 Q3131.6 954.362 3129.8 953.922 Q3128.02 953.482 3126.26 953.482 Q3121.63 953.482 3119.17 956.607 Q3116.74 959.732 3116.39 966.051 Q3117.76 964.038 3119.82 962.973 Q3121.88 961.885 3124.36 961.885 Q3129.57 961.885 3132.58 965.056 Q3135.61 968.204 3135.61 973.644 Q3135.61 978.968 3132.46 982.186 Q3129.31 985.403 3124.08 985.403 Q3118.08 985.403 3114.91 980.82 Q3111.74 976.213 3111.74 967.487 Q3111.74 959.292 3115.63 954.431 Q3119.52 949.547 3126.07 949.547 Q3127.83 949.547 3129.61 949.894 Q3131.42 950.241 3133.36 950.936 Z" fill="#000000" fill-rule="evenodd" fill-opacity="1" /><path clip-path="url(#clip300)" d="M 0 0 M3421.64 953.251 Q3418.03 953.251 3416.2 956.815 Q3414.39 960.357 3414.39 967.487 Q3414.39 974.593 3416.2 978.158 Q3418.03 981.699 3421.64 981.699 Q3425.27 981.699 3427.08 978.158 Q3428.91 974.593 3428.91 967.487 Q3428.91 960.357 3427.08 956.815 Q3425.27 953.251 3421.64 953.251 M3421.64 949.547 Q3427.45 949.547 3430.5 954.153 Q3433.58 958.737 3433.58 967.487 Q3433.58 976.213 3430.5 980.82 Q3427.45 985.403 3421.64 985.403 Q3415.83 985.403 3412.75 980.82 Q3409.69 976.213 3409.69 967.487 Q3409.69 958.737 3412.75 954.153 Q3415.83 949.547 3421.64 949.547 Z" fill="#000000" fill-rule="evenodd" fill-opacity="1" /><path clip-path="url(#clip300)" d="M 0 0 M3438.65 978.852 L3443.54 978.852 L3443.54 984.732 L3438.65 984.732 L3438.65 978.852 Z" fill="#000000" fill-rule="evenodd" fill-opacity="1" /><path clip-path="url(#clip300)" d="M 0 0 M3458.6 968.32 Q3455.27 968.32 3453.35 970.102 Q3451.45 971.885 3451.45 975.01 Q3451.45 978.135 3453.35 979.917 Q3455.27 981.699 3458.6 981.699 Q3461.94 981.699 3463.86 979.917 Q3465.78 978.112 3465.78 975.01 Q3465.78 971.885 3463.86 970.102 Q3461.96 968.32 3458.6 968.32 M3453.93 966.329 Q3450.92 965.588 3449.23 963.528 Q3447.56 961.468 3447.56 958.505 Q3447.56 954.362 3450.5 951.954 Q3453.47 949.547 3458.6 949.547 Q3463.77 949.547 3466.71 951.954 Q3469.65 954.362 3469.65 958.505 Q3469.65 961.468 3467.96 963.528 Q3466.29 965.588 3463.3 966.329 Q3466.68 967.116 3468.56 969.408 Q3470.46 971.7 3470.46 975.01 Q3470.46 980.033 3467.38 982.718 Q3464.32 985.403 3458.6 985.403 Q3452.89 985.403 3449.81 982.718 Q3446.75 980.033 3446.75 975.01 Q3446.75 971.7 3448.65 969.408 Q3450.55 967.116 3453.93 966.329 M3452.22 958.945 Q3452.22 961.63 3453.88 963.135 Q3455.57 964.639 3458.6 964.639 Q3461.61 964.639 3463.3 963.135 Q3465.02 961.63 3465.02 958.945 Q3465.02 956.26 3463.3 954.755 Q3461.61 953.251 3458.6 953.251 Q3455.57 953.251 3453.88 954.755 Q3452.22 956.26 3452.22 958.945 Z" fill="#000000" fill-rule="evenodd" fill-opacity="1" /><path clip-path="url(#clip300)" d="M 0 0 M3746.95 980.797 L3754.59 980.797 L3754.59 954.431 L3746.28 956.098 L3746.28 951.839 L3754.54 950.172 L3759.22 950.172 L3759.22 980.797 L3766.86 980.797 L3766.86 984.732 L3746.95 984.732 L3746.95 980.797 Z" fill="#000000" fill-rule="evenodd" fill-opacity="1" /><path clip-path="url(#clip300)" d="M 0 0 M3771.93 978.852 L3776.81 978.852 L3776.81 984.732 L3771.93 984.732 L3771.93 978.852 Z" fill="#000000" fill-rule="evenodd" fill-opacity="1" /><path clip-path="url(#clip300)" d="M 0 0 M3791.88 953.251 Q3788.27 953.251 3786.44 956.815 Q3784.63 960.357 3784.63 967.487 Q3784.63 974.593 3786.44 978.158 Q3788.27 981.699 3791.88 981.699 Q3795.51 981.699 3797.32 978.158 Q3799.15 974.593 3799.15 967.487 Q3799.15 960.357 3797.32 956.815 Q3795.51 953.251 3791.88 953.251 M3791.88 949.547 Q3797.69 949.547 3800.75 954.153 Q3803.82 958.737 3803.82 967.487 Q3803.82 976.213 3800.75 980.82 Q3797.69 985.403 3791.88 985.403 Q3786.07 985.403 3782.99 980.82 Q3779.94 976.213 3779.94 967.487 Q3779.94 958.737 3782.99 954.153 Q3786.07 949.547 3791.88 949.547 Z" fill="#000000" fill-rule="evenodd" fill-opacity="1" /><path clip-path="url(#clip300)" d="M 0 0 M2872.69 1014.16 L2872.69 1020.43 Q2869.03 1018.68 2865.78 1017.82 Q2862.54 1016.96 2859.51 1016.96 Q2854.26 1016.96 2851.4 1019 Q2848.56 1021.04 2848.56 1024.79 Q2848.56 1027.95 2850.44 1029.57 Q2852.35 1031.16 2857.64 1032.15 L2861.52 1032.94 Q2868.71 1034.31 2872.12 1037.78 Q2875.56 1041.22 2875.56 1047.01 Q2875.56 1053.92 2870.91 1057.48 Q2866.29 1061.05 2857.35 1061.05 Q2853.98 1061.05 2850.16 1060.28 Q2846.37 1059.52 2842.29 1058.02 L2842.29 1051.4 Q2846.21 1053.6 2849.96 1054.71 Q2853.72 1055.83 2857.35 1055.83 Q2862.86 1055.83 2865.85 1053.66 Q2868.84 1051.5 2868.84 1047.49 Q2868.84 1043.99 2866.67 1042.01 Q2864.54 1040.04 2859.64 1039.05 L2855.73 1038.29 Q2848.53 1036.86 2845.32 1033.8 Q2842.1 1030.75 2842.1 1025.3 Q2842.1 1019 2846.53 1015.37 Q2850.98 1011.74 2858.78 1011.74 Q2862.12 1011.74 2865.59 1012.35 Q2869.06 1012.95 2872.69 1014.16 Z" fill="#000000" fill-rule="evenodd" fill-opacity="1" /><path clip-path="url(#clip300)" d="M 0 0 M2897.9 1042.2 Q2890.8 1042.2 2888.06 1043.83 Q2885.33 1045.45 2885.33 1049.37 Q2885.33 1052.48 2887.36 1054.33 Q2889.43 1056.15 2892.97 1056.15 Q2897.83 1056.15 2900.76 1052.71 Q2903.72 1049.24 2903.72 1043.51 L2903.72 1042.2 L2897.9 1042.2 M2909.58 1039.79 L2909.58 1060.12 L2903.72 1060.12 L2903.72 1054.71 Q2901.72 1057.96 2898.73 1059.52 Q2895.73 1061.05 2891.41 1061.05 Q2885.93 1061.05 2882.68 1057.99 Q2879.47 1054.9 2879.47 1049.75 Q2879.47 1043.73 2883.48 1040.68 Q2887.52 1037.62 2895.51 1037.62 L2903.72 1037.62 L2903.72 1037.05 Q2903.72 1033.01 2901.05 1030.81 Q2898.41 1028.58 2893.6 1028.58 Q2890.55 1028.58 2887.65 1029.31 Q2884.75 1030.05 2882.08 1031.51 L2882.08 1026.1 Q2885.29 1024.86 2888.32 1024.25 Q2891.34 1023.62 2894.21 1023.62 Q2901.94 1023.62 2905.76 1027.63 Q2909.58 1031.64 2909.58 1039.79 Z" fill="#000000" fill-rule="evenodd" fill-opacity="1" /><path clip-path="url(#clip300)" d="M 0 0 M2943.48 1031.32 Q2945.67 1027.37 2948.73 1025.49 Q2951.78 1023.62 2955.92 1023.62 Q2961.49 1023.62 2964.52 1027.53 Q2967.54 1031.41 2967.54 1038.61 L2967.54 1060.12 L2961.65 1060.12 L2961.65 1038.8 Q2961.65 1033.67 2959.84 1031.19 Q2958.02 1028.71 2954.3 1028.71 Q2949.75 1028.71 2947.11 1031.73 Q2944.46 1034.76 2944.46 1039.98 L2944.46 1060.12 L2938.58 1060.12 L2938.58 1038.8 Q2938.58 1033.64 2936.76 1031.19 Q2934.95 1028.71 2931.16 1028.71 Q2926.67 1028.71 2924.03 1031.76 Q2921.39 1034.79 2921.39 1039.98 L2921.39 1060.12 L2915.5 1060.12 L2915.5 1024.48 L2921.39 1024.48 L2921.39 1030.01 Q2923.39 1026.74 2926.19 1025.18 Q2929 1023.62 2932.85 1023.62 Q2936.73 1023.62 2939.43 1025.59 Q2942.17 1027.56 2943.48 1031.32 Z" fill="#000000" fill-rule="evenodd" fill-opacity="1" /><path clip-path="url(#clip300)" d="M 0 0 M2979.35 1054.78 L2979.35 1073.68 L2973.46 1073.68 L2973.46 1024.48 L2979.35 1024.48 L2979.35 1029.89 Q2981.19 1026.7 2983.99 1025.18 Q2986.83 1023.62 2990.74 1023.62 Q2997.24 1023.62 3001.28 1028.77 Q3005.35 1033.93 3005.35 1042.33 Q3005.35 1050.73 3001.28 1055.89 Q2997.24 1061.05 2990.74 1061.05 Q2986.83 1061.05 2983.99 1059.52 Q2981.19 1057.96 2979.35 1054.78 M2999.27 1042.33 Q2999.27 1035.87 2996.6 1032.21 Q2993.96 1028.52 2989.31 1028.52 Q2984.66 1028.52 2981.99 1032.21 Q2979.35 1035.87 2979.35 1042.33 Q2979.35 1048.79 2981.99 1052.48 Q2984.66 1056.15 2989.31 1056.15 Q2993.96 1056.15 2996.6 1052.48 Q2999.27 1048.79 2999.27 1042.33 Z" fill="#000000" fill-rule="evenodd" fill-opacity="1" /><path clip-path="url(#clip300)" d="M 0 0 M3011.49 1010.6 L3017.35 1010.6 L3017.35 1060.12 L3011.49 1060.12 L3011.49 1010.6 Z" fill="#000000" fill-rule="evenodd" fill-opacity="1" /><path clip-path="url(#clip300)" d="M 0 0 M3053.99 1040.84 L3053.99 1043.7 L3027.06 1043.7 Q3027.44 1049.75 3030.69 1052.93 Q3033.97 1056.08 3039.79 1056.08 Q3043.16 1056.08 3046.32 1055.25 Q3049.5 1054.43 3052.62 1052.77 L3052.62 1058.31 Q3049.47 1059.65 3046.16 1060.35 Q3042.85 1061.05 3039.44 1061.05 Q3030.91 1061.05 3025.91 1056.08 Q3020.95 1051.12 3020.95 1042.65 Q3020.95 1033.9 3025.66 1028.77 Q3030.4 1023.62 3038.42 1023.62 Q3045.61 1023.62 3049.78 1028.26 Q3053.99 1032.88 3053.99 1040.84 M3048.13 1039.12 Q3048.07 1034.31 3045.42 1031.45 Q3042.81 1028.58 3038.49 1028.58 Q3033.58 1028.58 3030.62 1031.35 Q3027.7 1034.12 3027.25 1039.15 L3048.13 1039.12 Z" fill="#000000" fill-rule="evenodd" fill-opacity="1" /><path clip-path="url(#clip300)" d="M 0 0 M3076.65 1024.48 L3082.85 1024.48 L3093.99 1054.39 L3105.13 1024.48 L3111.34 1024.48 L3097.97 1060.12 L3090.02 1060.12 L3076.65 1024.48 Z" fill="#000000" fill-rule="evenodd" fill-opacity="1" /><path clip-path="url(#clip300)" d="M 0 0 M3133.68 1042.2 Q3126.59 1042.2 3123.85 1043.83 Q3121.11 1045.45 3121.11 1049.37 Q3121.11 1052.48 3123.15 1054.33 Q3125.22 1056.15 3128.75 1056.15 Q3133.62 1056.15 3136.55 1052.71 Q3139.51 1049.24 3139.51 1043.51 L3139.51 1042.2 L3133.68 1042.2 M3145.37 1039.79 L3145.37 1060.12 L3139.51 1060.12 L3139.51 1054.71 Q3137.5 1057.96 3134.51 1059.52 Q3131.52 1061.05 3127.19 1061.05 Q3121.72 1061.05 3118.47 1057.99 Q3115.26 1054.9 3115.26 1049.75 Q3115.26 1043.73 3119.27 1040.68 Q3123.31 1037.62 3131.3 1037.62 L3139.51 1037.62 L3139.51 1037.05 Q3139.51 1033.01 3136.84 1030.81 Q3134.19 1028.58 3129.39 1028.58 Q3126.33 1028.58 3123.44 1029.31 Q3120.54 1030.05 3117.87 1031.51 L3117.87 1026.1 Q3121.08 1024.86 3124.1 1024.25 Q3127.13 1023.62 3129.99 1023.62 Q3137.73 1023.62 3141.55 1027.63 Q3145.37 1031.64 3145.37 1039.79 Z" fill="#000000" fill-rule="evenodd" fill-opacity="1" /><path clip-path="url(#clip300)" d="M 0 0 M3151.51 1010.6 L3157.36 1010.6 L3157.36 1060.12 L3151.51 1060.12 L3151.51 1010.6 Z" fill="#000000" fill-rule="evenodd" fill-opacity="1" /><path clip-path="url(#clip300)" d="M 0 0 M3162.9 1046.06 L3162.9 1024.48 L3168.76 1024.48 L3168.76 1045.83 Q3168.76 1050.89 3170.73 1053.44 Q3172.71 1055.95 3176.65 1055.95 Q3181.4 1055.95 3184.13 1052.93 Q3186.9 1049.91 3186.9 1044.69 L3186.9 1024.48 L3192.76 1024.48 L3192.76 1060.12 L3186.9 1060.12 L3186.9 1054.65 Q3184.77 1057.9 3181.94 1059.49 Q3179.14 1061.05 3175.41 1061.05 Q3169.27 1061.05 3166.09 1057.23 Q3162.9 1053.41 3162.9 1046.06 M3177.64 1023.62 L3177.64 1023.62 Z" fill="#000000" fill-rule="evenodd" fill-opacity="1" /><path clip-path="url(#clip300)" d="M 0 0 M3229.39 1040.84 L3229.39 1043.7 L3202.47 1043.7 Q3202.85 1049.75 3206.09 1052.93 Q3209.37 1056.08 3215.2 1056.08 Q3218.57 1056.08 3221.72 1055.25 Q3224.91 1054.43 3228.02 1052.77 L3228.02 1058.31 Q3224.87 1059.65 3221.56 1060.35 Q3218.25 1061.05 3214.85 1061.05 Q3206.32 1061.05 3201.32 1056.08 Q3196.35 1051.12 3196.35 1042.65 Q3196.35 1033.9 3201.07 1028.77 Q3205.81 1023.62 3213.83 1023.62 Q3221.02 1023.62 3225.19 1028.26 Q3229.39 1032.88 3229.39 1040.84 M3223.54 1039.12 Q3223.47 1034.31 3220.83 1031.45 Q3218.22 1028.58 3213.89 1028.58 Q3208.99 1028.58 3206.03 1031.35 Q3203.1 1034.12 3202.66 1039.15 L3223.54 1039.12 Z" fill="#000000" fill-rule="evenodd" fill-opacity="1" /><polyline clip-path="url(#clip303)" style="stroke:#000000; stroke-width:2; stroke-opacity:0.1; fill:none" points="
  2118.74,887.254 3952.76,887.254 
  "/>
<polyline clip-path="url(#clip303)" style="stroke:#000000; stroke-width:2; stroke-opacity:0.1; fill:none" points="
  2118.74,627.115 3952.76,627.115 
  "/>
<polyline clip-path="url(#clip303)" style="stroke:#000000; stroke-width:2; stroke-opacity:0.1; fill:none" points="
  2118.74,366.975 3952.76,366.975 
  "/>
<polyline clip-path="url(#clip303)" style="stroke:#000000; stroke-width:2; stroke-opacity:0.1; fill:none" points="
  2118.74,106.835 3952.76,106.835 
  "/>
<polyline clip-path="url(#clip300)" style="stroke:#000000; stroke-width:4; stroke-opacity:1; fill:none" points="
  2118.74,911.26 2118.74,62.9921 
  "/>
<polyline clip-path="url(#clip300)" style="stroke:#000000; stroke-width:4; stroke-opacity:1; fill:none" points="
  2118.74,887.254 2140.75,887.254 
  "/>
<polyline clip-path="url(#clip300)" style="stroke:#000000; stroke-width:4; stroke-opacity:1; fill:none" points="
  2118.74,627.115 2140.75,627.115 
  "/>
<polyline clip-path="url(#clip300)" style="stroke:#000000; stroke-width:4; stroke-opacity:1; fill:none" points="
  2118.74,366.975 2140.75,366.975 
  "/>
<polyline clip-path="url(#clip300)" style="stroke:#000000; stroke-width:4; stroke-opacity:1; fill:none" points="
  2118.74,106.835 2140.75,106.835 
  "/>
<path clip-path="url(#clip300)" d="M 0 0 M2046.8 873.053 Q2043.18 873.053 2041.36 876.618 Q2039.55 880.16 2039.55 887.289 Q2039.55 894.396 2041.36 897.96 Q2043.18 901.502 2046.8 901.502 Q2050.43 901.502 2052.24 897.96 Q2054.06 894.396 2054.06 887.289 Q2054.06 880.16 2052.24 876.618 Q2050.43 873.053 2046.8 873.053 M2046.8 869.349 Q2052.61 869.349 2055.66 873.956 Q2058.74 878.539 2058.74 887.289 Q2058.74 896.016 2055.66 900.622 Q2052.61 905.206 2046.8 905.206 Q2040.99 905.206 2037.91 900.622 Q2034.85 896.016 2034.85 887.289 Q2034.85 878.539 2037.91 873.956 Q2040.99 869.349 2046.8 869.349 Z" fill="#000000" fill-rule="evenodd" fill-opacity="1" /><path clip-path="url(#clip300)" d="M 0 0 M2038.83 640.46 L2046.47 640.46 L2046.47 614.094 L2038.16 615.761 L2038.16 611.501 L2046.43 609.835 L2051.1 609.835 L2051.1 640.46 L2058.74 640.46 L2058.74 644.395 L2038.83 644.395 L2038.83 640.46 Z" fill="#000000" fill-rule="evenodd" fill-opacity="1" /><path clip-path="url(#clip300)" d="M 0 0 M2042.42 380.32 L2058.74 380.32 L2058.74 384.255 L2036.8 384.255 L2036.8 380.32 Q2039.46 377.565 2044.04 372.936 Q2048.65 368.283 2049.83 366.94 Q2052.07 364.417 2052.95 362.681 Q2053.86 360.922 2053.86 359.232 Q2053.86 356.477 2051.91 354.741 Q2049.99 353.005 2046.89 353.005 Q2044.69 353.005 2042.24 353.769 Q2039.81 354.533 2037.03 356.084 L2037.03 351.362 Q2039.85 350.227 2042.31 349.649 Q2044.76 349.07 2046.8 349.07 Q2052.17 349.07 2055.36 351.755 Q2058.55 354.44 2058.55 358.931 Q2058.55 361.061 2057.74 362.982 Q2056.96 364.88 2054.85 367.473 Q2054.27 368.144 2051.17 371.362 Q2048.07 374.556 2042.42 380.32 Z" fill="#000000" fill-rule="evenodd" fill-opacity="1" /><path clip-path="url(#clip300)" d="M 0 0 M2051.61 105.481 Q2054.97 106.199 2056.84 108.467 Q2058.74 110.736 2058.74 114.069 Q2058.74 119.185 2055.22 121.986 Q2051.7 124.787 2045.22 124.787 Q2043.05 124.787 2040.73 124.347 Q2038.44 123.93 2035.99 123.074 L2035.99 118.56 Q2037.93 119.694 2040.24 120.273 Q2042.56 120.852 2045.08 120.852 Q2049.48 120.852 2051.77 119.115 Q2054.09 117.379 2054.09 114.069 Q2054.09 111.014 2051.93 109.301 Q2049.81 107.565 2045.99 107.565 L2041.96 107.565 L2041.96 103.722 L2046.17 103.722 Q2049.62 103.722 2051.45 102.356 Q2053.28 100.967 2053.28 98.3748 Q2053.28 95.7128 2051.38 94.3007 Q2049.5 92.8656 2045.99 92.8656 Q2044.06 92.8656 2041.87 93.2822 Q2039.67 93.6989 2037.03 94.5785 L2037.03 90.4119 Q2039.69 89.6711 2042 89.3008 Q2044.34 88.9304 2046.4 88.9304 Q2051.73 88.9304 2054.83 91.3609 Q2057.93 93.7683 2057.93 97.8887 Q2057.93 100.759 2056.29 102.75 Q2054.64 104.717 2051.61 105.481 Z" fill="#000000" fill-rule="evenodd" fill-opacity="1" /><path clip-path="url(#clip300)" d="M 0 0 M1958.36 588.579 L1995.31 588.579 L1995.31 580.813 Q1995.31 570.978 1990.86 566.427 Q1986.4 561.843 1976.79 561.843 Q1967.24 561.843 1962.81 566.427 Q1958.36 570.978 1958.36 580.813 L1958.36 588.579 M1953.08 595.009 L1953.08 581.8 Q1953.08 567.986 1958.84 561.525 Q1964.57 555.064 1976.79 555.064 Q1989.07 555.064 1994.83 561.557 Q2000.6 568.05 2000.6 581.8 L2000.6 595.009 L1953.08 595.009 Z" fill="#000000" fill-rule="evenodd" fill-opacity="1" /><path clip-path="url(#clip300)" d="M 0 0 M1981.31 518.429 L1984.17 518.429 L1984.17 545.356 Q1990.22 544.974 1993.4 541.728 Q1996.55 538.449 1996.55 532.625 Q1996.55 529.251 1995.73 526.1 Q1994.9 522.917 1993.24 519.798 L1998.78 519.798 Q2000.12 522.949 2000.82 526.259 Q2001.52 529.569 2001.52 532.975 Q2001.52 541.505 1996.55 546.502 Q1991.59 551.467 1983.12 551.467 Q1974.37 551.467 1969.24 546.757 Q1964.09 542.014 1964.09 533.993 Q1964.09 526.8 1968.74 522.631 Q1973.35 518.429 1981.31 518.429 M1979.59 524.286 Q1974.78 524.349 1971.92 526.991 Q1969.05 529.601 1969.05 533.93 Q1969.05 538.831 1971.82 541.791 Q1974.59 544.72 1979.62 545.165 L1979.59 524.286 Z" fill="#000000" fill-rule="evenodd" fill-opacity="1" /><path clip-path="url(#clip300)" d="M 0 0 M1979.08 482.654 L2000.6 482.654 L2000.6 488.511 L1979.27 488.511 Q1974.21 488.511 1971.7 490.484 Q1969.18 492.457 1969.18 496.404 Q1969.18 501.146 1972.2 503.884 Q1975.23 506.621 1980.45 506.621 L2000.6 506.621 L2000.6 512.509 L1964.95 512.509 L1964.95 506.621 L1970.49 506.621 Q1967.27 504.52 1965.68 501.688 Q1964.09 498.823 1964.09 495.099 Q1964.09 488.956 1967.91 485.805 Q1971.7 482.654 1979.08 482.654 Z" fill="#000000" fill-rule="evenodd" fill-opacity="1" /><path clip-path="url(#clip300)" d="M 0 0 M1966 453.786 L1971.54 453.786 Q1970.26 456.268 1969.63 458.942 Q1968.99 461.615 1968.99 464.48 Q1968.99 468.84 1970.33 471.037 Q1971.66 473.201 1974.34 473.201 Q1976.37 473.201 1977.55 471.641 Q1978.7 470.082 1979.75 465.371 L1980.19 463.366 Q1981.53 457.128 1983.98 454.518 Q1986.4 451.876 1990.76 451.876 Q1995.73 451.876 1998.62 455.823 Q2001.52 459.738 2001.52 466.612 Q2001.52 469.477 2000.95 472.596 Q2000.4 475.684 1999.29 479.121 L1993.24 479.121 Q1994.93 475.875 1995.79 472.724 Q1996.62 469.573 1996.62 466.485 Q1996.62 462.347 1995.22 460.119 Q1993.78 457.891 1991.21 457.891 Q1988.82 457.891 1987.55 459.515 Q1986.27 461.106 1985.09 466.549 L1984.62 468.586 Q1983.47 474.029 1981.12 476.448 Q1978.73 478.866 1974.59 478.866 Q1969.56 478.866 1966.83 475.302 Q1964.09 471.737 1964.09 465.18 Q1964.09 461.934 1964.57 459.069 Q1965.04 456.205 1966 453.786 Z" fill="#000000" fill-rule="evenodd" fill-opacity="1" /><path clip-path="url(#clip300)" d="M 0 0 M1964.95 445.733 L1964.95 439.877 L2000.6 439.877 L2000.6 445.733 L1964.95 445.733 M1951.07 445.733 L1951.07 439.877 L1958.49 439.877 L1958.49 445.733 L1951.07 445.733 Z" fill="#000000" fill-rule="evenodd" fill-opacity="1" /><path clip-path="url(#clip300)" d="M 0 0 M1954.83 427.941 L1964.95 427.941 L1964.95 415.878 L1969.5 415.878 L1969.5 427.941 L1988.85 427.941 Q1993.21 427.941 1994.45 426.763 Q1995.69 425.554 1995.69 421.893 L1995.69 415.878 L2000.6 415.878 L2000.6 421.893 Q2000.6 428.673 1998.08 431.251 Q1995.53 433.829 1988.85 433.829 L1969.5 433.829 L1969.5 438.126 L1964.95 438.126 L1964.95 433.829 L1954.83 433.829 L1954.83 427.941 Z" fill="#000000" fill-rule="evenodd" fill-opacity="1" /><path clip-path="url(#clip300)" d="M 0 0 M2003.91 394.903 Q2010.27 397.385 2012.21 399.741 Q2014.15 402.096 2014.15 406.043 L2014.15 410.722 L2009.25 410.722 L2009.25 407.284 Q2009.25 404.865 2008.11 403.528 Q2006.96 402.192 2002.7 400.568 L2000.02 399.518 L1964.95 413.936 L1964.95 407.73 L1992.83 396.59 L1964.95 385.45 L1964.95 379.243 L2003.91 394.903 Z" fill="#000000" fill-rule="evenodd" fill-opacity="1" /><path clip-path="url(#clip300)" d="M 0 0 M3048.63 43.8146 L3022.83 43.8146 Q3023.43 55.9268 3026.23 61.0714 Q3029.71 67.3908 3035.75 67.3908 Q3041.82 67.3908 3045.19 61.0309 Q3048.14 55.4407 3048.63 43.8146 M3048.51 36.928 Q3047.37 25.4235 3045.19 21.3726 Q3041.7 14.9721 3035.75 14.9721 Q3029.55 14.9721 3026.27 21.2916 Q3023.68 26.3957 3022.91 36.928 L3048.51 36.928 M3035.75 8.89579 Q3045.47 8.89579 3051.02 17.4837 Q3056.57 26.0311 3056.57 41.1815 Q3056.57 56.2914 3051.02 64.8793 Q3045.47 73.5077 3035.75 73.5077 Q3025.99 73.5077 3020.48 64.8793 Q3014.93 56.2914 3014.93 41.1815 Q3014.93 26.0311 3020.48 17.4837 Q3025.99 8.89579 3035.75 8.89579 Z" fill="#000000" fill-rule="evenodd" fill-opacity="1" /><polyline clip-path="url(#clip303)" style="stroke:#009af9; stroke-width:4; stroke-opacity:1; fill:none" points="
  2170.65,887.252 2179.34,887.252 2188.04,887.25 2196.73,887.247 2205.42,887.242 2214.12,887.232 2222.81,887.218 2231.51,887.195 2240.2,887.161 2248.9,887.111 
  2257.59,887.041 2266.29,886.944 2274.98,886.815 2283.67,886.649 2292.37,886.442 2301.06,886.192 2309.76,885.902 2318.45,885.576 2327.15,885.221 2335.84,884.85 
  2344.54,884.475 2353.23,884.107 2361.93,883.757 2370.62,883.43 2379.31,883.125 2388.01,882.837 2396.7,882.551 2405.4,882.251 2414.09,881.914 2422.79,881.521 
  2431.48,881.05 2440.18,880.482 2448.87,879.8 2457.56,878.984 2466.26,878.01 2474.95,876.85 2483.65,875.466 2492.34,873.812 2501.04,871.838 2509.73,869.489 
  2518.43,866.722 2527.12,863.502 2535.81,859.819 2544.51,855.685 2553.2,851.144 2561.9,846.263 2570.59,841.132 2579.29,835.853 2587.98,830.528 2596.68,825.251 
  2605.37,820.093 2614.07,815.099 2622.76,810.276 2631.45,805.597 2640.15,801.002 2648.84,796.403 2657.54,791.695 2666.23,786.766 2674.93,781.51 2683.62,775.836 
  2692.32,769.677 2701.01,762.994 2709.7,755.77 2718.4,748.012 2727.09,739.739 2735.79,730.977 2744.48,721.744 2753.18,712.056 2761.87,701.92 2770.57,691.345 
  2779.26,680.345 2787.96,668.959 2796.65,657.251 2805.34,645.326 2814.04,633.324 2822.73,621.416 2831.43,609.797 2840.12,598.658 2848.82,588.177 2857.51,578.493 
  2866.21,569.691 2874.9,561.792 2883.59,554.746 2892.29,548.439 2900.98,542.7 2909.68,537.316 2918.37,532.049 2927.07,526.659 2935.76,520.91 2944.46,514.596 
  2953.15,507.542 2961.84,499.609 2970.54,490.704 2979.23,480.769 2987.93,469.787 2996.62,457.777 3005.32,444.794 3014.01,430.923 3022.71,416.277 3031.4,400.982 
  3040.1,385.173 3048.79,368.971 3057.48,352.466 3066.18,335.709 3074.87,318.697 3083.57,301.382 3092.26,283.69 3100.96,265.541 3109.65,246.896 3118.35,227.784 
  3127.04,208.344 3135.73,188.835 3144.43,169.641 3153.12,151.248 3161.82,134.21 3170.51,119.098 3179.21,106.445 3187.9,96.6926 3196.6,90.157 3205.29,86.9997 
  3213.99,87.2242 3222.68,90.6884 3231.37,97.1314 3240.07,106.21 3248.76,117.535 3257.46,130.708 3266.15,145.349 3274.85,161.109 3283.54,177.679 3292.24,194.788 
  3300.93,212.195 3309.62,229.686 3318.32,247.069 3327.01,264.18 3335.71,280.888 3344.4,297.113 3353.1,312.826 3361.79,328.064 3370.49,342.918 3379.18,357.522 
  3387.87,372.031 3396.57,386.59 3405.26,401.312 3413.96,416.248 3422.65,431.38 3431.35,446.616 3440.04,461.809 3448.74,476.775 3457.43,491.325 3466.13,505.298 
  3474.82,518.59 3483.51,531.174 3492.21,543.11 3500.9,554.541 3509.6,565.68 3518.29,576.788 3526.99,588.14 3535.68,599.996 3544.38,612.565 3553.07,625.986 
  3561.76,640.304 3570.46,655.471 3579.15,671.351 3587.85,687.732 3596.54,704.359 3605.24,720.956 3613.93,737.255 3622.63,753.017 3631.32,768.051 3640.02,782.214 
  3648.71,795.416 3657.4,807.609 3666.1,818.777 3674.79,828.925 3683.49,838.074 3692.18,846.25 3700.88,853.484 3709.57,859.812 3718.27,865.275 3726.96,869.921 
  3735.65,873.81 3744.35,877.007 3753.04,879.585 3761.74,881.623 3770.43,883.2 3779.13,884.395 3787.82,885.279 3796.52,885.919 3805.21,886.371 3813.9,886.683 
  3822.6,886.893 3831.29,887.031 3839.99,887.12 3848.68,887.175 3857.38,887.209 3866.07,887.229 3874.77,887.24 3883.46,887.247 3892.16,887.25 3900.85,887.252 
  
  "/>
</svg>
