<?xml version="1.0" encoding="utf-8"?>
<svg xmlns="http://www.w3.org/2000/svg" xmlns:xlink="http://www.w3.org/1999/xlink" width="1000" height="250" viewBox="0 0 4000 1000">
<defs>
  <clipPath id="clip590">
    <rect x="0" y="0" width="4000" height="1000"/>
  </clipPath>
</defs>
<path clip-path="url(#clip590)" d="
M0 1000 L4000 1000 L4000 0 L0 0  Z
  " fill="#ffffff" fill-rule="evenodd" fill-opacity="1"/>
<defs>
  <clipPath id="clip591">
    <rect x="800" y="0" width="2801" height="1000"/>
  </clipPath>
</defs>
<path clip-path="url(#clip590)" d="
M118.74 911.26 L1952.76 911.26 L1952.76 62.9921 L118.74 62.9921  Z
  " fill="#ffffff" fill-rule="evenodd" fill-opacity="1"/>
<defs>
  <clipPath id="clip592">
    <rect x="118" y="62" width="1835" height="849"/>
  </clipPath>
</defs>
<polyline clip-path="url(#clip592)" style="stroke:#000000; stroke-width:2; stroke-opacity:0.1; fill:none" points="
  168.914,911.26 168.914,62.9921 
  "/>
<polyline clip-path="url(#clip592)" style="stroke:#000000; stroke-width:2; stroke-opacity:0.1; fill:none" points="
  601.898,911.26 601.898,62.9921 
  "/>
<polyline clip-path="url(#clip592)" style="stroke:#000000; stroke-width:2; stroke-opacity:0.1; fill:none" points="
  1034.88,911.26 1034.88,62.9921 
  "/>
<polyline clip-path="url(#clip592)" style="stroke:#000000; stroke-width:2; stroke-opacity:0.1; fill:none" points="
  1467.87,911.26 1467.87,62.9921 
  "/>
<polyline clip-path="url(#clip592)" style="stroke:#000000; stroke-width:2; stroke-opacity:0.1; fill:none" points="
  1900.85,911.26 1900.85,62.9921 
  "/>
<polyline clip-path="url(#clip590)" style="stroke:#000000; stroke-width:4; stroke-opacity:1; fill:none" points="
  118.74,911.26 1952.76,911.26 
  "/>
<polyline clip-path="url(#clip590)" style="stroke:#000000; stroke-width:4; stroke-opacity:1; fill:none" points="
  168.914,911.26 168.914,901.081 
  "/>
<polyline clip-path="url(#clip590)" style="stroke:#000000; stroke-width:4; stroke-opacity:1; fill:none" points="
  601.898,911.26 601.898,901.081 
  "/>
<polyline clip-path="url(#clip590)" style="stroke:#000000; stroke-width:4; stroke-opacity:1; fill:none" points="
  1034.88,911.26 1034.88,901.081 
  "/>
<polyline clip-path="url(#clip590)" style="stroke:#000000; stroke-width:4; stroke-opacity:1; fill:none" points="
  1467.87,911.26 1467.87,901.081 
  "/>
<polyline clip-path="url(#clip590)" style="stroke:#000000; stroke-width:4; stroke-opacity:1; fill:none" points="
  1900.85,911.26 1900.85,901.081 
  "/>
<path clip-path="url(#clip590)" d="M 0 0 M168.914 953.251 Q165.303 953.251 163.475 956.815 Q161.669 960.357 161.669 967.487 Q161.669 974.593 163.475 978.158 Q165.303 981.699 168.914 981.699 Q172.549 981.699 174.354 978.158 Q176.183 974.593 176.183 967.487 Q176.183 960.357 174.354 956.815 Q172.549 953.251 168.914 953.251 M168.914 949.547 Q174.724 949.547 177.78 954.153 Q180.859 958.737 180.859 967.487 Q180.859 976.213 177.78 980.82 Q174.724 985.403 168.914 985.403 Q163.104 985.403 160.025 980.82 Q156.97 976.213 156.97 967.487 Q156.97 958.737 160.025 954.153 Q163.104 949.547 168.914 949.547 Z" fill="#000000" fill-rule="evenodd" fill-opacity="1" /><path clip-path="url(#clip590)" d="M 0 0 M570.035 980.797 L586.354 980.797 L586.354 984.732 L564.41 984.732 L564.41 980.797 Q567.072 978.042 571.655 973.412 Q576.262 968.76 577.442 967.417 Q579.688 964.894 580.567 963.158 Q581.47 961.399 581.47 959.709 Q581.47 956.954 579.526 955.218 Q577.604 953.482 574.503 953.482 Q572.303 953.482 569.85 954.246 Q567.419 955.01 564.641 956.561 L564.641 951.839 Q567.466 950.704 569.919 950.126 Q572.373 949.547 574.41 949.547 Q579.78 949.547 582.975 952.232 Q586.169 954.917 586.169 959.408 Q586.169 961.538 585.359 963.459 Q584.572 965.357 582.465 967.95 Q581.887 968.621 578.785 971.838 Q575.683 975.033 570.035 980.797 Z" fill="#000000" fill-rule="evenodd" fill-opacity="1" /><path clip-path="url(#clip590)" d="M 0 0 M591.47 950.172 L609.826 950.172 L609.826 954.107 L595.752 954.107 L595.752 962.579 Q596.771 962.232 597.789 962.07 Q598.808 961.885 599.826 961.885 Q605.613 961.885 608.993 965.056 Q612.373 968.227 612.373 973.644 Q612.373 979.223 608.9 982.324 Q605.428 985.403 599.109 985.403 Q596.933 985.403 594.664 985.033 Q592.419 984.662 590.012 983.922 L590.012 979.223 Q592.095 980.357 594.317 980.912 Q596.539 981.468 599.016 981.468 Q603.021 981.468 605.359 979.362 Q607.697 977.255 607.697 973.644 Q607.697 970.033 605.359 967.926 Q603.021 965.82 599.016 965.82 Q597.141 965.82 595.266 966.237 Q593.414 966.653 591.47 967.533 L591.47 950.172 Z" fill="#000000" fill-rule="evenodd" fill-opacity="1" /><path clip-path="url(#clip590)" d="M 0 0 M627.442 953.251 Q623.831 953.251 622.002 956.815 Q620.197 960.357 620.197 967.487 Q620.197 974.593 622.002 978.158 Q623.831 981.699 627.442 981.699 Q631.076 981.699 632.882 978.158 Q634.711 974.593 634.711 967.487 Q634.711 960.357 632.882 956.815 Q631.076 953.251 627.442 953.251 M627.442 949.547 Q633.252 949.547 636.308 954.153 Q639.386 958.737 639.386 967.487 Q639.386 976.213 636.308 980.82 Q633.252 985.403 627.442 985.403 Q621.632 985.403 618.553 980.82 Q615.498 976.213 615.498 967.487 Q615.498 958.737 618.553 954.153 Q621.632 949.547 627.442 949.547 Z" fill="#000000" fill-rule="evenodd" fill-opacity="1" /><path clip-path="url(#clip590)" d="M 0 0 M998.146 950.172 L1016.5 950.172 L1016.5 954.107 L1002.43 954.107 L1002.43 962.579 Q1003.45 962.232 1004.47 962.07 Q1005.48 961.885 1006.5 961.885 Q1012.29 961.885 1015.67 965.056 Q1019.05 968.227 1019.05 973.644 Q1019.05 979.223 1015.58 982.324 Q1012.1 985.403 1005.78 985.403 Q1003.61 985.403 1001.34 985.033 Q999.095 984.662 996.688 983.922 L996.688 979.223 Q998.771 980.357 1000.99 980.912 Q1003.22 981.468 1005.69 981.468 Q1009.7 981.468 1012.03 979.362 Q1014.37 977.255 1014.37 973.644 Q1014.37 970.033 1012.03 967.926 Q1009.7 965.82 1005.69 965.82 Q1003.82 965.82 1001.94 966.237 Q1000.09 966.653 998.146 967.533 L998.146 950.172 Z" fill="#000000" fill-rule="evenodd" fill-opacity="1" /><path clip-path="url(#clip590)" d="M 0 0 M1034.12 953.251 Q1030.51 953.251 1028.68 956.815 Q1026.87 960.357 1026.87 967.487 Q1026.87 974.593 1028.68 978.158 Q1030.51 981.699 1034.12 981.699 Q1037.75 981.699 1039.56 978.158 Q1041.39 974.593 1041.39 967.487 Q1041.39 960.357 1039.56 956.815 Q1037.75 953.251 1034.12 953.251 M1034.12 949.547 Q1039.93 949.547 1042.98 954.153 Q1046.06 958.737 1046.06 967.487 Q1046.06 976.213 1042.98 980.82 Q1039.93 985.403 1034.12 985.403 Q1028.31 985.403 1025.23 980.82 Q1022.17 976.213 1022.17 967.487 Q1022.17 958.737 1025.23 954.153 Q1028.31 949.547 1034.12 949.547 Z" fill="#000000" fill-rule="evenodd" fill-opacity="1" /><path clip-path="url(#clip590)" d="M 0 0 M1061.13 953.251 Q1057.52 953.251 1055.69 956.815 Q1053.89 960.357 1053.89 967.487 Q1053.89 974.593 1055.69 978.158 Q1057.52 981.699 1061.13 981.699 Q1064.77 981.699 1066.57 978.158 Q1068.4 974.593 1068.4 967.487 Q1068.4 960.357 1066.57 956.815 Q1064.77 953.251 1061.13 953.251 M1061.13 949.547 Q1066.94 949.547 1070 954.153 Q1073.08 958.737 1073.08 967.487 Q1073.08 976.213 1070 980.82 Q1066.94 985.403 1061.13 985.403 Q1055.32 985.403 1052.24 980.82 Q1049.19 976.213 1049.19 967.487 Q1049.19 958.737 1052.24 954.153 Q1055.32 949.547 1061.13 949.547 Z" fill="#000000" fill-rule="evenodd" fill-opacity="1" /><path clip-path="url(#clip590)" d="M 0 0 M1430.24 950.172 L1452.46 950.172 L1452.46 952.163 L1439.91 984.732 L1435.03 984.732 L1446.84 954.107 L1430.24 954.107 L1430.24 950.172 Z" fill="#000000" fill-rule="evenodd" fill-opacity="1" /><path clip-path="url(#clip590)" d="M 0 0 M1457.58 950.172 L1475.93 950.172 L1475.93 954.107 L1461.86 954.107 L1461.86 962.579 Q1462.88 962.232 1463.9 962.07 Q1464.91 961.885 1465.93 961.885 Q1471.72 961.885 1475.1 965.056 Q1478.48 968.227 1478.48 973.644 Q1478.48 979.223 1475.01 982.324 Q1471.53 985.403 1465.22 985.403 Q1463.04 985.403 1460.77 985.033 Q1458.53 984.662 1456.12 983.922 L1456.12 979.223 Q1458.2 980.357 1460.42 980.912 Q1462.65 981.468 1465.12 981.468 Q1469.13 981.468 1471.47 979.362 Q1473.8 977.255 1473.8 973.644 Q1473.8 970.033 1471.47 967.926 Q1469.13 965.82 1465.12 965.82 Q1463.25 965.82 1461.37 966.237 Q1459.52 966.653 1457.58 967.533 L1457.58 950.172 Z" fill="#000000" fill-rule="evenodd" fill-opacity="1" /><path clip-path="url(#clip590)" d="M 0 0 M1493.55 953.251 Q1489.94 953.251 1488.11 956.815 Q1486.3 960.357 1486.3 967.487 Q1486.3 974.593 1488.11 978.158 Q1489.94 981.699 1493.55 981.699 Q1497.18 981.699 1498.99 978.158 Q1500.82 974.593 1500.82 967.487 Q1500.82 960.357 1498.99 956.815 Q1497.18 953.251 1493.55 953.251 M1493.55 949.547 Q1499.36 949.547 1502.41 954.153 Q1505.49 958.737 1505.49 967.487 Q1505.49 976.213 1502.41 980.82 Q1499.36 985.403 1493.55 985.403 Q1487.74 985.403 1484.66 980.82 Q1481.6 976.213 1481.6 967.487 Q1481.6 958.737 1484.66 954.153 Q1487.74 949.547 1493.55 949.547 Z" fill="#000000" fill-rule="evenodd" fill-opacity="1" /><path clip-path="url(#clip590)" d="M 0 0 M1850.71 980.797 L1858.35 980.797 L1858.35 954.431 L1850.04 956.098 L1850.04 951.839 L1858.3 950.172 L1862.98 950.172 L1862.98 980.797 L1870.62 980.797 L1870.62 984.732 L1850.71 984.732 L1850.71 980.797 Z" fill="#000000" fill-rule="evenodd" fill-opacity="1" /><path clip-path="url(#clip590)" d="M 0 0 M1885.69 953.251 Q1882.08 953.251 1880.25 956.815 Q1878.44 960.357 1878.44 967.487 Q1878.44 974.593 1880.25 978.158 Q1882.08 981.699 1885.69 981.699 Q1889.32 981.699 1891.13 978.158 Q1892.96 974.593 1892.96 967.487 Q1892.96 960.357 1891.13 956.815 Q1889.32 953.251 1885.69 953.251 M1885.69 949.547 Q1891.5 949.547 1894.55 954.153 Q1897.63 958.737 1897.63 967.487 Q1897.63 976.213 1894.55 980.82 Q1891.5 985.403 1885.69 985.403 Q1879.88 985.403 1876.8 980.82 Q1873.74 976.213 1873.74 967.487 Q1873.74 958.737 1876.8 954.153 Q1879.88 949.547 1885.69 949.547 Z" fill="#000000" fill-rule="evenodd" fill-opacity="1" /><path clip-path="url(#clip590)" d="M 0 0 M1912.7 953.251 Q1909.09 953.251 1907.26 956.815 Q1905.46 960.357 1905.46 967.487 Q1905.46 974.593 1907.26 978.158 Q1909.09 981.699 1912.7 981.699 Q1916.34 981.699 1918.14 978.158 Q1919.97 974.593 1919.97 967.487 Q1919.97 960.357 1918.14 956.815 Q1916.34 953.251 1912.7 953.251 M1912.7 949.547 Q1918.51 949.547 1921.57 954.153 Q1924.65 958.737 1924.65 967.487 Q1924.65 976.213 1921.57 980.82 Q1918.51 985.403 1912.7 985.403 Q1906.89 985.403 1903.81 980.82 Q1900.76 976.213 1900.76 967.487 Q1900.76 958.737 1903.81 954.153 Q1906.89 949.547 1912.7 949.547 Z" fill="#000000" fill-rule="evenodd" fill-opacity="1" /><path clip-path="url(#clip590)" d="M 0 0 M1939.72 953.251 Q1936.1 953.251 1934.28 956.815 Q1932.47 960.357 1932.47 967.487 Q1932.47 974.593 1934.28 978.158 Q1936.1 981.699 1939.72 981.699 Q1943.35 981.699 1945.16 978.158 Q1946.98 974.593 1946.98 967.487 Q1946.98 960.357 1945.16 956.815 Q1943.35 953.251 1939.72 953.251 M1939.72 949.547 Q1945.53 949.547 1948.58 954.153 Q1951.66 958.737 1951.66 967.487 Q1951.66 976.213 1948.58 980.82 Q1945.53 985.403 1939.72 985.403 Q1933.91 985.403 1930.83 980.82 Q1927.77 976.213 1927.77 967.487 Q1927.77 958.737 1930.83 954.153 Q1933.91 949.547 1939.72 949.547 Z" fill="#000000" fill-rule="evenodd" fill-opacity="1" /><path clip-path="url(#clip590)" d="M 0 0 M917.76 1012.6 L924.189 1012.6 L924.189 1060.12 L917.76 1060.12 L917.76 1012.6 Z" fill="#000000" fill-rule="evenodd" fill-opacity="1" /><path clip-path="url(#clip590)" d="M 0 0 M936.125 1014.35 L936.125 1024.48 L948.188 1024.48 L948.188 1029.03 L936.125 1029.03 L936.125 1048.38 Q936.125 1052.74 937.302 1053.98 Q938.512 1055.22 942.172 1055.22 L948.188 1055.22 L948.188 1060.12 L942.172 1060.12 Q935.393 1060.12 932.815 1057.61 Q930.236 1055.06 930.236 1048.38 L930.236 1029.03 L925.94 1029.03 L925.94 1024.48 L930.236 1024.48 L930.236 1014.35 L936.125 1014.35 Z" fill="#000000" fill-rule="evenodd" fill-opacity="1" /><path clip-path="url(#clip590)" d="M 0 0 M984.822 1040.84 L984.822 1043.7 L957.895 1043.7 Q958.277 1049.75 961.524 1052.93 Q964.802 1056.08 970.627 1056.08 Q974.001 1056.08 977.152 1055.25 Q980.335 1054.43 983.454 1052.77 L983.454 1058.31 Q980.303 1059.65 976.993 1060.35 Q973.682 1061.05 970.277 1061.05 Q961.747 1061.05 956.75 1056.08 Q951.784 1051.12 951.784 1042.65 Q951.784 1033.9 956.495 1028.77 Q961.237 1023.62 969.258 1023.62 Q976.451 1023.62 980.621 1028.26 Q984.822 1032.88 984.822 1040.84 M978.966 1039.12 Q978.902 1034.31 976.261 1031.45 Q973.651 1028.58 969.322 1028.58 Q964.42 1028.58 961.46 1031.35 Q958.532 1034.12 958.086 1039.15 L978.966 1039.12 Z" fill="#000000" fill-rule="evenodd" fill-opacity="1" /><path clip-path="url(#clip590)" d="M 0 0 M1011.62 1029.95 Q1010.64 1029.38 1009.46 1029.12 Q1008.31 1028.84 1006.91 1028.84 Q1001.95 1028.84 999.273 1032.08 Q996.631 1035.3 996.631 1041.35 L996.631 1060.12 L990.742 1060.12 L990.742 1024.48 L996.631 1024.48 L996.631 1030.01 Q998.477 1026.77 1001.44 1025.21 Q1004.4 1023.62 1008.63 1023.62 Q1009.23 1023.62 1009.97 1023.71 Q1010.7 1023.78 1011.59 1023.93 L1011.62 1029.95 Z" fill="#000000" fill-rule="evenodd" fill-opacity="1" /><path clip-path="url(#clip590)" d="M 0 0 M1033.97 1042.2 Q1026.87 1042.2 1024.13 1043.83 Q1021.39 1045.45 1021.39 1049.37 Q1021.39 1052.48 1023.43 1054.33 Q1025.5 1056.15 1029.03 1056.15 Q1033.9 1056.15 1036.83 1052.71 Q1039.79 1049.24 1039.79 1043.51 L1039.79 1042.2 L1033.97 1042.2 M1045.65 1039.79 L1045.65 1060.12 L1039.79 1060.12 L1039.79 1054.71 Q1037.79 1057.96 1034.79 1059.52 Q1031.8 1061.05 1027.47 1061.05 Q1022 1061.05 1018.75 1057.99 Q1015.54 1054.9 1015.54 1049.75 Q1015.54 1043.73 1019.55 1040.68 Q1023.59 1037.62 1031.58 1037.62 L1039.79 1037.62 L1039.79 1037.05 Q1039.79 1033.01 1037.12 1030.81 Q1034.47 1028.58 1029.67 1028.58 Q1026.61 1028.58 1023.72 1029.31 Q1020.82 1030.05 1018.15 1031.51 L1018.15 1026.1 Q1021.36 1024.86 1024.39 1024.25 Q1027.41 1023.62 1030.27 1023.62 Q1038.01 1023.62 1041.83 1027.63 Q1045.65 1031.64 1045.65 1039.79 Z" fill="#000000" fill-rule="evenodd" fill-opacity="1" /><path clip-path="url(#clip590)" d="M 0 0 M1057.58 1014.35 L1057.58 1024.48 L1069.65 1024.48 L1069.65 1029.03 L1057.58 1029.03 L1057.58 1048.38 Q1057.58 1052.74 1058.76 1053.98 Q1059.97 1055.22 1063.63 1055.22 L1069.65 1055.22 L1069.65 1060.12 L1063.63 1060.12 Q1056.85 1060.12 1054.27 1057.61 Q1051.69 1055.06 1051.69 1048.38 L1051.69 1029.03 L1047.4 1029.03 L1047.4 1024.48 L1051.69 1024.48 L1051.69 1014.35 L1057.58 1014.35 Z" fill="#000000" fill-rule="evenodd" fill-opacity="1" /><path clip-path="url(#clip590)" d="M 0 0 M1075.79 1024.48 L1081.64 1024.48 L1081.64 1060.12 L1075.79 1060.12 L1075.79 1024.48 M1075.79 1010.6 L1081.64 1010.6 L1081.64 1018.01 L1075.79 1018.01 L1075.79 1010.6 Z" fill="#000000" fill-rule="evenodd" fill-opacity="1" /><path clip-path="url(#clip590)" d="M 0 0 M1101.6 1028.58 Q1096.89 1028.58 1094.15 1032.27 Q1091.42 1035.93 1091.42 1042.33 Q1091.42 1048.73 1094.12 1052.42 Q1096.86 1056.08 1101.6 1056.08 Q1106.28 1056.08 1109.02 1052.39 Q1111.75 1048.7 1111.75 1042.33 Q1111.75 1036 1109.02 1032.31 Q1106.28 1028.58 1101.6 1028.58 M1101.6 1023.62 Q1109.24 1023.62 1113.6 1028.58 Q1117.96 1033.55 1117.96 1042.33 Q1117.96 1051.08 1113.6 1056.08 Q1109.24 1061.05 1101.6 1061.05 Q1093.93 1061.05 1089.57 1056.08 Q1085.24 1051.08 1085.24 1042.33 Q1085.24 1033.55 1089.57 1028.58 Q1093.93 1023.62 1101.6 1023.62 Z" fill="#000000" fill-rule="evenodd" fill-opacity="1" /><path clip-path="url(#clip590)" d="M 0 0 M1153.74 1038.61 L1153.74 1060.12 L1147.88 1060.12 L1147.88 1038.8 Q1147.88 1033.74 1145.91 1031.22 Q1143.93 1028.71 1139.99 1028.71 Q1135.24 1028.71 1132.51 1031.73 Q1129.77 1034.76 1129.77 1039.98 L1129.77 1060.12 L1123.88 1060.12 L1123.88 1024.48 L1129.77 1024.48 L1129.77 1030.01 Q1131.87 1026.8 1134.7 1025.21 Q1137.57 1023.62 1141.29 1023.62 Q1147.43 1023.62 1150.59 1027.44 Q1153.74 1031.22 1153.74 1038.61 Z" fill="#000000" fill-rule="evenodd" fill-opacity="1" /><polyline clip-path="url(#clip592)" style="stroke:#000000; stroke-width:2; stroke-opacity:0.1; fill:none" points="
  118.74,834.067 1952.76,834.067 
  "/>
<polyline clip-path="url(#clip592)" style="stroke:#000000; stroke-width:2; stroke-opacity:0.1; fill:none" points="
  118.74,629.078 1952.76,629.078 
  "/>
<polyline clip-path="url(#clip592)" style="stroke:#000000; stroke-width:2; stroke-opacity:0.1; fill:none" points="
  118.74,424.09 1952.76,424.09 
  "/>
<polyline clip-path="url(#clip592)" style="stroke:#000000; stroke-width:2; stroke-opacity:0.1; fill:none" points="
  118.74,219.101 1952.76,219.101 
  "/>
<polyline clip-path="url(#clip590)" style="stroke:#000000; stroke-width:4; stroke-opacity:1; fill:none" points="
  118.74,911.26 118.74,62.9921 
  "/>
<polyline clip-path="url(#clip590)" style="stroke:#000000; stroke-width:4; stroke-opacity:1; fill:none" points="
  118.74,834.067 140.748,834.067 
  "/>
<polyline clip-path="url(#clip590)" style="stroke:#000000; stroke-width:4; stroke-opacity:1; fill:none" points="
  118.74,629.078 140.748,629.078 
  "/>
<polyline clip-path="url(#clip590)" style="stroke:#000000; stroke-width:4; stroke-opacity:1; fill:none" points="
  118.74,424.09 140.748,424.09 
  "/>
<polyline clip-path="url(#clip590)" style="stroke:#000000; stroke-width:4; stroke-opacity:1; fill:none" points="
  118.74,219.101 140.748,219.101 
  "/>
<path clip-path="url(#clip590)" d="M 0 0 M11.4256 819.866 Q7.8145 819.866 5.98581 823.431 Q4.18026 826.972 4.18026 834.102 Q4.18026 841.208 5.98581 844.773 Q7.8145 848.315 11.4256 848.315 Q15.0598 848.315 16.8654 844.773 Q18.6941 841.208 18.6941 834.102 Q18.6941 826.972 16.8654 823.431 Q15.0598 819.866 11.4256 819.866 M11.4256 816.162 Q17.2358 816.162 20.2913 820.769 Q23.37 825.352 23.37 834.102 Q23.37 842.829 20.2913 847.435 Q17.2358 852.018 11.4256 852.018 Q5.61544 852.018 2.53675 847.435 Q-0.518784 842.829 -0.518784 834.102 Q-0.518784 825.352 2.53675 820.769 Q5.61544 816.162 11.4256 816.162 Z" fill="#000000" fill-rule="evenodd" fill-opacity="1" /><path clip-path="url(#clip590)" d="M 0 0 M28.4394 845.467 L33.3236 845.467 L33.3236 851.347 L28.4394 851.347 L28.4394 845.467 Z" fill="#000000" fill-rule="evenodd" fill-opacity="1" /><path clip-path="url(#clip590)" d="M 0 0 M42.4208 847.412 L58.7402 847.412 L58.7402 851.347 L36.7958 851.347 L36.7958 847.412 Q39.4579 844.657 44.0412 840.028 Q48.6476 835.375 49.8282 834.032 Q52.0735 831.509 52.9532 829.773 Q53.8559 828.014 53.8559 826.324 Q53.8559 823.569 51.9115 821.833 Q49.9902 820.097 46.8884 820.097 Q44.6893 820.097 42.2356 820.861 Q39.8051 821.625 37.0273 823.176 L37.0273 818.454 Q39.8514 817.319 42.3051 816.741 Q44.7588 816.162 46.7958 816.162 Q52.1661 816.162 55.3605 818.847 Q58.555 821.532 58.555 826.023 Q58.555 828.153 57.7448 830.074 Q56.9578 831.972 54.8513 834.565 Q54.2726 835.236 51.1708 838.454 Q48.0689 841.648 42.4208 847.412 Z" fill="#000000" fill-rule="evenodd" fill-opacity="1" /><path clip-path="url(#clip590)" d="M 0 0 M9.34227 614.877 Q5.73118 614.877 3.90249 618.442 Q2.09694 621.984 2.09694 629.113 Q2.09694 636.22 3.90249 639.784 Q5.73118 643.326 9.34227 643.326 Q12.9765 643.326 14.7821 639.784 Q16.6108 636.22 16.6108 629.113 Q16.6108 621.984 14.7821 618.442 Q12.9765 614.877 9.34227 614.877 M9.34227 611.173 Q15.1524 611.173 18.208 615.78 Q21.2867 620.363 21.2867 629.113 Q21.2867 637.84 18.208 642.446 Q15.1524 647.03 9.34227 647.03 Q3.53212 647.03 0.453433 642.446 Q-2.60211 637.84 -2.60211 629.113 Q-2.60211 620.363 0.453433 615.78 Q3.53212 611.173 9.34227 611.173 Z" fill="#000000" fill-rule="evenodd" fill-opacity="1" /><path clip-path="url(#clip590)" d="M 0 0 M26.3561 640.479 L31.2403 640.479 L31.2403 646.358 L26.3561 646.358 L26.3561 640.479 Z" fill="#000000" fill-rule="evenodd" fill-opacity="1" /><path clip-path="url(#clip590)" d="M 0 0 M49.1569 615.872 L37.3514 634.321 L49.1569 634.321 L49.1569 615.872 M47.93 611.798 L53.8096 611.798 L53.8096 634.321 L58.7402 634.321 L58.7402 638.21 L53.8096 638.21 L53.8096 646.358 L49.1569 646.358 L49.1569 638.21 L33.5551 638.21 L33.5551 633.696 L47.93 611.798 Z" fill="#000000" fill-rule="evenodd" fill-opacity="1" /><path clip-path="url(#clip590)" d="M 0 0 M9.66635 409.888 Q6.05525 409.888 4.22656 413.453 Q2.42101 416.995 2.42101 424.124 Q2.42101 431.231 4.22656 434.796 Q6.05525 438.337 9.66635 438.337 Q13.3006 438.337 15.1061 434.796 Q16.9348 431.231 16.9348 424.124 Q16.9348 416.995 15.1061 413.453 Q13.3006 409.888 9.66635 409.888 M9.66635 406.185 Q15.4765 406.185 18.532 410.791 Q21.6107 415.374 21.6107 424.124 Q21.6107 432.851 18.532 437.458 Q15.4765 442.041 9.66635 442.041 Q3.85619 442.041 0.777505 437.458 Q-2.27803 432.851 -2.27803 424.124 Q-2.27803 415.374 0.777505 410.791 Q3.85619 406.185 9.66635 406.185 Z" fill="#000000" fill-rule="evenodd" fill-opacity="1" /><path clip-path="url(#clip590)" d="M 0 0 M26.6801 435.49 L31.5644 435.49 L31.5644 441.37 L26.6801 441.37 L26.6801 435.49 Z" fill="#000000" fill-rule="evenodd" fill-opacity="1" /><path clip-path="url(#clip590)" d="M 0 0 M47.2124 422.226 Q44.0643 422.226 42.2125 424.379 Q40.3838 426.532 40.3838 430.282 Q40.3838 434.009 42.2125 436.185 Q44.0643 438.337 47.2124 438.337 Q50.3606 438.337 52.1893 436.185 Q54.0411 434.009 54.0411 430.282 Q54.0411 426.532 52.1893 424.379 Q50.3606 422.226 47.2124 422.226 M56.4948 407.574 L56.4948 411.833 Q54.7355 410.999 52.93 410.56 Q51.1476 410.12 49.3884 410.12 Q44.7588 410.12 42.3051 413.245 Q39.8745 416.37 39.5273 422.689 Q40.893 420.675 42.9532 419.611 Q45.0134 418.523 47.4902 418.523 Q52.6985 418.523 55.7078 421.694 Q58.7402 424.842 58.7402 430.282 Q58.7402 435.606 55.592 438.823 Q52.4439 442.041 47.2124 442.041 Q41.2171 442.041 38.0458 437.458 Q34.8745 432.851 34.8745 424.124 Q34.8745 415.93 38.7634 411.069 Q42.6523 406.185 49.2032 406.185 Q50.9624 406.185 52.7448 406.532 Q54.5504 406.879 56.4948 407.574 Z" fill="#000000" fill-rule="evenodd" fill-opacity="1" /><path clip-path="url(#clip590)" d="M 0 0 M9.92097 204.9 Q6.30988 204.9 4.48119 208.464 Q2.67564 212.006 2.67564 219.136 Q2.67564 226.242 4.48119 229.807 Q6.30988 233.349 9.92097 233.349 Q13.5552 233.349 15.3608 229.807 Q17.1895 226.242 17.1895 219.136 Q17.1895 212.006 15.3608 208.464 Q13.5552 204.9 9.92097 204.9 M9.92097 201.196 Q15.7311 201.196 18.7867 205.802 Q21.8654 210.386 21.8654 219.136 Q21.8654 227.863 18.7867 232.469 Q15.7311 237.052 9.92097 237.052 Q4.11082 237.052 1.03213 232.469 Q-2.02341 227.863 -2.02341 219.136 Q-2.02341 210.386 1.03213 205.802 Q4.11082 201.196 9.92097 201.196 Z" fill="#000000" fill-rule="evenodd" fill-opacity="1" /><path clip-path="url(#clip590)" d="M 0 0 M26.9348 230.501 L31.819 230.501 L31.819 236.381 L26.9348 236.381 L26.9348 230.501 Z" fill="#000000" fill-rule="evenodd" fill-opacity="1" /><path clip-path="url(#clip590)" d="M 0 0 M46.8884 219.969 Q43.5551 219.969 41.6338 221.751 Q39.7356 223.534 39.7356 226.659 Q39.7356 229.784 41.6338 231.566 Q43.5551 233.349 46.8884 233.349 Q50.2217 233.349 52.143 231.566 Q54.0643 229.761 54.0643 226.659 Q54.0643 223.534 52.143 221.751 Q50.2448 219.969 46.8884 219.969 M42.2125 217.978 Q39.2032 217.238 37.5134 215.177 Q35.8468 213.117 35.8468 210.154 Q35.8468 206.011 38.7866 203.603 Q41.7495 201.196 46.8884 201.196 Q52.0504 201.196 54.9902 203.603 Q57.93 206.011 57.93 210.154 Q57.93 213.117 56.2402 215.177 Q54.5735 217.238 51.5874 217.978 Q54.967 218.765 56.842 221.057 Q58.7402 223.349 58.7402 226.659 Q58.7402 231.682 55.6615 234.367 Q52.6059 237.052 46.8884 237.052 Q41.1708 237.052 38.0921 234.367 Q35.0366 231.682 35.0366 226.659 Q35.0366 223.349 36.9347 221.057 Q38.8329 218.765 42.2125 217.978 M40.4995 210.594 Q40.4995 213.279 42.1662 214.784 Q43.856 216.289 46.8884 216.289 Q49.8976 216.289 51.5874 214.784 Q53.3004 213.279 53.3004 210.594 Q53.3004 207.909 51.5874 206.404 Q49.8976 204.9 46.8884 204.9 Q43.856 204.9 42.1662 206.404 Q40.4995 207.909 40.4995 210.594 Z" fill="#000000" fill-rule="evenodd" fill-opacity="1" /><path clip-path="url(#clip590)" d="M 0 0 M-82.8185 650.184 L-76.5483 650.184 Q-78.2989 653.844 -79.1582 657.09 Q-80.0176 660.337 -80.0176 663.361 Q-80.0176 668.612 -77.9806 671.477 Q-75.9435 674.31 -72.1878 674.31 Q-69.0368 674.31 -67.4135 672.432 Q-65.8221 670.522 -64.8354 665.238 L-64.0397 661.355 Q-62.671 654.162 -59.2017 650.756 Q-55.7643 647.319 -49.9715 647.319 Q-43.0647 647.319 -39.4999 651.966 Q-35.9351 656.581 -35.9351 665.525 Q-35.9351 668.899 -36.699 672.718 Q-37.4628 676.506 -38.9588 680.58 L-45.5791 680.58 Q-43.383 676.665 -42.269 672.909 Q-41.155 669.153 -41.155 665.525 Q-41.155 660.019 -43.3193 657.027 Q-45.4836 654.035 -49.494 654.035 Q-52.9952 654.035 -54.9685 656.199 Q-56.9419 658.332 -57.9286 663.233 L-58.6925 667.148 Q-60.1248 674.341 -63.1803 677.556 Q-66.2358 680.771 -71.6785 680.771 Q-77.9806 680.771 -81.609 676.347 Q-85.2375 671.891 -85.2375 664.093 Q-85.2375 660.751 -84.6327 657.281 Q-84.028 653.812 -82.8185 650.184 Z" fill="#000000" fill-rule="evenodd" fill-opacity="1" /><path clip-path="url(#clip590)" d="M 0 0 M-54.7776 624.975 Q-54.7776 632.073 -53.1543 634.81 Q-51.5311 637.548 -47.6162 637.548 Q-44.497 637.548 -42.6509 635.511 Q-40.8367 633.442 -40.8367 629.909 Q-40.8367 625.039 -44.2742 622.111 Q-47.7435 619.151 -53.4726 619.151 L-54.7776 619.151 L-54.7776 624.975 M-57.1965 613.294 L-36.8581 613.294 L-36.8581 619.151 L-42.269 619.151 Q-39.0224 621.156 -37.4628 624.148 Q-35.9351 627.14 -35.9351 631.468 Q-35.9351 636.943 -38.9906 640.189 Q-42.078 643.404 -47.2342 643.404 Q-53.2498 643.404 -56.3053 639.394 Q-59.3609 635.351 -59.3609 627.363 L-59.3609 619.151 L-59.9338 619.151 Q-63.976 619.151 -66.1722 621.824 Q-68.4002 624.466 -68.4002 629.272 Q-68.4002 632.328 -67.6681 635.224 Q-66.9361 638.121 -65.472 640.794 L-70.8828 640.794 Q-72.1241 637.579 -72.7289 634.556 Q-73.3654 631.532 -73.3654 628.667 Q-73.3654 620.933 -69.355 617.114 Q-65.3446 613.294 -57.1965 613.294 Z" fill="#000000" fill-rule="evenodd" fill-opacity="1" /><path clip-path="url(#clip590)" d="M 0 0 M-65.6629 579.397 Q-69.6097 577.201 -71.4876 574.145 Q-73.3654 571.09 -73.3654 566.952 Q-73.3654 561.382 -69.4505 558.358 Q-65.5674 555.335 -58.3742 555.335 L-36.8581 555.335 L-36.8581 561.223 L-58.1832 561.223 Q-63.3076 561.223 -65.7902 563.037 Q-68.2729 564.851 -68.2729 568.575 Q-68.2729 573.127 -65.2492 575.768 Q-62.2254 578.41 -57.0056 578.41 L-36.8581 578.41 L-36.8581 584.298 L-58.1832 584.298 Q-63.3394 584.298 -65.7902 586.113 Q-68.2729 587.927 -68.2729 591.715 Q-68.2729 596.202 -65.2173 598.844 Q-62.1936 601.486 -57.0056 601.486 L-36.8581 601.486 L-36.8581 607.374 L-72.5061 607.374 L-72.5061 601.486 L-66.9679 601.486 Q-70.2462 599.481 -71.8058 596.68 Q-73.3654 593.879 -73.3654 590.028 Q-73.3654 586.145 -71.3921 583.439 Q-69.4187 580.702 -65.6629 579.397 Z" fill="#000000" fill-rule="evenodd" fill-opacity="1" /><path clip-path="url(#clip590)" d="M 0 0 M-42.2053 543.526 L-23.2992 543.526 L-23.2992 549.414 L-72.5061 549.414 L-72.5061 543.526 L-67.0952 543.526 Q-70.2781 541.68 -71.8058 538.879 Q-73.3654 536.046 -73.3654 532.132 Q-73.3654 525.639 -68.2092 521.596 Q-63.053 517.522 -54.6503 517.522 Q-46.2475 517.522 -41.0913 521.596 Q-35.9351 525.639 -35.9351 532.132 Q-35.9351 536.046 -37.4628 538.879 Q-39.0224 541.68 -42.2053 543.526 M-54.6503 523.601 Q-61.1114 523.601 -64.7717 526.275 Q-68.4638 528.917 -68.4638 533.564 Q-68.4638 538.211 -64.7717 540.884 Q-61.1114 543.526 -54.6503 543.526 Q-48.1891 543.526 -44.497 540.884 Q-40.8367 538.211 -40.8367 533.564 Q-40.8367 528.917 -44.497 526.275 Q-48.1891 523.601 -54.6503 523.601 Z" fill="#000000" fill-rule="evenodd" fill-opacity="1" /><path clip-path="url(#clip590)" d="M 0 0 M-86.3833 511.379 L-86.3833 505.523 L-36.8581 505.523 L-36.8581 511.379 L-86.3833 511.379 Z" fill="#000000" fill-rule="evenodd" fill-opacity="1" /><path clip-path="url(#clip590)" d="M 0 0 M-56.1462 468.888 L-53.2816 468.888 L-53.2816 495.815 Q-47.2342 495.433 -44.0514 492.187 Q-40.9003 488.908 -40.9003 483.084 Q-40.9003 479.71 -41.7279 476.559 Q-42.5554 473.376 -44.2105 470.257 L-38.6723 470.257 Q-37.3355 473.408 -36.6353 476.718 Q-35.9351 480.028 -35.9351 483.434 Q-35.9351 491.964 -40.9003 496.961 Q-45.8656 501.926 -54.332 501.926 Q-63.0848 501.926 -68.2092 497.216 Q-73.3654 492.473 -73.3654 484.452 Q-73.3654 477.259 -68.7185 473.09 Q-64.1033 468.888 -56.1462 468.888 M-57.8649 474.745 Q-62.671 474.808 -65.5356 477.45 Q-68.4002 480.06 -68.4002 484.389 Q-68.4002 489.29 -65.6311 492.25 Q-62.862 495.179 -57.8331 495.624 L-57.8649 474.745 Z" fill="#000000" fill-rule="evenodd" fill-opacity="1" /><path clip-path="url(#clip590)" d="M 0 0 M-72.5061 446.226 L-72.5061 440.02 L-42.5872 428.88 L-72.5061 417.74 L-72.5061 411.533 L-36.8581 424.901 L-36.8581 432.858 L-72.5061 446.226 Z" fill="#000000" fill-rule="evenodd" fill-opacity="1" /><path clip-path="url(#clip590)" d="M 0 0 M-54.7776 389.19 Q-54.7776 396.287 -53.1543 399.025 Q-51.5311 401.762 -47.6162 401.762 Q-44.497 401.762 -42.6509 399.725 Q-40.8367 397.656 -40.8367 394.123 Q-40.8367 389.253 -44.2742 386.325 Q-47.7435 383.365 -53.4726 383.365 L-54.7776 383.365 L-54.7776 389.19 M-57.1965 377.509 L-36.8581 377.509 L-36.8581 383.365 L-42.269 383.365 Q-39.0224 385.37 -37.4628 388.362 Q-35.9351 391.354 -35.9351 395.683 Q-35.9351 401.157 -38.9906 404.404 Q-42.078 407.618 -47.2342 407.618 Q-53.2498 407.618 -56.3053 403.608 Q-59.3609 399.566 -59.3609 391.577 L-59.3609 383.365 L-59.9338 383.365 Q-63.976 383.365 -66.1722 386.039 Q-68.4002 388.68 -68.4002 393.486 Q-68.4002 396.542 -67.6681 399.438 Q-66.9361 402.335 -65.472 405.008 L-70.8828 405.008 Q-72.1241 401.794 -72.7289 398.77 Q-73.3654 395.746 -73.3654 392.882 Q-73.3654 385.147 -69.355 381.328 Q-65.3446 377.509 -57.1965 377.509 Z" fill="#000000" fill-rule="evenodd" fill-opacity="1" /><path clip-path="url(#clip590)" d="M 0 0 M-86.3833 371.366 L-86.3833 365.509 L-36.8581 365.509 L-36.8581 371.366 L-86.3833 371.366 Z" fill="#000000" fill-rule="evenodd" fill-opacity="1" /><path clip-path="url(#clip590)" d="M 0 0 M-50.9263 359.971 L-72.5061 359.971 L-72.5061 354.115 L-51.1491 354.115 Q-46.0884 354.115 -43.5421 352.141 Q-41.0276 350.168 -41.0276 346.221 Q-41.0276 341.479 -44.0514 338.741 Q-47.0751 335.972 -52.2949 335.972 L-72.5061 335.972 L-72.5061 330.116 L-36.8581 330.116 L-36.8581 335.972 L-42.3326 335.972 Q-39.0861 338.105 -37.4947 340.938 Q-35.9351 343.738 -35.9351 347.462 Q-35.9351 353.605 -39.7545 356.788 Q-43.5739 359.971 -50.9263 359.971 M-73.3654 345.234 L-73.3654 345.234 Z" fill="#000000" fill-rule="evenodd" fill-opacity="1" /><path clip-path="url(#clip590)" d="M 0 0 M-56.1462 293.481 L-53.2816 293.481 L-53.2816 320.408 Q-47.2342 320.026 -44.0514 316.78 Q-40.9003 313.501 -40.9003 307.677 Q-40.9003 304.303 -41.7279 301.152 Q-42.5554 297.969 -44.2105 294.85 L-38.6723 294.85 Q-37.3355 298.001 -36.6353 301.311 Q-35.9351 304.621 -35.9351 308.027 Q-35.9351 316.557 -40.9003 321.554 Q-45.8656 326.519 -54.332 326.519 Q-63.0848 326.519 -68.2092 321.809 Q-73.3654 317.066 -73.3654 309.045 Q-73.3654 301.852 -68.7185 297.683 Q-64.1033 293.481 -56.1462 293.481 M-57.8649 299.338 Q-62.671 299.401 -65.5356 302.043 Q-68.4002 304.653 -68.4002 308.982 Q-68.4002 313.883 -65.6311 316.843 Q-62.862 319.772 -57.8331 320.217 L-57.8649 299.338 Z" fill="#000000" fill-rule="evenodd" fill-opacity="1" /><path clip-path="url(#clip590)" d="M 0 0 M1048.63 43.8146 L1022.83 43.8146 Q1023.43 55.9268 1026.23 61.0714 Q1029.71 67.3908 1035.75 67.3908 Q1041.82 67.3908 1045.19 61.0309 Q1048.14 55.4407 1048.63 43.8146 M1048.51 36.928 Q1047.37 25.4235 1045.19 21.3726 Q1041.7 14.9721 1035.75 14.9721 Q1029.55 14.9721 1026.27 21.2916 Q1023.68 26.3957 1022.91 36.928 L1048.51 36.928 M1035.75 8.89579 Q1045.47 8.89579 1051.02 17.4837 Q1056.57 26.0311 1056.57 41.1815 Q1056.57 56.2914 1051.02 64.8793 Q1045.47 73.5077 1035.75 73.5077 Q1025.99 73.5077 1020.48 64.8793 Q1014.93 56.2914 1014.93 41.1815 Q1014.93 26.0311 1020.48 17.4837 Q1025.99 8.89579 1035.75 8.89579 Z" fill="#000000" fill-rule="evenodd" fill-opacity="1" /><polyline clip-path="url(#clip592)" style="stroke:#009af9; stroke-width:4; stroke-opacity:1; fill:none" points="
  170.646,381.856 172.378,570.491 174.11,570.491 175.842,583.717 177.574,519.316 179.306,519.316 181.038,553.249 182.77,492.519 184.502,513.868 186.234,513.868 
  187.966,613.768 189.698,613.768 191.429,283.551 193.161,510.887 194.893,510.887 196.625,510.887 198.357,488.167 200.089,367.631 201.821,349.21 203.553,513.997 
  205.285,543.032 207.017,173.839 208.749,274.34 210.481,415.65 212.213,345.618 213.945,575.078 215.677,367.012 217.409,367.012 219.14,366.066 220.872,282.683 
  222.604,421.117 224.336,98.8325 226.068,282.979 227.8,436.476 229.532,553.167 231.264,553.167 232.996,204.515 234.728,194.432 236.46,283.503 238.192,566.698 
  239.924,599.108 241.656,599.108 243.388,337.001 245.119,557.338 246.851,495.869 248.583,495.869 250.315,163.911 252.047,167.654 253.779,244.623 255.511,512.403 
  257.243,512.403 258.975,572.048 260.707,572.048 262.439,215.804 264.171,650.867 265.903,650.482 267.635,496.14 269.367,664.405 271.099,183.697 272.83,412.515 
  274.562,292.858 276.294,618.514 278.026,618.514 279.758,497.859 281.49,781.016 283.222,545.412 284.954,294.058 286.686,668.193 288.418,347.576 290.15,347.576 
  291.882,347.576 293.614,347.576 295.346,475.642 297.078,540.345 298.809,540.345 300.541,540.345 302.273,446.614 304.005,277.501 305.737,445.306 307.469,470.633 
  309.201,616.44 310.933,103.159 312.665,149.677 314.397,210.843 316.129,365.979 317.861,365.979 319.593,365.979 321.325,399.524 323.057,399.524 324.789,362.793 
  326.52,279.291 328.252,422.733 329.984,426.569 331.716,183.165 333.448,419.129 335.18,412.654 336.912,412.654 338.644,331.822 340.376,176.388 342.108,127.26 
  343.84,308.096 345.572,308.096 347.304,428.263 349.036,375.865 350.768,693.759 352.499,210.965 354.231,234.832 355.963,418.049 357.695,663.477 359.427,651.451 
  361.159,213.981 362.891,219.047 364.623,468.291 366.355,444.291 368.087,649.167 369.819,451.811 371.551,147.663 373.283,333.246 375.015,588.731 376.747,231.052 
  378.479,149.859 380.21,656.641 381.942,480.072 383.674,417.478 385.406,417.478 387.138,398.548 388.87,199.4 390.602,186.291 392.334,182.121 394.066,385.044 
  395.798,385.044 397.53,463.653 399.262,449.853 400.994,449.853 402.726,196.673 404.458,423.136 406.189,226.724 407.921,372.807 409.653,248.475 411.385,317.219 
  413.117,335.639 414.849,392.405 416.581,402.065 418.313,402.065 420.045,274.361 421.777,262.448 423.509,180.219 425.241,198.061 426.973,473.945 428.705,649.66 
  430.437,512.399 432.169,447.981 433.9,447.981 435.632,447.981 437.364,465.241 439.096,456.218 440.828,167.044 442.56,321.794 444.292,321.794 446.024,347.037 
  447.756,347.037 449.488,347.037 451.22,516.825 452.952,439.049 454.684,291.326 456.416,260.959 458.148,110.8 459.879,218.037 461.611,457.494 463.343,510.3 
  465.075,710.79 466.807,447.532 468.539,278.714 470.271,565.951 472.003,565.951 473.735,334.376 475.467,420.265 477.199,371.675 478.931,454.956 480.663,513.289 
  482.395,513.289 484.127,527.021 485.859,390.992 487.59,390.992 489.322,390.992 491.054,562.631 492.786,706.989 494.518,325.218 496.25,293.388 497.982,274.8 
  499.714,314.154 501.446,403.037 503.178,413.087 504.91,535.86 506.642,614.295 508.374,630.786 510.106,138.155 511.838,294.034 513.569,696.482 515.301,581.984 
  517.033,573.63 518.765,474.811 520.497,437.147 522.229,189.747 523.961,111.592 525.693,504.055 527.425,504.055 529.157,431.337 530.889,261.369 532.621,261.369 
  534.353,261.369 536.085,346.793 537.817,221.445 539.549,532.455 541.28,448.804 543.012,510.677 544.744,549.804 546.476,179.337 548.208,291.339 549.94,511.92 
  551.672,414.192 553.404,155.148 555.136,117.312 556.868,228.484 558.6,363.435 560.332,363.435 562.064,413.747 563.796,652.44 565.528,398.589 567.259,398.589 
  568.991,114.902 570.723,129.945 572.455,260.039 574.187,258.62 575.919,281.229 577.651,546.953 579.383,460.389 581.115,460.389 582.847,518.813 584.579,493.888 
  586.311,493.888 588.043,254.802 589.775,238.169 591.507,191.106 593.239,174.747 594.97,233.537 596.702,622.55 598.434,232.903 600.166,413.612 601.898,535.988 
  603.63,544.584 605.362,328.544 607.094,328.544 608.826,331.013 610.558,331.013 612.29,331.013 614.022,371.132 615.754,261.847 617.486,432.703 619.218,432.703 
  620.949,432.703 622.681,324.514 624.413,324.514 626.145,261.328 627.877,306.005 629.609,393.666 631.341,752.595 633.073,538.994 634.805,295.851 636.537,295.851 
  638.269,540.358 640.001,596.581 641.733,596.581 643.465,248.987 645.197,248.987 646.929,707.108 648.66,476.76 650.392,309.452 652.124,370.593 653.856,278.668 
  655.588,258.471 657.32,272.065 659.052,244.933 660.784,191.14 662.516,278.997 664.248,374.349 665.98,206.393 667.712,384.514 669.444,384.514 671.176,334.668 
  672.908,478.31 674.639,154.821 676.371,201.229 678.103,252.916 679.835,537.788 681.567,409.637 683.299,409.637 685.031,409.637 686.763,409.637 688.495,386.004 
  690.227,880.663 691.959,331.73 693.691,331.73 695.423,312.224 697.155,323.299 698.887,309.713 700.619,418.105 702.35,418.105 704.082,602.063 705.814,602.063 
  707.546,376.205 709.278,376.205 711.01,376.205 712.742,376.205 714.474,509.555 716.206,313.024 717.938,532.949 719.67,600.246 721.402,253.002 723.134,274.219 
  724.866,178.648 726.598,318.039 728.329,318.039 730.061,318.039 731.793,589.272 733.525,589.272 735.257,323.908 736.989,563.477 738.721,157.241 740.453,614.47 
  742.185,408.014 743.917,211.761 745.649,584.842 747.381,644.113 749.113,644.113 750.845,464.483 752.577,463.351 754.309,316.963 756.04,580.601 757.772,452.626 
  759.504,452.626 761.236,548.087 762.968,205.143 764.7,199.45 766.432,556.541 768.164,199.043 769.896,678.069 771.628,522.882 773.36,301.508 775.092,361.234 
  776.824,361.234 778.556,361.234 780.288,250.697 782.019,250.697 783.751,519.205 785.483,519.205 787.215,630.134 788.947,265.467 790.679,265.467 792.411,340.288 
  794.143,157.321 795.875,265.398 797.607,314.182 799.339,301.905 801.071,301.905 802.803,397.273 804.535,397.273 806.267,500.002 807.999,241.461 809.73,276.968 
  811.462,404.891 813.194,404.891 814.926,305.627 816.658,372.786 818.39,479.722 820.122,479.722 821.854,479.722 823.586,325.974 825.318,325.974 827.05,372.213 
  828.782,431.003 830.514,431.003 832.246,515.441 833.978,487.153 835.709,412.18 837.441,515.312 839.173,609.603 840.905,246.396 842.637,342.065 844.369,207.584 
  846.101,547.957 847.833,462.733 849.565,258.674 851.297,419.76 853.029,380.41 854.761,380.41 856.493,500.654 858.225,244.383 859.957,250.918 861.689,264.26 
  863.42,502.727 865.152,502.727 866.884,631.977 868.616,329.877 870.348,301.168 872.08,301.168 873.812,387.523 875.544,374.756 877.276,374.756 879.008,779.545 
  880.74,506.853 882.472,530.216 884.204,402.517 885.936,382.472 887.668,382.472 889.399,276.671 891.131,287.604 892.863,582.739 894.595,255.246 896.327,384.545 
  898.059,384.545 899.791,417.139 901.523,592.782 903.255,592.782 904.987,241.419 906.719,443.099 908.451,632.858 910.183,632.858 911.915,632.858 913.647,631.971 
  915.379,563.428 917.11,343.247 918.842,343.247 920.574,262.677 922.306,587.429 924.038,202.56 925.77,425.928 927.502,425.928 929.234,459.71 930.966,501.841 
  932.698,201.015 934.43,643.072 936.162,411.974 937.894,297.23 939.626,297.23 941.358,447.81 943.089,136.235 944.821,317.447 946.553,686.773 948.285,427.816 
  950.017,427.816 951.749,427.816 953.481,429.445 955.213,382.472 956.945,209.875 958.677,216.117 960.409,215.645 962.141,350.926 963.873,542.19 965.605,578.512 
  967.337,171.873 969.069,567.385 970.8,567.385 972.532,390.707 974.264,257.827 975.996,280.374 977.728,458.862 979.46,458.862 981.192,634.14 982.924,578.846 
  984.656,403.799 986.388,407.991 988.12,407.991 989.852,407.991 991.584,407.991 993.316,312.218 995.048,312.218 996.779,425.918 998.511,325.4 1000.24,338.976 
  1001.98,314.583 1003.71,314.583 1005.44,479.027 1007.17,409.552 1008.9,602.792 1010.63,411.584 1012.37,242.475 1014.1,603.044 1015.83,444.774 1017.56,440.035 
  1019.29,383.977 1021.03,183.064 1022.76,183.064 1024.49,524.909 1026.22,502.022 1027.95,163.844 1029.69,389.557 1031.42,350.682 1033.15,547.879 1034.88,276.488 
  1036.61,129.582 1038.35,129.582 1040.08,242.142 1041.81,246.823 1043.54,488.959 1045.27,462.632 1047.01,462.632 1048.74,380.538 1050.47,380.538 1052.2,271.566 
  1053.93,237.623 1055.67,86.9997 1057.4,250.73 1059.13,603.674 1060.86,603.674 1062.59,237.327 1064.32,345.558 1066.06,346.757 1067.79,346.757 1069.52,280.601 
  1071.25,351.959 1072.98,351.959 1074.72,231.409 1076.45,303.058 1078.18,287.514 1079.91,276.674 1081.64,390.169 1083.38,390.169 1085.11,422.382 1086.84,365.342 
  1088.57,365.342 1090.3,365.342 1092.04,365.342 1093.77,365.342 1095.5,173.822 1097.23,401.636 1098.96,337.743 1100.7,337.743 1102.43,257.528 1104.16,257.528 
  1105.89,470.059 1107.62,470.059 1109.36,337.565 1111.09,337.565 1112.82,500.477 1114.55,485.546 1116.28,457.168 1118.01,457.168 1119.75,457.168 1121.48,423.709 
  1123.21,211.438 1124.94,216.411 1126.67,324.04 1128.41,324.04 1130.14,343.63 1131.87,343.63 1133.6,343.63 1135.33,166.635 1137.07,162.356 1138.8,107.441 
  1140.53,484.356 1142.26,364.098 1143.99,358.164 1145.73,358.164 1147.46,358.164 1149.19,179.164 1150.92,247.001 1152.65,584.355 1154.39,812.691 1156.12,400.145 
  1157.85,368.738 1159.58,368.738 1161.31,368.738 1163.05,368.738 1164.78,494.207 1166.51,494.207 1168.24,480.438 1169.97,480.438 1171.7,261.531 1173.44,321.154 
  1175.17,321.154 1176.9,321.154 1178.63,289.683 1180.36,399.623 1182.1,399.623 1183.83,399.623 1185.56,399.623 1187.29,395.352 1189.02,377.608 1190.76,324.829 
  1192.49,187.792 1194.22,692.738 1195.95,421.231 1197.68,373.074 1199.42,373.074 1201.15,373.074 1202.88,206.876 1204.61,461.855 1206.34,497.001 1208.08,509.177 
  1209.81,509.177 1211.54,887.252 1213.27,462.388 1215,462.388 1216.74,524.051 1218.47,498.485 1220.2,526.943 1221.93,568.82 1223.66,445.401 1225.39,407.228 
  1227.13,360.47 1228.86,360.47 1230.59,360.47 1232.32,355.453 1234.05,373.507 1235.79,201.51 1237.52,277.169 1239.25,90.1115 1240.98,325.033 1242.71,611.641 
  1244.45,504.629 1246.18,705.766 1247.91,694.33 1249.64,443.048 1251.37,426.842 1253.11,407.521 1254.84,407.521 1256.57,407.521 1258.3,425.857 1260.03,244.139 
  1261.77,103.117 1263.5,243.956 1265.23,258.241 1266.96,399.611 1268.69,399.611 1270.43,618.98 1272.16,799.852 1273.89,545.992 1275.62,356.172 1277.35,130.02 
  1279.08,157.215 1280.82,212.934 1282.55,199.175 1284.28,414.067 1286.01,254.238 1287.74,584.186 1289.48,412.786 1291.21,412.786 1292.94,603.401 1294.67,492.759 
  1296.4,492.759 1298.14,325.307 1299.87,660.324 1301.6,424.527 1303.33,424.527 1305.06,424.527 1306.8,420.766 1308.53,675.642 1310.26,319.262 1311.99,623.464 
  1313.72,445.449 1315.46,445.449 1317.19,445.449 1318.92,439.518 1320.65,291.86 1322.38,345.281 1324.12,485.073 1325.85,443.133 1327.58,443.133 1329.31,499.303 
  1331.04,509.259 1332.77,389.659 1334.51,389.659 1336.24,438.045 1337.97,190.365 1339.7,326.361 1341.43,341.63 1343.17,250.168 1344.9,473.368 1346.63,621.211 
  1348.36,640.52 1350.09,640.52 1351.83,245.471 1353.56,513.817 1355.29,513.817 1357.02,655.965 1358.75,596.935 1360.49,596.935 1362.22,303.527 1363.95,303.527 
  1365.68,433.617 1367.41,287.767 1369.15,170.96 1370.88,203.966 1372.61,446.856 1374.34,299.374 1376.07,256.911 1377.81,267.51 1379.54,563.969 1381.27,563.969 
  1383,477.751 1384.73,462.3 1386.46,462.3 1388.2,141.25 1389.93,141.25 1391.66,140.838 1393.39,469.431 1395.12,401.549 1396.86,477.721 1398.59,477.721 
  1400.32,567.25 1402.05,574.787 1403.78,212.307 1405.52,234.996 1407.25,529.014 1408.98,119.476 1410.71,193.553 1412.44,378.384 1414.18,556.422 1415.91,519.108 
  1417.64,120.581 1419.37,447.732 1421.1,388.018 1422.84,418.157 1424.57,216.919 1426.3,278.602 1428.03,219.192 1429.76,402.976 1431.5,248.954 1433.23,222.189 
  1434.96,204.618 1436.69,222 1438.42,433.2 1440.15,433.2 1441.89,562.435 1443.62,572.473 1445.35,393.719 1447.08,612.504 1448.81,712.676 1450.55,667.775 
  1452.28,334.951 1454.01,472.129 1455.74,184.588 1457.47,521.928 1459.21,688.962 1460.94,404.577 1462.67,467.489 1464.4,545.475 1466.13,431.375 1467.87,295.326 
  1469.6,220.248 1471.33,237.507 1473.06,218.192 1474.79,164.907 1476.53,198.227 1478.26,242.809 1479.99,273.282 1481.72,273.282 1483.45,286.634 1485.19,271.262 
  1486.92,109.642 1488.65,407.848 1490.38,420.537 1492.11,366.146 1493.84,711.014 1495.58,754.348 1497.31,434.82 1499.04,434.82 1500.77,434.82 1502.5,380.963 
  1504.24,271.881 1505.97,311.585 1507.7,311.585 1509.43,122.833 1511.16,226.003 1512.9,147.988 1514.63,281.095 1516.36,404.8 1518.09,444.453 1519.82,483.4 
  1521.56,470.5 1523.29,582.002 1525.02,582.002 1526.75,415.121 1528.48,129.47 1530.22,289.694 1531.95,356.572 1533.68,356.572 1535.41,280.313 1537.14,337.46 
  1538.88,337.46 1540.61,337.46 1542.34,266.04 1544.07,390.986 1545.8,258.619 1547.53,305.088 1549.27,731.377 1551,707.76 1552.73,286.799 1554.46,286.799 
  1556.19,256.832 1557.93,316.862 1559.66,404.936 1561.39,268.727 1563.12,332.641 1564.85,573.336 1566.59,573.336 1568.32,273.188 1570.05,325.101 1571.78,385.984 
  1573.51,385.984 1575.25,385.984 1576.98,385.984 1578.71,365.767 1580.44,476.205 1582.17,476.205 1583.91,476.205 1585.64,357.364 1587.37,389.027 1589.1,389.027 
  1590.83,438.971 1592.57,438.971 1594.3,587.72 1596.03,136.365 1597.76,139.361 1599.49,250.055 1601.22,314.809 1602.96,495.305 1604.69,547.467 1606.42,197.496 
  1608.15,275.575 1609.88,330.703 1611.62,630.793 1613.35,630.793 1615.08,432.062 1616.81,417.119 1618.54,600.15 1620.28,631.908 1622.01,412.01 1623.74,412.01 
  1625.47,333.479 1627.2,333.479 1628.94,201.932 1630.67,608.023 1632.4,619.755 1634.13,671.173 1635.86,330.007 1637.6,330.007 1639.33,303.267 1641.06,299.589 
  1642.79,305.048 1644.52,305.048 1646.26,308.995 1647.99,308.995 1649.72,308.995 1651.45,308.995 1653.18,308.995 1654.91,237.691 1656.65,338.423 1658.38,338.423 
  1660.11,224.589 1661.84,483.4 1663.57,441.455 1665.31,332.521 1667.04,242.664 1668.77,388.313 1670.5,424.899 1672.23,424.899 1673.97,365.591 1675.7,583.88 
  1677.43,254.152 1679.16,585.747 1680.89,284.144 1682.63,263.183 1684.36,267.653 1686.09,313.71 1687.82,317.185 1689.55,317.185 1691.29,688.509 1693.02,531.691 
  1694.75,473.52 1696.48,208.957 1698.21,612.473 1699.95,243.72 1701.68,261.791 1703.41,261.791 1705.14,565.029 1706.87,565.029 1708.6,382.077 1710.34,195.169 
  1712.07,211.993 1713.8,272.988 1715.53,102.191 1717.26,327.389 1719,327.389 1720.73,327.389 1722.46,182.99 1724.19,122.424 1725.92,499.017 1727.66,129.703 
  1729.39,279.322 1731.12,209.013 1732.85,247.754 1734.58,606.774 1736.32,606.774 1738.05,246.483 1739.78,280.201 1741.51,168.415 1743.24,168.415 1744.98,168.415 
  1746.71,458.74 1748.44,381.272 1750.17,381.272 1751.9,381.272 1753.64,473.279 1755.37,397.306 1757.1,729.052 1758.83,322.578 1760.56,322.578 1762.29,466.048 
  1764.03,199.847 1765.76,379.557 1767.49,379.728 1769.22,474.713 1770.95,402.608 1772.69,402.608 1774.42,453.082 1776.15,478.232 1777.88,397.627 1779.61,397.627 
  1781.35,397.627 1783.08,498.043 1784.81,528.194 1786.54,508.121 1788.27,556.843 1790.01,507.347 1791.74,507.347 1793.47,507.347 1795.2,507.347 1796.93,507.347 
  1798.67,515.834 1800.4,211.292 1802.13,261.372 1803.86,262.776 1805.59,438.376 1807.33,438.376 1809.06,438.376 1810.79,356.205 1812.52,315.127 1814.25,315.127 
  1815.98,373.761 1817.72,511.374 1819.45,429.511 1821.18,429.511 1822.91,337.626 1824.64,430.136 1826.38,177.483 1828.11,220.822 1829.84,509.947 1831.57,237.961 
  1833.3,330.952 1835.04,330.952 1836.77,717.36 1838.5,251.431 1840.23,400.275 1841.96,286.755 1843.7,302.835 1845.43,215.557 1847.16,215.557 1848.89,192.532 
  1850.62,137.363 1852.36,620.129 1854.09,620.129 1855.82,585.538 1857.55,301.017 1859.28,301.017 1861.02,189.133 1862.75,313.52 1864.48,392.442 1866.21,392.442 
  1867.94,392.442 1869.67,612.59 1871.41,597.383 1873.14,650.097 1874.87,287.885 1876.6,287.885 1878.33,287.885 1880.07,287.885 1881.8,412.972 1883.53,510 
  1885.26,510 1886.99,332.899 1888.73,409.509 1890.46,409.509 1892.19,409.509 1893.92,450.797 1895.65,451.193 1897.39,451.193 1899.12,291.473 1900.85,851.985 
  
  "/>
<path clip-path="url(#clip590)" d="
M2118.74 911.26 L3952.76 911.26 L3952.76 62.9921 L2118.74 62.9921  Z
  " fill="#ffffff" fill-rule="evenodd" fill-opacity="1"/>
<defs>
  <clipPath id="clip593">
    <rect x="2118" y="62" width="1835" height="849"/>
  </clipPath>
</defs>
<polyline clip-path="url(#clip593)" style="stroke:#000000; stroke-width:2; stroke-opacity:0.1; fill:none" points="
  2134.18,911.26 2134.18,62.9921 
  "/>
<polyline clip-path="url(#clip593)" style="stroke:#000000; stroke-width:2; stroke-opacity:0.1; fill:none" points="
  2552.74,911.26 2552.74,62.9921 
  "/>
<polyline clip-path="url(#clip593)" style="stroke:#000000; stroke-width:2; stroke-opacity:0.1; fill:none" points="
  2971.29,911.26 2971.29,62.9921 
  "/>
<polyline clip-path="url(#clip593)" style="stroke:#000000; stroke-width:2; stroke-opacity:0.1; fill:none" points="
  3389.85,911.26 3389.85,62.9921 
  "/>
<polyline clip-path="url(#clip593)" style="stroke:#000000; stroke-width:2; stroke-opacity:0.1; fill:none" points="
  3808.41,911.26 3808.41,62.9921 
  "/>
<polyline clip-path="url(#clip590)" style="stroke:#000000; stroke-width:4; stroke-opacity:1; fill:none" points="
  2118.74,911.26 3952.76,911.26 
  "/>
<polyline clip-path="url(#clip590)" style="stroke:#000000; stroke-width:4; stroke-opacity:1; fill:none" points="
  2134.18,911.26 2134.18,901.081 
  "/>
<polyline clip-path="url(#clip590)" style="stroke:#000000; stroke-width:4; stroke-opacity:1; fill:none" points="
  2552.74,911.26 2552.74,901.081 
  "/>
<polyline clip-path="url(#clip590)" style="stroke:#000000; stroke-width:4; stroke-opacity:1; fill:none" points="
  2971.29,911.26 2971.29,901.081 
  "/>
<polyline clip-path="url(#clip590)" style="stroke:#000000; stroke-width:4; stroke-opacity:1; fill:none" points="
  3389.85,911.26 3389.85,901.081 
  "/>
<polyline clip-path="url(#clip590)" style="stroke:#000000; stroke-width:4; stroke-opacity:1; fill:none" points="
  3808.41,911.26 3808.41,901.081 
  "/>
<path clip-path="url(#clip590)" d="M 0 0 M2102.19 953.251 Q2098.58 953.251 2096.75 956.815 Q2094.94 960.357 2094.94 967.487 Q2094.94 974.593 2096.75 978.158 Q2098.58 981.699 2102.19 981.699 Q2105.82 981.699 2107.63 978.158 Q2109.45 974.593 2109.45 967.487 Q2109.45 960.357 2107.63 956.815 Q2105.82 953.251 2102.19 953.251 M2102.19 949.547 Q2108 949.547 2111.05 954.153 Q2114.13 958.737 2114.13 967.487 Q2114.13 976.213 2111.05 980.82 Q2108 985.403 2102.19 985.403 Q2096.38 985.403 2093.3 980.82 Q2090.24 976.213 2090.24 967.487 Q2090.24 958.737 2093.3 954.153 Q2096.38 949.547 2102.19 949.547 Z" fill="#000000" fill-rule="evenodd" fill-opacity="1" /><path clip-path="url(#clip590)" d="M 0 0 M2119.2 978.852 L2124.08 978.852 L2124.08 984.732 L2119.2 984.732 L2119.2 978.852 Z" fill="#000000" fill-rule="evenodd" fill-opacity="1" /><path clip-path="url(#clip590)" d="M 0 0 M2139.15 953.251 Q2135.54 953.251 2133.71 956.815 Q2131.91 960.357 2131.91 967.487 Q2131.91 974.593 2133.71 978.158 Q2135.54 981.699 2139.15 981.699 Q2142.79 981.699 2144.59 978.158 Q2146.42 974.593 2146.42 967.487 Q2146.42 960.357 2144.59 956.815 Q2142.79 953.251 2139.15 953.251 M2139.15 949.547 Q2144.96 949.547 2148.02 954.153 Q2151.1 958.737 2151.1 967.487 Q2151.1 976.213 2148.02 980.82 Q2144.96 985.403 2139.15 985.403 Q2133.34 985.403 2130.26 980.82 Q2127.21 976.213 2127.21 967.487 Q2127.21 958.737 2130.26 954.153 Q2133.34 949.547 2139.15 949.547 Z" fill="#000000" fill-rule="evenodd" fill-opacity="1" /><path clip-path="url(#clip590)" d="M 0 0 M2166.17 953.251 Q2162.56 953.251 2160.73 956.815 Q2158.92 960.357 2158.92 967.487 Q2158.92 974.593 2160.73 978.158 Q2162.56 981.699 2166.17 981.699 Q2169.8 981.699 2171.61 978.158 Q2173.44 974.593 2173.44 967.487 Q2173.44 960.357 2171.61 956.815 Q2169.8 953.251 2166.17 953.251 M2166.17 949.547 Q2171.98 949.547 2175.03 954.153 Q2178.11 958.737 2178.11 967.487 Q2178.11 976.213 2175.03 980.82 Q2171.98 985.403 2166.17 985.403 Q2160.36 985.403 2157.28 980.82 Q2154.22 976.213 2154.22 967.487 Q2154.22 958.737 2157.28 954.153 Q2160.36 949.547 2166.17 949.547 Z" fill="#000000" fill-rule="evenodd" fill-opacity="1" /><path clip-path="url(#clip590)" d="M 0 0 M2522.04 953.251 Q2518.43 953.251 2516.6 956.815 Q2514.8 960.357 2514.8 967.487 Q2514.8 974.593 2516.6 978.158 Q2518.43 981.699 2522.04 981.699 Q2525.68 981.699 2527.48 978.158 Q2529.31 974.593 2529.31 967.487 Q2529.31 960.357 2527.48 956.815 Q2525.68 953.251 2522.04 953.251 M2522.04 949.547 Q2527.85 949.547 2530.91 954.153 Q2533.99 958.737 2533.99 967.487 Q2533.99 976.213 2530.91 980.82 Q2527.85 985.403 2522.04 985.403 Q2516.23 985.403 2513.15 980.82 Q2510.1 976.213 2510.1 967.487 Q2510.1 958.737 2513.15 954.153 Q2516.23 949.547 2522.04 949.547 Z" fill="#000000" fill-rule="evenodd" fill-opacity="1" /><path clip-path="url(#clip590)" d="M 0 0 M2539.05 978.852 L2543.94 978.852 L2543.94 984.732 L2539.05 984.732 L2539.05 978.852 Z" fill="#000000" fill-rule="evenodd" fill-opacity="1" /><path clip-path="url(#clip590)" d="M 0 0 M2553.04 980.797 L2569.36 980.797 L2569.36 984.732 L2547.41 984.732 L2547.41 980.797 Q2550.07 978.042 2554.66 973.412 Q2559.26 968.76 2560.44 967.417 Q2562.69 964.894 2563.57 963.158 Q2564.47 961.399 2564.47 959.709 Q2564.47 956.954 2562.53 955.218 Q2560.61 953.482 2557.5 953.482 Q2555.3 953.482 2552.85 954.246 Q2550.42 955.01 2547.64 956.561 L2547.64 951.839 Q2550.47 950.704 2552.92 950.126 Q2555.37 949.547 2557.41 949.547 Q2562.78 949.547 2565.98 952.232 Q2569.17 954.917 2569.17 959.408 Q2569.17 961.538 2568.36 963.459 Q2567.57 965.357 2565.47 967.95 Q2564.89 968.621 2561.79 971.838 Q2558.68 975.033 2553.04 980.797 Z" fill="#000000" fill-rule="evenodd" fill-opacity="1" /><path clip-path="url(#clip590)" d="M 0 0 M2574.47 950.172 L2592.83 950.172 L2592.83 954.107 L2578.75 954.107 L2578.75 962.579 Q2579.77 962.232 2580.79 962.07 Q2581.81 961.885 2582.83 961.885 Q2588.61 961.885 2591.99 965.056 Q2595.37 968.227 2595.37 973.644 Q2595.37 979.223 2591.9 982.324 Q2588.43 985.403 2582.11 985.403 Q2579.93 985.403 2577.67 985.033 Q2575.42 984.662 2573.01 983.922 L2573.01 979.223 Q2575.1 980.357 2577.32 980.912 Q2579.54 981.468 2582.02 981.468 Q2586.02 981.468 2588.36 979.362 Q2590.7 977.255 2590.7 973.644 Q2590.7 970.033 2588.36 967.926 Q2586.02 965.82 2582.02 965.82 Q2580.14 965.82 2578.27 966.237 Q2576.42 966.653 2574.47 967.533 L2574.47 950.172 Z" fill="#000000" fill-rule="evenodd" fill-opacity="1" /><path clip-path="url(#clip590)" d="M 0 0 M2939.8 953.251 Q2936.19 953.251 2934.36 956.815 Q2932.56 960.357 2932.56 967.487 Q2932.56 974.593 2934.36 978.158 Q2936.19 981.699 2939.8 981.699 Q2943.44 981.699 2945.24 978.158 Q2947.07 974.593 2947.07 967.487 Q2947.07 960.357 2945.24 956.815 Q2943.44 953.251 2939.8 953.251 M2939.8 949.547 Q2945.61 949.547 2948.67 954.153 Q2951.75 958.737 2951.75 967.487 Q2951.75 976.213 2948.67 980.82 Q2945.61 985.403 2939.8 985.403 Q2933.99 985.403 2930.91 980.82 Q2927.86 976.213 2927.86 967.487 Q2927.86 958.737 2930.91 954.153 Q2933.99 949.547 2939.8 949.547 Z" fill="#000000" fill-rule="evenodd" fill-opacity="1" /><path clip-path="url(#clip590)" d="M 0 0 M2956.81 978.852 L2961.7 978.852 L2961.7 984.732 L2956.81 984.732 L2956.81 978.852 Z" fill="#000000" fill-rule="evenodd" fill-opacity="1" /><path clip-path="url(#clip590)" d="M 0 0 M2966.81 950.172 L2985.17 950.172 L2985.17 954.107 L2971.1 954.107 L2971.1 962.579 Q2972.12 962.232 2973.13 962.07 Q2974.15 961.885 2975.17 961.885 Q2980.96 961.885 2984.34 965.056 Q2987.72 968.227 2987.72 973.644 Q2987.72 979.223 2984.25 982.324 Q2980.77 985.403 2974.45 985.403 Q2972.28 985.403 2970.01 985.033 Q2967.76 984.662 2965.36 983.922 L2965.36 979.223 Q2967.44 980.357 2969.66 980.912 Q2971.88 981.468 2974.36 981.468 Q2978.37 981.468 2980.7 979.362 Q2983.04 977.255 2983.04 973.644 Q2983.04 970.033 2980.7 967.926 Q2978.37 965.82 2974.36 965.82 Q2972.49 965.82 2970.61 966.237 Q2968.76 966.653 2966.81 967.533 L2966.81 950.172 Z" fill="#000000" fill-rule="evenodd" fill-opacity="1" /><path clip-path="url(#clip590)" d="M 0 0 M3002.79 953.251 Q2999.18 953.251 2997.35 956.815 Q2995.54 960.357 2995.54 967.487 Q2995.54 974.593 2997.35 978.158 Q2999.18 981.699 3002.79 981.699 Q3006.42 981.699 3008.23 978.158 Q3010.06 974.593 3010.06 967.487 Q3010.06 960.357 3008.23 956.815 Q3006.42 953.251 3002.79 953.251 M3002.79 949.547 Q3008.6 949.547 3011.65 954.153 Q3014.73 958.737 3014.73 967.487 Q3014.73 976.213 3011.65 980.82 Q3008.6 985.403 3002.79 985.403 Q2996.98 985.403 2993.9 980.82 Q2990.84 976.213 2990.84 967.487 Q2990.84 958.737 2993.9 954.153 Q2996.98 949.547 3002.79 949.547 Z" fill="#000000" fill-rule="evenodd" fill-opacity="1" /><path clip-path="url(#clip590)" d="M 0 0 M3358.81 953.251 Q3355.2 953.251 3353.37 956.815 Q3351.57 960.357 3351.57 967.487 Q3351.57 974.593 3353.37 978.158 Q3355.2 981.699 3358.81 981.699 Q3362.44 981.699 3364.25 978.158 Q3366.08 974.593 3366.08 967.487 Q3366.08 960.357 3364.25 956.815 Q3362.44 953.251 3358.81 953.251 M3358.81 949.547 Q3364.62 949.547 3367.68 954.153 Q3370.76 958.737 3370.76 967.487 Q3370.76 976.213 3367.68 980.82 Q3364.62 985.403 3358.81 985.403 Q3353 985.403 3349.92 980.82 Q3346.87 976.213 3346.87 967.487 Q3346.87 958.737 3349.92 954.153 Q3353 949.547 3358.81 949.547 Z" fill="#000000" fill-rule="evenodd" fill-opacity="1" /><path clip-path="url(#clip590)" d="M 0 0 M3375.82 978.852 L3380.71 978.852 L3380.71 984.732 L3375.82 984.732 L3375.82 978.852 Z" fill="#000000" fill-rule="evenodd" fill-opacity="1" /><path clip-path="url(#clip590)" d="M 0 0 M3384.6 950.172 L3406.82 950.172 L3406.82 952.163 L3394.27 984.732 L3389.39 984.732 L3401.19 954.107 L3384.6 954.107 L3384.6 950.172 Z" fill="#000000" fill-rule="evenodd" fill-opacity="1" /><path clip-path="url(#clip590)" d="M 0 0 M3411.94 950.172 L3430.29 950.172 L3430.29 954.107 L3416.22 954.107 L3416.22 962.579 Q3417.24 962.232 3418.25 962.07 Q3419.27 961.885 3420.29 961.885 Q3426.08 961.885 3429.46 965.056 Q3432.84 968.227 3432.84 973.644 Q3432.84 979.223 3429.37 982.324 Q3425.89 985.403 3419.57 985.403 Q3417.4 985.403 3415.13 985.033 Q3412.88 984.662 3410.48 983.922 L3410.48 979.223 Q3412.56 980.357 3414.78 980.912 Q3417 981.468 3419.48 981.468 Q3423.49 981.468 3425.82 979.362 Q3428.16 977.255 3428.16 973.644 Q3428.16 970.033 3425.82 967.926 Q3423.49 965.82 3419.48 965.82 Q3417.61 965.82 3415.73 966.237 Q3413.88 966.653 3411.94 967.533 L3411.94 950.172 Z" fill="#000000" fill-rule="evenodd" fill-opacity="1" /><path clip-path="url(#clip590)" d="M 0 0 M3766.8 980.797 L3774.44 980.797 L3774.44 954.431 L3766.13 956.098 L3766.13 951.839 L3774.39 950.172 L3779.07 950.172 L3779.07 980.797 L3786.71 980.797 L3786.71 984.732 L3766.8 984.732 L3766.8 980.797 Z" fill="#000000" fill-rule="evenodd" fill-opacity="1" /><path clip-path="url(#clip590)" d="M 0 0 M3791.78 978.852 L3796.66 978.852 L3796.66 984.732 L3791.78 984.732 L3791.78 978.852 Z" fill="#000000" fill-rule="evenodd" fill-opacity="1" /><path clip-path="url(#clip590)" d="M 0 0 M3811.73 953.251 Q3808.12 953.251 3806.29 956.815 Q3804.49 960.357 3804.49 967.487 Q3804.49 974.593 3806.29 978.158 Q3808.12 981.699 3811.73 981.699 Q3815.37 981.699 3817.17 978.158 Q3819 974.593 3819 967.487 Q3819 960.357 3817.17 956.815 Q3815.37 953.251 3811.73 953.251 M3811.73 949.547 Q3817.54 949.547 3820.6 954.153 Q3823.68 958.737 3823.68 967.487 Q3823.68 976.213 3820.6 980.82 Q3817.54 985.403 3811.73 985.403 Q3805.92 985.403 3802.84 980.82 Q3799.79 976.213 3799.79 967.487 Q3799.79 958.737 3802.84 954.153 Q3805.92 949.547 3811.73 949.547 Z" fill="#000000" fill-rule="evenodd" fill-opacity="1" /><path clip-path="url(#clip590)" d="M 0 0 M3838.75 953.251 Q3835.14 953.251 3833.31 956.815 Q3831.5 960.357 3831.5 967.487 Q3831.5 974.593 3833.31 978.158 Q3835.14 981.699 3838.75 981.699 Q3842.38 981.699 3844.19 978.158 Q3846.01 974.593 3846.01 967.487 Q3846.01 960.357 3844.19 956.815 Q3842.38 953.251 3838.75 953.251 M3838.75 949.547 Q3844.56 949.547 3847.61 954.153 Q3850.69 958.737 3850.69 967.487 Q3850.69 976.213 3847.61 980.82 Q3844.56 985.403 3838.75 985.403 Q3832.94 985.403 3829.86 980.82 Q3826.8 976.213 3826.8 967.487 Q3826.8 958.737 3829.86 954.153 Q3832.94 949.547 3838.75 949.547 Z" fill="#000000" fill-rule="evenodd" fill-opacity="1" /><path clip-path="url(#clip590)" d="M 0 0 M2872.69 1014.16 L2872.69 1020.43 Q2869.03 1018.68 2865.78 1017.82 Q2862.54 1016.96 2859.51 1016.96 Q2854.26 1016.96 2851.4 1019 Q2848.56 1021.04 2848.56 1024.79 Q2848.56 1027.95 2850.44 1029.57 Q2852.35 1031.16 2857.64 1032.15 L2861.52 1032.94 Q2868.71 1034.31 2872.12 1037.78 Q2875.56 1041.22 2875.56 1047.01 Q2875.56 1053.92 2870.91 1057.48 Q2866.29 1061.05 2857.35 1061.05 Q2853.98 1061.05 2850.16 1060.28 Q2846.37 1059.52 2842.29 1058.02 L2842.29 1051.4 Q2846.21 1053.6 2849.96 1054.71 Q2853.72 1055.83 2857.35 1055.83 Q2862.86 1055.83 2865.85 1053.66 Q2868.84 1051.5 2868.84 1047.49 Q2868.84 1043.99 2866.67 1042.01 Q2864.54 1040.04 2859.64 1039.05 L2855.73 1038.29 Q2848.53 1036.86 2845.32 1033.8 Q2842.1 1030.75 2842.1 1025.3 Q2842.1 1019 2846.53 1015.37 Q2850.98 1011.74 2858.78 1011.74 Q2862.12 1011.74 2865.59 1012.35 Q2869.06 1012.95 2872.69 1014.16 Z" fill="#000000" fill-rule="evenodd" fill-opacity="1" /><path clip-path="url(#clip590)" d="M 0 0 M2897.9 1042.2 Q2890.8 1042.2 2888.06 1043.83 Q2885.33 1045.45 2885.33 1049.37 Q2885.33 1052.48 2887.36 1054.33 Q2889.43 1056.15 2892.97 1056.15 Q2897.83 1056.15 2900.76 1052.71 Q2903.72 1049.24 2903.72 1043.51 L2903.72 1042.2 L2897.9 1042.2 M2909.58 1039.79 L2909.58 1060.12 L2903.72 1060.12 L2903.72 1054.71 Q2901.72 1057.96 2898.73 1059.52 Q2895.73 1061.05 2891.41 1061.05 Q2885.93 1061.05 2882.68 1057.99 Q2879.47 1054.9 2879.47 1049.75 Q2879.47 1043.73 2883.48 1040.68 Q2887.52 1037.62 2895.51 1037.62 L2903.72 1037.62 L2903.72 1037.05 Q2903.72 1033.01 2901.05 1030.81 Q2898.41 1028.58 2893.6 1028.58 Q2890.55 1028.58 2887.65 1029.31 Q2884.75 1030.05 2882.08 1031.51 L2882.08 1026.1 Q2885.29 1024.86 2888.32 1024.25 Q2891.34 1023.62 2894.21 1023.62 Q2901.94 1023.62 2905.76 1027.63 Q2909.58 1031.64 2909.58 1039.79 Z" fill="#000000" fill-rule="evenodd" fill-opacity="1" /><path clip-path="url(#clip590)" d="M 0 0 M2943.48 1031.32 Q2945.67 1027.37 2948.73 1025.49 Q2951.78 1023.62 2955.92 1023.62 Q2961.49 1023.62 2964.52 1027.53 Q2967.54 1031.41 2967.54 1038.61 L2967.54 1060.12 L2961.65 1060.12 L2961.65 1038.8 Q2961.65 1033.67 2959.84 1031.19 Q2958.02 1028.71 2954.3 1028.71 Q2949.75 1028.71 2947.11 1031.73 Q2944.46 1034.76 2944.46 1039.98 L2944.46 1060.12 L2938.58 1060.12 L2938.58 1038.8 Q2938.58 1033.64 2936.76 1031.19 Q2934.95 1028.71 2931.16 1028.71 Q2926.67 1028.71 2924.03 1031.76 Q2921.39 1034.79 2921.39 1039.98 L2921.39 1060.12 L2915.5 1060.12 L2915.5 1024.48 L2921.39 1024.48 L2921.39 1030.01 Q2923.39 1026.74 2926.19 1025.18 Q2929 1023.62 2932.85 1023.62 Q2936.73 1023.62 2939.43 1025.59 Q2942.17 1027.56 2943.48 1031.32 Z" fill="#000000" fill-rule="evenodd" fill-opacity="1" /><path clip-path="url(#clip590)" d="M 0 0 M2979.35 1054.78 L2979.35 1073.68 L2973.46 1073.68 L2973.46 1024.48 L2979.35 1024.48 L2979.35 1029.89 Q2981.19 1026.7 2983.99 1025.18 Q2986.83 1023.62 2990.74 1023.62 Q2997.24 1023.62 3001.28 1028.77 Q3005.35 1033.93 3005.35 1042.33 Q3005.35 1050.73 3001.28 1055.89 Q2997.24 1061.05 2990.74 1061.05 Q2986.83 1061.05 2983.99 1059.52 Q2981.19 1057.96 2979.35 1054.78 M2999.27 1042.33 Q2999.27 1035.87 2996.6 1032.21 Q2993.96 1028.52 2989.31 1028.52 Q2984.66 1028.52 2981.99 1032.21 Q2979.35 1035.87 2979.35 1042.33 Q2979.35 1048.79 2981.99 1052.48 Q2984.66 1056.15 2989.31 1056.15 Q2993.96 1056.15 2996.6 1052.48 Q2999.27 1048.79 2999.27 1042.33 Z" fill="#000000" fill-rule="evenodd" fill-opacity="1" /><path clip-path="url(#clip590)" d="M 0 0 M3011.49 1010.6 L3017.35 1010.6 L3017.35 1060.12 L3011.49 1060.12 L3011.49 1010.6 Z" fill="#000000" fill-rule="evenodd" fill-opacity="1" /><path clip-path="url(#clip590)" d="M 0 0 M3053.99 1040.84 L3053.99 1043.7 L3027.06 1043.7 Q3027.44 1049.75 3030.69 1052.93 Q3033.97 1056.08 3039.79 1056.08 Q3043.16 1056.08 3046.32 1055.25 Q3049.5 1054.43 3052.62 1052.77 L3052.62 1058.31 Q3049.47 1059.65 3046.16 1060.35 Q3042.85 1061.05 3039.44 1061.05 Q3030.91 1061.05 3025.91 1056.08 Q3020.95 1051.12 3020.95 1042.65 Q3020.95 1033.9 3025.66 1028.77 Q3030.4 1023.62 3038.42 1023.62 Q3045.61 1023.62 3049.78 1028.26 Q3053.99 1032.88 3053.99 1040.84 M3048.13 1039.12 Q3048.07 1034.31 3045.42 1031.45 Q3042.81 1028.58 3038.49 1028.58 Q3033.58 1028.58 3030.62 1031.35 Q3027.7 1034.12 3027.25 1039.15 L3048.13 1039.12 Z" fill="#000000" fill-rule="evenodd" fill-opacity="1" /><path clip-path="url(#clip590)" d="M 0 0 M3076.65 1024.48 L3082.85 1024.48 L3093.99 1054.39 L3105.13 1024.48 L3111.34 1024.48 L3097.97 1060.12 L3090.02 1060.12 L3076.65 1024.48 Z" fill="#000000" fill-rule="evenodd" fill-opacity="1" /><path clip-path="url(#clip590)" d="M 0 0 M3133.68 1042.2 Q3126.59 1042.2 3123.85 1043.83 Q3121.11 1045.45 3121.11 1049.37 Q3121.11 1052.48 3123.15 1054.33 Q3125.22 1056.15 3128.75 1056.15 Q3133.62 1056.15 3136.55 1052.71 Q3139.51 1049.24 3139.51 1043.51 L3139.51 1042.2 L3133.68 1042.2 M3145.37 1039.79 L3145.37 1060.12 L3139.51 1060.12 L3139.51 1054.71 Q3137.5 1057.96 3134.51 1059.52 Q3131.52 1061.05 3127.19 1061.05 Q3121.72 1061.05 3118.47 1057.99 Q3115.26 1054.9 3115.26 1049.75 Q3115.26 1043.73 3119.27 1040.68 Q3123.31 1037.62 3131.3 1037.62 L3139.51 1037.62 L3139.51 1037.05 Q3139.51 1033.01 3136.84 1030.81 Q3134.19 1028.58 3129.39 1028.58 Q3126.33 1028.58 3123.44 1029.31 Q3120.54 1030.05 3117.87 1031.51 L3117.87 1026.1 Q3121.08 1024.86 3124.1 1024.25 Q3127.13 1023.62 3129.99 1023.62 Q3137.73 1023.62 3141.55 1027.63 Q3145.37 1031.64 3145.37 1039.79 Z" fill="#000000" fill-rule="evenodd" fill-opacity="1" /><path clip-path="url(#clip590)" d="M 0 0 M3151.51 1010.6 L3157.36 1010.6 L3157.36 1060.12 L3151.51 1060.12 L3151.51 1010.6 Z" fill="#000000" fill-rule="evenodd" fill-opacity="1" /><path clip-path="url(#clip590)" d="M 0 0 M3162.9 1046.06 L3162.9 1024.48 L3168.76 1024.48 L3168.76 1045.83 Q3168.76 1050.89 3170.73 1053.44 Q3172.71 1055.95 3176.65 1055.95 Q3181.4 1055.95 3184.13 1052.93 Q3186.9 1049.91 3186.9 1044.69 L3186.9 1024.48 L3192.76 1024.48 L3192.76 1060.12 L3186.9 1060.12 L3186.9 1054.65 Q3184.77 1057.9 3181.94 1059.49 Q3179.14 1061.05 3175.41 1061.05 Q3169.27 1061.05 3166.09 1057.23 Q3162.9 1053.41 3162.9 1046.06 M3177.64 1023.62 L3177.64 1023.62 Z" fill="#000000" fill-rule="evenodd" fill-opacity="1" /><path clip-path="url(#clip590)" d="M 0 0 M3229.39 1040.84 L3229.39 1043.7 L3202.47 1043.7 Q3202.85 1049.75 3206.09 1052.93 Q3209.37 1056.08 3215.2 1056.08 Q3218.57 1056.08 3221.72 1055.25 Q3224.91 1054.43 3228.02 1052.77 L3228.02 1058.31 Q3224.87 1059.65 3221.56 1060.35 Q3218.25 1061.05 3214.85 1061.05 Q3206.32 1061.05 3201.32 1056.08 Q3196.35 1051.12 3196.35 1042.65 Q3196.35 1033.9 3201.07 1028.77 Q3205.81 1023.62 3213.83 1023.62 Q3221.02 1023.62 3225.19 1028.26 Q3229.39 1032.88 3229.39 1040.84 M3223.54 1039.12 Q3223.47 1034.31 3220.83 1031.45 Q3218.22 1028.58 3213.89 1028.58 Q3208.99 1028.58 3206.03 1031.35 Q3203.1 1034.12 3202.66 1039.15 L3223.54 1039.12 Z" fill="#000000" fill-rule="evenodd" fill-opacity="1" /><polyline clip-path="url(#clip593)" style="stroke:#000000; stroke-width:2; stroke-opacity:0.1; fill:none" points="
  2118.74,887.256 3952.76,887.256 
  "/>
<polyline clip-path="url(#clip593)" style="stroke:#000000; stroke-width:2; stroke-opacity:0.1; fill:none" points="
  2118.74,744.864 3952.76,744.864 
  "/>
<polyline clip-path="url(#clip593)" style="stroke:#000000; stroke-width:2; stroke-opacity:0.1; fill:none" points="
  2118.74,602.473 3952.76,602.473 
  "/>
<polyline clip-path="url(#clip593)" style="stroke:#000000; stroke-width:2; stroke-opacity:0.1; fill:none" points="
  2118.74,460.082 3952.76,460.082 
  "/>
<polyline clip-path="url(#clip593)" style="stroke:#000000; stroke-width:2; stroke-opacity:0.1; fill:none" points="
  2118.74,317.691 3952.76,317.691 
  "/>
<polyline clip-path="url(#clip593)" style="stroke:#000000; stroke-width:2; stroke-opacity:0.1; fill:none" points="
  2118.74,175.299 3952.76,175.299 
  "/>
<polyline clip-path="url(#clip590)" style="stroke:#000000; stroke-width:4; stroke-opacity:1; fill:none" points="
  2118.74,911.26 2118.74,62.9921 
  "/>
<polyline clip-path="url(#clip590)" style="stroke:#000000; stroke-width:4; stroke-opacity:1; fill:none" points="
  2118.74,887.256 2140.75,887.256 
  "/>
<polyline clip-path="url(#clip590)" style="stroke:#000000; stroke-width:4; stroke-opacity:1; fill:none" points="
  2118.74,744.864 2140.75,744.864 
  "/>
<polyline clip-path="url(#clip590)" style="stroke:#000000; stroke-width:4; stroke-opacity:1; fill:none" points="
  2118.74,602.473 2140.75,602.473 
  "/>
<polyline clip-path="url(#clip590)" style="stroke:#000000; stroke-width:4; stroke-opacity:1; fill:none" points="
  2118.74,460.082 2140.75,460.082 
  "/>
<polyline clip-path="url(#clip590)" style="stroke:#000000; stroke-width:4; stroke-opacity:1; fill:none" points="
  2118.74,317.691 2140.75,317.691 
  "/>
<polyline clip-path="url(#clip590)" style="stroke:#000000; stroke-width:4; stroke-opacity:1; fill:none" points="
  2118.74,175.299 2140.75,175.299 
  "/>
<path clip-path="url(#clip590)" d="M 0 0 M2009.83 873.054 Q2006.22 873.054 2004.39 876.619 Q2002.58 880.161 2002.58 887.29 Q2002.58 894.397 2004.39 897.962 Q2006.22 901.503 2009.83 901.503 Q2013.46 901.503 2015.27 897.962 Q2017.1 894.397 2017.1 887.29 Q2017.1 880.161 2015.27 876.619 Q2013.46 873.054 2009.83 873.054 M2009.83 869.351 Q2015.64 869.351 2018.69 873.957 Q2021.77 878.54 2021.77 887.29 Q2021.77 896.017 2018.69 900.624 Q2015.64 905.207 2009.83 905.207 Q2004.02 905.207 2000.94 900.624 Q1997.88 896.017 1997.88 887.29 Q1997.88 878.54 2000.94 873.957 Q2004.02 869.351 2009.83 869.351 Z" fill="#000000" fill-rule="evenodd" fill-opacity="1" /><path clip-path="url(#clip590)" d="M 0 0 M2026.84 898.656 L2031.73 898.656 L2031.73 904.536 L2026.84 904.536 L2026.84 898.656 Z" fill="#000000" fill-rule="evenodd" fill-opacity="1" /><path clip-path="url(#clip590)" d="M 0 0 M2046.8 873.054 Q2043.18 873.054 2041.36 876.619 Q2039.55 880.161 2039.55 887.29 Q2039.55 894.397 2041.36 897.962 Q2043.18 901.503 2046.8 901.503 Q2050.43 901.503 2052.24 897.962 Q2054.06 894.397 2054.06 887.29 Q2054.06 880.161 2052.24 876.619 Q2050.43 873.054 2046.8 873.054 M2046.8 869.351 Q2052.61 869.351 2055.66 873.957 Q2058.74 878.54 2058.74 887.29 Q2058.74 896.017 2055.66 900.624 Q2052.61 905.207 2046.8 905.207 Q2040.99 905.207 2037.91 900.624 Q2034.85 896.017 2034.85 887.29 Q2034.85 878.54 2037.91 873.957 Q2040.99 869.351 2046.8 869.351 Z" fill="#000000" fill-rule="evenodd" fill-opacity="1" /><path clip-path="url(#clip590)" d="M 0 0 M2010.82 730.663 Q2007.21 730.663 2005.38 734.228 Q2003.58 737.77 2003.58 744.899 Q2003.58 752.006 2005.38 755.57 Q2007.21 759.112 2010.82 759.112 Q2014.46 759.112 2016.26 755.57 Q2018.09 752.006 2018.09 744.899 Q2018.09 737.77 2016.26 734.228 Q2014.46 730.663 2010.82 730.663 M2010.82 726.959 Q2016.63 726.959 2019.69 731.566 Q2022.77 736.149 2022.77 744.899 Q2022.77 753.626 2019.69 758.232 Q2016.63 762.816 2010.82 762.816 Q2005.01 762.816 2001.93 758.232 Q1998.88 753.626 1998.88 744.899 Q1998.88 736.149 2001.93 731.566 Q2005.01 726.959 2010.82 726.959 Z" fill="#000000" fill-rule="evenodd" fill-opacity="1" /><path clip-path="url(#clip590)" d="M 0 0 M2027.84 756.265 L2032.72 756.265 L2032.72 762.144 L2027.84 762.144 L2027.84 756.265 Z" fill="#000000" fill-rule="evenodd" fill-opacity="1" /><path clip-path="url(#clip590)" d="M 0 0 M2037.84 727.584 L2056.19 727.584 L2056.19 731.52 L2042.12 731.52 L2042.12 739.992 Q2043.14 739.645 2044.16 739.482 Q2045.18 739.297 2046.19 739.297 Q2051.98 739.297 2055.36 742.469 Q2058.74 745.64 2058.74 751.056 Q2058.74 756.635 2055.27 759.737 Q2051.8 762.816 2045.48 762.816 Q2043.3 762.816 2041.03 762.445 Q2038.79 762.075 2036.38 761.334 L2036.38 756.635 Q2038.46 757.769 2040.68 758.325 Q2042.91 758.881 2045.38 758.881 Q2049.39 758.881 2051.73 756.774 Q2054.06 754.668 2054.06 751.056 Q2054.06 747.445 2051.73 745.339 Q2049.39 743.232 2045.38 743.232 Q2043.51 743.232 2041.63 743.649 Q2039.78 744.066 2037.84 744.945 L2037.84 727.584 Z" fill="#000000" fill-rule="evenodd" fill-opacity="1" /><path clip-path="url(#clip590)" d="M 0 0 M2001.87 615.818 L2009.5 615.818 L2009.5 589.452 L2001.19 591.119 L2001.19 586.86 L2009.46 585.193 L2014.13 585.193 L2014.13 615.818 L2021.77 615.818 L2021.77 619.753 L2001.87 619.753 L2001.87 615.818 Z" fill="#000000" fill-rule="evenodd" fill-opacity="1" /><path clip-path="url(#clip590)" d="M 0 0 M2026.84 613.874 L2031.73 613.874 L2031.73 619.753 L2026.84 619.753 L2026.84 613.874 Z" fill="#000000" fill-rule="evenodd" fill-opacity="1" /><path clip-path="url(#clip590)" d="M 0 0 M2046.8 588.272 Q2043.18 588.272 2041.36 591.837 Q2039.55 595.378 2039.55 602.508 Q2039.55 609.614 2041.36 613.179 Q2043.18 616.721 2046.8 616.721 Q2050.43 616.721 2052.24 613.179 Q2054.06 609.614 2054.06 602.508 Q2054.06 595.378 2052.24 591.837 Q2050.43 588.272 2046.8 588.272 M2046.8 584.568 Q2052.61 584.568 2055.66 589.175 Q2058.74 593.758 2058.74 602.508 Q2058.74 611.235 2055.66 615.841 Q2052.61 620.424 2046.8 620.424 Q2040.99 620.424 2037.91 615.841 Q2034.85 611.235 2034.85 602.508 Q2034.85 593.758 2037.91 589.175 Q2040.99 584.568 2046.8 584.568 Z" fill="#000000" fill-rule="evenodd" fill-opacity="1" /><path clip-path="url(#clip590)" d="M 0 0 M2002.86 473.427 L2010.5 473.427 L2010.5 447.061 L2002.19 448.728 L2002.19 444.468 L2010.45 442.802 L2015.13 442.802 L2015.13 473.427 L2022.77 473.427 L2022.77 477.362 L2002.86 477.362 L2002.86 473.427 Z" fill="#000000" fill-rule="evenodd" fill-opacity="1" /><path clip-path="url(#clip590)" d="M 0 0 M2027.84 471.482 L2032.72 471.482 L2032.72 477.362 L2027.84 477.362 L2027.84 471.482 Z" fill="#000000" fill-rule="evenodd" fill-opacity="1" /><path clip-path="url(#clip590)" d="M 0 0 M2037.84 442.802 L2056.19 442.802 L2056.19 446.737 L2042.12 446.737 L2042.12 455.209 Q2043.14 454.862 2044.16 454.7 Q2045.18 454.515 2046.19 454.515 Q2051.98 454.515 2055.36 457.686 Q2058.74 460.857 2058.74 466.274 Q2058.74 471.853 2055.27 474.954 Q2051.8 478.033 2045.48 478.033 Q2043.3 478.033 2041.03 477.663 Q2038.79 477.292 2036.38 476.552 L2036.38 471.853 Q2038.46 472.987 2040.68 473.542 Q2042.91 474.098 2045.38 474.098 Q2049.39 474.098 2051.73 471.991 Q2054.06 469.885 2054.06 466.274 Q2054.06 462.663 2051.73 460.556 Q2049.39 458.45 2045.38 458.45 Q2043.51 458.45 2041.63 458.867 Q2039.78 459.283 2037.84 460.163 L2037.84 442.802 Z" fill="#000000" fill-rule="evenodd" fill-opacity="1" /><path clip-path="url(#clip590)" d="M 0 0 M2005.45 331.035 L2021.77 331.035 L2021.77 334.971 L1999.83 334.971 L1999.83 331.035 Q2002.49 328.281 2007.07 323.651 Q2011.68 318.998 2012.86 317.656 Q2015.11 315.133 2015.99 313.397 Q2016.89 311.637 2016.89 309.948 Q2016.89 307.193 2014.94 305.457 Q2013.02 303.721 2009.92 303.721 Q2007.72 303.721 2005.27 304.485 Q2002.84 305.249 2000.06 306.799 L2000.06 302.077 Q2002.88 300.943 2005.34 300.364 Q2007.79 299.786 2009.83 299.786 Q2015.2 299.786 2018.39 302.471 Q2021.59 305.156 2021.59 309.647 Q2021.59 311.776 2020.78 313.698 Q2019.99 315.596 2017.88 318.188 Q2017.31 318.86 2014.2 322.077 Q2011.1 325.272 2005.45 331.035 Z" fill="#000000" fill-rule="evenodd" fill-opacity="1" /><path clip-path="url(#clip590)" d="M 0 0 M2026.84 329.091 L2031.73 329.091 L2031.73 334.971 L2026.84 334.971 L2026.84 329.091 Z" fill="#000000" fill-rule="evenodd" fill-opacity="1" /><path clip-path="url(#clip590)" d="M 0 0 M2046.8 303.489 Q2043.18 303.489 2041.36 307.054 Q2039.55 310.596 2039.55 317.725 Q2039.55 324.832 2041.36 328.397 Q2043.18 331.938 2046.8 331.938 Q2050.43 331.938 2052.24 328.397 Q2054.06 324.832 2054.06 317.725 Q2054.06 310.596 2052.24 307.054 Q2050.43 303.489 2046.8 303.489 M2046.8 299.786 Q2052.61 299.786 2055.66 304.392 Q2058.74 308.975 2058.74 317.725 Q2058.74 326.452 2055.66 331.059 Q2052.61 335.642 2046.8 335.642 Q2040.99 335.642 2037.91 331.059 Q2034.85 326.452 2034.85 317.725 Q2034.85 308.975 2037.91 304.392 Q2040.99 299.786 2046.8 299.786 Z" fill="#000000" fill-rule="evenodd" fill-opacity="1" /><path clip-path="url(#clip590)" d="M 0 0 M2006.45 188.644 L2022.77 188.644 L2022.77 192.579 L2000.82 192.579 L2000.82 188.644 Q2003.49 185.89 2008.07 181.26 Q2012.68 176.607 2013.86 175.265 Q2016.1 172.741 2016.98 171.005 Q2017.88 169.246 2017.88 167.556 Q2017.88 164.802 2015.94 163.066 Q2014.02 161.329 2010.92 161.329 Q2008.72 161.329 2006.26 162.093 Q2003.83 162.857 2001.06 164.408 L2001.06 159.686 Q2003.88 158.552 2006.33 157.973 Q2008.79 157.394 2010.82 157.394 Q2016.19 157.394 2019.39 160.079 Q2022.58 162.765 2022.58 167.255 Q2022.58 169.385 2021.77 171.306 Q2020.99 173.204 2018.88 175.797 Q2018.3 176.468 2015.2 179.686 Q2012.1 182.88 2006.45 188.644 Z" fill="#000000" fill-rule="evenodd" fill-opacity="1" /><path clip-path="url(#clip590)" d="M 0 0 M2027.84 186.7 L2032.72 186.7 L2032.72 192.579 L2027.84 192.579 L2027.84 186.7 Z" fill="#000000" fill-rule="evenodd" fill-opacity="1" /><path clip-path="url(#clip590)" d="M 0 0 M2037.84 158.019 L2056.19 158.019 L2056.19 161.954 L2042.12 161.954 L2042.12 170.427 Q2043.14 170.079 2044.16 169.917 Q2045.18 169.732 2046.19 169.732 Q2051.98 169.732 2055.36 172.903 Q2058.74 176.075 2058.74 181.491 Q2058.74 187.07 2055.27 190.172 Q2051.8 193.251 2045.48 193.251 Q2043.3 193.251 2041.03 192.88 Q2038.79 192.51 2036.38 191.769 L2036.38 187.07 Q2038.46 188.204 2040.68 188.76 Q2042.91 189.315 2045.38 189.315 Q2049.39 189.315 2051.73 187.209 Q2054.06 185.102 2054.06 181.491 Q2054.06 177.88 2051.73 175.774 Q2049.39 173.667 2045.38 173.667 Q2043.51 173.667 2041.63 174.084 Q2039.78 174.501 2037.84 175.38 L2037.84 158.019 Z" fill="#000000" fill-rule="evenodd" fill-opacity="1" /><path clip-path="url(#clip590)" d="M 0 0 M1921.39 588.579 L1958.34 588.579 L1958.34 580.813 Q1958.34 570.978 1953.89 566.427 Q1949.43 561.843 1939.82 561.843 Q1930.27 561.843 1925.85 566.427 Q1921.39 570.978 1921.39 580.813 L1921.39 588.579 M1916.11 595.009 L1916.11 581.8 Q1916.11 567.986 1921.87 561.525 Q1927.6 555.064 1939.82 555.064 Q1952.11 555.064 1957.87 561.557 Q1963.63 568.05 1963.63 581.8 L1963.63 595.009 L1916.11 595.009 Z" fill="#000000" fill-rule="evenodd" fill-opacity="1" /><path clip-path="url(#clip590)" d="M 0 0 M1944.34 518.429 L1947.2 518.429 L1947.2 545.356 Q1953.25 544.974 1956.43 541.728 Q1959.59 538.449 1959.59 532.625 Q1959.59 529.251 1958.76 526.1 Q1957.93 522.917 1956.28 519.798 L1961.81 519.798 Q1963.15 522.949 1963.85 526.259 Q1964.55 529.569 1964.55 532.975 Q1964.55 541.505 1959.59 546.502 Q1954.62 551.467 1946.15 551.467 Q1937.4 551.467 1932.28 546.757 Q1927.12 542.014 1927.12 533.993 Q1927.12 526.8 1931.77 522.631 Q1936.38 518.429 1944.34 518.429 M1942.62 524.286 Q1937.82 524.349 1934.95 526.991 Q1932.09 529.601 1932.09 533.93 Q1932.09 538.831 1934.86 541.791 Q1937.62 544.72 1942.65 545.165 L1942.62 524.286 Z" fill="#000000" fill-rule="evenodd" fill-opacity="1" /><path clip-path="url(#clip590)" d="M 0 0 M1942.11 482.654 L1963.63 482.654 L1963.63 488.511 L1942.3 488.511 Q1937.24 488.511 1934.73 490.484 Q1932.21 492.457 1932.21 496.404 Q1932.21 501.146 1935.24 503.884 Q1938.26 506.621 1943.48 506.621 L1963.63 506.621 L1963.63 512.509 L1927.98 512.509 L1927.98 506.621 L1933.52 506.621 Q1930.3 504.52 1928.71 501.688 Q1927.12 498.823 1927.12 495.099 Q1927.12 488.956 1930.94 485.805 Q1934.73 482.654 1942.11 482.654 Z" fill="#000000" fill-rule="evenodd" fill-opacity="1" /><path clip-path="url(#clip590)" d="M 0 0 M1929.03 453.786 L1934.57 453.786 Q1933.3 456.268 1932.66 458.942 Q1932.02 461.615 1932.02 464.48 Q1932.02 468.84 1933.36 471.037 Q1934.7 473.201 1937.37 473.201 Q1939.41 473.201 1940.58 471.641 Q1941.73 470.082 1942.78 465.371 L1943.23 463.366 Q1944.56 457.128 1947.01 454.518 Q1949.43 451.876 1953.79 451.876 Q1958.76 451.876 1961.65 455.823 Q1964.55 459.738 1964.55 466.612 Q1964.55 469.477 1963.98 472.596 Q1963.44 475.684 1962.32 479.121 L1956.28 479.121 Q1957.96 475.875 1958.82 472.724 Q1959.65 469.573 1959.65 466.485 Q1959.65 462.347 1958.25 460.119 Q1956.82 457.891 1954.24 457.891 Q1951.85 457.891 1950.58 459.515 Q1949.31 461.106 1948.13 466.549 L1947.65 468.586 Q1946.5 474.029 1944.15 476.448 Q1941.76 478.866 1937.62 478.866 Q1932.6 478.866 1929.86 475.302 Q1927.12 471.737 1927.12 465.18 Q1927.12 461.934 1927.6 459.069 Q1928.08 456.205 1929.03 453.786 Z" fill="#000000" fill-rule="evenodd" fill-opacity="1" /><path clip-path="url(#clip590)" d="M 0 0 M1927.98 445.733 L1927.98 439.877 L1963.63 439.877 L1963.63 445.733 L1927.98 445.733 M1914.1 445.733 L1914.1 439.877 L1921.52 439.877 L1921.52 445.733 L1914.1 445.733 Z" fill="#000000" fill-rule="evenodd" fill-opacity="1" /><path clip-path="url(#clip590)" d="M 0 0 M1917.86 427.941 L1927.98 427.941 L1927.98 415.878 L1932.53 415.878 L1932.53 427.941 L1951.88 427.941 Q1956.24 427.941 1957.49 426.763 Q1958.73 425.554 1958.73 421.893 L1958.73 415.878 L1963.63 415.878 L1963.63 421.893 Q1963.63 428.673 1961.11 431.251 Q1958.57 433.829 1951.88 433.829 L1932.53 433.829 L1932.53 438.126 L1927.98 438.126 L1927.98 433.829 L1917.86 433.829 L1917.86 427.941 Z" fill="#000000" fill-rule="evenodd" fill-opacity="1" /><path clip-path="url(#clip590)" d="M 0 0 M1966.94 394.903 Q1973.3 397.385 1975.25 399.741 Q1977.19 402.096 1977.19 406.043 L1977.19 410.722 L1972.29 410.722 L1972.29 407.284 Q1972.29 404.865 1971.14 403.528 Q1969.99 402.192 1965.73 400.568 L1963.06 399.518 L1927.98 413.936 L1927.98 407.73 L1955.86 396.59 L1927.98 385.45 L1927.98 379.243 L1966.94 394.903 Z" fill="#000000" fill-rule="evenodd" fill-opacity="1" /><path clip-path="url(#clip590)" d="M 0 0 M3048.63 43.8146 L3022.83 43.8146 Q3023.43 55.9268 3026.23 61.0714 Q3029.71 67.3908 3035.75 67.3908 Q3041.82 67.3908 3045.19 61.0309 Q3048.14 55.4407 3048.63 43.8146 M3048.51 36.928 Q3047.37 25.4235 3045.19 21.3726 Q3041.7 14.9721 3035.75 14.9721 Q3029.55 14.9721 3026.27 21.2916 Q3023.68 26.3957 3022.91 36.928 L3048.51 36.928 M3035.75 8.89579 Q3045.47 8.89579 3051.02 17.4837 Q3056.57 26.0311 3056.57 41.1815 Q3056.57 56.2914 3051.02 64.8793 Q3045.47 73.5077 3035.75 73.5077 Q3025.99 73.5077 3020.48 64.8793 Q3014.93 56.2914 3014.93 41.1815 Q3014.93 26.0311 3020.48 17.4837 Q3025.99 8.89579 3035.75 8.89579 Z" fill="#000000" fill-rule="evenodd" fill-opacity="1" /><polyline clip-path="url(#clip593)" style="stroke:#009af9; stroke-width:4; stroke-opacity:1; fill:none" points="
  2170.65,887.252 2179.34,887.251 2188.04,887.249 2196.73,887.244 2205.42,887.235 2214.12,887.219 2222.81,887.195 2231.51,887.156 2240.2,887.096 2248.9,887.008 
  2257.59,886.88 2266.29,886.701 2274.98,886.459 2283.67,886.138 2292.37,885.729 2301.06,885.221 2309.76,884.612 2318.45,883.903 2327.15,883.107 2335.84,882.242 
  2344.54,881.336 2353.23,880.423 2361.93,879.539 2370.62,878.719 2379.31,877.995 2388.01,877.388 2396.7,876.907 2405.4,876.548 2414.09,876.292 2422.79,876.112 
  2431.48,875.968 2440.18,875.817 2448.87,875.62 2457.56,875.337 2466.26,874.943 2474.95,874.419 2483.65,873.761 2492.34,872.973 2501.04,872.065 2509.73,871.054 
  2518.43,869.949 2527.12,868.755 2535.81,867.463 2544.51,866.049 2553.2,864.473 2561.9,862.678 2570.59,860.596 2579.29,858.153 2587.98,855.278 2596.68,851.91 
  2605.37,848.007 2614.07,843.551 2622.76,838.551 2631.45,833.045 2640.15,827.087 2648.84,820.745 2657.54,814.082 2666.23,807.146 2674.93,799.956 2683.62,792.493 
  2692.32,784.701 2701.01,776.485 2709.7,767.731 2718.4,758.311 2727.09,748.11 2735.79,737.039 2744.48,725.055 2753.18,712.167 2761.87,698.449 2770.57,684.032 
  2779.26,669.102 2787.96,653.889 2796.65,638.651 2805.34,623.662 2814.04,609.192 2822.73,595.49 2831.43,582.769 2840.12,571.188 2848.82,560.84 2857.51,551.737 
  2866.21,543.804 2874.9,536.876 2883.59,530.698 2892.29,524.945 2900.98,519.239 2909.68,513.182 2918.37,506.397 2927.07,498.567 2935.76,489.471 2944.46,479.016 
  2953.15,467.246 2961.84,454.334 2970.54,440.556 2979.23,426.248 2987.93,411.748 2996.62,397.343 3005.32,383.222 3014.01,369.448 3022.71,355.946 3031.4,342.521 
  3040.1,328.892 3048.79,314.74 3057.48,299.762 3066.18,283.722 3074.87,266.496 3083.57,248.097 3092.26,228.696 3100.96,208.615 3109.65,188.312 3118.35,168.354 
  3127.04,149.373 3135.73,132.018 3144.43,116.902 3153.12,104.549 3161.82,95.3441 3170.51,89.4928 3179.21,86.9997 3187.9,87.662 3196.6,91.0866 3205.29,96.7288 
  3213.99,103.948 3222.68,112.074 3231.37,120.481 3240.07,128.65 3248.76,136.215 3257.46,142.994 3266.15,148.981 3274.85,154.327 3283.54,159.293 3292.24,164.189 
  3300.93,169.326 3309.62,174.966 3318.32,181.296 3327.01,188.422 3335.71,196.382 3344.4,205.173 3353.1,214.777 3361.79,225.186 3370.49,236.419 3379.18,248.517 
  3387.87,261.526 3396.57,275.476 3405.26,290.357 3413.96,306.101 3422.65,322.577 3431.35,339.603 3440.04,356.968 3448.74,374.47 3457.43,391.939 3466.13,409.271 
  3474.82,426.436 3483.51,443.472 3492.21,460.47 3500.9,477.544 3509.6,494.796 3518.29,512.289 3526.99,530.03 3535.68,547.958 3544.38,565.961 3553.07,583.886 
  3561.76,601.571 3570.46,618.872 3579.15,635.683 3587.85,651.951 3596.54,667.682 3605.24,682.932 3613.93,697.789 3622.63,712.354 3631.32,726.717 3640.02,740.934 
  3648.71,755.016 3657.4,768.918 3666.1,782.545 3674.79,795.761 3683.49,808.402 3692.18,820.298 3700.88,831.294 3709.57,841.258 3718.27,850.104 3726.96,857.79 
  3735.65,864.321 3744.35,869.747 3753.04,874.153 3761.74,877.648 3770.43,880.355 3779.13,882.404 3787.82,883.917 3796.52,885.008 3805.21,885.775 3813.9,886.303 
  3822.6,886.656 3831.29,886.887 3839.99,887.034 3848.68,887.126 3857.38,887.181 3866.07,887.214 3874.77,887.233 3883.46,887.243 3892.16,887.249 3900.85,887.252 
  
  "/>
</svg>
