<?xml version="1.0" encoding="utf-8"?>
<svg xmlns="http://www.w3.org/2000/svg" xmlns:xlink="http://www.w3.org/1999/xlink" width="1000" height="250" viewBox="0 0 4000 1000">
<defs>
  <clipPath id="clip880">
    <rect x="0" y="0" width="4000" height="1000"/>
  </clipPath>
</defs>
<path clip-path="url(#clip880)" d="
M0 1000 L4000 1000 L4000 0 L0 0  Z
  " fill="#ffffff" fill-rule="evenodd" fill-opacity="1"/>
<defs>
  <clipPath id="clip881">
    <rect x="800" y="0" width="2801" height="1000"/>
  </clipPath>
</defs>
<path clip-path="url(#clip880)" d="
M118.74 911.26 L1952.76 911.26 L1952.76 62.9921 L118.74 62.9921  Z
  " fill="#ffffff" fill-rule="evenodd" fill-opacity="1"/>
<defs>
  <clipPath id="clip882">
    <rect x="118" y="62" width="1835" height="849"/>
  </clipPath>
</defs>
<polyline clip-path="url(#clip882)" style="stroke:#000000; stroke-width:2; stroke-opacity:0.1; fill:none" points="
  168.914,911.26 168.914,62.9921 
  "/>
<polyline clip-path="url(#clip882)" style="stroke:#000000; stroke-width:2; stroke-opacity:0.1; fill:none" points="
  601.898,911.26 601.898,62.9921 
  "/>
<polyline clip-path="url(#clip882)" style="stroke:#000000; stroke-width:2; stroke-opacity:0.1; fill:none" points="
  1034.88,911.26 1034.88,62.9921 
  "/>
<polyline clip-path="url(#clip882)" style="stroke:#000000; stroke-width:2; stroke-opacity:0.1; fill:none" points="
  1467.87,911.26 1467.87,62.9921 
  "/>
<polyline clip-path="url(#clip882)" style="stroke:#000000; stroke-width:2; stroke-opacity:0.1; fill:none" points="
  1900.85,911.26 1900.85,62.9921 
  "/>
<polyline clip-path="url(#clip880)" style="stroke:#000000; stroke-width:4; stroke-opacity:1; fill:none" points="
  118.74,911.26 1952.76,911.26 
  "/>
<polyline clip-path="url(#clip880)" style="stroke:#000000; stroke-width:4; stroke-opacity:1; fill:none" points="
  168.914,911.26 168.914,901.081 
  "/>
<polyline clip-path="url(#clip880)" style="stroke:#000000; stroke-width:4; stroke-opacity:1; fill:none" points="
  601.898,911.26 601.898,901.081 
  "/>
<polyline clip-path="url(#clip880)" style="stroke:#000000; stroke-width:4; stroke-opacity:1; fill:none" points="
  1034.88,911.26 1034.88,901.081 
  "/>
<polyline clip-path="url(#clip880)" style="stroke:#000000; stroke-width:4; stroke-opacity:1; fill:none" points="
  1467.87,911.26 1467.87,901.081 
  "/>
<polyline clip-path="url(#clip880)" style="stroke:#000000; stroke-width:4; stroke-opacity:1; fill:none" points="
  1900.85,911.26 1900.85,901.081 
  "/>
<path clip-path="url(#clip880)" d="M 0 0 M168.914 953.251 Q165.303 953.251 163.475 956.815 Q161.669 960.357 161.669 967.487 Q161.669 974.593 163.475 978.158 Q165.303 981.699 168.914 981.699 Q172.549 981.699 174.354 978.158 Q176.183 974.593 176.183 967.487 Q176.183 960.357 174.354 956.815 Q172.549 953.251 168.914 953.251 M168.914 949.547 Q174.724 949.547 177.78 954.153 Q180.859 958.737 180.859 967.487 Q180.859 976.213 177.78 980.82 Q174.724 985.403 168.914 985.403 Q163.104 985.403 160.025 980.82 Q156.97 976.213 156.97 967.487 Q156.97 958.737 160.025 954.153 Q163.104 949.547 168.914 949.547 Z" fill="#000000" fill-rule="evenodd" fill-opacity="1" /><path clip-path="url(#clip880)" d="M 0 0 M570.035 980.797 L586.354 980.797 L586.354 984.732 L564.41 984.732 L564.41 980.797 Q567.072 978.042 571.655 973.412 Q576.262 968.76 577.442 967.417 Q579.688 964.894 580.567 963.158 Q581.47 961.399 581.47 959.709 Q581.47 956.954 579.526 955.218 Q577.604 953.482 574.503 953.482 Q572.303 953.482 569.85 954.246 Q567.419 955.01 564.641 956.561 L564.641 951.839 Q567.466 950.704 569.919 950.126 Q572.373 949.547 574.41 949.547 Q579.78 949.547 582.975 952.232 Q586.169 954.917 586.169 959.408 Q586.169 961.538 585.359 963.459 Q584.572 965.357 582.465 967.95 Q581.887 968.621 578.785 971.838 Q575.683 975.033 570.035 980.797 Z" fill="#000000" fill-rule="evenodd" fill-opacity="1" /><path clip-path="url(#clip880)" d="M 0 0 M591.47 950.172 L609.826 950.172 L609.826 954.107 L595.752 954.107 L595.752 962.579 Q596.771 962.232 597.789 962.07 Q598.808 961.885 599.826 961.885 Q605.613 961.885 608.993 965.056 Q612.373 968.227 612.373 973.644 Q612.373 979.223 608.9 982.324 Q605.428 985.403 599.109 985.403 Q596.933 985.403 594.664 985.033 Q592.419 984.662 590.012 983.922 L590.012 979.223 Q592.095 980.357 594.317 980.912 Q596.539 981.468 599.016 981.468 Q603.021 981.468 605.359 979.362 Q607.697 977.255 607.697 973.644 Q607.697 970.033 605.359 967.926 Q603.021 965.82 599.016 965.82 Q597.141 965.82 595.266 966.237 Q593.414 966.653 591.47 967.533 L591.47 950.172 Z" fill="#000000" fill-rule="evenodd" fill-opacity="1" /><path clip-path="url(#clip880)" d="M 0 0 M627.442 953.251 Q623.831 953.251 622.002 956.815 Q620.197 960.357 620.197 967.487 Q620.197 974.593 622.002 978.158 Q623.831 981.699 627.442 981.699 Q631.076 981.699 632.882 978.158 Q634.711 974.593 634.711 967.487 Q634.711 960.357 632.882 956.815 Q631.076 953.251 627.442 953.251 M627.442 949.547 Q633.252 949.547 636.308 954.153 Q639.386 958.737 639.386 967.487 Q639.386 976.213 636.308 980.82 Q633.252 985.403 627.442 985.403 Q621.632 985.403 618.553 980.82 Q615.498 976.213 615.498 967.487 Q615.498 958.737 618.553 954.153 Q621.632 949.547 627.442 949.547 Z" fill="#000000" fill-rule="evenodd" fill-opacity="1" /><path clip-path="url(#clip880)" d="M 0 0 M998.146 950.172 L1016.5 950.172 L1016.5 954.107 L1002.43 954.107 L1002.43 962.579 Q1003.45 962.232 1004.47 962.07 Q1005.48 961.885 1006.5 961.885 Q1012.29 961.885 1015.67 965.056 Q1019.05 968.227 1019.05 973.644 Q1019.05 979.223 1015.58 982.324 Q1012.1 985.403 1005.78 985.403 Q1003.61 985.403 1001.34 985.033 Q999.095 984.662 996.688 983.922 L996.688 979.223 Q998.771 980.357 1000.99 980.912 Q1003.22 981.468 1005.69 981.468 Q1009.7 981.468 1012.03 979.362 Q1014.37 977.255 1014.37 973.644 Q1014.37 970.033 1012.03 967.926 Q1009.7 965.82 1005.69 965.82 Q1003.82 965.82 1001.94 966.237 Q1000.09 966.653 998.146 967.533 L998.146 950.172 Z" fill="#000000" fill-rule="evenodd" fill-opacity="1" /><path clip-path="url(#clip880)" d="M 0 0 M1034.12 953.251 Q1030.51 953.251 1028.68 956.815 Q1026.87 960.357 1026.87 967.487 Q1026.87 974.593 1028.68 978.158 Q1030.51 981.699 1034.12 981.699 Q1037.75 981.699 1039.56 978.158 Q1041.39 974.593 1041.39 967.487 Q1041.39 960.357 1039.56 956.815 Q1037.75 953.251 1034.12 953.251 M1034.12 949.547 Q1039.93 949.547 1042.98 954.153 Q1046.06 958.737 1046.06 967.487 Q1046.06 976.213 1042.98 980.82 Q1039.93 985.403 1034.12 985.403 Q1028.31 985.403 1025.23 980.82 Q1022.17 976.213 1022.17 967.487 Q1022.17 958.737 1025.23 954.153 Q1028.31 949.547 1034.12 949.547 Z" fill="#000000" fill-rule="evenodd" fill-opacity="1" /><path clip-path="url(#clip880)" d="M 0 0 M1061.13 953.251 Q1057.52 953.251 1055.69 956.815 Q1053.89 960.357 1053.89 967.487 Q1053.89 974.593 1055.69 978.158 Q1057.52 981.699 1061.13 981.699 Q1064.77 981.699 1066.57 978.158 Q1068.4 974.593 1068.4 967.487 Q1068.4 960.357 1066.57 956.815 Q1064.77 953.251 1061.13 953.251 M1061.13 949.547 Q1066.94 949.547 1070 954.153 Q1073.08 958.737 1073.08 967.487 Q1073.08 976.213 1070 980.82 Q1066.94 985.403 1061.13 985.403 Q1055.32 985.403 1052.24 980.82 Q1049.19 976.213 1049.19 967.487 Q1049.19 958.737 1052.24 954.153 Q1055.32 949.547 1061.13 949.547 Z" fill="#000000" fill-rule="evenodd" fill-opacity="1" /><path clip-path="url(#clip880)" d="M 0 0 M1430.24 950.172 L1452.46 950.172 L1452.46 952.163 L1439.91 984.732 L1435.03 984.732 L1446.84 954.107 L1430.24 954.107 L1430.24 950.172 Z" fill="#000000" fill-rule="evenodd" fill-opacity="1" /><path clip-path="url(#clip880)" d="M 0 0 M1457.58 950.172 L1475.93 950.172 L1475.93 954.107 L1461.86 954.107 L1461.86 962.579 Q1462.88 962.232 1463.9 962.07 Q1464.91 961.885 1465.93 961.885 Q1471.72 961.885 1475.1 965.056 Q1478.48 968.227 1478.48 973.644 Q1478.48 979.223 1475.01 982.324 Q1471.53 985.403 1465.22 985.403 Q1463.04 985.403 1460.77 985.033 Q1458.53 984.662 1456.12 983.922 L1456.12 979.223 Q1458.2 980.357 1460.42 980.912 Q1462.65 981.468 1465.12 981.468 Q1469.13 981.468 1471.47 979.362 Q1473.8 977.255 1473.8 973.644 Q1473.8 970.033 1471.47 967.926 Q1469.13 965.82 1465.12 965.82 Q1463.25 965.82 1461.37 966.237 Q1459.52 966.653 1457.58 967.533 L1457.58 950.172 Z" fill="#000000" fill-rule="evenodd" fill-opacity="1" /><path clip-path="url(#clip880)" d="M 0 0 M1493.55 953.251 Q1489.94 953.251 1488.11 956.815 Q1486.3 960.357 1486.3 967.487 Q1486.3 974.593 1488.11 978.158 Q1489.94 981.699 1493.55 981.699 Q1497.18 981.699 1498.99 978.158 Q1500.82 974.593 1500.82 967.487 Q1500.82 960.357 1498.99 956.815 Q1497.18 953.251 1493.55 953.251 M1493.55 949.547 Q1499.36 949.547 1502.41 954.153 Q1505.49 958.737 1505.49 967.487 Q1505.49 976.213 1502.41 980.82 Q1499.36 985.403 1493.55 985.403 Q1487.74 985.403 1484.66 980.82 Q1481.6 976.213 1481.6 967.487 Q1481.6 958.737 1484.66 954.153 Q1487.74 949.547 1493.55 949.547 Z" fill="#000000" fill-rule="evenodd" fill-opacity="1" /><path clip-path="url(#clip880)" d="M 0 0 M1850.71 980.797 L1858.35 980.797 L1858.35 954.431 L1850.04 956.098 L1850.04 951.839 L1858.3 950.172 L1862.98 950.172 L1862.98 980.797 L1870.62 980.797 L1870.62 984.732 L1850.71 984.732 L1850.71 980.797 Z" fill="#000000" fill-rule="evenodd" fill-opacity="1" /><path clip-path="url(#clip880)" d="M 0 0 M1885.69 953.251 Q1882.08 953.251 1880.25 956.815 Q1878.44 960.357 1878.44 967.487 Q1878.44 974.593 1880.25 978.158 Q1882.08 981.699 1885.69 981.699 Q1889.32 981.699 1891.13 978.158 Q1892.96 974.593 1892.96 967.487 Q1892.96 960.357 1891.13 956.815 Q1889.32 953.251 1885.69 953.251 M1885.69 949.547 Q1891.5 949.547 1894.55 954.153 Q1897.63 958.737 1897.63 967.487 Q1897.63 976.213 1894.55 980.82 Q1891.5 985.403 1885.69 985.403 Q1879.88 985.403 1876.8 980.82 Q1873.74 976.213 1873.74 967.487 Q1873.74 958.737 1876.8 954.153 Q1879.88 949.547 1885.69 949.547 Z" fill="#000000" fill-rule="evenodd" fill-opacity="1" /><path clip-path="url(#clip880)" d="M 0 0 M1912.7 953.251 Q1909.09 953.251 1907.26 956.815 Q1905.46 960.357 1905.46 967.487 Q1905.46 974.593 1907.26 978.158 Q1909.09 981.699 1912.7 981.699 Q1916.34 981.699 1918.14 978.158 Q1919.97 974.593 1919.97 967.487 Q1919.97 960.357 1918.14 956.815 Q1916.34 953.251 1912.7 953.251 M1912.7 949.547 Q1918.51 949.547 1921.57 954.153 Q1924.65 958.737 1924.65 967.487 Q1924.65 976.213 1921.57 980.82 Q1918.51 985.403 1912.7 985.403 Q1906.89 985.403 1903.81 980.82 Q1900.76 976.213 1900.76 967.487 Q1900.76 958.737 1903.81 954.153 Q1906.89 949.547 1912.7 949.547 Z" fill="#000000" fill-rule="evenodd" fill-opacity="1" /><path clip-path="url(#clip880)" d="M 0 0 M1939.72 953.251 Q1936.1 953.251 1934.28 956.815 Q1932.47 960.357 1932.47 967.487 Q1932.47 974.593 1934.28 978.158 Q1936.1 981.699 1939.72 981.699 Q1943.35 981.699 1945.16 978.158 Q1946.98 974.593 1946.98 967.487 Q1946.98 960.357 1945.16 956.815 Q1943.35 953.251 1939.72 953.251 M1939.72 949.547 Q1945.53 949.547 1948.58 954.153 Q1951.66 958.737 1951.66 967.487 Q1951.66 976.213 1948.58 980.82 Q1945.53 985.403 1939.72 985.403 Q1933.91 985.403 1930.83 980.82 Q1927.77 976.213 1927.77 967.487 Q1927.77 958.737 1930.83 954.153 Q1933.91 949.547 1939.72 949.547 Z" fill="#000000" fill-rule="evenodd" fill-opacity="1" /><path clip-path="url(#clip880)" d="M 0 0 M917.76 1012.6 L924.189 1012.6 L924.189 1060.12 L917.76 1060.12 L917.76 1012.6 Z" fill="#000000" fill-rule="evenodd" fill-opacity="1" /><path clip-path="url(#clip880)" d="M 0 0 M936.125 1014.35 L936.125 1024.48 L948.188 1024.48 L948.188 1029.03 L936.125 1029.03 L936.125 1048.38 Q936.125 1052.74 937.302 1053.98 Q938.512 1055.22 942.172 1055.22 L948.188 1055.22 L948.188 1060.12 L942.172 1060.12 Q935.393 1060.12 932.815 1057.61 Q930.236 1055.06 930.236 1048.38 L930.236 1029.03 L925.94 1029.03 L925.94 1024.48 L930.236 1024.48 L930.236 1014.35 L936.125 1014.35 Z" fill="#000000" fill-rule="evenodd" fill-opacity="1" /><path clip-path="url(#clip880)" d="M 0 0 M984.822 1040.84 L984.822 1043.7 L957.895 1043.7 Q958.277 1049.75 961.524 1052.93 Q964.802 1056.08 970.627 1056.08 Q974.001 1056.08 977.152 1055.25 Q980.335 1054.43 983.454 1052.77 L983.454 1058.31 Q980.303 1059.65 976.993 1060.35 Q973.682 1061.05 970.277 1061.05 Q961.747 1061.05 956.75 1056.08 Q951.784 1051.12 951.784 1042.65 Q951.784 1033.9 956.495 1028.77 Q961.237 1023.62 969.258 1023.62 Q976.451 1023.62 980.621 1028.26 Q984.822 1032.88 984.822 1040.84 M978.966 1039.12 Q978.902 1034.31 976.261 1031.45 Q973.651 1028.58 969.322 1028.58 Q964.42 1028.58 961.46 1031.35 Q958.532 1034.12 958.086 1039.15 L978.966 1039.12 Z" fill="#000000" fill-rule="evenodd" fill-opacity="1" /><path clip-path="url(#clip880)" d="M 0 0 M1011.62 1029.95 Q1010.64 1029.38 1009.46 1029.12 Q1008.31 1028.84 1006.91 1028.84 Q1001.95 1028.84 999.273 1032.08 Q996.631 1035.3 996.631 1041.35 L996.631 1060.12 L990.742 1060.12 L990.742 1024.48 L996.631 1024.48 L996.631 1030.01 Q998.477 1026.77 1001.44 1025.21 Q1004.4 1023.62 1008.63 1023.62 Q1009.23 1023.62 1009.97 1023.71 Q1010.7 1023.78 1011.59 1023.93 L1011.62 1029.95 Z" fill="#000000" fill-rule="evenodd" fill-opacity="1" /><path clip-path="url(#clip880)" d="M 0 0 M1033.97 1042.2 Q1026.87 1042.2 1024.13 1043.83 Q1021.39 1045.45 1021.39 1049.37 Q1021.39 1052.48 1023.43 1054.33 Q1025.5 1056.15 1029.03 1056.15 Q1033.9 1056.15 1036.83 1052.71 Q1039.79 1049.24 1039.79 1043.51 L1039.79 1042.2 L1033.97 1042.2 M1045.65 1039.79 L1045.65 1060.12 L1039.79 1060.12 L1039.79 1054.71 Q1037.79 1057.96 1034.79 1059.52 Q1031.8 1061.05 1027.47 1061.05 Q1022 1061.05 1018.75 1057.99 Q1015.54 1054.9 1015.54 1049.75 Q1015.54 1043.73 1019.55 1040.68 Q1023.59 1037.62 1031.58 1037.62 L1039.79 1037.62 L1039.79 1037.05 Q1039.79 1033.01 1037.12 1030.81 Q1034.47 1028.58 1029.67 1028.58 Q1026.61 1028.58 1023.72 1029.31 Q1020.82 1030.05 1018.15 1031.51 L1018.15 1026.1 Q1021.36 1024.86 1024.39 1024.25 Q1027.41 1023.62 1030.27 1023.62 Q1038.01 1023.62 1041.83 1027.63 Q1045.65 1031.64 1045.65 1039.79 Z" fill="#000000" fill-rule="evenodd" fill-opacity="1" /><path clip-path="url(#clip880)" d="M 0 0 M1057.58 1014.35 L1057.58 1024.48 L1069.65 1024.48 L1069.65 1029.03 L1057.58 1029.03 L1057.58 1048.38 Q1057.58 1052.74 1058.76 1053.98 Q1059.97 1055.22 1063.63 1055.22 L1069.65 1055.22 L1069.65 1060.12 L1063.63 1060.12 Q1056.85 1060.12 1054.27 1057.61 Q1051.69 1055.06 1051.69 1048.38 L1051.69 1029.03 L1047.4 1029.03 L1047.4 1024.48 L1051.69 1024.48 L1051.69 1014.35 L1057.58 1014.35 Z" fill="#000000" fill-rule="evenodd" fill-opacity="1" /><path clip-path="url(#clip880)" d="M 0 0 M1075.79 1024.48 L1081.64 1024.48 L1081.64 1060.12 L1075.79 1060.12 L1075.79 1024.48 M1075.79 1010.6 L1081.64 1010.6 L1081.64 1018.01 L1075.79 1018.01 L1075.79 1010.6 Z" fill="#000000" fill-rule="evenodd" fill-opacity="1" /><path clip-path="url(#clip880)" d="M 0 0 M1101.6 1028.58 Q1096.89 1028.58 1094.15 1032.27 Q1091.42 1035.93 1091.42 1042.33 Q1091.42 1048.73 1094.12 1052.42 Q1096.86 1056.08 1101.6 1056.08 Q1106.28 1056.08 1109.02 1052.39 Q1111.75 1048.7 1111.75 1042.33 Q1111.75 1036 1109.02 1032.31 Q1106.28 1028.58 1101.6 1028.58 M1101.6 1023.62 Q1109.24 1023.62 1113.6 1028.58 Q1117.96 1033.55 1117.96 1042.33 Q1117.96 1051.08 1113.6 1056.08 Q1109.24 1061.05 1101.6 1061.05 Q1093.93 1061.05 1089.57 1056.08 Q1085.24 1051.08 1085.24 1042.33 Q1085.24 1033.55 1089.57 1028.58 Q1093.93 1023.62 1101.6 1023.62 Z" fill="#000000" fill-rule="evenodd" fill-opacity="1" /><path clip-path="url(#clip880)" d="M 0 0 M1153.74 1038.61 L1153.74 1060.12 L1147.88 1060.12 L1147.88 1038.8 Q1147.88 1033.74 1145.91 1031.22 Q1143.93 1028.71 1139.99 1028.71 Q1135.24 1028.71 1132.51 1031.73 Q1129.77 1034.76 1129.77 1039.98 L1129.77 1060.12 L1123.88 1060.12 L1123.88 1024.48 L1129.77 1024.48 L1129.77 1030.01 Q1131.87 1026.8 1134.7 1025.21 Q1137.57 1023.62 1141.29 1023.62 Q1147.43 1023.62 1150.59 1027.44 Q1153.74 1031.22 1153.74 1038.61 Z" fill="#000000" fill-rule="evenodd" fill-opacity="1" /><polyline clip-path="url(#clip882)" style="stroke:#000000; stroke-width:2; stroke-opacity:0.1; fill:none" points="
  118.74,871.272 1952.76,871.272 
  "/>
<polyline clip-path="url(#clip882)" style="stroke:#000000; stroke-width:2; stroke-opacity:0.1; fill:none" points="
  118.74,665.622 1952.76,665.622 
  "/>
<polyline clip-path="url(#clip882)" style="stroke:#000000; stroke-width:2; stroke-opacity:0.1; fill:none" points="
  118.74,459.973 1952.76,459.973 
  "/>
<polyline clip-path="url(#clip882)" style="stroke:#000000; stroke-width:2; stroke-opacity:0.1; fill:none" points="
  118.74,254.323 1952.76,254.323 
  "/>
<polyline clip-path="url(#clip880)" style="stroke:#000000; stroke-width:4; stroke-opacity:1; fill:none" points="
  118.74,911.26 118.74,62.9921 
  "/>
<polyline clip-path="url(#clip880)" style="stroke:#000000; stroke-width:4; stroke-opacity:1; fill:none" points="
  118.74,871.272 140.748,871.272 
  "/>
<polyline clip-path="url(#clip880)" style="stroke:#000000; stroke-width:4; stroke-opacity:1; fill:none" points="
  118.74,665.622 140.748,665.622 
  "/>
<polyline clip-path="url(#clip880)" style="stroke:#000000; stroke-width:4; stroke-opacity:1; fill:none" points="
  118.74,459.973 140.748,459.973 
  "/>
<polyline clip-path="url(#clip880)" style="stroke:#000000; stroke-width:4; stroke-opacity:1; fill:none" points="
  118.74,254.323 140.748,254.323 
  "/>
<path clip-path="url(#clip880)" d="M 0 0 M11.4256 857.071 Q7.8145 857.071 5.98581 860.636 Q4.18026 864.177 4.18026 871.307 Q4.18026 878.413 5.98581 881.978 Q7.8145 885.52 11.4256 885.52 Q15.0598 885.52 16.8654 881.978 Q18.6941 878.413 18.6941 871.307 Q18.6941 864.177 16.8654 860.636 Q15.0598 857.071 11.4256 857.071 M11.4256 853.367 Q17.2358 853.367 20.2913 857.974 Q23.37 862.557 23.37 871.307 Q23.37 880.034 20.2913 884.64 Q17.2358 889.223 11.4256 889.223 Q5.61544 889.223 2.53675 884.64 Q-0.518784 880.034 -0.518784 871.307 Q-0.518784 862.557 2.53675 857.974 Q5.61544 853.367 11.4256 853.367 Z" fill="#000000" fill-rule="evenodd" fill-opacity="1" /><path clip-path="url(#clip880)" d="M 0 0 M28.4394 882.672 L33.3236 882.672 L33.3236 888.552 L28.4394 888.552 L28.4394 882.672 Z" fill="#000000" fill-rule="evenodd" fill-opacity="1" /><path clip-path="url(#clip880)" d="M 0 0 M42.4208 884.617 L58.7402 884.617 L58.7402 888.552 L36.7958 888.552 L36.7958 884.617 Q39.4579 881.862 44.0412 877.233 Q48.6476 872.58 49.8282 871.237 Q52.0735 868.714 52.9532 866.978 Q53.8559 865.219 53.8559 863.529 Q53.8559 860.774 51.9115 859.038 Q49.9902 857.302 46.8884 857.302 Q44.6893 857.302 42.2356 858.066 Q39.8051 858.83 37.0273 860.381 L37.0273 855.659 Q39.8514 854.524 42.3051 853.946 Q44.7588 853.367 46.7958 853.367 Q52.1661 853.367 55.3605 856.052 Q58.555 858.737 58.555 863.228 Q58.555 865.358 57.7448 867.279 Q56.9578 869.177 54.8513 871.77 Q54.2726 872.441 51.1708 875.659 Q48.0689 878.853 42.4208 884.617 Z" fill="#000000" fill-rule="evenodd" fill-opacity="1" /><path clip-path="url(#clip880)" d="M 0 0 M9.34227 651.421 Q5.73118 651.421 3.90249 654.986 Q2.09694 658.527 2.09694 665.657 Q2.09694 672.763 3.90249 676.328 Q5.73118 679.87 9.34227 679.87 Q12.9765 679.87 14.7821 676.328 Q16.6108 672.763 16.6108 665.657 Q16.6108 658.527 14.7821 654.986 Q12.9765 651.421 9.34227 651.421 M9.34227 647.717 Q15.1524 647.717 18.208 652.324 Q21.2867 656.907 21.2867 665.657 Q21.2867 674.384 18.208 678.99 Q15.1524 683.574 9.34227 683.574 Q3.53212 683.574 0.453433 678.99 Q-2.60211 674.384 -2.60211 665.657 Q-2.60211 656.907 0.453433 652.324 Q3.53212 647.717 9.34227 647.717 Z" fill="#000000" fill-rule="evenodd" fill-opacity="1" /><path clip-path="url(#clip880)" d="M 0 0 M26.3561 677.023 L31.2403 677.023 L31.2403 682.902 L26.3561 682.902 L26.3561 677.023 Z" fill="#000000" fill-rule="evenodd" fill-opacity="1" /><path clip-path="url(#clip880)" d="M 0 0 M49.1569 652.416 L37.3514 670.865 L49.1569 670.865 L49.1569 652.416 M47.93 648.342 L53.8096 648.342 L53.8096 670.865 L58.7402 670.865 L58.7402 674.754 L53.8096 674.754 L53.8096 682.902 L49.1569 682.902 L49.1569 674.754 L33.5551 674.754 L33.5551 670.24 L47.93 648.342 Z" fill="#000000" fill-rule="evenodd" fill-opacity="1" /><path clip-path="url(#clip880)" d="M 0 0 M9.66635 445.771 Q6.05525 445.771 4.22656 449.336 Q2.42101 452.878 2.42101 460.007 Q2.42101 467.114 4.22656 470.679 Q6.05525 474.22 9.66635 474.22 Q13.3006 474.22 15.1061 470.679 Q16.9348 467.114 16.9348 460.007 Q16.9348 452.878 15.1061 449.336 Q13.3006 445.771 9.66635 445.771 M9.66635 442.068 Q15.4765 442.068 18.532 446.674 Q21.6107 451.257 21.6107 460.007 Q21.6107 468.734 18.532 473.341 Q15.4765 477.924 9.66635 477.924 Q3.85619 477.924 0.777505 473.341 Q-2.27803 468.734 -2.27803 460.007 Q-2.27803 451.257 0.777505 446.674 Q3.85619 442.068 9.66635 442.068 Z" fill="#000000" fill-rule="evenodd" fill-opacity="1" /><path clip-path="url(#clip880)" d="M 0 0 M26.6801 471.373 L31.5644 471.373 L31.5644 477.253 L26.6801 477.253 L26.6801 471.373 Z" fill="#000000" fill-rule="evenodd" fill-opacity="1" /><path clip-path="url(#clip880)" d="M 0 0 M47.2124 458.109 Q44.0643 458.109 42.2125 460.262 Q40.3838 462.415 40.3838 466.165 Q40.3838 469.891 42.2125 472.067 Q44.0643 474.22 47.2124 474.22 Q50.3606 474.22 52.1893 472.067 Q54.0411 469.891 54.0411 466.165 Q54.0411 462.415 52.1893 460.262 Q50.3606 458.109 47.2124 458.109 M56.4948 443.456 L56.4948 447.716 Q54.7355 446.882 52.93 446.443 Q51.1476 446.003 49.3884 446.003 Q44.7588 446.003 42.3051 449.128 Q39.8745 452.253 39.5273 458.572 Q40.893 456.558 42.9532 455.493 Q45.0134 454.405 47.4902 454.405 Q52.6985 454.405 55.7078 457.577 Q58.7402 460.725 58.7402 466.165 Q58.7402 471.489 55.592 474.706 Q52.4439 477.924 47.2124 477.924 Q41.2171 477.924 38.0458 473.341 Q34.8745 468.734 34.8745 460.007 Q34.8745 451.813 38.7634 446.952 Q42.6523 442.068 49.2032 442.068 Q50.9624 442.068 52.7448 442.415 Q54.5504 442.762 56.4948 443.456 Z" fill="#000000" fill-rule="evenodd" fill-opacity="1" /><path clip-path="url(#clip880)" d="M 0 0 M9.92097 240.121 Q6.30988 240.121 4.48119 243.686 Q2.67564 247.228 2.67564 254.358 Q2.67564 261.464 4.48119 265.029 Q6.30988 268.57 9.92097 268.57 Q13.5552 268.57 15.3608 265.029 Q17.1895 261.464 17.1895 254.358 Q17.1895 247.228 15.3608 243.686 Q13.5552 240.121 9.92097 240.121 M9.92097 236.418 Q15.7311 236.418 18.7867 241.024 Q21.8654 245.608 21.8654 254.358 Q21.8654 263.084 18.7867 267.691 Q15.7311 272.274 9.92097 272.274 Q4.11082 272.274 1.03213 267.691 Q-2.02341 263.084 -2.02341 254.358 Q-2.02341 245.608 1.03213 241.024 Q4.11082 236.418 9.92097 236.418 Z" fill="#000000" fill-rule="evenodd" fill-opacity="1" /><path clip-path="url(#clip880)" d="M 0 0 M26.9348 265.723 L31.819 265.723 L31.819 271.603 L26.9348 271.603 L26.9348 265.723 Z" fill="#000000" fill-rule="evenodd" fill-opacity="1" /><path clip-path="url(#clip880)" d="M 0 0 M46.8884 255.191 Q43.5551 255.191 41.6338 256.973 Q39.7356 258.756 39.7356 261.881 Q39.7356 265.006 41.6338 266.788 Q43.5551 268.57 46.8884 268.57 Q50.2217 268.57 52.143 266.788 Q54.0643 264.982 54.0643 261.881 Q54.0643 258.756 52.143 256.973 Q50.2448 255.191 46.8884 255.191 M42.2125 253.2 Q39.2032 252.459 37.5134 250.399 Q35.8468 248.339 35.8468 245.376 Q35.8468 241.233 38.7866 238.825 Q41.7495 236.418 46.8884 236.418 Q52.0504 236.418 54.9902 238.825 Q57.93 241.233 57.93 245.376 Q57.93 248.339 56.2402 250.399 Q54.5735 252.459 51.5874 253.2 Q54.967 253.987 56.842 256.279 Q58.7402 258.57 58.7402 261.881 Q58.7402 266.904 55.6615 269.589 Q52.6059 272.274 46.8884 272.274 Q41.1708 272.274 38.0921 269.589 Q35.0366 266.904 35.0366 261.881 Q35.0366 258.57 36.9347 256.279 Q38.8329 253.987 42.2125 253.2 M40.4995 245.816 Q40.4995 248.501 42.1662 250.006 Q43.856 251.51 46.8884 251.51 Q49.8976 251.51 51.5874 250.006 Q53.3004 248.501 53.3004 245.816 Q53.3004 243.131 51.5874 241.626 Q49.8976 240.121 46.8884 240.121 Q43.856 240.121 42.1662 241.626 Q40.4995 243.131 40.4995 245.816 Z" fill="#000000" fill-rule="evenodd" fill-opacity="1" /><path clip-path="url(#clip880)" d="M 0 0 M-82.8185 650.184 L-76.5483 650.184 Q-78.2989 653.844 -79.1582 657.09 Q-80.0176 660.337 -80.0176 663.361 Q-80.0176 668.612 -77.9806 671.477 Q-75.9435 674.31 -72.1878 674.31 Q-69.0368 674.31 -67.4135 672.432 Q-65.8221 670.522 -64.8354 665.238 L-64.0397 661.355 Q-62.671 654.162 -59.2017 650.756 Q-55.7643 647.319 -49.9715 647.319 Q-43.0647 647.319 -39.4999 651.966 Q-35.9351 656.581 -35.9351 665.525 Q-35.9351 668.899 -36.699 672.718 Q-37.4628 676.506 -38.9588 680.58 L-45.5791 680.58 Q-43.383 676.665 -42.269 672.909 Q-41.155 669.153 -41.155 665.525 Q-41.155 660.019 -43.3193 657.027 Q-45.4836 654.035 -49.494 654.035 Q-52.9952 654.035 -54.9685 656.199 Q-56.9419 658.332 -57.9286 663.233 L-58.6925 667.148 Q-60.1248 674.341 -63.1803 677.556 Q-66.2358 680.771 -71.6785 680.771 Q-77.9806 680.771 -81.609 676.347 Q-85.2375 671.891 -85.2375 664.093 Q-85.2375 660.751 -84.6327 657.281 Q-84.028 653.812 -82.8185 650.184 Z" fill="#000000" fill-rule="evenodd" fill-opacity="1" /><path clip-path="url(#clip880)" d="M 0 0 M-54.7776 624.975 Q-54.7776 632.073 -53.1543 634.81 Q-51.5311 637.548 -47.6162 637.548 Q-44.497 637.548 -42.6509 635.511 Q-40.8367 633.442 -40.8367 629.909 Q-40.8367 625.039 -44.2742 622.111 Q-47.7435 619.151 -53.4726 619.151 L-54.7776 619.151 L-54.7776 624.975 M-57.1965 613.294 L-36.8581 613.294 L-36.8581 619.151 L-42.269 619.151 Q-39.0224 621.156 -37.4628 624.148 Q-35.9351 627.14 -35.9351 631.468 Q-35.9351 636.943 -38.9906 640.189 Q-42.078 643.404 -47.2342 643.404 Q-53.2498 643.404 -56.3053 639.394 Q-59.3609 635.351 -59.3609 627.363 L-59.3609 619.151 L-59.9338 619.151 Q-63.976 619.151 -66.1722 621.824 Q-68.4002 624.466 -68.4002 629.272 Q-68.4002 632.328 -67.6681 635.224 Q-66.9361 638.121 -65.472 640.794 L-70.8828 640.794 Q-72.1241 637.579 -72.7289 634.556 Q-73.3654 631.532 -73.3654 628.667 Q-73.3654 620.933 -69.355 617.114 Q-65.3446 613.294 -57.1965 613.294 Z" fill="#000000" fill-rule="evenodd" fill-opacity="1" /><path clip-path="url(#clip880)" d="M 0 0 M-65.6629 579.397 Q-69.6097 577.201 -71.4876 574.145 Q-73.3654 571.09 -73.3654 566.952 Q-73.3654 561.382 -69.4505 558.358 Q-65.5674 555.335 -58.3742 555.335 L-36.8581 555.335 L-36.8581 561.223 L-58.1832 561.223 Q-63.3076 561.223 -65.7902 563.037 Q-68.2729 564.851 -68.2729 568.575 Q-68.2729 573.127 -65.2492 575.768 Q-62.2254 578.41 -57.0056 578.41 L-36.8581 578.41 L-36.8581 584.298 L-58.1832 584.298 Q-63.3394 584.298 -65.7902 586.113 Q-68.2729 587.927 -68.2729 591.715 Q-68.2729 596.202 -65.2173 598.844 Q-62.1936 601.486 -57.0056 601.486 L-36.8581 601.486 L-36.8581 607.374 L-72.5061 607.374 L-72.5061 601.486 L-66.9679 601.486 Q-70.2462 599.481 -71.8058 596.68 Q-73.3654 593.879 -73.3654 590.028 Q-73.3654 586.145 -71.3921 583.439 Q-69.4187 580.702 -65.6629 579.397 Z" fill="#000000" fill-rule="evenodd" fill-opacity="1" /><path clip-path="url(#clip880)" d="M 0 0 M-42.2053 543.526 L-23.2992 543.526 L-23.2992 549.414 L-72.5061 549.414 L-72.5061 543.526 L-67.0952 543.526 Q-70.2781 541.68 -71.8058 538.879 Q-73.3654 536.046 -73.3654 532.132 Q-73.3654 525.639 -68.2092 521.596 Q-63.053 517.522 -54.6503 517.522 Q-46.2475 517.522 -41.0913 521.596 Q-35.9351 525.639 -35.9351 532.132 Q-35.9351 536.046 -37.4628 538.879 Q-39.0224 541.68 -42.2053 543.526 M-54.6503 523.601 Q-61.1114 523.601 -64.7717 526.275 Q-68.4638 528.917 -68.4638 533.564 Q-68.4638 538.211 -64.7717 540.884 Q-61.1114 543.526 -54.6503 543.526 Q-48.1891 543.526 -44.497 540.884 Q-40.8367 538.211 -40.8367 533.564 Q-40.8367 528.917 -44.497 526.275 Q-48.1891 523.601 -54.6503 523.601 Z" fill="#000000" fill-rule="evenodd" fill-opacity="1" /><path clip-path="url(#clip880)" d="M 0 0 M-86.3833 511.379 L-86.3833 505.523 L-36.8581 505.523 L-36.8581 511.379 L-86.3833 511.379 Z" fill="#000000" fill-rule="evenodd" fill-opacity="1" /><path clip-path="url(#clip880)" d="M 0 0 M-56.1462 468.888 L-53.2816 468.888 L-53.2816 495.815 Q-47.2342 495.433 -44.0514 492.187 Q-40.9003 488.908 -40.9003 483.084 Q-40.9003 479.71 -41.7279 476.559 Q-42.5554 473.376 -44.2105 470.257 L-38.6723 470.257 Q-37.3355 473.408 -36.6353 476.718 Q-35.9351 480.028 -35.9351 483.434 Q-35.9351 491.964 -40.9003 496.961 Q-45.8656 501.926 -54.332 501.926 Q-63.0848 501.926 -68.2092 497.216 Q-73.3654 492.473 -73.3654 484.452 Q-73.3654 477.259 -68.7185 473.09 Q-64.1033 468.888 -56.1462 468.888 M-57.8649 474.745 Q-62.671 474.808 -65.5356 477.45 Q-68.4002 480.06 -68.4002 484.389 Q-68.4002 489.29 -65.6311 492.25 Q-62.862 495.179 -57.8331 495.624 L-57.8649 474.745 Z" fill="#000000" fill-rule="evenodd" fill-opacity="1" /><path clip-path="url(#clip880)" d="M 0 0 M-72.5061 446.226 L-72.5061 440.02 L-42.5872 428.88 L-72.5061 417.74 L-72.5061 411.533 L-36.8581 424.901 L-36.8581 432.858 L-72.5061 446.226 Z" fill="#000000" fill-rule="evenodd" fill-opacity="1" /><path clip-path="url(#clip880)" d="M 0 0 M-54.7776 389.19 Q-54.7776 396.287 -53.1543 399.025 Q-51.5311 401.762 -47.6162 401.762 Q-44.497 401.762 -42.6509 399.725 Q-40.8367 397.656 -40.8367 394.123 Q-40.8367 389.253 -44.2742 386.325 Q-47.7435 383.365 -53.4726 383.365 L-54.7776 383.365 L-54.7776 389.19 M-57.1965 377.509 L-36.8581 377.509 L-36.8581 383.365 L-42.269 383.365 Q-39.0224 385.37 -37.4628 388.362 Q-35.9351 391.354 -35.9351 395.683 Q-35.9351 401.157 -38.9906 404.404 Q-42.078 407.618 -47.2342 407.618 Q-53.2498 407.618 -56.3053 403.608 Q-59.3609 399.566 -59.3609 391.577 L-59.3609 383.365 L-59.9338 383.365 Q-63.976 383.365 -66.1722 386.039 Q-68.4002 388.68 -68.4002 393.486 Q-68.4002 396.542 -67.6681 399.438 Q-66.9361 402.335 -65.472 405.008 L-70.8828 405.008 Q-72.1241 401.794 -72.7289 398.77 Q-73.3654 395.746 -73.3654 392.882 Q-73.3654 385.147 -69.355 381.328 Q-65.3446 377.509 -57.1965 377.509 Z" fill="#000000" fill-rule="evenodd" fill-opacity="1" /><path clip-path="url(#clip880)" d="M 0 0 M-86.3833 371.366 L-86.3833 365.509 L-36.8581 365.509 L-36.8581 371.366 L-86.3833 371.366 Z" fill="#000000" fill-rule="evenodd" fill-opacity="1" /><path clip-path="url(#clip880)" d="M 0 0 M-50.9263 359.971 L-72.5061 359.971 L-72.5061 354.115 L-51.1491 354.115 Q-46.0884 354.115 -43.5421 352.141 Q-41.0276 350.168 -41.0276 346.221 Q-41.0276 341.479 -44.0514 338.741 Q-47.0751 335.972 -52.2949 335.972 L-72.5061 335.972 L-72.5061 330.116 L-36.8581 330.116 L-36.8581 335.972 L-42.3326 335.972 Q-39.0861 338.105 -37.4947 340.938 Q-35.9351 343.738 -35.9351 347.462 Q-35.9351 353.605 -39.7545 356.788 Q-43.5739 359.971 -50.9263 359.971 M-73.3654 345.234 L-73.3654 345.234 Z" fill="#000000" fill-rule="evenodd" fill-opacity="1" /><path clip-path="url(#clip880)" d="M 0 0 M-56.1462 293.481 L-53.2816 293.481 L-53.2816 320.408 Q-47.2342 320.026 -44.0514 316.78 Q-40.9003 313.501 -40.9003 307.677 Q-40.9003 304.303 -41.7279 301.152 Q-42.5554 297.969 -44.2105 294.85 L-38.6723 294.85 Q-37.3355 298.001 -36.6353 301.311 Q-35.9351 304.621 -35.9351 308.027 Q-35.9351 316.557 -40.9003 321.554 Q-45.8656 326.519 -54.332 326.519 Q-63.0848 326.519 -68.2092 321.809 Q-73.3654 317.066 -73.3654 309.045 Q-73.3654 301.852 -68.7185 297.683 Q-64.1033 293.481 -56.1462 293.481 M-57.8649 299.338 Q-62.671 299.401 -65.5356 302.043 Q-68.4002 304.653 -68.4002 308.982 Q-68.4002 313.883 -65.6311 316.843 Q-62.862 319.772 -57.8331 320.217 L-57.8649 299.338 Z" fill="#000000" fill-rule="evenodd" fill-opacity="1" /><path clip-path="url(#clip880)" d="M 0 0 M1048.63 43.8146 L1022.83 43.8146 Q1023.43 55.9268 1026.23 61.0714 Q1029.71 67.3908 1035.75 67.3908 Q1041.82 67.3908 1045.19 61.0309 Q1048.14 55.4407 1048.63 43.8146 M1048.51 36.928 Q1047.37 25.4235 1045.19 21.3726 Q1041.7 14.9721 1035.75 14.9721 Q1029.55 14.9721 1026.27 21.2916 Q1023.68 26.3957 1022.91 36.928 L1048.51 36.928 M1035.75 8.89579 Q1045.47 8.89579 1051.02 17.4837 Q1056.57 26.0311 1056.57 41.1815 Q1056.57 56.2914 1051.02 64.8793 Q1045.47 73.5077 1035.75 73.5077 Q1025.99 73.5077 1020.48 64.8793 Q1014.93 56.2914 1014.93 41.1815 Q1014.93 26.0311 1020.48 17.4837 Q1025.99 8.89579 1035.75 8.89579 Z" fill="#000000" fill-rule="evenodd" fill-opacity="1" /><polyline clip-path="url(#clip882)" style="stroke:#009af9; stroke-width:4; stroke-opacity:1; fill:none" points="
  170.646,479.801 172.378,360.11 174.11,394.408 175.842,379.062 177.574,368.224 179.306,211.744 181.038,371.856 182.77,411.416 184.502,349.992 186.234,502.063 
  187.966,587.602 189.698,255.325 191.429,616.876 193.161,616.876 194.893,453.928 196.625,619.479 198.357,402.076 200.089,412.968 201.821,489.618 203.553,344.15 
  205.285,344.15 207.017,483.459 208.749,478.7 210.481,561.51 212.213,649.888 213.945,609.015 215.677,609.015 217.409,628.17 219.14,512.561 220.872,512.561 
  222.604,559.314 224.336,458.363 226.068,792.184 227.8,650.787 229.532,521.852 231.264,480.43 232.996,369.465 234.728,430.911 236.46,380.703 238.192,264.793 
  239.924,267.984 241.656,371.676 243.388,434.042 245.119,495.226 246.851,495.226 248.583,535.385 250.315,414.711 252.047,319.504 253.779,526.853 255.511,723.781 
  257.243,144.234 258.975,193.512 260.707,220.436 262.439,186.343 264.171,186.31 265.903,310.644 267.635,194.368 269.367,296.582 271.099,384.505 272.83,239.601 
  274.562,642.821 276.294,590.834 278.026,483.507 279.758,656.612 281.49,447.518 283.222,333.846 284.954,449.063 286.686,582.392 288.418,542.566 290.15,534.149 
  291.882,269.564 293.614,290.869 295.346,349.149 297.078,484.219 298.809,360.514 300.541,438.154 302.273,370.272 304.005,286.926 305.737,268.274 307.469,268.274 
  309.201,394.766 310.933,416.781 312.665,462.492 314.397,451.61 316.129,517.254 317.861,512.414 319.593,412.83 321.325,333.47 323.057,328.286 324.789,169.916 
  326.52,238.835 328.252,274.798 329.984,587.559 331.716,250.748 333.448,373.062 335.18,360.537 336.912,493.722 338.644,101.878 340.376,320.321 342.108,320.321 
  343.84,293.032 345.572,259.23 347.304,219.507 349.036,185.582 350.768,249.936 352.499,219.31 354.231,257.167 355.963,257.167 357.695,118.578 359.427,265.706 
  361.159,291.193 362.891,209.225 364.623,278.665 366.355,455.577 368.087,508.723 369.819,466.132 371.551,322.826 373.283,359.496 375.015,314.797 376.747,537.704 
  378.479,496.277 380.21,520.99 381.942,520.99 383.674,705.365 385.406,208.909 387.138,592.283 388.87,472.054 390.602,472.054 392.334,472.054 394.066,336.298 
  395.798,329.727 397.53,173.126 399.262,307.756 400.994,264.176 402.726,289.932 404.458,575.302 406.189,291.982 407.921,390.691 409.653,448.431 411.385,439.603 
  413.117,676.944 414.849,631.118 416.581,698.811 418.313,557.698 420.045,285.298 421.777,385.118 423.509,464.767 425.241,495.48 426.973,641.638 428.705,434.215 
  430.437,620.954 432.169,221.387 433.9,179.268 435.632,188.267 437.364,314.25 439.096,300.786 440.828,484.527 442.56,300.754 444.292,397.221 446.024,247.887 
  447.756,573.252 449.488,292.112 451.22,237.167 452.952,219.933 454.684,152.919 456.416,128.011 458.148,201.848 459.879,179.922 461.611,153.224 463.343,206.158 
  465.075,350.393 466.807,277.703 468.539,256.445 470.271,582.713 472.003,445.551 473.735,619.389 475.467,231.57 477.199,194.814 478.931,175.308 480.663,216.428 
  482.395,316.992 484.127,415.151 485.859,415.151 487.59,359.041 489.322,359.041 491.054,253.592 492.786,552.89 494.518,552.89 496.25,415.848 497.982,371.379 
  499.714,411.375 501.446,838.747 503.178,887.252 504.91,403.93 506.642,408.937 508.374,407.407 510.106,373.691 511.838,128.399 513.569,190.089 515.301,363.617 
  517.033,253.765 518.765,404.062 520.497,517.159 522.229,559.957 523.961,477.495 525.693,516.783 527.425,516.783 529.157,309.913 530.889,265.525 532.621,265.525 
  534.353,390.548 536.085,285.351 537.817,217.098 539.549,264.567 541.28,202.081 543.012,239.282 544.744,196.242 546.476,269.177 548.208,425.293 549.94,325.268 
  551.672,399.571 553.404,433.417 555.136,433.417 556.868,433.417 558.6,600.304 560.332,264.305 562.064,255.618 563.796,163.674 565.528,210.658 567.259,235.19 
  568.991,280.489 570.723,521.842 572.455,524.196 574.187,694.983 575.919,529.474 577.651,268.912 579.383,292.928 581.115,292.928 582.847,373.017 584.579,448.023 
  586.311,401.872 588.043,661.269 589.775,539.951 591.507,539.951 593.239,662.642 594.97,538.51 596.702,483.302 598.434,523.015 600.166,523.015 601.898,661.896 
  603.63,537.306 605.362,606.254 607.094,572.837 608.826,642.538 610.558,595.429 612.29,413.515 614.022,374.586 615.754,275.736 617.486,286.055 619.218,201.613 
  620.949,714.099 622.681,469.83 624.413,343.018 626.145,478.772 627.877,478.772 629.609,478.772 631.341,276.193 633.073,419.024 634.805,645.067 636.537,408.289 
  638.269,408.289 640.001,329.837 641.733,340.739 643.465,502.458 645.197,502.458 646.929,643.797 648.66,239.222 650.392,335.42 652.124,284.74 653.856,590.009 
  655.588,681.647 657.32,594.156 659.052,238.1 660.784,660.737 662.516,194.06 664.248,692.308 665.98,651.702 667.712,559.705 669.444,213.998 671.176,223.901 
  672.908,361.896 674.639,290.324 676.371,363.912 678.103,264.663 679.835,168.174 681.567,375.325 683.299,347.003 685.031,268.651 686.763,538.381 688.495,442.692 
  690.227,539.891 691.959,555.974 693.691,293.553 695.423,208.329 697.155,208.329 698.887,337.346 700.619,218.19 702.35,374.645 704.082,299.862 705.814,96.7997 
  707.546,188.545 709.278,660.683 711.01,496.049 712.742,624.221 714.474,211.684 716.206,358.599 717.938,311.175 719.67,397.594 721.402,444.684 723.134,586.321 
  724.866,586.321 726.598,665.017 728.329,665.017 730.061,485.162 731.793,485.162 733.525,361.384 735.257,492.734 736.989,574.085 738.721,241.417 740.453,363.794 
  742.185,261.308 743.917,615.867 745.649,522.892 747.381,443.86 749.113,438.695 750.845,613.055 752.577,246.649 754.309,520.936 756.04,520.936 757.772,418.212 
  759.504,430.366 761.236,374.866 762.968,394.508 764.7,394.508 766.432,388.967 768.164,384.24 769.896,384.24 771.628,309.194 773.36,309.194 775.092,540.493 
  776.824,434.664 778.556,504.182 780.288,446.275 782.019,446.275 783.751,602.574 785.483,581.652 787.215,239.752 788.947,195.98 790.679,391.823 792.411,325.177 
  794.143,301.225 795.875,537.631 797.607,562.405 799.339,279.689 801.071,370.67 802.803,394.567 804.535,286.753 806.267,267.058 807.999,263.612 809.73,309.03 
  811.462,487.415 813.194,688.726 814.926,415.483 816.658,415.483 818.39,379.228 820.122,395.301 821.854,449.112 823.586,331.197 825.318,474.967 827.05,310.881 
  828.782,494.078 830.514,429.868 832.246,429.868 833.978,298.553 835.709,568.021 837.441,456.059 839.173,456.059 840.905,636.222 842.637,559.554 844.369,506.81 
  846.101,559.475 847.833,698.459 849.565,529.959 851.297,309.019 853.029,415.352 854.761,535.879 856.493,662.843 858.225,441.997 859.957,335.879 861.689,358.355 
  863.42,401.436 865.152,401.436 866.884,308.978 868.616,308.978 870.348,323.087 872.08,480.5 873.812,437.631 875.544,339.234 877.276,339.234 879.008,252.465 
  880.74,300.651 882.472,530.977 884.204,427.252 885.936,322.791 887.668,185.002 889.399,260.446 891.131,621.061 892.863,255.709 894.595,314.171 896.327,313.482 
  898.059,522.939 899.791,285.06 901.523,218.213 903.255,636.758 904.987,636.758 906.719,600.1 908.451,598.3 910.183,276.334 911.915,276.334 913.647,529.252 
  915.379,485.517 917.11,485.517 918.842,336.734 920.574,365.05 922.306,233.782 924.038,591.158 925.77,246.83 927.502,246.83 929.234,136.253 930.966,131.479 
  932.698,86.9997 934.43,167.951 936.162,273.444 937.894,351.347 939.626,351.347 941.358,160.663 943.089,306.683 944.821,288.449 946.553,303.437 948.285,125.856 
  950.017,530.517 951.749,285.848 953.481,327.818 955.213,448.247 956.945,447.372 958.677,451.682 960.409,451.682 962.141,574.621 963.873,635.284 965.605,246.275 
  967.337,365.164 969.069,412.557 970.8,540 972.532,711.91 974.264,501.387 975.996,501.387 977.728,456.339 979.46,631.131 981.192,255.228 982.924,327.073 
  984.656,510.107 986.388,704.62 988.12,207.621 989.852,379.948 991.584,363.123 993.316,332.854 995.048,224.712 996.779,300.443 998.511,308.079 1000.24,383.993 
  1001.98,183.517 1003.71,677.325 1005.44,556.149 1007.17,583.528 1008.9,289.528 1010.63,557.345 1012.37,251.412 1014.1,382.188 1015.83,431.288 1017.56,498.726 
  1019.29,498.726 1021.03,733.807 1022.76,624.245 1024.49,579.322 1026.22,451.3 1027.95,430.492 1029.69,486.641 1031.42,304.528 1033.15,387.936 1034.88,316.595 
  1036.61,316.595 1038.35,495.407 1040.08,466.175 1041.81,369.528 1043.54,240.166 1045.27,636.738 1047.01,519.314 1048.74,330.607 1050.47,240.839 1052.2,241.412 
  1053.93,266.327 1055.67,554.947 1057.4,310.548 1059.13,421.854 1060.86,421.854 1062.59,411.331 1064.32,117.636 1066.06,201.052 1067.79,201.397 1069.52,202.354 
  1071.25,202.926 1072.98,303.44 1074.72,114.046 1076.45,109.662 1078.18,263.04 1079.91,164.443 1081.64,172.226 1083.38,197.648 1085.11,357.347 1086.84,426.954 
  1088.57,573.144 1090.3,464.816 1092.04,490.379 1093.77,475.932 1095.5,464.185 1097.23,484.71 1098.96,468.141 1100.7,468.141 1102.43,468.141 1104.16,410.18 
  1105.89,410.18 1107.62,439.342 1109.36,409.48 1111.09,278.484 1112.82,382.751 1114.55,382.751 1116.28,300.836 1118.01,311.695 1119.75,505.689 1121.48,559.343 
  1123.21,528.695 1124.94,621.193 1126.67,647.11 1128.41,442.043 1130.14,520.983 1131.87,520.983 1133.6,520.983 1135.33,520.983 1137.07,442.389 1138.8,369.662 
  1140.53,398.803 1142.26,524.029 1143.99,499.363 1145.73,303.02 1147.46,235.429 1149.19,604.483 1150.92,604.483 1152.65,265.162 1154.39,331.815 1156.12,527.385 
  1157.85,527.385 1159.58,590.622 1161.31,231.383 1163.05,381.963 1164.78,381.963 1166.51,218.285 1168.24,366.24 1169.97,276.797 1171.7,281.955 1173.44,223.65 
  1175.17,255.268 1176.9,367.343 1178.63,297.017 1180.36,380.454 1182.1,362.908 1183.83,362.908 1185.56,347.552 1187.29,135.713 1189.02,156.298 1190.76,136.293 
  1192.49,737.465 1194.22,428.24 1195.95,346.951 1197.68,346.951 1199.42,346.951 1201.15,416.851 1202.88,213.268 1204.61,267.098 1206.34,546.83 1208.08,448.907 
  1209.81,448.907 1211.54,398.29 1213.27,366.491 1215,397.702 1216.74,362.948 1218.47,310.054 1220.2,537.421 1221.93,674.318 1223.66,562.054 1225.39,592.397 
  1227.13,448.593 1228.86,448.593 1230.59,392.069 1232.32,145.113 1234.05,440.167 1235.79,498.617 1237.52,544 1239.25,319.359 1240.98,415.08 1242.71,415.08 
  1244.45,300.368 1246.18,391.262 1247.91,329.138 1249.64,506.47 1251.37,506.47 1253.11,506.47 1254.84,475.15 1256.57,475.15 1258.3,578.329 1260.03,512.571 
  1261.77,512.571 1263.5,455.954 1265.23,387.448 1266.96,360.632 1268.69,490.035 1270.43,490.035 1272.16,527.154 1273.89,182.908 1275.62,258.301 1277.35,373.864 
  1279.08,478.175 1280.82,494.364 1282.55,334.85 1284.28,537.835 1286.01,461.333 1287.74,577.924 1289.48,653.832 1291.21,528.274 1292.94,660.133 1294.67,537.633 
  1296.4,318.087 1298.14,243.483 1299.87,268.135 1301.6,268.135 1303.33,227.732 1305.06,378.824 1306.8,280.769 1308.53,232.282 1310.26,668.984 1311.99,203.05 
  1313.72,385.047 1315.46,385.047 1317.19,410.675 1318.92,715.61 1320.65,461.718 1322.38,507.455 1324.12,328.178 1325.85,339.173 1327.58,475.752 1329.31,475.752 
  1331.04,642.569 1332.77,395.552 1334.51,341.33 1336.24,314.776 1337.97,405.987 1339.7,501.735 1341.43,351.902 1343.17,449.682 1344.9,442.835 1346.63,458.539 
  1348.36,458.539 1350.09,458.539 1351.83,382.142 1353.56,424.442 1355.29,424.442 1357.02,424.442 1358.75,424.442 1360.49,402.575 1362.22,402.575 1363.95,402.575 
  1365.68,396.744 1367.41,387.125 1369.15,421.852 1370.88,369.305 1372.61,398.228 1374.34,629.75 1376.07,433.16 1377.81,332.63 1379.54,490.493 1381.27,572.338 
  1383,549.232 1384.73,313.8 1386.46,306.062 1388.2,352.079 1389.93,352.079 1391.66,265.953 1393.39,426.176 1395.12,506.297 1396.86,650.129 1398.59,189.2 
  1400.32,191.076 1402.05,152.915 1403.78,371.2 1405.52,272.439 1407.25,399.918 1408.98,380.063 1410.71,161.994 1412.44,764.133 1414.18,724.877 1415.91,707.283 
  1417.64,182.142 1419.37,182.614 1421.1,273.429 1422.84,277.787 1424.57,367.811 1426.3,384.405 1428.03,489.424 1429.76,330.424 1431.5,356.835 1433.23,356.835 
  1434.96,288.975 1436.69,584.13 1438.42,275.255 1440.15,388.11 1441.89,224.561 1443.62,228.707 1445.35,277.905 1447.08,200.108 1448.81,355.909 1450.55,355.909 
  1452.28,355.909 1454.01,498.495 1455.74,578.137 1457.47,578.137 1459.21,567.772 1460.94,472.906 1462.67,437.329 1464.4,472.868 1466.13,317.677 1467.87,330.838 
  1469.6,421.827 1471.33,421.827 1473.06,580.605 1474.79,791.52 1476.53,468.984 1478.26,468.984 1479.99,320.139 1481.72,388.981 1483.45,387.161 1485.19,241.045 
  1486.92,366.234 1488.65,362.084 1490.38,331.68 1492.11,445.789 1493.84,459.536 1495.58,431.939 1497.31,431.939 1499.04,517.369 1500.77,480.829 1502.5,347.331 
  1504.24,251.676 1505.97,627.717 1507.7,645.408 1509.43,234.936 1511.16,404.756 1512.9,577.703 1514.63,577.703 1516.36,495.75 1518.09,427.737 1519.82,427.737 
  1521.56,524.973 1523.29,334.33 1525.02,414.484 1526.75,709.716 1528.48,692.134 1530.22,434.726 1531.95,253.724 1533.68,589.557 1535.41,671.488 1537.14,512.534 
  1538.88,490.317 1540.61,490.317 1542.34,490.317 1544.07,490.317 1545.8,535.995 1547.53,535.864 1549.27,596.514 1551,596.514 1552.73,607.397 1554.46,444.511 
  1556.19,275.258 1557.93,488.909 1559.66,488.909 1561.39,488.909 1563.12,524.561 1564.85,524.561 1566.59,328.345 1568.32,496.641 1570.05,472.057 1571.78,315.568 
  1573.51,171.256 1575.25,350.886 1576.98,416.498 1578.71,394.74 1580.44,394.74 1582.17,278.83 1583.91,522.04 1585.64,522.04 1587.37,500.587 1589.1,614.335 
  1590.83,387.318 1592.57,387.318 1594.3,434.867 1596.03,394.639 1597.76,394.639 1599.49,694.552 1601.22,719.515 1602.96,721.956 1604.69,170.043 1606.42,259.964 
  1608.15,407.39 1609.88,370.445 1611.62,466.423 1613.35,691.414 1615.08,205.33 1616.81,706.594 1618.54,766.313 1620.28,553.69 1622.01,607.633 1623.74,607.633 
  1625.47,425.528 1627.2,425.528 1628.94,640.7 1630.67,233.132 1632.4,619.33 1634.13,789.453 1635.86,364.251 1637.6,393.407 1639.33,393.407 1641.06,393.407 
  1642.79,296.732 1644.52,411.115 1646.26,411.115 1647.99,394.123 1649.72,394.123 1651.45,424.307 1653.18,443.084 1654.91,706.333 1656.65,706.333 1658.38,543.909 
  1660.11,295.079 1661.84,317.286 1663.57,361.751 1665.31,238.933 1667.04,336.041 1668.77,336.041 1670.5,491.633 1672.23,577.316 1673.97,565.584 1675.7,454.191 
  1677.43,433.033 1679.16,433.033 1680.89,501.021 1682.63,501.021 1684.36,343.935 1686.09,478.69 1687.82,478.69 1689.55,324.749 1691.29,389.353 1693.02,360.494 
  1694.75,321.673 1696.48,321.673 1698.21,398.945 1699.95,265.88 1701.68,565.32 1703.41,646.599 1705.14,534.58 1706.87,433.156 1708.6,145.642 1710.34,385.776 
  1712.07,382.049 1713.8,382.049 1715.53,307.213 1717.26,520.285 1719,306.394 1720.73,257.596 1722.46,406.948 1724.19,337.78 1725.92,458.645 1727.66,499.982 
  1729.39,499.982 1731.12,559.35 1732.85,648.268 1734.58,245.486 1736.32,376.295 1738.05,376.295 1739.78,360.713 1741.51,402.878 1743.24,550.099 1744.98,243.311 
  1746.71,180.315 1748.44,349.769 1750.17,335.361 1751.9,379.637 1753.64,401.085 1755.37,361.722 1757.1,376.933 1758.83,329.08 1760.56,307.13 1762.29,307.13 
  1764.03,218.246 1765.76,245.019 1767.49,174.796 1769.22,377.623 1770.95,383.178 1772.69,447.467 1774.42,447.467 1776.15,447.467 1777.88,554.49 1779.61,607.178 
  1781.35,486.985 1783.08,671.967 1784.81,414.451 1786.54,399.932 1788.27,399.932 1790.01,250.363 1791.74,637.341 1793.47,651.799 1795.2,514.81 1796.93,515.252 
  1798.67,540.328 1800.4,514.636 1802.13,428.298 1803.86,426.689 1805.59,495.765 1807.33,591.3 1809.06,591.3 1810.79,536.793 1812.52,731.885 1814.25,406.466 
  1815.98,391.25 1817.72,419.501 1819.45,265.442 1821.18,534.493 1822.91,206.345 1824.64,336.088 1826.38,279.764 1828.11,454.89 1829.84,471.567 1831.57,379.773 
  1833.3,390.351 1835.04,297.764 1836.77,171.848 1838.5,302.853 1840.23,388.209 1841.96,388.209 1843.7,384.461 1845.43,355.1 1847.16,129.755 1848.89,178.426 
  1850.62,344.849 1852.36,321.393 1854.09,422.973 1855.82,422.973 1857.55,422.973 1859.28,366.385 1861.02,429.647 1862.75,377.269 1864.48,469.45 1866.21,259.353 
  1867.94,593.061 1869.67,438.28 1871.41,450.413 1873.14,429.445 1874.87,540.11 1876.6,277.016 1878.33,257.553 1880.07,372.968 1881.8,363.799 1883.53,354.349 
  1885.26,326.429 1886.99,342.548 1888.73,253.271 1890.46,511.304 1892.19,342.94 1893.92,276.293 1895.65,289.998 1897.39,505.289 1899.12,199.871 1900.85,254.623 
  
  "/>
<path clip-path="url(#clip880)" d="
M2118.74 911.26 L3952.76 911.26 L3952.76 62.9921 L2118.74 62.9921  Z
  " fill="#ffffff" fill-rule="evenodd" fill-opacity="1"/>
<defs>
  <clipPath id="clip883">
    <rect x="2118" y="62" width="1835" height="849"/>
  </clipPath>
</defs>
<polyline clip-path="url(#clip883)" style="stroke:#000000; stroke-width:2; stroke-opacity:0.1; fill:none" points="
  2405.74,911.26 2405.74,62.9921 
  "/>
<polyline clip-path="url(#clip883)" style="stroke:#000000; stroke-width:2; stroke-opacity:0.1; fill:none" points="
  2743.01,911.26 2743.01,62.9921 
  "/>
<polyline clip-path="url(#clip883)" style="stroke:#000000; stroke-width:2; stroke-opacity:0.1; fill:none" points="
  3080.28,911.26 3080.28,62.9921 
  "/>
<polyline clip-path="url(#clip883)" style="stroke:#000000; stroke-width:2; stroke-opacity:0.1; fill:none" points="
  3417.55,911.26 3417.55,62.9921 
  "/>
<polyline clip-path="url(#clip883)" style="stroke:#000000; stroke-width:2; stroke-opacity:0.1; fill:none" points="
  3754.82,911.26 3754.82,62.9921 
  "/>
<polyline clip-path="url(#clip880)" style="stroke:#000000; stroke-width:4; stroke-opacity:1; fill:none" points="
  2118.74,911.26 3952.76,911.26 
  "/>
<polyline clip-path="url(#clip880)" style="stroke:#000000; stroke-width:4; stroke-opacity:1; fill:none" points="
  2405.74,911.26 2405.74,901.081 
  "/>
<polyline clip-path="url(#clip880)" style="stroke:#000000; stroke-width:4; stroke-opacity:1; fill:none" points="
  2743.01,911.26 2743.01,901.081 
  "/>
<polyline clip-path="url(#clip880)" style="stroke:#000000; stroke-width:4; stroke-opacity:1; fill:none" points="
  3080.28,911.26 3080.28,901.081 
  "/>
<polyline clip-path="url(#clip880)" style="stroke:#000000; stroke-width:4; stroke-opacity:1; fill:none" points="
  3417.55,911.26 3417.55,901.081 
  "/>
<polyline clip-path="url(#clip880)" style="stroke:#000000; stroke-width:4; stroke-opacity:1; fill:none" points="
  3754.82,911.26 3754.82,901.081 
  "/>
<path clip-path="url(#clip880)" d="M 0 0 M2388.06 953.251 Q2384.45 953.251 2382.62 956.815 Q2380.81 960.357 2380.81 967.487 Q2380.81 974.593 2382.62 978.158 Q2384.45 981.699 2388.06 981.699 Q2391.69 981.699 2393.5 978.158 Q2395.33 974.593 2395.33 967.487 Q2395.33 960.357 2393.5 956.815 Q2391.69 953.251 2388.06 953.251 M2388.06 949.547 Q2393.87 949.547 2396.92 954.153 Q2400 958.737 2400 967.487 Q2400 976.213 2396.92 980.82 Q2393.87 985.403 2388.06 985.403 Q2382.25 985.403 2379.17 980.82 Q2376.11 976.213 2376.11 967.487 Q2376.11 958.737 2379.17 954.153 Q2382.25 949.547 2388.06 949.547 Z" fill="#000000" fill-rule="evenodd" fill-opacity="1" /><path clip-path="url(#clip880)" d="M 0 0 M2405.07 978.852 L2409.96 978.852 L2409.96 984.732 L2405.07 984.732 L2405.07 978.852 Z" fill="#000000" fill-rule="evenodd" fill-opacity="1" /><path clip-path="url(#clip880)" d="M 0 0 M2419.05 980.797 L2435.37 980.797 L2435.37 984.732 L2413.43 984.732 L2413.43 980.797 Q2416.09 978.042 2420.67 973.412 Q2425.28 968.76 2426.46 967.417 Q2428.71 964.894 2429.59 963.158 Q2430.49 961.399 2430.49 959.709 Q2430.49 956.954 2428.54 955.218 Q2426.62 953.482 2423.52 953.482 Q2421.32 953.482 2418.87 954.246 Q2416.44 955.01 2413.66 956.561 L2413.66 951.839 Q2416.48 950.704 2418.94 950.126 Q2421.39 949.547 2423.43 949.547 Q2428.8 949.547 2431.99 952.232 Q2435.19 954.917 2435.19 959.408 Q2435.19 961.538 2434.38 963.459 Q2433.59 965.357 2431.48 967.95 Q2430.91 968.621 2427.8 971.838 Q2424.7 975.033 2419.05 980.797 Z" fill="#000000" fill-rule="evenodd" fill-opacity="1" /><path clip-path="url(#clip880)" d="M 0 0 M2724.28 953.251 Q2720.67 953.251 2718.85 956.815 Q2717.04 960.357 2717.04 967.487 Q2717.04 974.593 2718.85 978.158 Q2720.67 981.699 2724.28 981.699 Q2727.92 981.699 2729.72 978.158 Q2731.55 974.593 2731.55 967.487 Q2731.55 960.357 2729.72 956.815 Q2727.92 953.251 2724.28 953.251 M2724.28 949.547 Q2730.1 949.547 2733.15 954.153 Q2736.23 958.737 2736.23 967.487 Q2736.23 976.213 2733.15 980.82 Q2730.1 985.403 2724.28 985.403 Q2718.47 985.403 2715.4 980.82 Q2712.34 976.213 2712.34 967.487 Q2712.34 958.737 2715.4 954.153 Q2718.47 949.547 2724.28 949.547 Z" fill="#000000" fill-rule="evenodd" fill-opacity="1" /><path clip-path="url(#clip880)" d="M 0 0 M2741.3 978.852 L2746.18 978.852 L2746.18 984.732 L2741.3 984.732 L2741.3 978.852 Z" fill="#000000" fill-rule="evenodd" fill-opacity="1" /><path clip-path="url(#clip880)" d="M 0 0 M2764.1 954.246 L2752.29 972.695 L2764.1 972.695 L2764.1 954.246 M2762.87 950.172 L2768.75 950.172 L2768.75 972.695 L2773.68 972.695 L2773.68 976.584 L2768.75 976.584 L2768.75 984.732 L2764.1 984.732 L2764.1 976.584 L2748.5 976.584 L2748.5 972.07 L2762.87 950.172 Z" fill="#000000" fill-rule="evenodd" fill-opacity="1" /><path clip-path="url(#clip880)" d="M 0 0 M3061.72 953.251 Q3058.1 953.251 3056.28 956.815 Q3054.47 960.357 3054.47 967.487 Q3054.47 974.593 3056.28 978.158 Q3058.1 981.699 3061.72 981.699 Q3065.35 981.699 3067.16 978.158 Q3068.98 974.593 3068.98 967.487 Q3068.98 960.357 3067.16 956.815 Q3065.35 953.251 3061.72 953.251 M3061.72 949.547 Q3067.53 949.547 3070.58 954.153 Q3073.66 958.737 3073.66 967.487 Q3073.66 976.213 3070.58 980.82 Q3067.53 985.403 3061.72 985.403 Q3055.91 985.403 3052.83 980.82 Q3049.77 976.213 3049.77 967.487 Q3049.77 958.737 3052.83 954.153 Q3055.91 949.547 3061.72 949.547 Z" fill="#000000" fill-rule="evenodd" fill-opacity="1" /><path clip-path="url(#clip880)" d="M 0 0 M3078.73 978.852 L3083.61 978.852 L3083.61 984.732 L3078.73 984.732 L3078.73 978.852 Z" fill="#000000" fill-rule="evenodd" fill-opacity="1" /><path clip-path="url(#clip880)" d="M 0 0 M3099.26 965.588 Q3096.11 965.588 3094.26 967.741 Q3092.43 969.894 3092.43 973.644 Q3092.43 977.371 3094.26 979.547 Q3096.11 981.699 3099.26 981.699 Q3102.41 981.699 3104.24 979.547 Q3106.09 977.371 3106.09 973.644 Q3106.09 969.894 3104.24 967.741 Q3102.41 965.588 3099.26 965.588 M3108.54 950.936 L3108.54 955.195 Q3106.78 954.362 3104.98 953.922 Q3103.2 953.482 3101.44 953.482 Q3096.81 953.482 3094.35 956.607 Q3091.92 959.732 3091.58 966.051 Q3092.94 964.038 3095 962.973 Q3097.06 961.885 3099.54 961.885 Q3104.75 961.885 3107.76 965.056 Q3110.79 968.204 3110.79 973.644 Q3110.79 978.968 3107.64 982.186 Q3104.49 985.403 3099.26 985.403 Q3093.27 985.403 3090.09 980.82 Q3086.92 976.213 3086.92 967.487 Q3086.92 959.292 3090.81 954.431 Q3094.7 949.547 3101.25 949.547 Q3103.01 949.547 3104.79 949.894 Q3106.6 950.241 3108.54 950.936 Z" fill="#000000" fill-rule="evenodd" fill-opacity="1" /><path clip-path="url(#clip880)" d="M 0 0 M3399.11 953.251 Q3395.5 953.251 3393.67 956.815 Q3391.87 960.357 3391.87 967.487 Q3391.87 974.593 3393.67 978.158 Q3395.5 981.699 3399.11 981.699 Q3402.75 981.699 3404.55 978.158 Q3406.38 974.593 3406.38 967.487 Q3406.38 960.357 3404.55 956.815 Q3402.75 953.251 3399.11 953.251 M3399.11 949.547 Q3404.92 949.547 3407.98 954.153 Q3411.06 958.737 3411.06 967.487 Q3411.06 976.213 3407.98 980.82 Q3404.92 985.403 3399.11 985.403 Q3393.3 985.403 3390.22 980.82 Q3387.17 976.213 3387.17 967.487 Q3387.17 958.737 3390.22 954.153 Q3393.3 949.547 3399.11 949.547 Z" fill="#000000" fill-rule="evenodd" fill-opacity="1" /><path clip-path="url(#clip880)" d="M 0 0 M3416.12 978.852 L3421.01 978.852 L3421.01 984.732 L3416.12 984.732 L3416.12 978.852 Z" fill="#000000" fill-rule="evenodd" fill-opacity="1" /><path clip-path="url(#clip880)" d="M 0 0 M3436.08 968.32 Q3432.75 968.32 3430.82 970.102 Q3428.93 971.885 3428.93 975.01 Q3428.93 978.135 3430.82 979.917 Q3432.75 981.699 3436.08 981.699 Q3439.41 981.699 3441.33 979.917 Q3443.25 978.112 3443.25 975.01 Q3443.25 971.885 3441.33 970.102 Q3439.43 968.32 3436.08 968.32 M3431.4 966.329 Q3428.39 965.588 3426.7 963.528 Q3425.04 961.468 3425.04 958.505 Q3425.04 954.362 3427.98 951.954 Q3430.94 949.547 3436.08 949.547 Q3441.24 949.547 3444.18 951.954 Q3447.12 954.362 3447.12 958.505 Q3447.12 961.468 3445.43 963.528 Q3443.76 965.588 3440.78 966.329 Q3444.16 967.116 3446.03 969.408 Q3447.93 971.7 3447.93 975.01 Q3447.93 980.033 3444.85 982.718 Q3441.8 985.403 3436.08 985.403 Q3430.36 985.403 3427.28 982.718 Q3424.23 980.033 3424.23 975.01 Q3424.23 971.7 3426.12 969.408 Q3428.02 967.116 3431.4 966.329 M3429.69 958.945 Q3429.69 961.63 3431.36 963.135 Q3433.05 964.639 3436.08 964.639 Q3439.09 964.639 3440.78 963.135 Q3442.49 961.63 3442.49 958.945 Q3442.49 956.26 3440.78 954.755 Q3439.09 953.251 3436.08 953.251 Q3433.05 953.251 3431.36 954.755 Q3429.69 956.26 3429.69 958.945 Z" fill="#000000" fill-rule="evenodd" fill-opacity="1" /><path clip-path="url(#clip880)" d="M 0 0 M3726.72 980.797 L3734.35 980.797 L3734.35 954.431 L3726.04 956.098 L3726.04 951.839 L3734.31 950.172 L3738.98 950.172 L3738.98 980.797 L3746.62 980.797 L3746.62 984.732 L3726.72 984.732 L3726.72 980.797 Z" fill="#000000" fill-rule="evenodd" fill-opacity="1" /><path clip-path="url(#clip880)" d="M 0 0 M3751.69 978.852 L3756.58 978.852 L3756.58 984.732 L3751.69 984.732 L3751.69 978.852 Z" fill="#000000" fill-rule="evenodd" fill-opacity="1" /><path clip-path="url(#clip880)" d="M 0 0 M3771.65 953.251 Q3768.03 953.251 3766.21 956.815 Q3764.4 960.357 3764.4 967.487 Q3764.4 974.593 3766.21 978.158 Q3768.03 981.699 3771.65 981.699 Q3775.28 981.699 3777.09 978.158 Q3778.91 974.593 3778.91 967.487 Q3778.91 960.357 3777.09 956.815 Q3775.28 953.251 3771.65 953.251 M3771.65 949.547 Q3777.46 949.547 3780.51 954.153 Q3783.59 958.737 3783.59 967.487 Q3783.59 976.213 3780.51 980.82 Q3777.46 985.403 3771.65 985.403 Q3765.84 985.403 3762.76 980.82 Q3759.7 976.213 3759.7 967.487 Q3759.7 958.737 3762.76 954.153 Q3765.84 949.547 3771.65 949.547 Z" fill="#000000" fill-rule="evenodd" fill-opacity="1" /><path clip-path="url(#clip880)" d="M 0 0 M2872.69 1014.16 L2872.69 1020.43 Q2869.03 1018.68 2865.78 1017.82 Q2862.54 1016.96 2859.51 1016.96 Q2854.26 1016.96 2851.4 1019 Q2848.56 1021.04 2848.56 1024.79 Q2848.56 1027.95 2850.44 1029.57 Q2852.35 1031.16 2857.64 1032.15 L2861.52 1032.94 Q2868.71 1034.31 2872.12 1037.78 Q2875.56 1041.22 2875.56 1047.01 Q2875.56 1053.92 2870.91 1057.48 Q2866.29 1061.05 2857.35 1061.05 Q2853.98 1061.05 2850.16 1060.28 Q2846.37 1059.52 2842.29 1058.02 L2842.29 1051.4 Q2846.21 1053.6 2849.96 1054.71 Q2853.72 1055.83 2857.35 1055.83 Q2862.86 1055.83 2865.85 1053.66 Q2868.84 1051.5 2868.84 1047.49 Q2868.84 1043.99 2866.67 1042.01 Q2864.54 1040.04 2859.64 1039.05 L2855.73 1038.29 Q2848.53 1036.86 2845.32 1033.8 Q2842.1 1030.75 2842.1 1025.3 Q2842.1 1019 2846.53 1015.37 Q2850.98 1011.74 2858.78 1011.74 Q2862.12 1011.74 2865.59 1012.35 Q2869.06 1012.95 2872.69 1014.16 Z" fill="#000000" fill-rule="evenodd" fill-opacity="1" /><path clip-path="url(#clip880)" d="M 0 0 M2897.9 1042.2 Q2890.8 1042.2 2888.06 1043.83 Q2885.33 1045.45 2885.33 1049.37 Q2885.33 1052.48 2887.36 1054.33 Q2889.43 1056.15 2892.97 1056.15 Q2897.83 1056.15 2900.76 1052.71 Q2903.72 1049.24 2903.72 1043.51 L2903.72 1042.2 L2897.9 1042.2 M2909.58 1039.79 L2909.58 1060.12 L2903.72 1060.12 L2903.72 1054.71 Q2901.72 1057.96 2898.73 1059.52 Q2895.73 1061.05 2891.41 1061.05 Q2885.93 1061.05 2882.68 1057.99 Q2879.47 1054.9 2879.47 1049.75 Q2879.47 1043.73 2883.48 1040.68 Q2887.52 1037.62 2895.51 1037.62 L2903.72 1037.62 L2903.72 1037.05 Q2903.72 1033.01 2901.05 1030.81 Q2898.41 1028.58 2893.6 1028.58 Q2890.55 1028.58 2887.65 1029.31 Q2884.75 1030.05 2882.08 1031.51 L2882.08 1026.1 Q2885.29 1024.86 2888.32 1024.25 Q2891.34 1023.62 2894.21 1023.62 Q2901.94 1023.62 2905.76 1027.63 Q2909.58 1031.64 2909.58 1039.79 Z" fill="#000000" fill-rule="evenodd" fill-opacity="1" /><path clip-path="url(#clip880)" d="M 0 0 M2943.48 1031.32 Q2945.67 1027.37 2948.73 1025.49 Q2951.78 1023.62 2955.92 1023.62 Q2961.49 1023.62 2964.52 1027.53 Q2967.54 1031.41 2967.54 1038.61 L2967.54 1060.12 L2961.65 1060.12 L2961.65 1038.8 Q2961.65 1033.67 2959.84 1031.19 Q2958.02 1028.71 2954.3 1028.71 Q2949.75 1028.71 2947.11 1031.73 Q2944.46 1034.76 2944.46 1039.98 L2944.46 1060.12 L2938.58 1060.12 L2938.58 1038.8 Q2938.58 1033.64 2936.76 1031.19 Q2934.95 1028.71 2931.16 1028.71 Q2926.67 1028.71 2924.03 1031.76 Q2921.39 1034.79 2921.39 1039.98 L2921.39 1060.12 L2915.5 1060.12 L2915.5 1024.48 L2921.39 1024.48 L2921.39 1030.01 Q2923.39 1026.74 2926.19 1025.18 Q2929 1023.62 2932.85 1023.62 Q2936.73 1023.62 2939.43 1025.59 Q2942.17 1027.56 2943.48 1031.32 Z" fill="#000000" fill-rule="evenodd" fill-opacity="1" /><path clip-path="url(#clip880)" d="M 0 0 M2979.35 1054.78 L2979.35 1073.68 L2973.46 1073.68 L2973.46 1024.48 L2979.35 1024.48 L2979.35 1029.89 Q2981.19 1026.7 2983.99 1025.18 Q2986.83 1023.62 2990.74 1023.62 Q2997.24 1023.62 3001.28 1028.77 Q3005.35 1033.93 3005.35 1042.33 Q3005.35 1050.73 3001.28 1055.89 Q2997.24 1061.05 2990.74 1061.05 Q2986.83 1061.05 2983.99 1059.52 Q2981.19 1057.96 2979.35 1054.78 M2999.27 1042.33 Q2999.27 1035.87 2996.6 1032.21 Q2993.96 1028.52 2989.31 1028.52 Q2984.66 1028.52 2981.99 1032.21 Q2979.35 1035.87 2979.35 1042.33 Q2979.35 1048.79 2981.99 1052.48 Q2984.66 1056.15 2989.31 1056.15 Q2993.96 1056.15 2996.6 1052.48 Q2999.27 1048.79 2999.27 1042.33 Z" fill="#000000" fill-rule="evenodd" fill-opacity="1" /><path clip-path="url(#clip880)" d="M 0 0 M3011.49 1010.6 L3017.35 1010.6 L3017.35 1060.12 L3011.49 1060.12 L3011.49 1010.6 Z" fill="#000000" fill-rule="evenodd" fill-opacity="1" /><path clip-path="url(#clip880)" d="M 0 0 M3053.99 1040.84 L3053.99 1043.7 L3027.06 1043.7 Q3027.44 1049.75 3030.69 1052.93 Q3033.97 1056.08 3039.79 1056.08 Q3043.16 1056.08 3046.32 1055.25 Q3049.5 1054.43 3052.62 1052.77 L3052.62 1058.31 Q3049.47 1059.65 3046.16 1060.35 Q3042.85 1061.05 3039.44 1061.05 Q3030.91 1061.05 3025.91 1056.08 Q3020.95 1051.12 3020.95 1042.65 Q3020.95 1033.9 3025.66 1028.77 Q3030.4 1023.62 3038.42 1023.62 Q3045.61 1023.62 3049.78 1028.26 Q3053.99 1032.88 3053.99 1040.84 M3048.13 1039.12 Q3048.07 1034.31 3045.42 1031.45 Q3042.81 1028.58 3038.49 1028.58 Q3033.58 1028.58 3030.62 1031.35 Q3027.7 1034.12 3027.25 1039.15 L3048.13 1039.12 Z" fill="#000000" fill-rule="evenodd" fill-opacity="1" /><path clip-path="url(#clip880)" d="M 0 0 M3076.65 1024.48 L3082.85 1024.48 L3093.99 1054.39 L3105.13 1024.48 L3111.34 1024.48 L3097.97 1060.12 L3090.02 1060.12 L3076.65 1024.48 Z" fill="#000000" fill-rule="evenodd" fill-opacity="1" /><path clip-path="url(#clip880)" d="M 0 0 M3133.68 1042.2 Q3126.59 1042.2 3123.85 1043.83 Q3121.11 1045.45 3121.11 1049.37 Q3121.11 1052.48 3123.15 1054.33 Q3125.22 1056.15 3128.75 1056.15 Q3133.62 1056.15 3136.55 1052.71 Q3139.51 1049.24 3139.51 1043.51 L3139.51 1042.2 L3133.68 1042.2 M3145.37 1039.79 L3145.37 1060.12 L3139.51 1060.12 L3139.51 1054.71 Q3137.5 1057.96 3134.51 1059.52 Q3131.52 1061.05 3127.19 1061.05 Q3121.72 1061.05 3118.47 1057.99 Q3115.26 1054.9 3115.26 1049.75 Q3115.26 1043.73 3119.27 1040.68 Q3123.31 1037.62 3131.3 1037.62 L3139.51 1037.62 L3139.51 1037.05 Q3139.51 1033.01 3136.84 1030.81 Q3134.19 1028.58 3129.39 1028.58 Q3126.33 1028.58 3123.44 1029.31 Q3120.54 1030.05 3117.87 1031.51 L3117.87 1026.1 Q3121.08 1024.86 3124.1 1024.25 Q3127.13 1023.62 3129.99 1023.62 Q3137.73 1023.62 3141.55 1027.63 Q3145.37 1031.64 3145.37 1039.79 Z" fill="#000000" fill-rule="evenodd" fill-opacity="1" /><path clip-path="url(#clip880)" d="M 0 0 M3151.51 1010.6 L3157.36 1010.6 L3157.36 1060.12 L3151.51 1060.12 L3151.51 1010.6 Z" fill="#000000" fill-rule="evenodd" fill-opacity="1" /><path clip-path="url(#clip880)" d="M 0 0 M3162.9 1046.06 L3162.9 1024.48 L3168.76 1024.48 L3168.76 1045.83 Q3168.76 1050.89 3170.73 1053.44 Q3172.71 1055.95 3176.65 1055.95 Q3181.4 1055.95 3184.13 1052.93 Q3186.9 1049.91 3186.9 1044.69 L3186.9 1024.48 L3192.76 1024.48 L3192.76 1060.12 L3186.9 1060.12 L3186.9 1054.65 Q3184.77 1057.9 3181.94 1059.49 Q3179.14 1061.05 3175.41 1061.05 Q3169.27 1061.05 3166.09 1057.23 Q3162.9 1053.41 3162.9 1046.06 M3177.64 1023.62 L3177.64 1023.62 Z" fill="#000000" fill-rule="evenodd" fill-opacity="1" /><path clip-path="url(#clip880)" d="M 0 0 M3229.39 1040.84 L3229.39 1043.7 L3202.47 1043.7 Q3202.85 1049.75 3206.09 1052.93 Q3209.37 1056.08 3215.2 1056.08 Q3218.57 1056.08 3221.72 1055.25 Q3224.91 1054.43 3228.02 1052.77 L3228.02 1058.31 Q3224.87 1059.65 3221.56 1060.35 Q3218.25 1061.05 3214.85 1061.05 Q3206.32 1061.05 3201.32 1056.08 Q3196.35 1051.12 3196.35 1042.65 Q3196.35 1033.9 3201.07 1028.77 Q3205.81 1023.62 3213.83 1023.62 Q3221.02 1023.62 3225.19 1028.26 Q3229.39 1032.88 3229.39 1040.84 M3223.54 1039.12 Q3223.47 1034.31 3220.83 1031.45 Q3218.22 1028.58 3213.89 1028.58 Q3208.99 1028.58 3206.03 1031.35 Q3203.1 1034.12 3202.66 1039.15 L3223.54 1039.12 Z" fill="#000000" fill-rule="evenodd" fill-opacity="1" /><polyline clip-path="url(#clip883)" style="stroke:#000000; stroke-width:2; stroke-opacity:0.1; fill:none" points="
  2118.74,887.254 3952.76,887.254 
  "/>
<polyline clip-path="url(#clip883)" style="stroke:#000000; stroke-width:2; stroke-opacity:0.1; fill:none" points="
  2118.74,745.951 3952.76,745.951 
  "/>
<polyline clip-path="url(#clip883)" style="stroke:#000000; stroke-width:2; stroke-opacity:0.1; fill:none" points="
  2118.74,604.648 3952.76,604.648 
  "/>
<polyline clip-path="url(#clip883)" style="stroke:#000000; stroke-width:2; stroke-opacity:0.1; fill:none" points="
  2118.74,463.345 3952.76,463.345 
  "/>
<polyline clip-path="url(#clip883)" style="stroke:#000000; stroke-width:2; stroke-opacity:0.1; fill:none" points="
  2118.74,322.042 3952.76,322.042 
  "/>
<polyline clip-path="url(#clip883)" style="stroke:#000000; stroke-width:2; stroke-opacity:0.1; fill:none" points="
  2118.74,180.739 3952.76,180.739 
  "/>
<polyline clip-path="url(#clip880)" style="stroke:#000000; stroke-width:4; stroke-opacity:1; fill:none" points="
  2118.74,911.26 2118.74,62.9921 
  "/>
<polyline clip-path="url(#clip880)" style="stroke:#000000; stroke-width:4; stroke-opacity:1; fill:none" points="
  2118.74,887.254 2140.75,887.254 
  "/>
<polyline clip-path="url(#clip880)" style="stroke:#000000; stroke-width:4; stroke-opacity:1; fill:none" points="
  2118.74,745.951 2140.75,745.951 
  "/>
<polyline clip-path="url(#clip880)" style="stroke:#000000; stroke-width:4; stroke-opacity:1; fill:none" points="
  2118.74,604.648 2140.75,604.648 
  "/>
<polyline clip-path="url(#clip880)" style="stroke:#000000; stroke-width:4; stroke-opacity:1; fill:none" points="
  2118.74,463.345 2140.75,463.345 
  "/>
<polyline clip-path="url(#clip880)" style="stroke:#000000; stroke-width:4; stroke-opacity:1; fill:none" points="
  2118.74,322.042 2140.75,322.042 
  "/>
<polyline clip-path="url(#clip880)" style="stroke:#000000; stroke-width:4; stroke-opacity:1; fill:none" points="
  2118.74,180.739 2140.75,180.739 
  "/>
<path clip-path="url(#clip880)" d="M 0 0 M2009.83 873.053 Q2006.22 873.053 2004.39 876.618 Q2002.58 880.16 2002.58 887.289 Q2002.58 894.396 2004.39 897.96 Q2006.22 901.502 2009.83 901.502 Q2013.46 901.502 2015.27 897.96 Q2017.1 894.396 2017.1 887.289 Q2017.1 880.16 2015.27 876.618 Q2013.46 873.053 2009.83 873.053 M2009.83 869.349 Q2015.64 869.349 2018.69 873.956 Q2021.77 878.539 2021.77 887.289 Q2021.77 896.016 2018.69 900.622 Q2015.64 905.206 2009.83 905.206 Q2004.02 905.206 2000.94 900.622 Q1997.88 896.016 1997.88 887.289 Q1997.88 878.539 2000.94 873.956 Q2004.02 869.349 2009.83 869.349 Z" fill="#000000" fill-rule="evenodd" fill-opacity="1" /><path clip-path="url(#clip880)" d="M 0 0 M2026.84 898.655 L2031.73 898.655 L2031.73 904.534 L2026.84 904.534 L2026.84 898.655 Z" fill="#000000" fill-rule="evenodd" fill-opacity="1" /><path clip-path="url(#clip880)" d="M 0 0 M2046.8 873.053 Q2043.18 873.053 2041.36 876.618 Q2039.55 880.16 2039.55 887.289 Q2039.55 894.396 2041.36 897.96 Q2043.18 901.502 2046.8 901.502 Q2050.43 901.502 2052.24 897.96 Q2054.06 894.396 2054.06 887.289 Q2054.06 880.16 2052.24 876.618 Q2050.43 873.053 2046.8 873.053 M2046.8 869.349 Q2052.61 869.349 2055.66 873.956 Q2058.74 878.539 2058.74 887.289 Q2058.74 896.016 2055.66 900.622 Q2052.61 905.206 2046.8 905.206 Q2040.99 905.206 2037.91 900.622 Q2034.85 896.016 2034.85 887.289 Q2034.85 878.539 2037.91 873.956 Q2040.99 869.349 2046.8 869.349 Z" fill="#000000" fill-rule="evenodd" fill-opacity="1" /><path clip-path="url(#clip880)" d="M 0 0 M2010.82 731.75 Q2007.21 731.75 2005.38 735.315 Q2003.58 738.857 2003.58 745.986 Q2003.58 753.093 2005.38 756.657 Q2007.21 760.199 2010.82 760.199 Q2014.46 760.199 2016.26 756.657 Q2018.09 753.093 2018.09 745.986 Q2018.09 738.857 2016.26 735.315 Q2014.46 731.75 2010.82 731.75 M2010.82 728.046 Q2016.63 728.046 2019.69 732.653 Q2022.77 737.236 2022.77 745.986 Q2022.77 754.713 2019.69 759.319 Q2016.63 763.903 2010.82 763.903 Q2005.01 763.903 2001.93 759.319 Q1998.88 754.713 1998.88 745.986 Q1998.88 737.236 2001.93 732.653 Q2005.01 728.046 2010.82 728.046 Z" fill="#000000" fill-rule="evenodd" fill-opacity="1" /><path clip-path="url(#clip880)" d="M 0 0 M2027.84 757.352 L2032.72 757.352 L2032.72 763.231 L2027.84 763.231 L2027.84 757.352 Z" fill="#000000" fill-rule="evenodd" fill-opacity="1" /><path clip-path="url(#clip880)" d="M 0 0 M2037.84 728.671 L2056.19 728.671 L2056.19 732.607 L2042.12 732.607 L2042.12 741.079 Q2043.14 740.732 2044.16 740.569 Q2045.18 740.384 2046.19 740.384 Q2051.98 740.384 2055.36 743.556 Q2058.74 746.727 2058.74 752.143 Q2058.74 757.722 2055.27 760.824 Q2051.8 763.903 2045.48 763.903 Q2043.3 763.903 2041.03 763.532 Q2038.79 763.162 2036.38 762.421 L2036.38 757.722 Q2038.46 758.856 2040.68 759.412 Q2042.91 759.968 2045.38 759.968 Q2049.39 759.968 2051.73 757.861 Q2054.06 755.755 2054.06 752.143 Q2054.06 748.532 2051.73 746.426 Q2049.39 744.319 2045.38 744.319 Q2043.51 744.319 2041.63 744.736 Q2039.78 745.153 2037.84 746.032 L2037.84 728.671 Z" fill="#000000" fill-rule="evenodd" fill-opacity="1" /><path clip-path="url(#clip880)" d="M 0 0 M2001.87 617.993 L2009.5 617.993 L2009.5 591.628 L2001.19 593.294 L2001.19 589.035 L2009.46 587.368 L2014.13 587.368 L2014.13 617.993 L2021.77 617.993 L2021.77 621.928 L2001.87 621.928 L2001.87 617.993 Z" fill="#000000" fill-rule="evenodd" fill-opacity="1" /><path clip-path="url(#clip880)" d="M 0 0 M2026.84 616.049 L2031.73 616.049 L2031.73 621.928 L2026.84 621.928 L2026.84 616.049 Z" fill="#000000" fill-rule="evenodd" fill-opacity="1" /><path clip-path="url(#clip880)" d="M 0 0 M2046.8 590.447 Q2043.18 590.447 2041.36 594.012 Q2039.55 597.553 2039.55 604.683 Q2039.55 611.79 2041.36 615.354 Q2043.18 618.896 2046.8 618.896 Q2050.43 618.896 2052.24 615.354 Q2054.06 611.79 2054.06 604.683 Q2054.06 597.553 2052.24 594.012 Q2050.43 590.447 2046.8 590.447 M2046.8 586.743 Q2052.61 586.743 2055.66 591.35 Q2058.74 595.933 2058.74 604.683 Q2058.74 613.41 2055.66 618.016 Q2052.61 622.6 2046.8 622.6 Q2040.99 622.6 2037.91 618.016 Q2034.85 613.41 2034.85 604.683 Q2034.85 595.933 2037.91 591.35 Q2040.99 586.743 2046.8 586.743 Z" fill="#000000" fill-rule="evenodd" fill-opacity="1" /><path clip-path="url(#clip880)" d="M 0 0 M2002.86 476.69 L2010.5 476.69 L2010.5 450.325 L2002.19 451.991 L2002.19 447.732 L2010.45 446.065 L2015.13 446.065 L2015.13 476.69 L2022.77 476.69 L2022.77 480.625 L2002.86 480.625 L2002.86 476.69 Z" fill="#000000" fill-rule="evenodd" fill-opacity="1" /><path clip-path="url(#clip880)" d="M 0 0 M2027.84 474.746 L2032.72 474.746 L2032.72 480.625 L2027.84 480.625 L2027.84 474.746 Z" fill="#000000" fill-rule="evenodd" fill-opacity="1" /><path clip-path="url(#clip880)" d="M 0 0 M2037.84 446.065 L2056.19 446.065 L2056.19 450 L2042.12 450 L2042.12 458.473 Q2043.14 458.125 2044.16 457.963 Q2045.18 457.778 2046.19 457.778 Q2051.98 457.778 2055.36 460.95 Q2058.74 464.121 2058.74 469.537 Q2058.74 475.116 2055.27 478.218 Q2051.8 481.297 2045.48 481.297 Q2043.3 481.297 2041.03 480.926 Q2038.79 480.556 2036.38 479.815 L2036.38 475.116 Q2038.46 476.25 2040.68 476.806 Q2042.91 477.361 2045.38 477.361 Q2049.39 477.361 2051.73 475.255 Q2054.06 473.149 2054.06 469.537 Q2054.06 465.926 2051.73 463.82 Q2049.39 461.713 2045.38 461.713 Q2043.51 461.713 2041.63 462.13 Q2039.78 462.547 2037.84 463.426 L2037.84 446.065 Z" fill="#000000" fill-rule="evenodd" fill-opacity="1" /><path clip-path="url(#clip880)" d="M 0 0 M2005.45 335.387 L2021.77 335.387 L2021.77 339.322 L1999.83 339.322 L1999.83 335.387 Q2002.49 332.633 2007.07 328.003 Q2011.68 323.35 2012.86 322.008 Q2015.11 319.484 2015.99 317.748 Q2016.89 315.989 2016.89 314.299 Q2016.89 311.545 2014.94 309.809 Q2013.02 308.072 2009.92 308.072 Q2007.72 308.072 2005.27 308.836 Q2002.84 309.6 2000.06 311.151 L2000.06 306.429 Q2002.88 305.295 2005.34 304.716 Q2007.79 304.137 2009.83 304.137 Q2015.2 304.137 2018.39 306.822 Q2021.59 309.508 2021.59 313.998 Q2021.59 316.128 2020.78 318.049 Q2019.99 319.947 2017.88 322.54 Q2017.31 323.211 2014.2 326.429 Q2011.1 329.623 2005.45 335.387 Z" fill="#000000" fill-rule="evenodd" fill-opacity="1" /><path clip-path="url(#clip880)" d="M 0 0 M2026.84 333.443 L2031.73 333.443 L2031.73 339.322 L2026.84 339.322 L2026.84 333.443 Z" fill="#000000" fill-rule="evenodd" fill-opacity="1" /><path clip-path="url(#clip880)" d="M 0 0 M2046.8 307.841 Q2043.18 307.841 2041.36 311.406 Q2039.55 314.947 2039.55 322.077 Q2039.55 329.183 2041.36 332.748 Q2043.18 336.29 2046.8 336.29 Q2050.43 336.29 2052.24 332.748 Q2054.06 329.183 2054.06 322.077 Q2054.06 314.947 2052.24 311.406 Q2050.43 307.841 2046.8 307.841 M2046.8 304.137 Q2052.61 304.137 2055.66 308.744 Q2058.74 313.327 2058.74 322.077 Q2058.74 330.804 2055.66 335.41 Q2052.61 339.994 2046.8 339.994 Q2040.99 339.994 2037.91 335.41 Q2034.85 330.804 2034.85 322.077 Q2034.85 313.327 2037.91 308.744 Q2040.99 304.137 2046.8 304.137 Z" fill="#000000" fill-rule="evenodd" fill-opacity="1" /><path clip-path="url(#clip880)" d="M 0 0 M2006.45 194.084 L2022.77 194.084 L2022.77 198.019 L2000.82 198.019 L2000.82 194.084 Q2003.49 191.329 2008.07 186.7 Q2012.68 182.047 2013.86 180.705 Q2016.1 178.181 2016.98 176.445 Q2017.88 174.686 2017.88 172.996 Q2017.88 170.242 2015.94 168.506 Q2014.02 166.769 2010.92 166.769 Q2008.72 166.769 2006.26 167.533 Q2003.83 168.297 2001.06 169.848 L2001.06 165.126 Q2003.88 163.992 2006.33 163.413 Q2008.79 162.834 2010.82 162.834 Q2016.19 162.834 2019.39 165.519 Q2022.58 168.205 2022.58 172.695 Q2022.58 174.825 2021.77 176.746 Q2020.99 178.644 2018.88 181.237 Q2018.3 181.908 2015.2 185.126 Q2012.1 188.32 2006.45 194.084 Z" fill="#000000" fill-rule="evenodd" fill-opacity="1" /><path clip-path="url(#clip880)" d="M 0 0 M2027.84 192.14 L2032.72 192.14 L2032.72 198.019 L2027.84 198.019 L2027.84 192.14 Z" fill="#000000" fill-rule="evenodd" fill-opacity="1" /><path clip-path="url(#clip880)" d="M 0 0 M2037.84 163.459 L2056.19 163.459 L2056.19 167.394 L2042.12 167.394 L2042.12 175.867 Q2043.14 175.519 2044.16 175.357 Q2045.18 175.172 2046.19 175.172 Q2051.98 175.172 2055.36 178.343 Q2058.74 181.515 2058.74 186.931 Q2058.74 192.51 2055.27 195.612 Q2051.8 198.691 2045.48 198.691 Q2043.3 198.691 2041.03 198.32 Q2038.79 197.95 2036.38 197.209 L2036.38 192.51 Q2038.46 193.644 2040.68 194.2 Q2042.91 194.755 2045.38 194.755 Q2049.39 194.755 2051.73 192.649 Q2054.06 190.542 2054.06 186.931 Q2054.06 183.32 2051.73 181.214 Q2049.39 179.107 2045.38 179.107 Q2043.51 179.107 2041.63 179.524 Q2039.78 179.941 2037.84 180.82 L2037.84 163.459 Z" fill="#000000" fill-rule="evenodd" fill-opacity="1" /><path clip-path="url(#clip880)" d="M 0 0 M1921.39 588.579 L1958.34 588.579 L1958.34 580.813 Q1958.34 570.978 1953.89 566.427 Q1949.43 561.843 1939.82 561.843 Q1930.27 561.843 1925.85 566.427 Q1921.39 570.978 1921.39 580.813 L1921.39 588.579 M1916.11 595.009 L1916.11 581.8 Q1916.11 567.986 1921.87 561.525 Q1927.6 555.064 1939.82 555.064 Q1952.11 555.064 1957.87 561.557 Q1963.63 568.05 1963.63 581.8 L1963.63 595.009 L1916.11 595.009 Z" fill="#000000" fill-rule="evenodd" fill-opacity="1" /><path clip-path="url(#clip880)" d="M 0 0 M1944.34 518.429 L1947.2 518.429 L1947.2 545.356 Q1953.25 544.974 1956.43 541.728 Q1959.59 538.449 1959.59 532.625 Q1959.59 529.251 1958.76 526.1 Q1957.93 522.917 1956.28 519.798 L1961.81 519.798 Q1963.15 522.949 1963.85 526.259 Q1964.55 529.569 1964.55 532.975 Q1964.55 541.505 1959.59 546.502 Q1954.62 551.467 1946.15 551.467 Q1937.4 551.467 1932.28 546.757 Q1927.12 542.014 1927.12 533.993 Q1927.12 526.8 1931.77 522.631 Q1936.38 518.429 1944.34 518.429 M1942.62 524.286 Q1937.82 524.349 1934.95 526.991 Q1932.09 529.601 1932.09 533.93 Q1932.09 538.831 1934.86 541.791 Q1937.62 544.72 1942.65 545.165 L1942.62 524.286 Z" fill="#000000" fill-rule="evenodd" fill-opacity="1" /><path clip-path="url(#clip880)" d="M 0 0 M1942.11 482.654 L1963.63 482.654 L1963.63 488.511 L1942.3 488.511 Q1937.24 488.511 1934.73 490.484 Q1932.21 492.457 1932.21 496.404 Q1932.21 501.146 1935.24 503.884 Q1938.26 506.621 1943.48 506.621 L1963.63 506.621 L1963.63 512.509 L1927.98 512.509 L1927.98 506.621 L1933.52 506.621 Q1930.3 504.52 1928.71 501.688 Q1927.12 498.823 1927.12 495.099 Q1927.12 488.956 1930.94 485.805 Q1934.73 482.654 1942.11 482.654 Z" fill="#000000" fill-rule="evenodd" fill-opacity="1" /><path clip-path="url(#clip880)" d="M 0 0 M1929.03 453.786 L1934.57 453.786 Q1933.3 456.268 1932.66 458.942 Q1932.02 461.615 1932.02 464.48 Q1932.02 468.84 1933.36 471.037 Q1934.7 473.201 1937.37 473.201 Q1939.41 473.201 1940.58 471.641 Q1941.73 470.082 1942.78 465.371 L1943.23 463.366 Q1944.56 457.128 1947.01 454.518 Q1949.43 451.876 1953.79 451.876 Q1958.76 451.876 1961.65 455.823 Q1964.55 459.738 1964.55 466.612 Q1964.55 469.477 1963.98 472.596 Q1963.44 475.684 1962.32 479.121 L1956.28 479.121 Q1957.96 475.875 1958.82 472.724 Q1959.65 469.573 1959.65 466.485 Q1959.65 462.347 1958.25 460.119 Q1956.82 457.891 1954.24 457.891 Q1951.85 457.891 1950.58 459.515 Q1949.31 461.106 1948.13 466.549 L1947.65 468.586 Q1946.5 474.029 1944.15 476.448 Q1941.76 478.866 1937.62 478.866 Q1932.6 478.866 1929.86 475.302 Q1927.12 471.737 1927.12 465.18 Q1927.12 461.934 1927.6 459.069 Q1928.08 456.205 1929.03 453.786 Z" fill="#000000" fill-rule="evenodd" fill-opacity="1" /><path clip-path="url(#clip880)" d="M 0 0 M1927.98 445.733 L1927.98 439.877 L1963.63 439.877 L1963.63 445.733 L1927.98 445.733 M1914.1 445.733 L1914.1 439.877 L1921.52 439.877 L1921.52 445.733 L1914.1 445.733 Z" fill="#000000" fill-rule="evenodd" fill-opacity="1" /><path clip-path="url(#clip880)" d="M 0 0 M1917.86 427.941 L1927.98 427.941 L1927.98 415.878 L1932.53 415.878 L1932.53 427.941 L1951.88 427.941 Q1956.24 427.941 1957.49 426.763 Q1958.73 425.554 1958.73 421.893 L1958.73 415.878 L1963.63 415.878 L1963.63 421.893 Q1963.63 428.673 1961.11 431.251 Q1958.57 433.829 1951.88 433.829 L1932.53 433.829 L1932.53 438.126 L1927.98 438.126 L1927.98 433.829 L1917.86 433.829 L1917.86 427.941 Z" fill="#000000" fill-rule="evenodd" fill-opacity="1" /><path clip-path="url(#clip880)" d="M 0 0 M1966.94 394.903 Q1973.3 397.385 1975.25 399.741 Q1977.19 402.096 1977.19 406.043 L1977.19 410.722 L1972.29 410.722 L1972.29 407.284 Q1972.29 404.865 1971.14 403.528 Q1969.99 402.192 1965.73 400.568 L1963.06 399.518 L1927.98 413.936 L1927.98 407.73 L1955.86 396.59 L1927.98 385.45 L1927.98 379.243 L1966.94 394.903 Z" fill="#000000" fill-rule="evenodd" fill-opacity="1" /><path clip-path="url(#clip880)" d="M 0 0 M3048.63 43.8146 L3022.83 43.8146 Q3023.43 55.9268 3026.23 61.0714 Q3029.71 67.3908 3035.75 67.3908 Q3041.82 67.3908 3045.19 61.0309 Q3048.14 55.4407 3048.63 43.8146 M3048.51 36.928 Q3047.37 25.4235 3045.19 21.3726 Q3041.7 14.9721 3035.75 14.9721 Q3029.55 14.9721 3026.27 21.2916 Q3023.68 26.3957 3022.91 36.928 L3048.51 36.928 M3035.75 8.89579 Q3045.47 8.89579 3051.02 17.4837 Q3056.57 26.0311 3056.57 41.1815 Q3056.57 56.2914 3051.02 64.8793 Q3045.47 73.5077 3035.75 73.5077 Q3025.99 73.5077 3020.48 64.8793 Q3014.93 56.2914 3014.93 41.1815 Q3014.93 26.0311 3020.48 17.4837 Q3025.99 8.89579 3035.75 8.89579 Z" fill="#000000" fill-rule="evenodd" fill-opacity="1" /><polyline clip-path="url(#clip883)" style="stroke:#009af9; stroke-width:4; stroke-opacity:1; fill:none" points="
  2170.65,887.252 2179.34,887.252 2188.04,887.25 2196.73,887.246 2205.42,887.24 2214.12,887.23 2222.81,887.214 2231.51,887.188 2240.2,887.15 2248.9,887.094 
  2257.59,887.014 2266.29,886.903 2274.98,886.756 2283.67,886.565 2292.37,886.327 2301.06,886.038 2309.76,885.7 2318.45,885.317 2327.15,884.899 2335.84,884.456 
  2344.54,884.003 2353.23,883.556 2361.93,883.127 2370.62,882.726 2379.31,882.359 2388.01,882.022 2396.7,881.709 2405.4,881.403 2414.09,881.085 2422.79,880.731 
  2431.48,880.317 2440.18,879.815 2448.87,879.203 2457.56,878.459 2466.26,877.569 2474.95,876.524 2483.65,875.32 2492.34,873.96 2501.04,872.449 2509.73,870.794 
  2518.43,868.99 2527.12,867.022 2535.81,864.857 2544.51,862.437 2553.2,859.682 2561.9,856.495 2570.59,852.767 2579.29,848.392 2587.98,843.283 2596.68,837.383 
  2605.37,830.68 2614.07,823.209 2622.76,815.056 2631.45,806.344 2640.15,797.22 2648.84,787.833 2657.54,778.315 2666.23,768.764 2674.93,759.233 2683.62,749.726 
  2692.32,740.211 2701.01,730.633 2709.7,720.933 2718.4,711.067 2727.09,701.026 2735.79,690.833 2744.48,680.548 2753.18,670.252 2761.87,660.03 2770.57,649.956 
  2779.26,640.073 2787.96,630.39 2796.65,620.877 2805.34,611.475 2814.04,602.101 2822.73,592.666 2831.43,583.08 2840.12,573.251 2848.82,563.087 2857.51,552.485 
  2866.21,541.325 2874.9,529.467 2883.59,516.752 2892.29,503.021 2900.98,488.135 2909.68,472.005 2918.37,454.626 2927.07,436.093 2935.76,416.621 2944.46,396.54 
  2953.15,376.272 2961.84,356.301 2970.54,337.127 2979.23,319.215 2987.93,302.948 2996.62,288.588 3005.32,276.245 3014.01,265.866 3022.71,257.24 3031.4,250.017 
  3040.1,243.744 3048.79,237.909 3057.48,231.995 3066.18,225.529 3074.87,218.128 3083.57,209.537 3092.26,199.642 3100.96,188.482 3109.65,176.239 3118.35,163.217 
  3127.04,149.817 3135.73,136.515 3144.43,123.825 3153.12,112.277 3161.82,102.385 3170.51,94.6247 3179.21,89.3961 3187.9,86.9997 3196.6,87.6071 3205.29,91.2408 
  3213.99,97.7641 3222.68,106.886 3231.37,118.18 3240.07,131.121 3248.76,145.129 3257.46,159.621 3266.15,174.059 3274.85,187.988 3283.54,201.068 3292.24,213.081 
  3300.93,223.931 3309.62,233.636 3318.32,242.309 3327.01,250.14 3335.71,257.384 3344.4,264.338 3353.1,271.338 3361.79,278.733 3370.49,286.876 3379.18,296.088 
  3387.87,306.637 3396.57,318.706 3405.26,332.371 3413.96,347.589 3422.65,364.197 3431.35,381.938 3440.04,400.491 3448.74,419.518 3457.43,438.704 3466.13,457.803 
  3474.82,476.66 3483.51,495.218 3492.21,513.512 3500.9,531.641 3509.6,549.733 3518.29,567.908 3526.99,586.248 3535.68,604.772 3544.38,623.427 3553.07,642.095 
  3561.76,660.608 3570.46,678.772 3579.15,696.394 3587.85,713.306 3596.54,729.378 3605.24,744.534 3613.93,758.742 3622.63,772.016 3631.32,784.394 3640.02,795.931 
  3648.71,806.68 3657.4,816.685 3666.1,825.974 3674.79,834.559 3683.49,842.438 3692.18,849.602 3700.88,856.04 3709.57,861.747 3718.27,866.728 3726.96,871.004 
  3735.65,874.607 3744.35,877.586 3753.04,879.999 3761.74,881.914 3770.43,883.402 3779.13,884.531 3787.82,885.37 3796.52,885.978 3805.21,886.409 3813.9,886.707 
  3822.6,886.908 3831.29,887.04 3839.99,887.125 3848.68,887.178 3857.38,887.211 3866.07,887.23 3874.77,887.241 3883.46,887.247 3892.16,887.25 3900.85,887.252 
  
  "/>
</svg>
